<?xml version="1.0" encoding="UTF-8" standalone="no"?>
<!DOCTYPE svg PUBLIC "-//W3C//DTD SVG 1.1//EN"
 "http://www.w3.org/Graphics/SVG/1.1/DTD/svg11.dtd">
<!-- Generated by graphviz version 2.36.0 (20140111.2315)
 -->
<!-- Title: clingo2dot Pages: 1 -->
<svg width="864pt" height="143pt"
 viewBox="0.00 0.00 864.00 143.00" xmlns="http://www.w3.org/2000/svg" xmlns:xlink="http://www.w3.org/1999/xlink">
<g id="graph0" class="graph" transform="scale(1 1) rotate(0) translate(4 139)">
<title>clingo2dot</title>
<polygon fill="white" stroke="none" points="-4,4 -4,-139 860,-139 860,4 -4,4"/>
<!-- n78 -->
<g id="node1" class="node"><title>n78</title>
<polygon fill="#cae1ff" stroke="black" points="602,-49 436,-49 436,-13 602,-13 602,-49"/>
<text text-anchor="middle" x="519" y="-33.6" font-family="Helvetica,sans-Serif" font-size="8.00">node_id:76</text>
<text text-anchor="middle" x="519" y="-24.6" font-family="Helvetica,sans-Serif" font-size="8.00">name:[&#39;/home/vagrant/ProvMark/stage/test.txt&#39;]</text>
<text text-anchor="middle" x="519" y="-15.6" font-family="Helvetica,sans-Serif" font-size="8.00">type:2</text>
</g>
<!-- n77 -->
<g id="node6" class="node"><title>n77</title>
<polygon fill="#cae1ff" stroke="black" points="348,-69.5 294,-69.5 294,-24.5 348,-24.5 348,-69.5"/>
<text text-anchor="middle" x="321" y="-54.1" font-family="Helvetica,sans-Serif" font-size="8.00">node_id:75</text>
<text text-anchor="middle" x="321" y="-45.1" font-family="Helvetica,sans-Serif" font-size="8.00">ref_count:1</text>
<text text-anchor="middle" x="321" y="-36.1" font-family="Helvetica,sans-Serif" font-size="8.00">name:omega</text>
<text text-anchor="middle" x="321" y="-27.1" font-family="Helvetica,sans-Serif" font-size="8.00">type:4</text>
</g>
<!-- n78&#45;&gt;n77 -->
<g id="edge4" class="edge"><title>n78&#45;&gt;n77</title>
<path fill="none" stroke="blue" d="M435.935,-26.7276C413.158,-26.8444 388.507,-28.1929 366,-32 363.332,-32.4513 360.608,-33.0418 357.888,-33.7272"/>
<polygon fill="blue" stroke="blue" points="356.797,-30.3993 348.167,-36.5458 358.746,-37.1224 356.797,-30.3993"/>
<text text-anchor="middle" x="392" y="-43.6" font-family="Helvetica,sans-Serif" font-size="8.00">state:0</text>
<text text-anchor="middle" x="392" y="-34.6" font-family="Helvetica,sans-Serif" font-size="8.00">type:relatedTo</text>
</g>
<!-- n3 -->
<g id="node2" class="node"><title>n3</title>
<ellipse fill="green" stroke="black" cx="103" cy="-111" rx="27" ry="18"/>
<text text-anchor="middle" x="103" y="-109.1" font-family="Helvetica,sans-Serif" font-size="8.00">Dummy Node</text>
</g>
<!-- n79 -->
<g id="node3" class="node"><title>n79</title>
<polygon fill="#cae1ff" stroke="black" points="856,-49 690,-49 690,-13 856,-13 856,-49"/>
<text text-anchor="middle" x="773" y="-33.6" font-family="Helvetica,sans-Serif" font-size="8.00">node_id:77</text>
<text text-anchor="middle" x="773" y="-24.6" font-family="Helvetica,sans-Serif" font-size="8.00">name:[&#39;/home/vagrant/ProvMark/stage/test.txt&#39;]</text>
<text text-anchor="middle" x="773" y="-15.6" font-family="Helvetica,sans-Serif" font-size="8.00">type:2</text>
</g>
<!-- n79&#45;&gt;n78 -->
<g id="edge1" class="edge"><title>n79&#45;&gt;n78</title>
<path fill="none" stroke="blue" d="M689.834,-31C664.982,-31 637.53,-31 612.075,-31"/>
<polygon fill="blue" stroke="blue" points="612.054,-27.5001 602.054,-31 612.054,-34.5001 612.054,-27.5001"/>
<text text-anchor="middle" x="646" y="-42.6" font-family="Helvetica,sans-Serif" font-size="8.00">state:0</text>
<text text-anchor="middle" x="646" y="-33.6" font-family="Helvetica,sans-Serif" font-size="8.00">type:relatedTo</text>
</g>
<!-- n80 -->
<g id="node4" class="node"><title>n80</title>
<polygon fill="#cae1ff" stroke="black" points="546,-128.5 492,-128.5 492,-83.5 546,-83.5 546,-128.5"/>
<text text-anchor="middle" x="519" y="-113.1" font-family="Helvetica,sans-Serif" font-size="8.00">node_id:78</text>
<text text-anchor="middle" x="519" y="-104.1" font-family="Helvetica,sans-Serif" font-size="8.00">ref_count:0</text>
<text text-anchor="middle" x="519" y="-95.1" font-family="Helvetica,sans-Serif" font-size="8.00">name:omega</text>
<text text-anchor="middle" x="519" y="-86.1" font-family="Helvetica,sans-Serif" font-size="8.00">type:4</text>
</g>
<!-- n80&#45;&gt;n3 -->
<g id="edge2" class="edge"><title>n80&#45;&gt;n3</title>
<path fill="none" stroke="blue" d="M491.788,-106.317C420.355,-107.179 222.14,-109.573 140.184,-110.563"/>
<polygon fill="blue" stroke="blue" points="140.054,-107.064 130.097,-110.685 140.139,-114.064 140.054,-107.064"/>
<text text-anchor="middle" x="321" y="-119.6" font-family="Helvetica,sans-Serif" font-size="8.00">state:5</text>
<text text-anchor="middle" x="321" y="-110.6" font-family="Helvetica,sans-Serif" font-size="8.00">type:relatedTo</text>
</g>
<!-- n80&#45;&gt;n77 -->
<g id="edge3" class="edge"><title>n80&#45;&gt;n77</title>
<path fill="none" stroke="blue" d="M491.973,-98.1653C457.56,-87.8064 396.76,-69.5042 357.972,-57.8282"/>
<polygon fill="blue" stroke="blue" points="358.719,-54.3982 348.135,-54.8671 356.702,-61.1011 358.719,-54.3982"/>
<text text-anchor="middle" x="392" y="-86.6" font-family="Helvetica,sans-Serif" font-size="8.00">state:0</text>
<text text-anchor="middle" x="392" y="-77.6" font-family="Helvetica,sans-Serif" font-size="8.00">type:relatedTo</text>
</g>
<!-- n81 -->
<g id="node5" class="node"><title>n81</title>
<polygon fill="#cae1ff" stroke="black" points="206,-62.5 0,-62.5 0,0.5 206,0.5 206,-62.5"/>
<text text-anchor="middle" x="103" y="-47.1" font-family="Helvetica,sans-Serif" font-size="8.00">ret:0</text>
<text text-anchor="middle" x="103" y="-38.1" font-family="Helvetica,sans-Serif" font-size="8.00">arg_values:[&#39;/home/vagrant/ProvMark/stage/test.txt&#39;, &#39;420&#39;]</text>
<text text-anchor="middle" x="103" y="-29.1" font-family="Helvetica,sans-Serif" font-size="8.00">node_id:79</text>
<text text-anchor="middle" x="103" y="-20.1" font-family="Helvetica,sans-Serif" font-size="8.00">arg_keys:[&#39;path&#39;, &#39;mode&#39;]</text>
<text text-anchor="middle" x="103" y="-11.1" font-family="Helvetica,sans-Serif" font-size="8.00">fn:chmod</text>
<text text-anchor="middle" x="103" y="-2.1" font-family="Helvetica,sans-Serif" font-size="8.00">type:5</text>
</g>
<!-- n77&#45;&gt;n3 -->
<g id="edge6" class="edge"><title>n77&#45;&gt;n3</title>
<path fill="none" stroke="blue" d="M293.945,-54.7199C254.887,-66.2927 181.141,-88.1435 137.927,-100.948"/>
<polygon fill="blue" stroke="blue" points="136.749,-97.646 128.156,-103.843 138.738,-104.358 136.749,-97.646"/>
<text text-anchor="middle" x="250" y="-87.6" font-family="Helvetica,sans-Serif" font-size="8.00">state:10</text>
<text text-anchor="middle" x="250" y="-78.6" font-family="Helvetica,sans-Serif" font-size="8.00">type:relatedTo</text>
</g>
<!-- n77&#45;&gt;n81 -->
<g id="edge5" class="edge"><title>n77&#45;&gt;n81</title>
<path fill="none" stroke="blue" d="M293.833,-36.5424C288.05,-34.6664 281.889,-32.9938 276,-32 256.856,-28.7693 236.342,-27.1151 216.389,-26.4449"/>
<polygon fill="blue" stroke="blue" points="216.419,-22.9447 206.333,-26.1867 216.239,-29.9424 216.419,-22.9447"/>
<text text-anchor="middle" x="250" y="-43.6" font-family="Helvetica,sans-Serif" font-size="8.00">state:0</text>
<text text-anchor="middle" x="250" y="-34.6" font-family="Helvetica,sans-Serif" font-size="8.00">type:relatedTo</text>
</g>
</g>
</svg>
