<?xml version="1.0" encoding="UTF-8" standalone="no"?>
<!DOCTYPE svg PUBLIC "-//W3C//DTD SVG 1.1//EN"
 "http://www.w3.org/Graphics/SVG/1.1/DTD/svg11.dtd">
<!-- Generated by graphviz version 2.36.0 (20140111.2315)
 -->
<!-- Title: clingo2dot Pages: 1 -->
<svg width="912pt" height="143pt"
 viewBox="0.00 0.00 912.00 143.00" xmlns="http://www.w3.org/2000/svg" xmlns:xlink="http://www.w3.org/1999/xlink">
<g id="graph0" class="graph" transform="scale(1 1) rotate(0) translate(4 139)">
<title>clingo2dot</title>
<polygon fill="white" stroke="none" points="-4,4 -4,-139 908,-139 908,4 -4,4"/>
<!-- n77 -->
<g id="node1" class="node"><title>n77</title>
<polygon fill="#cae1ff" stroke="black" points="396,-69.5 342,-69.5 342,-24.5 396,-24.5 396,-69.5"/>
<text text-anchor="middle" x="369" y="-54.1" font-family="Helvetica,sans-Serif" font-size="8.00">node_id:75</text>
<text text-anchor="middle" x="369" y="-45.1" font-family="Helvetica,sans-Serif" font-size="8.00">name:omega</text>
<text text-anchor="middle" x="369" y="-36.1" font-family="Helvetica,sans-Serif" font-size="8.00">ref_count:1</text>
<text text-anchor="middle" x="369" y="-27.1" font-family="Helvetica,sans-Serif" font-size="8.00">type:4</text>
</g>
<!-- n3 -->
<g id="node3" class="node"><title>n3</title>
<ellipse fill="green" stroke="black" cx="127" cy="-111" rx="27" ry="18"/>
<text text-anchor="middle" x="127" y="-109.1" font-family="Helvetica,sans-Serif" font-size="8.00">Dummy Node</text>
</g>
<!-- n77&#45;&gt;n3 -->
<g id="edge2" class="edge"><title>n77&#45;&gt;n3</title>
<path fill="none" stroke="blue" d="M341.95,-54.1366C336.05,-55.7441 329.811,-57.4368 324,-59 267.358,-74.2374 201.424,-91.6668 162.284,-101.981"/>
<polygon fill="blue" stroke="blue" points="161.238,-98.6371 152.46,-104.569 163.021,-105.406 161.238,-98.6371"/>
<text text-anchor="middle" x="298" y="-83.6" font-family="Helvetica,sans-Serif" font-size="8.00">state:10</text>
<text text-anchor="middle" x="298" y="-74.6" font-family="Helvetica,sans-Serif" font-size="8.00">type:relatedTo</text>
</g>
<!-- n81 -->
<g id="node5" class="node"><title>n81</title>
<polygon fill="#cae1ff" stroke="black" points="254,-62.5 -1.42109e-14,-62.5 -1.42109e-14,0.5 254,0.5 254,-62.5"/>
<text text-anchor="middle" x="127" y="-47.1" font-family="Helvetica,sans-Serif" font-size="8.00">arg_keys:[&#39;path&#39;, &#39;owner&#39;, &#39;group&#39;]</text>
<text text-anchor="middle" x="127" y="-38.1" font-family="Helvetica,sans-Serif" font-size="8.00">arg_values:[&#39;/home/vagrant/ProvMark/stage/test.txt&#39;, &#39;vagrant&#39;, &#39;vagrant&#39;]</text>
<text text-anchor="middle" x="127" y="-29.1" font-family="Helvetica,sans-Serif" font-size="8.00">ret:0</text>
<text text-anchor="middle" x="127" y="-20.1" font-family="Helvetica,sans-Serif" font-size="8.00">node_id:79</text>
<text text-anchor="middle" x="127" y="-11.1" font-family="Helvetica,sans-Serif" font-size="8.00">fn:chown</text>
<text text-anchor="middle" x="127" y="-2.1" font-family="Helvetica,sans-Serif" font-size="8.00">type:5</text>
</g>
<!-- n77&#45;&gt;n81 -->
<g id="edge4" class="edge"><title>n77&#45;&gt;n81</title>
<path fill="none" stroke="blue" d="M341.834,-36.5392C336.05,-34.6635 329.889,-32.9917 324,-32 304.839,-28.7734 284.474,-26.9365 264.395,-26.0298"/>
<polygon fill="blue" stroke="blue" points="264.375,-22.5266 254.25,-25.6477 264.112,-29.5217 264.375,-22.5266"/>
<text text-anchor="middle" x="298" y="-43.6" font-family="Helvetica,sans-Serif" font-size="8.00">state:0</text>
<text text-anchor="middle" x="298" y="-34.6" font-family="Helvetica,sans-Serif" font-size="8.00">type:relatedTo</text>
</g>
<!-- n79 -->
<g id="node2" class="node"><title>n79</title>
<polygon fill="#cae1ff" stroke="black" points="904,-49 738,-49 738,-13 904,-13 904,-49"/>
<text text-anchor="middle" x="821" y="-33.6" font-family="Helvetica,sans-Serif" font-size="8.00">node_id:77</text>
<text text-anchor="middle" x="821" y="-24.6" font-family="Helvetica,sans-Serif" font-size="8.00">name:[&#39;/home/vagrant/ProvMark/stage/test.txt&#39;]</text>
<text text-anchor="middle" x="821" y="-15.6" font-family="Helvetica,sans-Serif" font-size="8.00">type:2</text>
</g>
<!-- n78 -->
<g id="node6" class="node"><title>n78</title>
<polygon fill="#cae1ff" stroke="black" points="650,-49 484,-49 484,-13 650,-13 650,-49"/>
<text text-anchor="middle" x="567" y="-33.6" font-family="Helvetica,sans-Serif" font-size="8.00">node_id:76</text>
<text text-anchor="middle" x="567" y="-24.6" font-family="Helvetica,sans-Serif" font-size="8.00">name:[&#39;/home/vagrant/ProvMark/stage/test.txt&#39;]</text>
<text text-anchor="middle" x="567" y="-15.6" font-family="Helvetica,sans-Serif" font-size="8.00">type:2</text>
</g>
<!-- n79&#45;&gt;n78 -->
<g id="edge6" class="edge"><title>n79&#45;&gt;n78</title>
<path fill="none" stroke="blue" d="M737.834,-31C712.982,-31 685.53,-31 660.075,-31"/>
<polygon fill="blue" stroke="blue" points="660.054,-27.5001 650.054,-31 660.054,-34.5001 660.054,-27.5001"/>
<text text-anchor="middle" x="694" y="-42.6" font-family="Helvetica,sans-Serif" font-size="8.00">state:0</text>
<text text-anchor="middle" x="694" y="-33.6" font-family="Helvetica,sans-Serif" font-size="8.00">type:relatedTo</text>
</g>
<!-- n80 -->
<g id="node4" class="node"><title>n80</title>
<polygon fill="#cae1ff" stroke="black" points="594,-128.5 540,-128.5 540,-83.5 594,-83.5 594,-128.5"/>
<text text-anchor="middle" x="567" y="-113.1" font-family="Helvetica,sans-Serif" font-size="8.00">node_id:78</text>
<text text-anchor="middle" x="567" y="-104.1" font-family="Helvetica,sans-Serif" font-size="8.00">name:omega</text>
<text text-anchor="middle" x="567" y="-95.1" font-family="Helvetica,sans-Serif" font-size="8.00">ref_count:0</text>
<text text-anchor="middle" x="567" y="-86.1" font-family="Helvetica,sans-Serif" font-size="8.00">type:4</text>
</g>
<!-- n80&#45;&gt;n77 -->
<g id="edge1" class="edge"><title>n80&#45;&gt;n77</title>
<path fill="none" stroke="blue" d="M539.973,-98.1653C505.56,-87.8064 444.76,-69.5042 405.972,-57.8282"/>
<polygon fill="blue" stroke="blue" points="406.719,-54.3982 396.135,-54.8671 404.702,-61.1011 406.719,-54.3982"/>
<text text-anchor="middle" x="440" y="-86.6" font-family="Helvetica,sans-Serif" font-size="8.00">state:0</text>
<text text-anchor="middle" x="440" y="-77.6" font-family="Helvetica,sans-Serif" font-size="8.00">type:relatedTo</text>
</g>
<!-- n80&#45;&gt;n3 -->
<g id="edge5" class="edge"><title>n80&#45;&gt;n3</title>
<path fill="none" stroke="blue" d="M539.913,-106.298C465.218,-107.15 250.384,-109.603 164.306,-110.586"/>
<polygon fill="blue" stroke="blue" points="164.186,-107.087 154.227,-110.701 164.266,-114.086 164.186,-107.087"/>
<text text-anchor="middle" x="369" y="-119.6" font-family="Helvetica,sans-Serif" font-size="8.00">state:5</text>
<text text-anchor="middle" x="369" y="-110.6" font-family="Helvetica,sans-Serif" font-size="8.00">type:relatedTo</text>
</g>
<!-- n78&#45;&gt;n77 -->
<g id="edge3" class="edge"><title>n78&#45;&gt;n77</title>
<path fill="none" stroke="blue" d="M483.935,-26.7276C461.158,-26.8444 436.507,-28.1929 414,-32 411.332,-32.4513 408.608,-33.0418 405.888,-33.7272"/>
<polygon fill="blue" stroke="blue" points="404.797,-30.3993 396.167,-36.5458 406.746,-37.1224 404.797,-30.3993"/>
<text text-anchor="middle" x="440" y="-43.6" font-family="Helvetica,sans-Serif" font-size="8.00">state:0</text>
<text text-anchor="middle" x="440" y="-34.6" font-family="Helvetica,sans-Serif" font-size="8.00">type:relatedTo</text>
</g>
</g>
</svg>
