<?xml version="1.0" encoding="UTF-8" standalone="no"?>
<!DOCTYPE svg PUBLIC "-//W3C//DTD SVG 1.1//EN"
 "http://www.w3.org/Graphics/SVG/1.1/DTD/svg11.dtd">
<!-- Generated by graphviz version 2.36.0 (20140111.2315)
 -->
<!-- Title: clingo2dot Pages: 1 -->
<svg width="360pt" height="70pt"
 viewBox="0.00 0.00 360.00 70.00" xmlns="http://www.w3.org/2000/svg" xmlns:xlink="http://www.w3.org/1999/xlink">
<g id="graph0" class="graph" transform="scale(1 1) rotate(0) translate(4 66)">
<title>clingo2dot</title>
<polygon fill="white" stroke="none" points="-4,4 -4,-66 356,-66 356,4 -4,4"/>
<!-- n82 -->
<g id="node1" class="node"><title>n82</title>
<polygon fill="#cae1ff" stroke="black" points="352,-62.5 298,-62.5 298,0.5 352,0.5 352,-62.5"/>
<text text-anchor="middle" x="325" y="-47.1" font-family="Helvetica,sans-Serif" font-size="8.00">arg_values:[&#39;3&#39;]</text>
<text text-anchor="middle" x="325" y="-38.1" font-family="Helvetica,sans-Serif" font-size="8.00">fn:close</text>
<text text-anchor="middle" x="325" y="-29.1" font-family="Helvetica,sans-Serif" font-size="8.00">arg_keys:[&#39;fd&#39;]</text>
<text text-anchor="middle" x="325" y="-20.1" font-family="Helvetica,sans-Serif" font-size="8.00">node_id:80</text>
<text text-anchor="middle" x="325" y="-11.1" font-family="Helvetica,sans-Serif" font-size="8.00">ret:0</text>
<text text-anchor="middle" x="325" y="-2.1" font-family="Helvetica,sans-Serif" font-size="8.00">type:5</text>
</g>
<!-- n79 -->
<g id="node2" class="node"><title>n79</title>
<polygon fill="#cae1ff" stroke="black" points="209.5,-62.5 0.5,-62.5 0.5,0.5 209.5,0.5 209.5,-62.5"/>
<text text-anchor="middle" x="105" y="-47.1" font-family="Helvetica,sans-Serif" font-size="8.00">arg_values:[&#39;/home/vagrant/ProvMark/stage/test.txt&#39;, &#39;2&#39;, &#39;0&#39;]</text>
<text text-anchor="middle" x="105" y="-38.1" font-family="Helvetica,sans-Serif" font-size="8.00">fn:open</text>
<text text-anchor="middle" x="105" y="-29.1" font-family="Helvetica,sans-Serif" font-size="8.00">arg_keys:[&#39;pathname&#39;, &#39;flags&#39;, &#39;mode&#39;]</text>
<text text-anchor="middle" x="105" y="-20.1" font-family="Helvetica,sans-Serif" font-size="8.00">node_id:77</text>
<text text-anchor="middle" x="105" y="-11.1" font-family="Helvetica,sans-Serif" font-size="8.00">ret:3</text>
<text text-anchor="middle" x="105" y="-2.1" font-family="Helvetica,sans-Serif" font-size="8.00">type:5</text>
</g>
<!-- n82&#45;&gt;n79 -->
<g id="edge1" class="edge"><title>n82&#45;&gt;n79</title>
<path fill="none" stroke="blue" d="M297.704,-31C277.849,-31 249.112,-31 219.905,-31"/>
<polygon fill="blue" stroke="blue" points="219.568,-27.5001 209.568,-31 219.568,-34.5001 219.568,-27.5001"/>
<text text-anchor="middle" x="254" y="-42.6" font-family="Helvetica,sans-Serif" font-size="8.00">state:0</text>
<text text-anchor="middle" x="254" y="-33.6" font-family="Helvetica,sans-Serif" font-size="8.00">type:relatedTo</text>
</g>
</g>
</svg>
