<?xml version="1.0" encoding="UTF-8" standalone="no"?>
<!DOCTYPE svg PUBLIC "-//W3C//DTD SVG 1.1//EN"
 "http://www.w3.org/Graphics/SVG/1.1/DTD/svg11.dtd">
<!-- Generated by graphviz version 2.36.0 (20140111.2315)
 -->
<!-- Title: clingo2dot Pages: 1 -->
<svg width="912pt" height="143pt"
 viewBox="0.00 0.00 912.00 143.00" xmlns="http://www.w3.org/2000/svg" xmlns:xlink="http://www.w3.org/1999/xlink">
<g id="graph0" class="graph" transform="scale(1 1) rotate(0) translate(4 139)">
<title>clingo2dot</title>
<polygon fill="white" stroke="none" points="-4,4 -4,-139 908,-139 908,4 -4,4"/>
<!-- n78 -->
<g id="node1" class="node"><title>n78</title>
<polygon fill="#cae1ff" stroke="black" points="633.5,-49 452.5,-49 452.5,-13 633.5,-13 633.5,-49"/>
<text text-anchor="middle" x="543" y="-33.6" font-family="Helvetica,sans-Serif" font-size="8.00">node_id:76</text>
<text text-anchor="middle" x="543" y="-24.6" font-family="Helvetica,sans-Serif" font-size="8.00">name:[&#39;/home/vagrant/ProvMark/stage/newtest.txt&#39;]</text>
<text text-anchor="middle" x="543" y="-15.6" font-family="Helvetica,sans-Serif" font-size="8.00">type:2</text>
</g>
<!-- n77 -->
<g id="node2" class="node"><title>n77</title>
<polygon fill="#cae1ff" stroke="black" points="364,-69.5 310,-69.5 310,-24.5 364,-24.5 364,-69.5"/>
<text text-anchor="middle" x="337" y="-54.1" font-family="Helvetica,sans-Serif" font-size="8.00">name:3</text>
<text text-anchor="middle" x="337" y="-45.1" font-family="Helvetica,sans-Serif" font-size="8.00">node_id:75</text>
<text text-anchor="middle" x="337" y="-36.1" font-family="Helvetica,sans-Serif" font-size="8.00">ref_count:1</text>
<text text-anchor="middle" x="337" y="-27.1" font-family="Helvetica,sans-Serif" font-size="8.00">type:4</text>
</g>
<!-- n78&#45;&gt;n77 -->
<g id="edge1" class="edge"><title>n78&#45;&gt;n77</title>
<path fill="none" stroke="blue" d="M452.278,-26.4936C429.246,-26.7203 404.597,-28.1815 382,-32 379.332,-32.4509 376.607,-33.041 373.888,-33.7262"/>
<polygon fill="blue" stroke="blue" points="372.797,-30.3983 364.167,-36.5443 374.746,-37.1214 372.797,-30.3983"/>
<text text-anchor="middle" x="408" y="-43.6" font-family="Helvetica,sans-Serif" font-size="8.00">state:3</text>
<text text-anchor="middle" x="408" y="-34.6" font-family="Helvetica,sans-Serif" font-size="8.00">type:relatedTo</text>
</g>
<!-- n3 -->
<g id="node5" class="node"><title>n3</title>
<ellipse fill="green" stroke="black" cx="111" cy="-111" rx="27" ry="18"/>
<text text-anchor="middle" x="111" y="-109.1" font-family="Helvetica,sans-Serif" font-size="8.00">Dummy Node</text>
</g>
<!-- n77&#45;&gt;n3 -->
<g id="edge6" class="edge"><title>n77&#45;&gt;n3</title>
<path fill="none" stroke="blue" d="M309.866,-54.4669C269.287,-66.0608 191.127,-88.3924 146.139,-101.246"/>
<polygon fill="blue" stroke="blue" points="144.918,-97.9548 136.264,-104.067 146.841,-104.686 144.918,-97.9548"/>
<text text-anchor="middle" x="266" y="-85.6" font-family="Helvetica,sans-Serif" font-size="8.00">state:10</text>
<text text-anchor="middle" x="266" y="-76.6" font-family="Helvetica,sans-Serif" font-size="8.00">type:relatedTo</text>
</g>
<!-- n79 -->
<g id="node6" class="node"><title>n79</title>
<polygon fill="#cae1ff" stroke="black" points="221.5,-62.5 0.5,-62.5 0.5,0.5 221.5,0.5 221.5,-62.5"/>
<text text-anchor="middle" x="111" y="-47.1" font-family="Helvetica,sans-Serif" font-size="8.00">ret:3</text>
<text text-anchor="middle" x="111" y="-38.1" font-family="Helvetica,sans-Serif" font-size="8.00">arg_values:[&#39;/home/vagrant/ProvMark/stage/newtest.txt&#39;, &#39;504&#39;]</text>
<text text-anchor="middle" x="111" y="-29.1" font-family="Helvetica,sans-Serif" font-size="8.00">fn:creat</text>
<text text-anchor="middle" x="111" y="-20.1" font-family="Helvetica,sans-Serif" font-size="8.00">node_id:77</text>
<text text-anchor="middle" x="111" y="-11.1" font-family="Helvetica,sans-Serif" font-size="8.00">arg_keys:[&#39;pathname&#39;, &#39;mode&#39;]</text>
<text text-anchor="middle" x="111" y="-2.1" font-family="Helvetica,sans-Serif" font-size="8.00">type:5</text>
</g>
<!-- n77&#45;&gt;n79 -->
<g id="edge5" class="edge"><title>n77&#45;&gt;n79</title>
<path fill="none" stroke="blue" d="M309.834,-36.5412C304.05,-34.6654 297.889,-32.9931 292,-32 272.756,-28.755 252.189,-27.0336 232.091,-26.2857"/>
<polygon fill="blue" stroke="blue" points="232.051,-22.7831 221.952,-25.9873 231.845,-29.7801 232.051,-22.7831"/>
<text text-anchor="middle" x="266" y="-43.6" font-family="Helvetica,sans-Serif" font-size="8.00">state:0</text>
<text text-anchor="middle" x="266" y="-34.6" font-family="Helvetica,sans-Serif" font-size="8.00">type:relatedTo</text>
</g>
<!-- n81 -->
<g id="node3" class="node"><title>n81</title>
<polygon fill="#cae1ff" stroke="black" points="570,-128.5 516,-128.5 516,-83.5 570,-83.5 570,-128.5"/>
<text text-anchor="middle" x="543" y="-113.1" font-family="Helvetica,sans-Serif" font-size="8.00">name:3</text>
<text text-anchor="middle" x="543" y="-104.1" font-family="Helvetica,sans-Serif" font-size="8.00">node_id:79</text>
<text text-anchor="middle" x="543" y="-95.1" font-family="Helvetica,sans-Serif" font-size="8.00">ref_count:0</text>
<text text-anchor="middle" x="543" y="-86.1" font-family="Helvetica,sans-Serif" font-size="8.00">type:4</text>
</g>
<!-- n81&#45;&gt;n77 -->
<g id="edge4" class="edge"><title>n81&#45;&gt;n77</title>
<path fill="none" stroke="blue" d="M515.748,-98.4076C479.638,-87.9639 414.51,-69.1279 373.912,-57.3862"/>
<polygon fill="blue" stroke="blue" points="374.73,-53.9794 364.151,-54.5633 372.785,-60.7039 374.73,-53.9794"/>
<text text-anchor="middle" x="408" y="-86.6" font-family="Helvetica,sans-Serif" font-size="8.00">state:0</text>
<text text-anchor="middle" x="408" y="-77.6" font-family="Helvetica,sans-Serif" font-size="8.00">type:relatedTo</text>
</g>
<!-- n81&#45;&gt;n3 -->
<g id="edge2" class="edge"><title>n81&#45;&gt;n3</title>
<path fill="none" stroke="blue" d="M515.749,-106.305C442.044,-107.162 233.07,-109.592 148.349,-110.577"/>
<polygon fill="blue" stroke="blue" points="148.139,-107.079 138.18,-110.696 148.22,-114.079 148.139,-107.079"/>
<text text-anchor="middle" x="337" y="-119.6" font-family="Helvetica,sans-Serif" font-size="8.00">state:5</text>
<text text-anchor="middle" x="337" y="-110.6" font-family="Helvetica,sans-Serif" font-size="8.00">type:relatedTo</text>
</g>
<!-- n80 -->
<g id="node4" class="node"><title>n80</title>
<polygon fill="#cae1ff" stroke="black" points="903.5,-49 722.5,-49 722.5,-13 903.5,-13 903.5,-49"/>
<text text-anchor="middle" x="813" y="-33.6" font-family="Helvetica,sans-Serif" font-size="8.00">node_id:78</text>
<text text-anchor="middle" x="813" y="-24.6" font-family="Helvetica,sans-Serif" font-size="8.00">name:[&#39;/home/vagrant/ProvMark/stage/newtest.txt&#39;]</text>
<text text-anchor="middle" x="813" y="-15.6" font-family="Helvetica,sans-Serif" font-size="8.00">type:2</text>
</g>
<!-- n80&#45;&gt;n78 -->
<g id="edge3" class="edge"><title>n80&#45;&gt;n78</title>
<path fill="none" stroke="blue" d="M722.387,-31C697.132,-31 669.506,-31 643.699,-31"/>
<polygon fill="blue" stroke="blue" points="643.528,-27.5001 633.528,-31 643.528,-34.5001 643.528,-27.5001"/>
<text text-anchor="middle" x="678" y="-42.6" font-family="Helvetica,sans-Serif" font-size="8.00">state:0</text>
<text text-anchor="middle" x="678" y="-33.6" font-family="Helvetica,sans-Serif" font-size="8.00">type:relatedTo</text>
</g>
</g>
</svg>
