<?xml version="1.0" encoding="UTF-8" standalone="no"?>
<!DOCTYPE svg PUBLIC "-//W3C//DTD SVG 1.1//EN"
 "http://www.w3.org/Graphics/SVG/1.1/DTD/svg11.dtd">
<!-- Generated by graphviz version 2.36.0 (20140111.2315)
 -->
<!-- Title: clingo2dot Pages: 1 -->
<svg width="240pt" height="125pt"
 viewBox="0.00 0.00 240.00 125.00" xmlns="http://www.w3.org/2000/svg" xmlns:xlink="http://www.w3.org/1999/xlink">
<g id="graph0" class="graph" transform="scale(1 1) rotate(0) translate(4 121)">
<title>clingo2dot</title>
<polygon fill="white" stroke="none" points="-4,4 -4,-121 236,-121 236,4 -4,4"/>
<!-- n77 -->
<g id="node1" class="node"><title>n77</title>
<polygon fill="#cae1ff" stroke="black" points="232,-36 178,-36 178,-0 232,-0 232,-36"/>
<text text-anchor="middle" x="205" y="-20.6" font-family="Helvetica,sans-Serif" font-size="8.00">name:2</text>
<text text-anchor="middle" x="205" y="-11.6" font-family="Helvetica,sans-Serif" font-size="8.00">node_id:75</text>
<text text-anchor="middle" x="205" y="-2.6" font-family="Helvetica,sans-Serif" font-size="8.00">type:4</text>
</g>
<!-- n3 -->
<g id="node4" class="node"><title>n3</title>
<ellipse fill="green" stroke="black" cx="45" cy="-18" rx="27" ry="18"/>
<text text-anchor="middle" x="45" y="-16.1" font-family="Helvetica,sans-Serif" font-size="8.00">Dummy Node</text>
</g>
<!-- n77&#45;&gt;n3 -->
<g id="edge2" class="edge"><title>n77&#45;&gt;n3</title>
<path fill="none" stroke="blue" d="M177.91,-18C151.837,-18 111.534,-18 82.3366,-18"/>
<polygon fill="blue" stroke="blue" points="82.1293,-14.5001 72.1292,-18 82.1292,-21.5001 82.1293,-14.5001"/>
<text text-anchor="middle" x="134" y="-29.6" font-family="Helvetica,sans-Serif" font-size="8.00">state:5</text>
<text text-anchor="middle" x="134" y="-20.6" font-family="Helvetica,sans-Serif" font-size="8.00">type:relatedTo</text>
</g>
<!-- n62 -->
<g id="node2" class="node"><title>n62</title>
<ellipse fill="green" stroke="black" cx="205" cy="-86" rx="27" ry="18"/>
<text text-anchor="middle" x="205" y="-84.1" font-family="Helvetica,sans-Serif" font-size="8.00">Dummy Node</text>
</g>
<!-- n78 -->
<g id="node3" class="node"><title>n78</title>
<polygon fill="#cae1ff" stroke="black" points="89.5,-117.5 0.5,-117.5 0.5,-54.5 89.5,-54.5 89.5,-117.5"/>
<text text-anchor="middle" x="45" y="-102.1" font-family="Helvetica,sans-Serif" font-size="8.00">node_id:76</text>
<text text-anchor="middle" x="45" y="-93.1" font-family="Helvetica,sans-Serif" font-size="8.00">arg_keys:[&#39;oldfd&#39;, &#39;newfd&#39;]</text>
<text text-anchor="middle" x="45" y="-84.1" font-family="Helvetica,sans-Serif" font-size="8.00">arg_values:[&#39;1&#39;, &#39;2&#39;]</text>
<text text-anchor="middle" x="45" y="-75.1" font-family="Helvetica,sans-Serif" font-size="8.00">fn:dup2</text>
<text text-anchor="middle" x="45" y="-66.1" font-family="Helvetica,sans-Serif" font-size="8.00">ret:2</text>
<text text-anchor="middle" x="45" y="-57.1" font-family="Helvetica,sans-Serif" font-size="8.00">type:5</text>
</g>
<!-- n62&#45;&gt;n78 -->
<g id="edge1" class="edge"><title>n62&#45;&gt;n78</title>
<path fill="none" stroke="blue" d="M177.91,-86C156.785,-86 126.32,-86 99.9888,-86"/>
<polygon fill="blue" stroke="blue" points="99.7529,-82.5001 89.7529,-86 99.7528,-89.5001 99.7529,-82.5001"/>
<text text-anchor="middle" x="134" y="-97.6" font-family="Helvetica,sans-Serif" font-size="8.00">state:0</text>
<text text-anchor="middle" x="134" y="-88.6" font-family="Helvetica,sans-Serif" font-size="8.00">type:relatedTo</text>
</g>
</g>
</svg>
