<?xml version="1.0" encoding="UTF-8" standalone="no"?>
<!DOCTYPE svg PUBLIC "-//W3C//DTD SVG 1.1//EN"
 "http://www.w3.org/Graphics/SVG/1.1/DTD/svg11.dtd">
<!-- Generated by graphviz version 2.36.0 (20140111.2315)
 -->
<!-- Title: clingo2dot Pages: 1 -->
<svg width="888pt" height="132pt"
 viewBox="0.00 0.00 888.00 132.00" xmlns="http://www.w3.org/2000/svg" xmlns:xlink="http://www.w3.org/1999/xlink">
<g id="graph0" class="graph" transform="scale(1 1) rotate(0) translate(4 128)">
<title>clingo2dot</title>
<polygon fill="white" stroke="none" points="-4,4 -4,-128 884,-128 884,4 -4,4"/>
<!-- n81 -->
<g id="node1" class="node"><title>n81</title>
<polygon fill="#cae1ff" stroke="black" points="626,-111 460,-111 460,-75 626,-75 626,-111"/>
<text text-anchor="middle" x="543" y="-95.6" font-family="Helvetica,sans-Serif" font-size="8.00">node_id:79</text>
<text text-anchor="middle" x="543" y="-86.6" font-family="Helvetica,sans-Serif" font-size="8.00">name:[&#39;/home/vagrant/ProvMark/stage/test.txt&#39;]</text>
<text text-anchor="middle" x="543" y="-77.6" font-family="Helvetica,sans-Serif" font-size="8.00">type:2</text>
</g>
<!-- n80 -->
<g id="node2" class="node"><title>n80</title>
<polygon fill="#cae1ff" stroke="black" points="372,-107.5 318,-107.5 318,-62.5 372,-62.5 372,-107.5"/>
<text text-anchor="middle" x="345" y="-92.1" font-family="Helvetica,sans-Serif" font-size="8.00">node_id:78</text>
<text text-anchor="middle" x="345" y="-83.1" font-family="Helvetica,sans-Serif" font-size="8.00">name:omega</text>
<text text-anchor="middle" x="345" y="-74.1" font-family="Helvetica,sans-Serif" font-size="8.00">ref_count:1</text>
<text text-anchor="middle" x="345" y="-65.1" font-family="Helvetica,sans-Serif" font-size="8.00">type:4</text>
</g>
<!-- n81&#45;&gt;n80 -->
<g id="edge3" class="edge"><title>n81&#45;&gt;n80</title>
<path fill="none" stroke="blue" d="M459.73,-89.6421C432.722,-88.5397 404.076,-87.3705 382.291,-86.4812"/>
<polygon fill="blue" stroke="blue" points="382.319,-82.9796 372.184,-86.0687 382.033,-89.9737 382.319,-82.9796"/>
<text text-anchor="middle" x="416" y="-100.6" font-family="Helvetica,sans-Serif" font-size="8.00">state:0</text>
<text text-anchor="middle" x="416" y="-91.6" font-family="Helvetica,sans-Serif" font-size="8.00">type:relatedTo</text>
</g>
<!-- n84 -->
<g id="node4" class="node"><title>n84</title>
<polygon fill="#cae1ff" stroke="black" points="230,-124.5 1.42109e-14,-124.5 1.42109e-14,-61.5 230,-61.5 230,-124.5"/>
<text text-anchor="middle" x="115" y="-109.1" font-family="Helvetica,sans-Serif" font-size="8.00">fn:fchmodat</text>
<text text-anchor="middle" x="115" y="-100.1" font-family="Helvetica,sans-Serif" font-size="8.00">node_id:82</text>
<text text-anchor="middle" x="115" y="-91.1" font-family="Helvetica,sans-Serif" font-size="8.00">ret:0</text>
<text text-anchor="middle" x="115" y="-82.1" font-family="Helvetica,sans-Serif" font-size="8.00">arg_keys:[&#39;dirfd&#39;, &#39;pathname&#39;, &#39;mode&#39;, &#39;flags&#39;]</text>
<text text-anchor="middle" x="115" y="-73.1" font-family="Helvetica,sans-Serif" font-size="8.00">arg_values:[&#39;3&#39;, &#39;/home/vagrant/ProvMark/stage/test.txt&#39;, &#39;420&#39;, &#39;0&#39;]</text>
<text text-anchor="middle" x="115" y="-64.1" font-family="Helvetica,sans-Serif" font-size="8.00">type:5</text>
</g>
<!-- n80&#45;&gt;n84 -->
<g id="edge1" class="edge"><title>n80&#45;&gt;n84</title>
<path fill="none" stroke="blue" d="M317.846,-85.9177C298.141,-86.6091 269.553,-87.6122 240.059,-88.647"/>
<polygon fill="blue" stroke="blue" points="239.905,-85.1502 230.034,-88.9988 240.151,-92.1459 239.905,-85.1502"/>
<text text-anchor="middle" x="274" y="-100.6" font-family="Helvetica,sans-Serif" font-size="8.00">state:0</text>
<text text-anchor="middle" x="274" y="-91.6" font-family="Helvetica,sans-Serif" font-size="8.00">type:relatedTo</text>
</g>
<!-- n3 -->
<g id="node6" class="node"><title>n3</title>
<ellipse fill="green" stroke="black" cx="115" cy="-18" rx="27" ry="18"/>
<text text-anchor="middle" x="115" y="-16.1" font-family="Helvetica,sans-Serif" font-size="8.00">Dummy Node</text>
</g>
<!-- n80&#45;&gt;n3 -->
<g id="edge6" class="edge"><title>n80&#45;&gt;n3</title>
<path fill="none" stroke="blue" d="M317.913,-65.5029C312.227,-61.922 306.084,-58.5238 300,-56 250.979,-35.6659 189.945,-25.8293 151.97,-21.3603"/>
<polygon fill="blue" stroke="blue" points="152.226,-17.8672 141.899,-20.2379 151.45,-24.8242 152.226,-17.8672"/>
<text text-anchor="middle" x="274" y="-67.6" font-family="Helvetica,sans-Serif" font-size="8.00">state:10</text>
<text text-anchor="middle" x="274" y="-58.6" font-family="Helvetica,sans-Serif" font-size="8.00">type:relatedTo</text>
</g>
<!-- n83 -->
<g id="node3" class="node"><title>n83</title>
<polygon fill="#cae1ff" stroke="black" points="570,-44.5 516,-44.5 516,0.5 570,0.5 570,-44.5"/>
<text text-anchor="middle" x="543" y="-29.1" font-family="Helvetica,sans-Serif" font-size="8.00">node_id:81</text>
<text text-anchor="middle" x="543" y="-20.1" font-family="Helvetica,sans-Serif" font-size="8.00">name:omega</text>
<text text-anchor="middle" x="543" y="-11.1" font-family="Helvetica,sans-Serif" font-size="8.00">ref_count:0</text>
<text text-anchor="middle" x="543" y="-2.1" font-family="Helvetica,sans-Serif" font-size="8.00">type:4</text>
</g>
<!-- n83&#45;&gt;n80 -->
<g id="edge2" class="edge"><title>n83&#45;&gt;n80</title>
<path fill="none" stroke="blue" d="M515.842,-24.9249C484.835,-29.0467 432.067,-38.1449 390,-56 386.968,-57.2868 383.919,-58.7852 380.917,-60.4102"/>
<polygon fill="blue" stroke="blue" points="378.968,-57.4963 372.119,-65.5802 382.514,-63.5315 378.968,-57.4963"/>
<text text-anchor="middle" x="416" y="-67.6" font-family="Helvetica,sans-Serif" font-size="8.00">state:0</text>
<text text-anchor="middle" x="416" y="-58.6" font-family="Helvetica,sans-Serif" font-size="8.00">type:relatedTo</text>
</g>
<!-- n83&#45;&gt;n3 -->
<g id="edge4" class="edge"><title>n83&#45;&gt;n3</title>
<path fill="none" stroke="blue" d="M515.993,-21.7558C443.06,-21.071 236.435,-19.1308 152.31,-18.3409"/>
<polygon fill="blue" stroke="blue" points="152.24,-14.8402 142.208,-18.2461 152.175,-21.8399 152.24,-14.8402"/>
<text text-anchor="middle" x="345" y="-32.6" font-family="Helvetica,sans-Serif" font-size="8.00">state:5</text>
<text text-anchor="middle" x="345" y="-23.6" font-family="Helvetica,sans-Serif" font-size="8.00">type:relatedTo</text>
</g>
<!-- n82 -->
<g id="node5" class="node"><title>n82</title>
<polygon fill="#cae1ff" stroke="black" points="880,-111 714,-111 714,-75 880,-75 880,-111"/>
<text text-anchor="middle" x="797" y="-95.6" font-family="Helvetica,sans-Serif" font-size="8.00">node_id:80</text>
<text text-anchor="middle" x="797" y="-86.6" font-family="Helvetica,sans-Serif" font-size="8.00">name:[&#39;/home/vagrant/ProvMark/stage/test.txt&#39;]</text>
<text text-anchor="middle" x="797" y="-77.6" font-family="Helvetica,sans-Serif" font-size="8.00">type:2</text>
</g>
<!-- n82&#45;&gt;n81 -->
<g id="edge5" class="edge"><title>n82&#45;&gt;n81</title>
<path fill="none" stroke="blue" d="M713.834,-93C688.982,-93 661.53,-93 636.075,-93"/>
<polygon fill="blue" stroke="blue" points="636.054,-89.5001 626.054,-93 636.054,-96.5001 636.054,-89.5001"/>
<text text-anchor="middle" x="670" y="-104.6" font-family="Helvetica,sans-Serif" font-size="8.00">state:0</text>
<text text-anchor="middle" x="670" y="-95.6" font-family="Helvetica,sans-Serif" font-size="8.00">type:relatedTo</text>
</g>
</g>
</svg>
