<?xml version="1.0" encoding="UTF-8" standalone="no"?>
<!DOCTYPE svg PUBLIC "-//W3C//DTD SVG 1.1//EN"
 "http://www.w3.org/Graphics/SVG/1.1/DTD/svg11.dtd">
<!-- Generated by graphviz version 2.36.0 (20140111.2315)
 -->
<!-- Title: clingo2dot Pages: 1 -->
<svg width="936pt" height="143pt"
 viewBox="0.00 0.00 936.00 143.00" xmlns="http://www.w3.org/2000/svg" xmlns:xlink="http://www.w3.org/1999/xlink">
<g id="graph0" class="graph" transform="scale(1 1) rotate(0) translate(4 139)">
<title>clingo2dot</title>
<polygon fill="white" stroke="none" points="-4,4 -4,-139 932,-139 932,4 -4,4"/>
<!-- n81 -->
<g id="node1" class="node"><title>n81</title>
<polygon fill="#cae1ff" stroke="black" points="674,-49 508,-49 508,-13 674,-13 674,-49"/>
<text text-anchor="middle" x="591" y="-33.6" font-family="Helvetica,sans-Serif" font-size="8.00">name:[&#39;/home/vagrant/ProvMark/stage/test.txt&#39;]</text>
<text text-anchor="middle" x="591" y="-24.6" font-family="Helvetica,sans-Serif" font-size="8.00">node_id:79</text>
<text text-anchor="middle" x="591" y="-15.6" font-family="Helvetica,sans-Serif" font-size="8.00">type:2</text>
</g>
<!-- n80 -->
<g id="node4" class="node"><title>n80</title>
<polygon fill="#cae1ff" stroke="black" points="420,-69.5 366,-69.5 366,-24.5 420,-24.5 420,-69.5"/>
<text text-anchor="middle" x="393" y="-54.1" font-family="Helvetica,sans-Serif" font-size="8.00">name:omega</text>
<text text-anchor="middle" x="393" y="-45.1" font-family="Helvetica,sans-Serif" font-size="8.00">ref_count:1</text>
<text text-anchor="middle" x="393" y="-36.1" font-family="Helvetica,sans-Serif" font-size="8.00">node_id:78</text>
<text text-anchor="middle" x="393" y="-27.1" font-family="Helvetica,sans-Serif" font-size="8.00">type:4</text>
</g>
<!-- n81&#45;&gt;n80 -->
<g id="edge6" class="edge"><title>n81&#45;&gt;n80</title>
<path fill="none" stroke="blue" d="M507.935,-26.7276C485.158,-26.8444 460.507,-28.1929 438,-32 435.332,-32.4513 432.608,-33.0418 429.888,-33.7272"/>
<polygon fill="blue" stroke="blue" points="428.797,-30.3993 420.167,-36.5458 430.746,-37.1224 428.797,-30.3993"/>
<text text-anchor="middle" x="464" y="-43.6" font-family="Helvetica,sans-Serif" font-size="8.00">state:0</text>
<text text-anchor="middle" x="464" y="-34.6" font-family="Helvetica,sans-Serif" font-size="8.00">type:relatedTo</text>
</g>
<!-- n3 -->
<g id="node2" class="node"><title>n3</title>
<ellipse fill="green" stroke="black" cx="139" cy="-111" rx="27" ry="18"/>
<text text-anchor="middle" x="139" y="-109.1" font-family="Helvetica,sans-Serif" font-size="8.00">Dummy Node</text>
</g>
<!-- n83 -->
<g id="node3" class="node"><title>n83</title>
<polygon fill="#cae1ff" stroke="black" points="618,-128.5 564,-128.5 564,-83.5 618,-83.5 618,-128.5"/>
<text text-anchor="middle" x="591" y="-113.1" font-family="Helvetica,sans-Serif" font-size="8.00">name:omega</text>
<text text-anchor="middle" x="591" y="-104.1" font-family="Helvetica,sans-Serif" font-size="8.00">ref_count:0</text>
<text text-anchor="middle" x="591" y="-95.1" font-family="Helvetica,sans-Serif" font-size="8.00">node_id:81</text>
<text text-anchor="middle" x="591" y="-86.1" font-family="Helvetica,sans-Serif" font-size="8.00">type:4</text>
</g>
<!-- n83&#45;&gt;n3 -->
<g id="edge2" class="edge"><title>n83&#45;&gt;n3</title>
<path fill="none" stroke="blue" d="M563.861,-106.29C487.434,-107.14 264.23,-109.62 176.251,-110.597"/>
<polygon fill="blue" stroke="blue" points="176.172,-107.098 166.211,-110.709 176.249,-114.097 176.172,-107.098"/>
<text text-anchor="middle" x="393" y="-119.6" font-family="Helvetica,sans-Serif" font-size="8.00">state:5</text>
<text text-anchor="middle" x="393" y="-110.6" font-family="Helvetica,sans-Serif" font-size="8.00">type:relatedTo</text>
</g>
<!-- n83&#45;&gt;n80 -->
<g id="edge3" class="edge"><title>n83&#45;&gt;n80</title>
<path fill="none" stroke="blue" d="M563.973,-98.1653C529.56,-87.8064 468.76,-69.5042 429.972,-57.8282"/>
<polygon fill="blue" stroke="blue" points="430.719,-54.3982 420.135,-54.8671 428.702,-61.1011 430.719,-54.3982"/>
<text text-anchor="middle" x="464" y="-86.6" font-family="Helvetica,sans-Serif" font-size="8.00">state:0</text>
<text text-anchor="middle" x="464" y="-77.6" font-family="Helvetica,sans-Serif" font-size="8.00">type:relatedTo</text>
</g>
<!-- n80&#45;&gt;n3 -->
<g id="edge1" class="edge"><title>n80&#45;&gt;n3</title>
<path fill="none" stroke="blue" d="M365.966,-54.1985C360.065,-55.8028 353.822,-57.4785 348,-59 287.079,-74.9206 215.847,-92.5066 174.532,-102.605"/>
<polygon fill="blue" stroke="blue" points="173.582,-99.2342 164.698,-105.006 175.242,-106.035 173.582,-99.2342"/>
<text text-anchor="middle" x="322" y="-84.6" font-family="Helvetica,sans-Serif" font-size="8.00">state:10</text>
<text text-anchor="middle" x="322" y="-75.6" font-family="Helvetica,sans-Serif" font-size="8.00">type:relatedTo</text>
</g>
<!-- n84 -->
<g id="node5" class="node"><title>n84</title>
<polygon fill="#cae1ff" stroke="black" points="278,-62.5 0,-62.5 0,0.5 278,0.5 278,-62.5"/>
<text text-anchor="middle" x="139" y="-47.1" font-family="Helvetica,sans-Serif" font-size="8.00">node_id:82</text>
<text text-anchor="middle" x="139" y="-38.1" font-family="Helvetica,sans-Serif" font-size="8.00">arg_keys:[&#39;dirfd&#39;, &#39;pathname&#39;, &#39;owner&#39;, &#39;group&#39;, &#39;flags&#39;]</text>
<text text-anchor="middle" x="139" y="-29.1" font-family="Helvetica,sans-Serif" font-size="8.00">arg_values:[&#39;3&#39;, &#39;/home/vagrant/ProvMark/stage/test.txt&#39;, &#39;vagrant&#39;, &#39;vagrant&#39;, &#39;0&#39;]</text>
<text text-anchor="middle" x="139" y="-20.1" font-family="Helvetica,sans-Serif" font-size="8.00">fn:fchownat</text>
<text text-anchor="middle" x="139" y="-11.1" font-family="Helvetica,sans-Serif" font-size="8.00">ret:0</text>
<text text-anchor="middle" x="139" y="-2.1" font-family="Helvetica,sans-Serif" font-size="8.00">type:5</text>
</g>
<!-- n80&#45;&gt;n84 -->
<g id="edge4" class="edge"><title>n80&#45;&gt;n84</title>
<path fill="none" stroke="blue" d="M365.834,-36.5379C360.051,-34.6622 353.889,-32.9909 348,-32 328.808,-28.771 308.477,-26.8573 288.339,-25.8482"/>
<polygon fill="blue" stroke="blue" points="288.295,-22.3432 278.155,-25.4122 287.996,-29.3368 288.295,-22.3432"/>
<text text-anchor="middle" x="322" y="-43.6" font-family="Helvetica,sans-Serif" font-size="8.00">state:0</text>
<text text-anchor="middle" x="322" y="-34.6" font-family="Helvetica,sans-Serif" font-size="8.00">type:relatedTo</text>
</g>
<!-- n82 -->
<g id="node6" class="node"><title>n82</title>
<polygon fill="#cae1ff" stroke="black" points="928,-49 762,-49 762,-13 928,-13 928,-49"/>
<text text-anchor="middle" x="845" y="-33.6" font-family="Helvetica,sans-Serif" font-size="8.00">name:[&#39;/home/vagrant/ProvMark/stage/test.txt&#39;]</text>
<text text-anchor="middle" x="845" y="-24.6" font-family="Helvetica,sans-Serif" font-size="8.00">node_id:80</text>
<text text-anchor="middle" x="845" y="-15.6" font-family="Helvetica,sans-Serif" font-size="8.00">type:2</text>
</g>
<!-- n82&#45;&gt;n81 -->
<g id="edge5" class="edge"><title>n82&#45;&gt;n81</title>
<path fill="none" stroke="blue" d="M761.834,-31C736.982,-31 709.53,-31 684.075,-31"/>
<polygon fill="blue" stroke="blue" points="684.054,-27.5001 674.054,-31 684.054,-34.5001 684.054,-27.5001"/>
<text text-anchor="middle" x="718" y="-42.6" font-family="Helvetica,sans-Serif" font-size="8.00">state:0</text>
<text text-anchor="middle" x="718" y="-33.6" font-family="Helvetica,sans-Serif" font-size="8.00">type:relatedTo</text>
</g>
</g>
</svg>
