<?xml version="1.0" encoding="UTF-8" standalone="no"?>
<!DOCTYPE svg PUBLIC "-//W3C//DTD SVG 1.1//EN"
 "http://www.w3.org/Graphics/SVG/1.1/DTD/svg11.dtd">
<!-- Generated by graphviz version 2.36.0 (20140111.2315)
 -->
<!-- Title: clingo2dot Pages: 1 -->
<svg width="1128pt" height="1746pt"
 viewBox="0.00 0.00 1128.00 1746.00" xmlns="http://www.w3.org/2000/svg" xmlns:xlink="http://www.w3.org/1999/xlink">
<g id="graph0" class="graph" transform="scale(1 1) rotate(0) translate(4 1742)">
<title>clingo2dot</title>
<polygon fill="white" stroke="none" points="-4,4 -4,-1742 1124,-1742 1124,4 -4,4"/>
<!-- n106 -->
<g id="node1" class="node"><title>n106</title>
<polygon fill="#cae1ff" stroke="black" points="287,-1737.5 203,-1737.5 203,-1692.5 287,-1692.5 287,-1737.5"/>
<text text-anchor="middle" x="245" y="-1722.1" font-family="Helvetica,sans-Serif" font-size="8.00">node_id:104</text>
<text text-anchor="middle" x="245" y="-1713.1" font-family="Helvetica,sans-Serif" font-size="8.00">value:1024</text>
<text text-anchor="middle" x="245" y="-1704.1" font-family="Helvetica,sans-Serif" font-size="8.00">name:RLIMIT_NOFILE</text>
<text text-anchor="middle" x="245" y="-1695.1" font-family="Helvetica,sans-Serif" font-size="8.00">type:1</text>
</g>
<!-- n89 -->
<g id="node2" class="node"><title>n89</title>
<polygon fill="#cae1ff" stroke="black" points="272,-1674.5 218,-1674.5 218,-1629.5 272,-1629.5 272,-1674.5"/>
<text text-anchor="middle" x="245" y="-1659.1" font-family="Helvetica,sans-Serif" font-size="8.00">node_id:87</text>
<text text-anchor="middle" x="245" y="-1650.1" font-family="Helvetica,sans-Serif" font-size="8.00">value:root</text>
<text text-anchor="middle" x="245" y="-1641.1" font-family="Helvetica,sans-Serif" font-size="8.00">name:gid</text>
<text text-anchor="middle" x="245" y="-1632.1" font-family="Helvetica,sans-Serif" font-size="8.00">type:1</text>
</g>
<!-- n93 -->
<g id="node3" class="node"><title>n93</title>
<polygon fill="#cae1ff" stroke="black" points="348,-1611.5 142,-1611.5 142,-1566.5 348,-1566.5 348,-1611.5"/>
<text text-anchor="middle" x="245" y="-1596.1" font-family="Helvetica,sans-Serif" font-size="8.00">node_id:91</text>
<text text-anchor="middle" x="245" y="-1587.1" font-family="Helvetica,sans-Serif" font-size="8.00">value:#213&#45;Ubuntu SMP Thu Nov 15 02:19:07 UTC 2018</text>
<text text-anchor="middle" x="245" y="-1578.1" font-family="Helvetica,sans-Serif" font-size="8.00">name:version</text>
<text text-anchor="middle" x="245" y="-1569.1" font-family="Helvetica,sans-Serif" font-size="8.00">type:1</text>
</g>
<!-- n107 -->
<g id="node4" class="node"><title>n107</title>
<polygon fill="#cae1ff" stroke="black" points="287,-1548.5 203,-1548.5 203,-1503.5 287,-1503.5 287,-1548.5"/>
<text text-anchor="middle" x="245" y="-1533.1" font-family="Helvetica,sans-Serif" font-size="8.00">node_id:105</text>
<text text-anchor="middle" x="245" y="-1524.1" font-family="Helvetica,sans-Serif" font-size="8.00">value:3840</text>
<text text-anchor="middle" x="245" y="-1515.1" font-family="Helvetica,sans-Serif" font-size="8.00">name:RLIMIT_NPROC</text>
<text text-anchor="middle" x="245" y="-1506.1" font-family="Helvetica,sans-Serif" font-size="8.00">type:1</text>
</g>
<!-- n80 -->
<g id="node5" class="node"><title>n80</title>
<polygon fill="#cae1ff" stroke="black" points="632,-1010 578,-1010 578,-974 632,-974 632,-1010"/>
<text text-anchor="middle" x="605" y="-994.6" font-family="Helvetica,sans-Serif" font-size="8.00">node_id:78</text>
<text text-anchor="middle" x="605" y="-985.6" font-family="Helvetica,sans-Serif" font-size="8.00">name:0</text>
<text text-anchor="middle" x="605" y="-976.6" font-family="Helvetica,sans-Serif" font-size="8.00">type:4</text>
</g>
<!-- n77 -->
<g id="node9" class="node"><title>n77</title>
<polygon fill="#cae1ff" stroke="black" points="490,-886.5 436,-886.5 436,-841.5 490,-841.5 490,-886.5"/>
<text text-anchor="middle" x="463" y="-871.1" font-family="Helvetica,sans-Serif" font-size="8.00">status:1</text>
<text text-anchor="middle" x="463" y="-862.1" font-family="Helvetica,sans-Serif" font-size="8.00">opus_lite:1</text>
<text text-anchor="middle" x="463" y="-853.1" font-family="Helvetica,sans-Serif" font-size="8.00">node_id:75</text>
<text text-anchor="middle" x="463" y="-844.1" font-family="Helvetica,sans-Serif" font-size="8.00">type:3</text>
</g>
<!-- n80&#45;&gt;n77 -->
<g id="edge31" class="edge"><title>n80&#45;&gt;n77</title>
<path fill="none" stroke="blue" d="M577.802,-983.46C556.905,-975.598 527.934,-962.225 508,-943 494.337,-929.824 483.766,-911.472 476.413,-895.772"/>
<polygon fill="blue" stroke="blue" points="479.511,-894.126 472.252,-886.41 473.115,-896.969 479.511,-894.126"/>
<text text-anchor="middle" x="534" y="-987.6" font-family="Helvetica,sans-Serif" font-size="8.00">state:5</text>
<text text-anchor="middle" x="534" y="-978.6" font-family="Helvetica,sans-Serif" font-size="8.00">type:relatedTo</text>
</g>
<!-- n87 -->
<g id="node6" class="node"><title>n87</title>
<polygon fill="#cae1ff" stroke="black" points="274,-1485.5 216,-1485.5 216,-1440.5 274,-1440.5 274,-1485.5"/>
<text text-anchor="middle" x="245" y="-1470.1" font-family="Helvetica,sans-Serif" font-size="8.00">node_id:85</text>
<text text-anchor="middle" x="245" y="-1461.1" font-family="Helvetica,sans-Serif" font-size="8.00">value:</text>
<text text-anchor="middle" x="245" y="-1452.1" font-family="Helvetica,sans-Serif" font-size="8.00">name:cmd_args</text>
<text text-anchor="middle" x="245" y="-1443.1" font-family="Helvetica,sans-Serif" font-size="8.00">type:1</text>
</g>
<!-- n110 -->
<g id="node7" class="node"><title>n110</title>
<polygon fill="#cae1ff" stroke="black" points="301,-1422.5 189,-1422.5 189,-1377.5 301,-1377.5 301,-1422.5"/>
<text text-anchor="middle" x="245" y="-1407.1" font-family="Helvetica,sans-Serif" font-size="8.00">node_id:108</text>
<text text-anchor="middle" x="245" y="-1398.1" font-family="Helvetica,sans-Serif" font-size="8.00">value:18446744073709551615</text>
<text text-anchor="middle" x="245" y="-1389.1" font-family="Helvetica,sans-Serif" font-size="8.00">name:RLIMIT_RTTIME</text>
<text text-anchor="middle" x="245" y="-1380.1" font-family="Helvetica,sans-Serif" font-size="8.00">type:1</text>
</g>
<!-- n96 -->
<g id="node8" class="node"><title>n96</title>
<polygon fill="#cae1ff" stroke="black" points="284,-1359.5 206,-1359.5 206,-1314.5 284,-1314.5 284,-1359.5"/>
<text text-anchor="middle" x="245" y="-1344.1" font-family="Helvetica,sans-Serif" font-size="8.00">node_id:94</text>
<text text-anchor="middle" x="245" y="-1335.1" font-family="Helvetica,sans-Serif" font-size="8.00">value:0</text>
<text text-anchor="middle" x="245" y="-1326.1" font-family="Helvetica,sans-Serif" font-size="8.00">name:RLIMIT_CORE</text>
<text text-anchor="middle" x="245" y="-1317.1" font-family="Helvetica,sans-Serif" font-size="8.00">type:1</text>
</g>
<!-- n77&#45;&gt;n106 -->
<g id="edge22" class="edge"><title>n77&#45;&gt;n106</title>
<path fill="none" stroke="blue" d="M461.544,-886.496C458.858,-1014.46 444.295,-1646.02 418,-1677 388.937,-1711.25 336.606,-1718.7 297.273,-1718.84"/>
<polygon fill="blue" stroke="blue" points="297.107,-1715.34 287.065,-1718.72 297.022,-1722.34 297.107,-1715.34"/>
<text text-anchor="middle" x="392" y="-1720.6" font-family="Helvetica,sans-Serif" font-size="8.00">state:0</text>
<text text-anchor="middle" x="392" y="-1711.6" font-family="Helvetica,sans-Serif" font-size="8.00">type:relatedTo</text>
</g>
<!-- n77&#45;&gt;n89 -->
<g id="edge9" class="edge"><title>n77&#45;&gt;n89</title>
<path fill="none" stroke="blue" d="M462.256,-886.496C463.399,-1005.29 466.069,-1556.31 418,-1613 385.009,-1651.91 322.106,-1656.69 282.2,-1655.29"/>
<polygon fill="blue" stroke="blue" points="282.253,-1651.79 272.091,-1654.78 281.904,-1658.78 282.253,-1651.79"/>
<text text-anchor="middle" x="392" y="-1657.6" font-family="Helvetica,sans-Serif" font-size="8.00">state:0</text>
<text text-anchor="middle" x="392" y="-1648.6" font-family="Helvetica,sans-Serif" font-size="8.00">type:relatedTo</text>
</g>
<!-- n77&#45;&gt;n93 -->
<g id="edge2" class="edge"><title>n77&#45;&gt;n93</title>
<path fill="none" stroke="blue" d="M462.118,-886.394C462.504,-998.718 461.734,-1497.42 418,-1549 402.647,-1567.11 380.845,-1577.92 357.899,-1584.2"/>
<polygon fill="blue" stroke="blue" points="356.892,-1580.84 348.011,-1586.62 358.556,-1587.64 356.892,-1580.84"/>
<text text-anchor="middle" x="392" y="-1593.6" font-family="Helvetica,sans-Serif" font-size="8.00">state:0</text>
<text text-anchor="middle" x="392" y="-1584.6" font-family="Helvetica,sans-Serif" font-size="8.00">type:relatedTo</text>
</g>
<!-- n77&#45;&gt;n107 -->
<g id="edge35" class="edge"><title>n77&#45;&gt;n107</title>
<path fill="none" stroke="blue" d="M461.954,-886.366C461.535,-992.089 457.428,-1438.54 418,-1485 388.824,-1519.38 336.51,-1527.8 297.211,-1528.74"/>
<polygon fill="blue" stroke="blue" points="296.984,-1525.24 287.014,-1528.83 297.042,-1532.24 296.984,-1525.24"/>
<text text-anchor="middle" x="392" y="-1529.6" font-family="Helvetica,sans-Serif" font-size="8.00">state:0</text>
<text text-anchor="middle" x="392" y="-1520.6" font-family="Helvetica,sans-Serif" font-size="8.00">type:relatedTo</text>
</g>
<!-- n77&#45;&gt;n87 -->
<g id="edge29" class="edge"><title>n77&#45;&gt;n87</title>
<path fill="none" stroke="blue" d="M461.755,-886.324C460.472,-985.087 453.166,-1379.68 418,-1421 385.449,-1459.25 324.379,-1465.78 284.457,-1465.5"/>
<polygon fill="blue" stroke="blue" points="284.37,-1462 274.297,-1465.28 284.219,-1469 284.37,-1462"/>
<text text-anchor="middle" x="392" y="-1465.6" font-family="Helvetica,sans-Serif" font-size="8.00">state:0</text>
<text text-anchor="middle" x="392" y="-1456.6" font-family="Helvetica,sans-Serif" font-size="8.00">type:relatedTo</text>
</g>
<!-- n77&#45;&gt;n110 -->
<g id="edge12" class="edge"><title>n77&#45;&gt;n110</title>
<path fill="none" stroke="blue" d="M461.494,-886.427C459.232,-977.924 448.766,-1319.83 418,-1356 392.081,-1386.48 348.229,-1397.36 311.292,-1400.68"/>
<polygon fill="blue" stroke="blue" points="310.796,-1397.21 301.078,-1401.43 311.306,-1404.19 310.796,-1397.21"/>
<text text-anchor="middle" x="392" y="-1401.6" font-family="Helvetica,sans-Serif" font-size="8.00">state:0</text>
<text text-anchor="middle" x="392" y="-1392.6" font-family="Helvetica,sans-Serif" font-size="8.00">type:relatedTo</text>
</g>
<!-- n77&#45;&gt;n96 -->
<g id="edge32" class="edge"><title>n77&#45;&gt;n96</title>
<path fill="none" stroke="blue" d="M461.156,-886.521C457.823,-970.198 444.444,-1259.99 418,-1291 387.898,-1326.3 333.971,-1336.02 294.503,-1338.02"/>
<polygon fill="blue" stroke="blue" points="294.165,-1334.53 284.296,-1338.39 294.415,-1341.53 294.165,-1334.53"/>
<text text-anchor="middle" x="392" y="-1336.6" font-family="Helvetica,sans-Serif" font-size="8.00">state:0</text>
<text text-anchor="middle" x="392" y="-1327.6" font-family="Helvetica,sans-Serif" font-size="8.00">type:relatedTo</text>
</g>
<!-- n92 -->
<g id="node10" class="node"><title>n92</title>
<polygon fill="#cae1ff" stroke="black" points="290,-1296.5 200,-1296.5 200,-1251.5 290,-1251.5 290,-1296.5"/>
<text text-anchor="middle" x="245" y="-1281.1" font-family="Helvetica,sans-Serif" font-size="8.00">node_id:90</text>
<text text-anchor="middle" x="245" y="-1272.1" font-family="Helvetica,sans-Serif" font-size="8.00">value:3.13.0&#45;163&#45;generic</text>
<text text-anchor="middle" x="245" y="-1263.1" font-family="Helvetica,sans-Serif" font-size="8.00">name:release</text>
<text text-anchor="middle" x="245" y="-1254.1" font-family="Helvetica,sans-Serif" font-size="8.00">type:1</text>
</g>
<!-- n77&#45;&gt;n92 -->
<g id="edge24" class="edge"><title>n77&#45;&gt;n92</title>
<path fill="none" stroke="blue" d="M462.406,-886.38C463.227,-957.198 462.043,-1174.74 418,-1226 389.161,-1259.57 339.006,-1270.62 300.273,-1273.84"/>
<polygon fill="blue" stroke="blue" points="299.926,-1270.35 290.186,-1274.52 300.4,-1277.34 299.926,-1270.35"/>
<text text-anchor="middle" x="392" y="-1271.6" font-family="Helvetica,sans-Serif" font-size="8.00">state:0</text>
<text text-anchor="middle" x="392" y="-1262.6" font-family="Helvetica,sans-Serif" font-size="8.00">type:relatedTo</text>
</g>
<!-- n101 -->
<g id="node12" class="node"><title>n101</title>
<polygon fill="#cae1ff" stroke="black" points="301,-1233.5 189,-1233.5 189,-1188.5 301,-1188.5 301,-1233.5"/>
<text text-anchor="middle" x="245" y="-1218.1" font-family="Helvetica,sans-Serif" font-size="8.00">node_id:99</text>
<text text-anchor="middle" x="245" y="-1209.1" font-family="Helvetica,sans-Serif" font-size="8.00">value:18446744073709551615</text>
<text text-anchor="middle" x="245" y="-1200.1" font-family="Helvetica,sans-Serif" font-size="8.00">name:RLIMIT_FSIZE</text>
<text text-anchor="middle" x="245" y="-1191.1" font-family="Helvetica,sans-Serif" font-size="8.00">type:1</text>
</g>
<!-- n77&#45;&gt;n101 -->
<g id="edge34" class="edge"><title>n77&#45;&gt;n101</title>
<path fill="none" stroke="blue" d="M461.685,-886.566C460.365,-948.477 453.512,-1119.1 418,-1160 391.587,-1190.42 347.959,-1203.12 311.253,-1208.24"/>
<polygon fill="blue" stroke="blue" points="310.6,-1204.79 301.103,-1209.49 311.457,-1211.74 310.6,-1204.79"/>
<text text-anchor="middle" x="392" y="-1206.6" font-family="Helvetica,sans-Serif" font-size="8.00">state:0</text>
<text text-anchor="middle" x="392" y="-1197.6" font-family="Helvetica,sans-Serif" font-size="8.00">type:relatedTo</text>
</g>
<!-- n108 -->
<g id="node13" class="node"><title>n108</title>
<polygon fill="#cae1ff" stroke="black" points="301,-1170.5 189,-1170.5 189,-1125.5 301,-1125.5 301,-1170.5"/>
<text text-anchor="middle" x="245" y="-1155.1" font-family="Helvetica,sans-Serif" font-size="8.00">node_id:106</text>
<text text-anchor="middle" x="245" y="-1146.1" font-family="Helvetica,sans-Serif" font-size="8.00">value:18446744073709551615</text>
<text text-anchor="middle" x="245" y="-1137.1" font-family="Helvetica,sans-Serif" font-size="8.00">name:RLIMIT_RSS</text>
<text text-anchor="middle" x="245" y="-1128.1" font-family="Helvetica,sans-Serif" font-size="8.00">type:1</text>
</g>
<!-- n77&#45;&gt;n108 -->
<g id="edge17" class="edge"><title>n77&#45;&gt;n108</title>
<path fill="none" stroke="blue" d="M460.598,-886.291C456.917,-937.862 445.311,-1063.34 418,-1094 391.17,-1124.12 347.76,-1137.6 311.265,-1143.56"/>
<polygon fill="blue" stroke="blue" points="310.556,-1140.13 301.174,-1145.05 311.578,-1147.05 310.556,-1140.13"/>
<text text-anchor="middle" x="392" y="-1140.6" font-family="Helvetica,sans-Serif" font-size="8.00">state:0</text>
<text text-anchor="middle" x="392" y="-1131.6" font-family="Helvetica,sans-Serif" font-size="8.00">type:relatedTo</text>
</g>
<!-- n100 -->
<g id="node14" class="node"><title>n100</title>
<polygon fill="#cae1ff" stroke="black" points="301,-1107.5 189,-1107.5 189,-1062.5 301,-1062.5 301,-1107.5"/>
<text text-anchor="middle" x="245" y="-1092.1" font-family="Helvetica,sans-Serif" font-size="8.00">node_id:98</text>
<text text-anchor="middle" x="245" y="-1083.1" font-family="Helvetica,sans-Serif" font-size="8.00">value:18446744073709551615</text>
<text text-anchor="middle" x="245" y="-1074.1" font-family="Helvetica,sans-Serif" font-size="8.00">name:RLIMIT_LOCKS</text>
<text text-anchor="middle" x="245" y="-1065.1" font-family="Helvetica,sans-Serif" font-size="8.00">type:1</text>
</g>
<!-- n77&#45;&gt;n100 -->
<g id="edge26" class="edge"><title>n77&#45;&gt;n100</title>
<path fill="none" stroke="blue" d="M462.449,-886.537C461.905,-921.797 455.643,-990.094 418,-1030 390.471,-1059.18 347.486,-1072.93 311.375,-1079.39"/>
<polygon fill="blue" stroke="blue" points="310.694,-1075.95 301.391,-1081.02 311.825,-1082.86 310.694,-1075.95"/>
<text text-anchor="middle" x="392" y="-1074.6" font-family="Helvetica,sans-Serif" font-size="8.00">state:0</text>
<text text-anchor="middle" x="392" y="-1065.6" font-family="Helvetica,sans-Serif" font-size="8.00">type:relatedTo</text>
</g>
<!-- n98 -->
<g id="node15" class="node"><title>n98</title>
<polygon fill="#cae1ff" stroke="black" points="301,-1044.5 189,-1044.5 189,-999.5 301,-999.5 301,-1044.5"/>
<text text-anchor="middle" x="245" y="-1029.1" font-family="Helvetica,sans-Serif" font-size="8.00">node_id:96</text>
<text text-anchor="middle" x="245" y="-1020.1" font-family="Helvetica,sans-Serif" font-size="8.00">value:18446744073709551615</text>
<text text-anchor="middle" x="245" y="-1011.1" font-family="Helvetica,sans-Serif" font-size="8.00">name:RLIMIT_DATA</text>
<text text-anchor="middle" x="245" y="-1002.1" font-family="Helvetica,sans-Serif" font-size="8.00">type:1</text>
</g>
<!-- n77&#45;&gt;n98 -->
<g id="edge30" class="edge"><title>n77&#45;&gt;n98</title>
<path fill="none" stroke="blue" d="M458.257,-886.264C453.162,-909.778 441.797,-946.379 418,-968 388.799,-994.531 346.652,-1008.03 311.388,-1014.89"/>
<polygon fill="blue" stroke="blue" points="310.384,-1011.52 301.165,-1016.74 311.628,-1018.41 310.384,-1011.52"/>
<text text-anchor="middle" x="392" y="-1010.6" font-family="Helvetica,sans-Serif" font-size="8.00">state:0</text>
<text text-anchor="middle" x="392" y="-1001.6" font-family="Helvetica,sans-Serif" font-size="8.00">type:relatedTo</text>
</g>
<!-- n104 -->
<g id="node16" class="node"><title>n104</title>
<polygon fill="#cae1ff" stroke="black" points="295.5,-981.5 194.5,-981.5 194.5,-936.5 295.5,-936.5 295.5,-981.5"/>
<text text-anchor="middle" x="245" y="-966.1" font-family="Helvetica,sans-Serif" font-size="8.00">node_id:102</text>
<text text-anchor="middle" x="245" y="-957.1" font-family="Helvetica,sans-Serif" font-size="8.00">value:819200</text>
<text text-anchor="middle" x="245" y="-948.1" font-family="Helvetica,sans-Serif" font-size="8.00">name:RLIMIT_MSGQUEUE</text>
<text text-anchor="middle" x="245" y="-939.1" font-family="Helvetica,sans-Serif" font-size="8.00">type:1</text>
</g>
<!-- n77&#45;&gt;n104 -->
<g id="edge37" class="edge"><title>n77&#45;&gt;n104</title>
<path fill="none" stroke="blue" d="M446.961,-886.444C439.348,-896.222 429.319,-907.021 418,-914 384.044,-934.937 340.534,-946.203 305.773,-952.227"/>
<polygon fill="blue" stroke="blue" points="305.058,-948.797 295.752,-953.862 306.185,-955.706 305.058,-948.797"/>
<text text-anchor="middle" x="392" y="-948.6" font-family="Helvetica,sans-Serif" font-size="8.00">state:0</text>
<text text-anchor="middle" x="392" y="-939.6" font-family="Helvetica,sans-Serif" font-size="8.00">type:relatedTo</text>
</g>
<!-- n88 -->
<g id="node18" class="node"><title>n88</title>
<polygon fill="#cae1ff" stroke="black" points="272,-918.5 218,-918.5 218,-873.5 272,-873.5 272,-918.5"/>
<text text-anchor="middle" x="245" y="-903.1" font-family="Helvetica,sans-Serif" font-size="8.00">node_id:86</text>
<text text-anchor="middle" x="245" y="-894.1" font-family="Helvetica,sans-Serif" font-size="8.00">value:root</text>
<text text-anchor="middle" x="245" y="-885.1" font-family="Helvetica,sans-Serif" font-size="8.00">name:uid</text>
<text text-anchor="middle" x="245" y="-876.1" font-family="Helvetica,sans-Serif" font-size="8.00">type:1</text>
</g>
<!-- n77&#45;&gt;n88 -->
<g id="edge36" class="edge"><title>n77&#45;&gt;n88</title>
<path fill="none" stroke="blue" d="M435.559,-870.443C429.793,-871.727 423.708,-872.989 418,-874 371.391,-882.257 317.152,-888.671 282.237,-892.39"/>
<polygon fill="blue" stroke="blue" points="281.633,-888.934 272.052,-893.457 282.362,-895.896 281.633,-888.934"/>
<text text-anchor="middle" x="392" y="-894.6" font-family="Helvetica,sans-Serif" font-size="8.00">state:0</text>
<text text-anchor="middle" x="392" y="-885.6" font-family="Helvetica,sans-Serif" font-size="8.00">type:relatedTo</text>
</g>
<!-- n86 -->
<g id="node19" class="node"><title>n86</title>
<polygon fill="#cae1ff" stroke="black" points="315,-855.5 175,-855.5 175,-810.5 315,-810.5 315,-855.5"/>
<text text-anchor="middle" x="245" y="-840.1" font-family="Helvetica,sans-Serif" font-size="8.00">node_id:84</text>
<text text-anchor="middle" x="245" y="-831.1" font-family="Helvetica,sans-Serif" font-size="8.00">value:/home/vagrant/ProvMark/working</text>
<text text-anchor="middle" x="245" y="-822.1" font-family="Helvetica,sans-Serif" font-size="8.00">name:cwd</text>
<text text-anchor="middle" x="245" y="-813.1" font-family="Helvetica,sans-Serif" font-size="8.00">type:1</text>
</g>
<!-- n77&#45;&gt;n86 -->
<g id="edge10" class="edge"><title>n77&#45;&gt;n86</title>
<path fill="none" stroke="blue" d="M435.861,-852.49C430.076,-850.343 423.907,-848.352 418,-847 388.218,-840.185 354.87,-836.578 325.523,-834.704"/>
<polygon fill="blue" stroke="blue" points="325.508,-831.198 315.322,-834.112 325.102,-838.186 325.508,-831.198"/>
<text text-anchor="middle" x="392" y="-858.6" font-family="Helvetica,sans-Serif" font-size="8.00">state:0</text>
<text text-anchor="middle" x="392" y="-849.6" font-family="Helvetica,sans-Serif" font-size="8.00">type:relatedTo</text>
</g>
<!-- n112 -->
<g id="node20" class="node"><title>n112</title>
<polygon fill="#cae1ff" stroke="black" points="286,-792.5 204,-792.5 204,-747.5 286,-747.5 286,-792.5"/>
<text text-anchor="middle" x="245" y="-777.1" font-family="Helvetica,sans-Serif" font-size="8.00">node_id:110</text>
<text text-anchor="middle" x="245" y="-768.1" font-family="Helvetica,sans-Serif" font-size="8.00">value:8388608</text>
<text text-anchor="middle" x="245" y="-759.1" font-family="Helvetica,sans-Serif" font-size="8.00">name:RLIMIT_STACK</text>
<text text-anchor="middle" x="245" y="-750.1" font-family="Helvetica,sans-Serif" font-size="8.00">type:1</text>
</g>
<!-- n77&#45;&gt;n112 -->
<g id="edge19" class="edge"><title>n77&#45;&gt;n112</title>
<path fill="none" stroke="blue" d="M449.506,-841.477C441.882,-829.769 431.085,-816.224 418,-808 381.356,-784.968 332.659,-775.788 296.435,-772.184"/>
<polygon fill="blue" stroke="blue" points="296.366,-768.664 286.097,-771.271 295.75,-775.637 296.366,-768.664"/>
<text text-anchor="middle" x="392" y="-819.6" font-family="Helvetica,sans-Serif" font-size="8.00">state:0</text>
<text text-anchor="middle" x="392" y="-810.6" font-family="Helvetica,sans-Serif" font-size="8.00">type:relatedTo</text>
</g>
<!-- n109 -->
<g id="node21" class="node"><title>n109</title>
<polygon fill="#cae1ff" stroke="black" points="287.5,-729.5 202.5,-729.5 202.5,-684.5 287.5,-684.5 287.5,-729.5"/>
<text text-anchor="middle" x="245" y="-714.1" font-family="Helvetica,sans-Serif" font-size="8.00">node_id:107</text>
<text text-anchor="middle" x="245" y="-705.1" font-family="Helvetica,sans-Serif" font-size="8.00">value:0</text>
<text text-anchor="middle" x="245" y="-696.1" font-family="Helvetica,sans-Serif" font-size="8.00">name:RLIMIT_RTPRIO</text>
<text text-anchor="middle" x="245" y="-687.1" font-family="Helvetica,sans-Serif" font-size="8.00">type:1</text>
</g>
<!-- n77&#45;&gt;n109 -->
<g id="edge6" class="edge"><title>n77&#45;&gt;n109</title>
<path fill="none" stroke="blue" d="M458.789,-841.658C454.099,-817.183 443.028,-778.431 418,-756 385.029,-726.451 335.424,-714.617 297.945,-709.932"/>
<polygon fill="blue" stroke="blue" points="298.046,-706.421 287.72,-708.791 297.27,-713.378 298.046,-706.421"/>
<text text-anchor="middle" x="392" y="-767.6" font-family="Helvetica,sans-Serif" font-size="8.00">state:0</text>
<text text-anchor="middle" x="392" y="-758.6" font-family="Helvetica,sans-Serif" font-size="8.00">type:relatedTo</text>
</g>
<!-- n3 -->
<g id="node22" class="node"><title>n3</title>
<ellipse fill="green" stroke="black" cx="245" cy="-648" rx="27" ry="18"/>
<text text-anchor="middle" x="245" y="-646.1" font-family="Helvetica,sans-Serif" font-size="8.00">Dummy Node</text>
</g>
<!-- n77&#45;&gt;n3 -->
<g id="edge3" class="edge"><title>n77&#45;&gt;n3</title>
<path fill="none" stroke="blue" d="M462.663,-841.661C462.466,-805.995 456.739,-736.131 418,-696 382.574,-659.301 321.638,-649.948 282.615,-647.949"/>
<polygon fill="blue" stroke="blue" points="282.352,-644.437 272.229,-647.564 282.093,-651.432 282.352,-644.437"/>
<text text-anchor="middle" x="392" y="-707.6" font-family="Helvetica,sans-Serif" font-size="8.00">state:0</text>
<text text-anchor="middle" x="392" y="-698.6" font-family="Helvetica,sans-Serif" font-size="8.00">type:relatedTo</text>
</g>
<!-- n105 -->
<g id="node23" class="node"><title>n105</title>
<polygon fill="#cae1ff" stroke="black" points="282,-611.5 208,-611.5 208,-566.5 282,-566.5 282,-611.5"/>
<text text-anchor="middle" x="245" y="-596.1" font-family="Helvetica,sans-Serif" font-size="8.00">node_id:103</text>
<text text-anchor="middle" x="245" y="-587.1" font-family="Helvetica,sans-Serif" font-size="8.00">value:0</text>
<text text-anchor="middle" x="245" y="-578.1" font-family="Helvetica,sans-Serif" font-size="8.00">name:RLIMIT_NICE</text>
<text text-anchor="middle" x="245" y="-569.1" font-family="Helvetica,sans-Serif" font-size="8.00">type:1</text>
</g>
<!-- n77&#45;&gt;n105 -->
<g id="edge27" class="edge"><title>n77&#45;&gt;n105</title>
<path fill="none" stroke="blue" d="M460.672,-841.726C457.149,-790.206 445.861,-664.928 418,-635 386.002,-600.628 331.407,-590.852 292.304,-588.584"/>
<polygon fill="blue" stroke="blue" points="292.363,-585.083 282.22,-588.144 292.057,-592.077 292.363,-585.083"/>
<text text-anchor="middle" x="392" y="-646.6" font-family="Helvetica,sans-Serif" font-size="8.00">state:0</text>
<text text-anchor="middle" x="392" y="-637.6" font-family="Helvetica,sans-Serif" font-size="8.00">type:relatedTo</text>
</g>
<!-- n94 -->
<g id="node24" class="node"><title>n94</title>
<polygon fill="#cae1ff" stroke="black" points="272,-548.5 218,-548.5 218,-503.5 272,-503.5 272,-548.5"/>
<text text-anchor="middle" x="245" y="-533.1" font-family="Helvetica,sans-Serif" font-size="8.00">node_id:92</text>
<text text-anchor="middle" x="245" y="-524.1" font-family="Helvetica,sans-Serif" font-size="8.00">value:x86_64</text>
<text text-anchor="middle" x="245" y="-515.1" font-family="Helvetica,sans-Serif" font-size="8.00">name:machine</text>
<text text-anchor="middle" x="245" y="-506.1" font-family="Helvetica,sans-Serif" font-size="8.00">type:1</text>
</g>
<!-- n77&#45;&gt;n94 -->
<g id="edge7" class="edge"><title>n77&#45;&gt;n94</title>
<path fill="none" stroke="blue" d="M461.697,-841.687C460.406,-780.479 453.622,-611.844 418,-572 383.769,-533.712 321.518,-525.747 282.039,-524.873"/>
<polygon fill="blue" stroke="blue" points="282.065,-521.373 272.037,-524.791 282.008,-528.373 282.065,-521.373"/>
<text text-anchor="middle" x="392" y="-583.6" font-family="Helvetica,sans-Serif" font-size="8.00">state:0</text>
<text text-anchor="middle" x="392" y="-574.6" font-family="Helvetica,sans-Serif" font-size="8.00">type:relatedTo</text>
</g>
<!-- n95 -->
<g id="node25" class="node"><title>n95</title>
<polygon fill="#cae1ff" stroke="black" points="301,-485.5 189,-485.5 189,-440.5 301,-440.5 301,-485.5"/>
<text text-anchor="middle" x="245" y="-470.1" font-family="Helvetica,sans-Serif" font-size="8.00">node_id:93</text>
<text text-anchor="middle" x="245" y="-461.1" font-family="Helvetica,sans-Serif" font-size="8.00">value:18446744073709551615</text>
<text text-anchor="middle" x="245" y="-452.1" font-family="Helvetica,sans-Serif" font-size="8.00">name:RLIMIT_AS</text>
<text text-anchor="middle" x="245" y="-443.1" font-family="Helvetica,sans-Serif" font-size="8.00">type:1</text>
</g>
<!-- n77&#45;&gt;n95 -->
<g id="edge11" class="edge"><title>n77&#45;&gt;n95</title>
<path fill="none" stroke="blue" d="M462.369,-841.539C463.051,-771.515 461.432,-558.882 418,-509 391.747,-478.848 348.116,-467.422 311.37,-463.496"/>
<polygon fill="blue" stroke="blue" points="311.482,-459.992 301.208,-462.578 310.853,-466.964 311.482,-459.992"/>
<text text-anchor="middle" x="392" y="-520.6" font-family="Helvetica,sans-Serif" font-size="8.00">state:0</text>
<text text-anchor="middle" x="392" y="-511.6" font-family="Helvetica,sans-Serif" font-size="8.00">type:relatedTo</text>
</g>
<!-- n103 -->
<g id="node26" class="node"><title>n103</title>
<polygon fill="#cae1ff" stroke="black" points="292.5,-422.5 197.5,-422.5 197.5,-377.5 292.5,-377.5 292.5,-422.5"/>
<text text-anchor="middle" x="245" y="-407.1" font-family="Helvetica,sans-Serif" font-size="8.00">node_id:101</text>
<text text-anchor="middle" x="245" y="-398.1" font-family="Helvetica,sans-Serif" font-size="8.00">value:65536</text>
<text text-anchor="middle" x="245" y="-389.1" font-family="Helvetica,sans-Serif" font-size="8.00">name:RLIMIT_MEMLOCK</text>
<text text-anchor="middle" x="245" y="-380.1" font-family="Helvetica,sans-Serif" font-size="8.00">type:1</text>
</g>
<!-- n77&#45;&gt;n103 -->
<g id="edge13" class="edge"><title>n77&#45;&gt;n103</title>
<path fill="none" stroke="blue" d="M461.12,-841.613C457.681,-759.116 444.037,-475.306 418,-445 389.842,-412.225 341.047,-401.839 302.604,-399.156"/>
<polygon fill="blue" stroke="blue" points="302.744,-395.658 292.569,-398.611 302.364,-402.648 302.744,-395.658"/>
<text text-anchor="middle" x="392" y="-456.6" font-family="Helvetica,sans-Serif" font-size="8.00">state:0</text>
<text text-anchor="middle" x="392" y="-447.6" font-family="Helvetica,sans-Serif" font-size="8.00">type:relatedTo</text>
</g>
<!-- n91 -->
<g id="node27" class="node"><title>n91</title>
<polygon fill="#cae1ff" stroke="black" points="275.5,-359.5 214.5,-359.5 214.5,-314.5 275.5,-314.5 275.5,-359.5"/>
<text text-anchor="middle" x="245" y="-344.1" font-family="Helvetica,sans-Serif" font-size="8.00">node_id:89</text>
<text text-anchor="middle" x="245" y="-335.1" font-family="Helvetica,sans-Serif" font-size="8.00">value:opus</text>
<text text-anchor="middle" x="245" y="-326.1" font-family="Helvetica,sans-Serif" font-size="8.00">name:nodename</text>
<text text-anchor="middle" x="245" y="-317.1" font-family="Helvetica,sans-Serif" font-size="8.00">type:1</text>
</g>
<!-- n77&#45;&gt;n91 -->
<g id="edge14" class="edge"><title>n77&#45;&gt;n91</title>
<path fill="none" stroke="blue" d="M461.457,-841.677C459.065,-751.398 448.203,-416.453 418,-381 385.707,-343.093 325.668,-335.507 285.767,-335.07"/>
<polygon fill="blue" stroke="blue" points="285.573,-331.57 275.586,-335.107 285.599,-338.57 285.573,-331.57"/>
<text text-anchor="middle" x="392" y="-392.6" font-family="Helvetica,sans-Serif" font-size="8.00">state:0</text>
<text text-anchor="middle" x="392" y="-383.6" font-family="Helvetica,sans-Serif" font-size="8.00">type:relatedTo</text>
</g>
<!-- n111 -->
<g id="node28" class="node"><title>n111</title>
<polygon fill="#cae1ff" stroke="black" points="297.5,-296.5 192.5,-296.5 192.5,-251.5 297.5,-251.5 297.5,-296.5"/>
<text text-anchor="middle" x="245" y="-281.1" font-family="Helvetica,sans-Serif" font-size="8.00">node_id:109</text>
<text text-anchor="middle" x="245" y="-272.1" font-family="Helvetica,sans-Serif" font-size="8.00">value:3840</text>
<text text-anchor="middle" x="245" y="-263.1" font-family="Helvetica,sans-Serif" font-size="8.00">name:RLIMIT_SIGPENDING</text>
<text text-anchor="middle" x="245" y="-254.1" font-family="Helvetica,sans-Serif" font-size="8.00">type:1</text>
</g>
<!-- n77&#45;&gt;n111 -->
<g id="edge18" class="edge"><title>n77&#45;&gt;n111</title>
<path fill="none" stroke="blue" d="M461.712,-841.426C460.258,-743.376 452.379,-357.565 418,-317 391.442,-285.663 345.832,-275.313 308.25,-272.584"/>
<polygon fill="blue" stroke="blue" points="308.065,-269.068 297.886,-272.006 307.675,-276.058 308.065,-269.068"/>
<text text-anchor="middle" x="392" y="-328.6" font-family="Helvetica,sans-Serif" font-size="8.00">state:0</text>
<text text-anchor="middle" x="392" y="-319.6" font-family="Helvetica,sans-Serif" font-size="8.00">type:relatedTo</text>
</g>
<!-- n102 -->
<g id="node30" class="node"><title>n102</title>
<polygon fill="#cae1ff" stroke="black" points="301,-233.5 189,-233.5 189,-188.5 301,-188.5 301,-233.5"/>
<text text-anchor="middle" x="245" y="-218.1" font-family="Helvetica,sans-Serif" font-size="8.00">node_id:100</text>
<text text-anchor="middle" x="245" y="-209.1" font-family="Helvetica,sans-Serif" font-size="8.00">value:18446744073709551615</text>
<text text-anchor="middle" x="245" y="-200.1" font-family="Helvetica,sans-Serif" font-size="8.00">name:RLIMIT_LOCKS</text>
<text text-anchor="middle" x="245" y="-191.1" font-family="Helvetica,sans-Serif" font-size="8.00">type:1</text>
</g>
<!-- n77&#45;&gt;n102 -->
<g id="edge16" class="edge"><title>n77&#45;&gt;n102</title>
<path fill="none" stroke="blue" d="M461.913,-841.692C461.306,-737.254 456.469,-299.773 418,-254 392.296,-223.415 348.441,-212.791 311.448,-209.748"/>
<polygon fill="blue" stroke="blue" points="311.424,-206.239 301.217,-209.081 310.968,-213.225 311.424,-206.239"/>
<text text-anchor="middle" x="392" y="-265.6" font-family="Helvetica,sans-Serif" font-size="8.00">state:0</text>
<text text-anchor="middle" x="392" y="-256.6" font-family="Helvetica,sans-Serif" font-size="8.00">type:relatedTo</text>
</g>
<!-- n99 -->
<g id="node32" class="node"><title>n99</title>
<polygon fill="#cae1ff" stroke="black" points="301,-170.5 189,-170.5 189,-125.5 301,-125.5 301,-170.5"/>
<text text-anchor="middle" x="245" y="-155.1" font-family="Helvetica,sans-Serif" font-size="8.00">node_id:97</text>
<text text-anchor="middle" x="245" y="-146.1" font-family="Helvetica,sans-Serif" font-size="8.00">value:18446744073709551615</text>
<text text-anchor="middle" x="245" y="-137.1" font-family="Helvetica,sans-Serif" font-size="8.00">name:RLIMIT_FSIZE</text>
<text text-anchor="middle" x="245" y="-128.1" font-family="Helvetica,sans-Serif" font-size="8.00">type:1</text>
</g>
<!-- n77&#45;&gt;n99 -->
<g id="edge5" class="edge"><title>n77&#45;&gt;n99</title>
<path fill="none" stroke="blue" d="M462.074,-841.646C462.239,-730.639 460.534,-241.956 418,-191 392.399,-160.329 348.542,-149.706 311.523,-146.685"/>
<polygon fill="blue" stroke="blue" points="311.489,-143.176 301.284,-146.025 311.038,-150.162 311.489,-143.176"/>
<text text-anchor="middle" x="392" y="-202.6" font-family="Helvetica,sans-Serif" font-size="8.00">state:0</text>
<text text-anchor="middle" x="392" y="-193.6" font-family="Helvetica,sans-Serif" font-size="8.00">type:relatedTo</text>
</g>
<!-- n90 -->
<g id="node36" class="node"><title>n90</title>
<polygon fill="#cae1ff" stroke="black" points="272.5,-107.5 217.5,-107.5 217.5,-62.5 272.5,-62.5 272.5,-107.5"/>
<text text-anchor="middle" x="245" y="-92.1" font-family="Helvetica,sans-Serif" font-size="8.00">node_id:88</text>
<text text-anchor="middle" x="245" y="-83.1" font-family="Helvetica,sans-Serif" font-size="8.00">value:Linux</text>
<text text-anchor="middle" x="245" y="-74.1" font-family="Helvetica,sans-Serif" font-size="8.00">name:sysname</text>
<text text-anchor="middle" x="245" y="-65.1" font-family="Helvetica,sans-Serif" font-size="8.00">type:1</text>
</g>
<!-- n77&#45;&gt;n90 -->
<g id="edge38" class="edge"><title>n77&#45;&gt;n90</title>
<path fill="none" stroke="blue" d="M462.216,-841.492C463.142,-723.868 464.814,-183.094 418,-127 385.366,-87.8969 322.922,-81.8174 282.927,-82.3941"/>
<polygon fill="blue" stroke="blue" points="282.674,-78.8999 272.78,-82.6893 282.878,-85.8969 282.674,-78.8999"/>
<text text-anchor="middle" x="392" y="-138.6" font-family="Helvetica,sans-Serif" font-size="8.00">state:0</text>
<text text-anchor="middle" x="392" y="-129.6" font-family="Helvetica,sans-Serif" font-size="8.00">type:relatedTo</text>
</g>
<!-- n97 -->
<g id="node37" class="node"><title>n97</title>
<polygon fill="#cae1ff" stroke="black" points="301,-44.5 189,-44.5 189,0.5 301,0.5 301,-44.5"/>
<text text-anchor="middle" x="245" y="-29.1" font-family="Helvetica,sans-Serif" font-size="8.00">node_id:95</text>
<text text-anchor="middle" x="245" y="-20.1" font-family="Helvetica,sans-Serif" font-size="8.00">value:18446744073709551615</text>
<text text-anchor="middle" x="245" y="-11.1" font-family="Helvetica,sans-Serif" font-size="8.00">name:RLIMIT_CPU</text>
<text text-anchor="middle" x="245" y="-2.1" font-family="Helvetica,sans-Serif" font-size="8.00">type:1</text>
</g>
<!-- n77&#45;&gt;n97 -->
<g id="edge28" class="edge"><title>n77&#45;&gt;n97</title>
<path fill="none" stroke="blue" d="M461.512,-841.46C458.674,-714.651 443.524,-94.7298 418,-64 392.508,-33.3085 348.65,-22.9425 311.603,-20.181"/>
<polygon fill="blue" stroke="blue" points="311.54,-16.6717 301.356,-19.5932 311.139,-23.6602 311.54,-16.6717"/>
<text text-anchor="middle" x="392" y="-75.6" font-family="Helvetica,sans-Serif" font-size="8.00">state:0</text>
<text text-anchor="middle" x="392" y="-66.6" font-family="Helvetica,sans-Serif" font-size="8.00">type:relatedTo</text>
</g>
<!-- n85 -->
<g id="node11" class="node"><title>n85</title>
<polygon fill="#cae1ff" stroke="black" points="825,-923.5 771,-923.5 771,-878.5 825,-878.5 825,-923.5"/>
<text text-anchor="middle" x="798" y="-908.1" font-family="Helvetica,sans-Serif" font-size="8.00">node_id:83</text>
<text text-anchor="middle" x="798" y="-899.1" font-family="Helvetica,sans-Serif" font-size="8.00">ref_count:0</text>
<text text-anchor="middle" x="798" y="-890.1" font-family="Helvetica,sans-Serif" font-size="8.00">name:omega</text>
<text text-anchor="middle" x="798" y="-881.1" font-family="Helvetica,sans-Serif" font-size="8.00">type:4</text>
</g>
<!-- n85&#45;&gt;n77 -->
<g id="edge33" class="edge"><title>n85&#45;&gt;n77</title>
<path fill="none" stroke="blue" d="M770.888,-905.548C751.859,-908.623 725.418,-912.405 702,-914 615.565,-919.887 588.665,-926.602 508,-895 504.955,-893.807 501.92,-892.361 498.949,-890.753"/>
<polygon fill="blue" stroke="blue" points="500.657,-887.696 490.285,-885.535 497.046,-893.692 500.657,-887.696"/>
<text text-anchor="middle" x="605" y="-930.6" font-family="Helvetica,sans-Serif" font-size="8.00">state:5</text>
<text text-anchor="middle" x="605" y="-921.6" font-family="Helvetica,sans-Serif" font-size="8.00">type:relatedTo</text>
</g>
<!-- n82 -->
<g id="node33" class="node"><title>n82</title>
<polygon fill="#cae1ff" stroke="black" points="632,-886.5 578,-886.5 578,-841.5 632,-841.5 632,-886.5"/>
<text text-anchor="middle" x="605" y="-871.1" font-family="Helvetica,sans-Serif" font-size="8.00">node_id:80</text>
<text text-anchor="middle" x="605" y="-862.1" font-family="Helvetica,sans-Serif" font-size="8.00">ref_count:1</text>
<text text-anchor="middle" x="605" y="-853.1" font-family="Helvetica,sans-Serif" font-size="8.00">name:omega</text>
<text text-anchor="middle" x="605" y="-844.1" font-family="Helvetica,sans-Serif" font-size="8.00">type:4</text>
</g>
<!-- n85&#45;&gt;n82 -->
<g id="edge4" class="edge"><title>n85&#45;&gt;n82</title>
<path fill="none" stroke="blue" d="M770.843,-895.933C737.503,-889.474 679.701,-878.277 642.161,-871.005"/>
<polygon fill="blue" stroke="blue" points="642.63,-867.531 632.147,-869.065 641.299,-874.403 642.63,-867.531"/>
<text text-anchor="middle" x="676" y="-894.6" font-family="Helvetica,sans-Serif" font-size="8.00">state:0</text>
<text text-anchor="middle" x="676" y="-885.6" font-family="Helvetica,sans-Serif" font-size="8.00">type:relatedTo</text>
</g>
<!-- n79 -->
<g id="node17" class="node"><title>n79</title>
<polygon fill="#cae1ff" stroke="black" points="632,-757 578,-757 578,-721 632,-721 632,-757"/>
<text text-anchor="middle" x="605" y="-741.6" font-family="Helvetica,sans-Serif" font-size="8.00">node_id:77</text>
<text text-anchor="middle" x="605" y="-732.6" font-family="Helvetica,sans-Serif" font-size="8.00">name:1</text>
<text text-anchor="middle" x="605" y="-723.6" font-family="Helvetica,sans-Serif" font-size="8.00">type:4</text>
</g>
<!-- n79&#45;&gt;n77 -->
<g id="edge23" class="edge"><title>n79&#45;&gt;n77</title>
<path fill="none" stroke="blue" d="M583.643,-757.176C560.865,-777.513 523.639,-810.751 496.754,-834.755"/>
<polygon fill="blue" stroke="blue" points="494.247,-832.301 489.119,-841.572 498.909,-837.523 494.247,-832.301"/>
<text text-anchor="middle" x="534" y="-835.6" font-family="Helvetica,sans-Serif" font-size="8.00">state:5</text>
<text text-anchor="middle" x="534" y="-826.6" font-family="Helvetica,sans-Serif" font-size="8.00">type:relatedTo</text>
</g>
<!-- n81 -->
<g id="node34" class="node"><title>n81</title>
<polygon fill="#cae1ff" stroke="black" points="54,-666 0,-666 0,-630 54,-630 54,-666"/>
<text text-anchor="middle" x="27" y="-650.6" font-family="Helvetica,sans-Serif" font-size="8.00">node_id:79</text>
<text text-anchor="middle" x="27" y="-641.6" font-family="Helvetica,sans-Serif" font-size="8.00">fn:fork</text>
<text text-anchor="middle" x="27" y="-632.6" font-family="Helvetica,sans-Serif" font-size="8.00">type:5</text>
</g>
<!-- n3&#45;&gt;n81 -->
<g id="edge21" class="edge"><title>n3&#45;&gt;n81</title>
<path fill="none" stroke="blue" d="M217.945,-648C179.592,-648 107.789,-648 64.294,-648"/>
<polygon fill="blue" stroke="blue" points="64.1471,-644.5 54.1471,-648 64.147,-651.5 64.1471,-644.5"/>
<text text-anchor="middle" x="98" y="-659.6" font-family="Helvetica,sans-Serif" font-size="8.00">state:0</text>
<text text-anchor="middle" x="98" y="-650.6" font-family="Helvetica,sans-Serif" font-size="8.00">type:relatedTo</text>
</g>
<!-- n83 -->
<g id="node29" class="node"><title>n83</title>
<polygon fill="#cae1ff" stroke="black" points="876,-840 720,-840 720,-804 876,-804 876,-840"/>
<text text-anchor="middle" x="798" y="-824.6" font-family="Helvetica,sans-Serif" font-size="8.00">node_id:81</text>
<text text-anchor="middle" x="798" y="-815.6" font-family="Helvetica,sans-Serif" font-size="8.00">name:[&#39;/home/vagrant/ProvMark/stage/test&#39;]</text>
<text text-anchor="middle" x="798" y="-806.6" font-family="Helvetica,sans-Serif" font-size="8.00">type:2</text>
</g>
<!-- n6 -->
<g id="node31" class="node"><title>n6</title>
<ellipse fill="green" stroke="black" cx="605" cy="-793" rx="27" ry="18"/>
<text text-anchor="middle" x="605" y="-791.1" font-family="Helvetica,sans-Serif" font-size="8.00">Dummy Node</text>
</g>
<!-- n83&#45;&gt;n6 -->
<g id="edge20" class="edge"><title>n83&#45;&gt;n6</title>
<path fill="none" stroke="blue" d="M756.218,-803.931C739.727,-797.55 720.295,-791.175 702,-788 679.229,-784.048 673.074,-786.693 650,-788 647.287,-788.154 644.485,-788.36 641.669,-788.602"/>
<polygon fill="blue" stroke="blue" points="641.159,-785.135 631.551,-789.601 641.847,-792.101 641.159,-785.135"/>
<text text-anchor="middle" x="676" y="-799.6" font-family="Helvetica,sans-Serif" font-size="8.00">state:0</text>
<text text-anchor="middle" x="676" y="-790.6" font-family="Helvetica,sans-Serif" font-size="8.00">type:relatedTo</text>
</g>
<!-- n83&#45;&gt;n82 -->
<g id="edge1" class="edge"><title>n83&#45;&gt;n82</title>
<path fill="none" stroke="blue" d="M719.67,-827.697C696.893,-830.66 672.149,-835.162 650,-842 647.246,-842.85 644.453,-843.859 641.68,-844.969"/>
<polygon fill="blue" stroke="blue" points="640.15,-841.818 632.41,-849.053 642.973,-848.224 640.15,-841.818"/>
<text text-anchor="middle" x="676" y="-853.6" font-family="Helvetica,sans-Serif" font-size="8.00">state:7</text>
<text text-anchor="middle" x="676" y="-844.6" font-family="Helvetica,sans-Serif" font-size="8.00">type:relatedTo</text>
</g>
<!-- n82&#45;&gt;n77 -->
<g id="edge8" class="edge"><title>n82&#45;&gt;n77</title>
<path fill="none" stroke="blue" d="M577.995,-864C556.228,-864 524.917,-864 500.615,-864"/>
<polygon fill="blue" stroke="blue" points="500.341,-860.5 490.341,-864 500.341,-867.5 500.341,-860.5"/>
<text text-anchor="middle" x="534" y="-875.6" font-family="Helvetica,sans-Serif" font-size="8.00">state:10</text>
<text text-anchor="middle" x="534" y="-866.6" font-family="Helvetica,sans-Serif" font-size="8.00">type:relatedTo</text>
</g>
<!-- n84 -->
<g id="node35" class="node"><title>n84</title>
<polygon fill="#cae1ff" stroke="black" points="1120,-840 964,-840 964,-804 1120,-804 1120,-840"/>
<text text-anchor="middle" x="1042" y="-824.6" font-family="Helvetica,sans-Serif" font-size="8.00">node_id:82</text>
<text text-anchor="middle" x="1042" y="-815.6" font-family="Helvetica,sans-Serif" font-size="8.00">name:[&#39;/home/vagrant/ProvMark/stage/test&#39;]</text>
<text text-anchor="middle" x="1042" y="-806.6" font-family="Helvetica,sans-Serif" font-size="8.00">type:2</text>
</g>
<!-- n84&#45;&gt;n83 -->
<g id="edge15" class="edge"><title>n84&#45;&gt;n83</title>
<path fill="none" stroke="blue" d="M963.764,-822C939.206,-822 911.868,-822 886.631,-822"/>
<polygon fill="blue" stroke="blue" points="886.332,-818.5 876.332,-822 886.332,-825.5 886.332,-818.5"/>
<text text-anchor="middle" x="920" y="-833.6" font-family="Helvetica,sans-Serif" font-size="8.00">state:0</text>
<text text-anchor="middle" x="920" y="-824.6" font-family="Helvetica,sans-Serif" font-size="8.00">type:relatedTo</text>
</g>
<!-- n78 -->
<g id="node38" class="node"><title>n78</title>
<polygon fill="#cae1ff" stroke="black" points="632,-703 578,-703 578,-667 632,-667 632,-703"/>
<text text-anchor="middle" x="605" y="-687.6" font-family="Helvetica,sans-Serif" font-size="8.00">node_id:76</text>
<text text-anchor="middle" x="605" y="-678.6" font-family="Helvetica,sans-Serif" font-size="8.00">name:2</text>
<text text-anchor="middle" x="605" y="-669.6" font-family="Helvetica,sans-Serif" font-size="8.00">type:4</text>
</g>
<!-- n78&#45;&gt;n77 -->
<g id="edge25" class="edge"><title>n78&#45;&gt;n77</title>
<path fill="none" stroke="blue" d="M577.9,-696.758C556.49,-707.588 526.755,-725.526 508,-749 488.619,-773.258 477.066,-807.01 470.698,-831.673"/>
<polygon fill="blue" stroke="blue" points="467.238,-831.089 468.278,-841.633 474.04,-832.742 467.238,-831.089"/>
<text text-anchor="middle" x="534" y="-760.6" font-family="Helvetica,sans-Serif" font-size="8.00">state:5</text>
<text text-anchor="middle" x="534" y="-751.6" font-family="Helvetica,sans-Serif" font-size="8.00">type:relatedTo</text>
</g>
</g>
</svg>
