<?xml version="1.0" encoding="UTF-8" standalone="no"?>
<!DOCTYPE svg PUBLIC "-//W3C//DTD SVG 1.1//EN"
 "http://www.w3.org/Graphics/SVG/1.1/DTD/svg11.dtd">
<!-- Generated by graphviz version 2.36.0 (20140111.2315)
 -->
<!-- Title: clingo2dot Pages: 1 -->
<svg width="1176pt" height="185pt"
 viewBox="0.00 0.00 1176.00 185.00" xmlns="http://www.w3.org/2000/svg" xmlns:xlink="http://www.w3.org/1999/xlink">
<g id="graph0" class="graph" transform="scale(1 1) rotate(0) translate(4 181)">
<title>clingo2dot</title>
<polygon fill="white" stroke="none" points="-4,4 -4,-181 1172,-181 1172,4 -4,4"/>
<!-- n79 -->
<g id="node1" class="node"><title>n79</title>
<polygon fill="#cae1ff" stroke="black" points="755.5,-36 574.5,-36 574.5,-0 755.5,-0 755.5,-36"/>
<text text-anchor="middle" x="665" y="-20.6" font-family="Helvetica,sans-Serif" font-size="8.00">node_id:77</text>
<text text-anchor="middle" x="665" y="-11.6" font-family="Helvetica,sans-Serif" font-size="8.00">name:[&#39;/home/vagrant/ProvMark/stage/link&#45;test.txt&#39;]</text>
<text text-anchor="middle" x="665" y="-2.6" font-family="Helvetica,sans-Serif" font-size="8.00">type:2</text>
</g>
<!-- n77 -->
<g id="node2" class="node"><title>n77</title>
<polygon fill="#cae1ff" stroke="black" points="486,-93.5 432,-93.5 432,-48.5 486,-48.5 486,-93.5"/>
<text text-anchor="middle" x="459" y="-78.1" font-family="Helvetica,sans-Serif" font-size="8.00">node_id:75</text>
<text text-anchor="middle" x="459" y="-69.1" font-family="Helvetica,sans-Serif" font-size="8.00">name:omega</text>
<text text-anchor="middle" x="459" y="-60.1" font-family="Helvetica,sans-Serif" font-size="8.00">ref_count:1</text>
<text text-anchor="middle" x="459" y="-51.1" font-family="Helvetica,sans-Serif" font-size="8.00">type:4</text>
</g>
<!-- n79&#45;&gt;n77 -->
<g id="edge6" class="edge"><title>n79&#45;&gt;n77</title>
<path fill="none" stroke="blue" d="M574.131,-23.6342C550.753,-27.0514 525.973,-32.4625 504,-41 500.984,-42.172 497.97,-43.5842 495.014,-45.1492"/>
<polygon fill="blue" stroke="blue" points="493.232,-42.1367 486.376,-50.2145 496.773,-48.1751 493.232,-42.1367"/>
<text text-anchor="middle" x="530" y="-52.6" font-family="Helvetica,sans-Serif" font-size="8.00">state:0</text>
<text text-anchor="middle" x="530" y="-43.6" font-family="Helvetica,sans-Serif" font-size="8.00">type:relatedTo</text>
</g>
<!-- n82 -->
<g id="node3" class="node"><title>n82</title>
<polygon fill="#cae1ff" stroke="black" points="343.5,-102.5 0.5,-102.5 0.5,-39.5 343.5,-39.5 343.5,-102.5"/>
<text text-anchor="middle" x="172" y="-87.1" font-family="Helvetica,sans-Serif" font-size="8.00">node_id:80</text>
<text text-anchor="middle" x="172" y="-78.1" font-family="Helvetica,sans-Serif" font-size="8.00">arg_keys:[&#39;path1&#39;, &#39;path2&#39;]</text>
<text text-anchor="middle" x="172" y="-69.1" font-family="Helvetica,sans-Serif" font-size="8.00">fn:link</text>
<text text-anchor="middle" x="172" y="-60.1" font-family="Helvetica,sans-Serif" font-size="8.00">ret:0</text>
<text text-anchor="middle" x="172" y="-51.1" font-family="Helvetica,sans-Serif" font-size="8.00">arg_values:[&#39;/home/vagrant/ProvMark/stage/test.txt&#39;, &#39;/home/vagrant/ProvMark/stage/link&#45;test.txt&#39;]</text>
<text text-anchor="middle" x="172" y="-42.1" font-family="Helvetica,sans-Serif" font-size="8.00">type:5</text>
</g>
<!-- n77&#45;&gt;n82 -->
<g id="edge4" class="edge"><title>n77&#45;&gt;n82</title>
<path fill="none" stroke="blue" d="M431.953,-71C412.672,-71 384.51,-71 353.784,-71"/>
<polygon fill="blue" stroke="blue" points="353.725,-67.5001 343.725,-71 353.725,-74.5001 353.725,-67.5001"/>
<text text-anchor="middle" x="388" y="-82.6" font-family="Helvetica,sans-Serif" font-size="8.00">state:0</text>
<text text-anchor="middle" x="388" y="-73.6" font-family="Helvetica,sans-Serif" font-size="8.00">type:relatedTo</text>
</g>
<!-- n3 -->
<g id="node7" class="node"><title>n3</title>
<ellipse fill="green" stroke="black" cx="172" cy="-151" rx="27" ry="18"/>
<text text-anchor="middle" x="172" y="-149.1" font-family="Helvetica,sans-Serif" font-size="8.00">Dummy Node</text>
</g>
<!-- n77&#45;&gt;n3 -->
<g id="edge7" class="edge"><title>n77&#45;&gt;n3</title>
<path fill="none" stroke="blue" d="M431.83,-89.7636C426.149,-93.2256 420.031,-96.5238 414,-99 344.465,-127.552 256.92,-141.401 208.796,-147.284"/>
<polygon fill="blue" stroke="blue" points="208.385,-143.808 198.862,-148.453 209.203,-150.76 208.385,-143.808"/>
<text text-anchor="middle" x="388" y="-128.6" font-family="Helvetica,sans-Serif" font-size="8.00">state:10</text>
<text text-anchor="middle" x="388" y="-119.6" font-family="Helvetica,sans-Serif" font-size="8.00">type:relatedTo</text>
</g>
<!-- n81 -->
<g id="node4" class="node"><title>n81</title>
<polygon fill="#cae1ff" stroke="black" points="692,-167.5 638,-167.5 638,-122.5 692,-122.5 692,-167.5"/>
<text text-anchor="middle" x="665" y="-152.1" font-family="Helvetica,sans-Serif" font-size="8.00">node_id:79</text>
<text text-anchor="middle" x="665" y="-143.1" font-family="Helvetica,sans-Serif" font-size="8.00">name:omega</text>
<text text-anchor="middle" x="665" y="-134.1" font-family="Helvetica,sans-Serif" font-size="8.00">ref_count:0</text>
<text text-anchor="middle" x="665" y="-125.1" font-family="Helvetica,sans-Serif" font-size="8.00">type:4</text>
</g>
<!-- n81&#45;&gt;n77 -->
<g id="edge1" class="edge"><title>n81&#45;&gt;n77</title>
<path fill="none" stroke="blue" d="M637.983,-139.929C605.642,-133.087 549.193,-119.363 504,-99 501.028,-97.6609 498.022,-96.1448 495.05,-94.5278"/>
<polygon fill="blue" stroke="blue" points="496.71,-91.4446 486.305,-89.4507 493.196,-97.4984 496.71,-91.4446"/>
<text text-anchor="middle" x="530" y="-130.6" font-family="Helvetica,sans-Serif" font-size="8.00">state:0</text>
<text text-anchor="middle" x="530" y="-121.6" font-family="Helvetica,sans-Serif" font-size="8.00">type:relatedTo</text>
</g>
<!-- n81&#45;&gt;n3 -->
<g id="edge3" class="edge"><title>n81&#45;&gt;n3</title>
<path fill="none" stroke="blue" d="M637.818,-146.203C615.951,-147.151 583.95,-148.41 556,-149 428.531,-151.693 277.15,-151.474 209.185,-151.194"/>
<polygon fill="blue" stroke="blue" points="209.025,-147.694 199.01,-151.149 208.994,-154.693 209.025,-147.694"/>
<text text-anchor="middle" x="459" y="-161.6" font-family="Helvetica,sans-Serif" font-size="8.00">state:5</text>
<text text-anchor="middle" x="459" y="-152.6" font-family="Helvetica,sans-Serif" font-size="8.00">type:relatedTo</text>
</g>
<!-- n78 -->
<g id="node5" class="node"><title>n78</title>
<polygon fill="#cae1ff" stroke="black" points="748,-90 582,-90 582,-54 748,-54 748,-90"/>
<text text-anchor="middle" x="665" y="-74.6" font-family="Helvetica,sans-Serif" font-size="8.00">node_id:76</text>
<text text-anchor="middle" x="665" y="-65.6" font-family="Helvetica,sans-Serif" font-size="8.00">name:[&#39;/home/vagrant/ProvMark/stage/test.txt&#39;]</text>
<text text-anchor="middle" x="665" y="-56.6" font-family="Helvetica,sans-Serif" font-size="8.00">type:2</text>
</g>
<!-- n78&#45;&gt;n77 -->
<g id="edge2" class="edge"><title>n78&#45;&gt;n77</title>
<path fill="none" stroke="blue" d="M581.907,-71.5976C552.336,-71.4526 520.442,-71.2963 496.696,-71.1799"/>
<polygon fill="blue" stroke="blue" points="496.414,-67.6786 486.397,-71.1294 496.379,-74.6785 496.414,-67.6786"/>
<text text-anchor="middle" x="530" y="-83.6" font-family="Helvetica,sans-Serif" font-size="8.00">state:0</text>
<text text-anchor="middle" x="530" y="-74.6" font-family="Helvetica,sans-Serif" font-size="8.00">type:relatedTo</text>
</g>
<!-- n80 -->
<g id="node6" class="node"><title>n80</title>
<polygon fill="#cae1ff" stroke="black" points="1168,-63 844,-63 844,-27 1168,-27 1168,-63"/>
<text text-anchor="middle" x="1006" y="-47.6" font-family="Helvetica,sans-Serif" font-size="8.00">node_id:78</text>
<text text-anchor="middle" x="1006" y="-38.6" font-family="Helvetica,sans-Serif" font-size="8.00">name:[&#39;/home/vagrant/ProvMark/stage/test.txt&#39;, &#39;/home/vagrant/ProvMark/stage/link&#45;test.txt&#39;]</text>
<text text-anchor="middle" x="1006" y="-29.6" font-family="Helvetica,sans-Serif" font-size="8.00">type:2</text>
</g>
<!-- n80&#45;&gt;n79 -->
<g id="edge8" class="edge"><title>n80&#45;&gt;n79</title>
<path fill="none" stroke="blue" d="M843.527,-30.4132C837.611,-29.9276 831.754,-29.4549 826,-29 806.529,-27.4606 785.715,-25.939 765.756,-24.5409"/>
<polygon fill="blue" stroke="blue" points="765.943,-21.0455 755.724,-23.8433 765.457,-28.0286 765.943,-21.0455"/>
<text text-anchor="middle" x="800" y="-40.6" font-family="Helvetica,sans-Serif" font-size="8.00">state:0</text>
<text text-anchor="middle" x="800" y="-31.6" font-family="Helvetica,sans-Serif" font-size="8.00">type:relatedTo</text>
</g>
<!-- n80&#45;&gt;n78 -->
<g id="edge5" class="edge"><title>n80&#45;&gt;n78</title>
<path fill="none" stroke="blue" d="M843.939,-57.8279C814.551,-60.1685 784.825,-62.5361 758.304,-64.6484"/>
<polygon fill="blue" stroke="blue" points="757.995,-61.1618 748.304,-65.4448 758.55,-68.1397 757.995,-61.1618"/>
<text text-anchor="middle" x="800" y="-75.6" font-family="Helvetica,sans-Serif" font-size="8.00">state:0</text>
<text text-anchor="middle" x="800" y="-66.6" font-family="Helvetica,sans-Serif" font-size="8.00">type:relatedTo</text>
</g>
</g>
</svg>
