<?xml version="1.0" encoding="UTF-8" standalone="no"?>
<!DOCTYPE svg PUBLIC "-//W3C//DTD SVG 1.1//EN"
 "http://www.w3.org/Graphics/SVG/1.1/DTD/svg11.dtd">
<!-- Generated by graphviz version 2.36.0 (20140111.2315)
 -->
<!-- Title: clingo2dot Pages: 1 -->
<svg width="1232pt" height="186pt"
 viewBox="0.00 0.00 1232.00 186.00" xmlns="http://www.w3.org/2000/svg" xmlns:xlink="http://www.w3.org/1999/xlink">
<g id="graph0" class="graph" transform="scale(1 1) rotate(0) translate(4 182)">
<title>clingo2dot</title>
<polygon fill="white" stroke="none" points="-4,4 -4,-182 1228,-182 1228,4 -4,4"/>
<!-- n80 -->
<g id="node1" class="node"><title>n80</title>
<polygon fill="#cae1ff" stroke="black" points="528,-93.5 474,-93.5 474,-48.5 528,-48.5 528,-93.5"/>
<text text-anchor="middle" x="501" y="-78.1" font-family="Helvetica,sans-Serif" font-size="8.00">ref_count:1</text>
<text text-anchor="middle" x="501" y="-69.1" font-family="Helvetica,sans-Serif" font-size="8.00">name:omega</text>
<text text-anchor="middle" x="501" y="-60.1" font-family="Helvetica,sans-Serif" font-size="8.00">node_id:78</text>
<text text-anchor="middle" x="501" y="-51.1" font-family="Helvetica,sans-Serif" font-size="8.00">type:4</text>
</g>
<!-- n85 -->
<g id="node4" class="node"><title>n85</title>
<polygon fill="#cae1ff" stroke="black" points="385.5,-102.5 0.5,-102.5 0.5,-39.5 385.5,-39.5 385.5,-102.5"/>
<text text-anchor="middle" x="193" y="-87.1" font-family="Helvetica,sans-Serif" font-size="8.00">node_id:83</text>
<text text-anchor="middle" x="193" y="-78.1" font-family="Helvetica,sans-Serif" font-size="8.00">arg_values:[&#39;3&#39;, &#39;/home/vagrant/ProvMark/stage/test.txt&#39;, &#39;3&#39;, &#39;/home/vagrant/ProvMark/stage/linkat&#45;test.txt&#39;, &#39;0&#39;]</text>
<text text-anchor="middle" x="193" y="-69.1" font-family="Helvetica,sans-Serif" font-size="8.00">ret:0</text>
<text text-anchor="middle" x="193" y="-60.1" font-family="Helvetica,sans-Serif" font-size="8.00">arg_keys:[&#39;olddirfd&#39;, &#39;oldpath&#39;, &#39;newdirfd&#39;, &#39;newpath&#39;, &#39;flags&#39;]</text>
<text text-anchor="middle" x="193" y="-51.1" font-family="Helvetica,sans-Serif" font-size="8.00">fn:linkat</text>
<text text-anchor="middle" x="193" y="-42.1" font-family="Helvetica,sans-Serif" font-size="8.00">type:5</text>
</g>
<!-- n80&#45;&gt;n85 -->
<g id="edge7" class="edge"><title>n80&#45;&gt;n85</title>
<path fill="none" stroke="blue" d="M473.911,-71C454.739,-71 426.715,-71 395.71,-71"/>
<polygon fill="blue" stroke="blue" points="395.547,-67.5001 385.547,-71 395.547,-74.5001 395.547,-67.5001"/>
<text text-anchor="middle" x="430" y="-82.6" font-family="Helvetica,sans-Serif" font-size="8.00">state:0</text>
<text text-anchor="middle" x="430" y="-73.6" font-family="Helvetica,sans-Serif" font-size="8.00">type:relatedTo</text>
</g>
<!-- n3 -->
<g id="node7" class="node"><title>n3</title>
<ellipse fill="green" stroke="black" cx="193" cy="-151" rx="27" ry="18"/>
<text text-anchor="middle" x="193" y="-149.1" font-family="Helvetica,sans-Serif" font-size="8.00">Dummy Node</text>
</g>
<!-- n80&#45;&gt;n3 -->
<g id="edge2" class="edge"><title>n80&#45;&gt;n3</title>
<path fill="none" stroke="blue" d="M473.861,-89.8413C468.179,-93.2976 462.051,-96.5739 456,-99 379.088,-129.838 281.896,-142.961 230.208,-148.074"/>
<polygon fill="blue" stroke="blue" points="229.821,-144.595 220.195,-149.02 230.48,-151.564 229.821,-144.595"/>
<text text-anchor="middle" x="430" y="-127.6" font-family="Helvetica,sans-Serif" font-size="8.00">state:10</text>
<text text-anchor="middle" x="430" y="-118.6" font-family="Helvetica,sans-Serif" font-size="8.00">type:relatedTo</text>
</g>
<!-- n82 -->
<g id="node2" class="node"><title>n82</title>
<polygon fill="#cae1ff" stroke="black" points="803.5,-36 616.5,-36 616.5,-0 803.5,-0 803.5,-36"/>
<text text-anchor="middle" x="710" y="-20.6" font-family="Helvetica,sans-Serif" font-size="8.00">node_id:80</text>
<text text-anchor="middle" x="710" y="-11.6" font-family="Helvetica,sans-Serif" font-size="8.00">name:[&#39;/home/vagrant/ProvMark/stage/linkat&#45;test.txt&#39;]</text>
<text text-anchor="middle" x="710" y="-2.6" font-family="Helvetica,sans-Serif" font-size="8.00">type:2</text>
</g>
<!-- n82&#45;&gt;n80 -->
<g id="edge1" class="edge"><title>n82&#45;&gt;n80</title>
<path fill="none" stroke="blue" d="M616.173,-23.6462C592.732,-27.0755 567.988,-32.4894 546,-41 542.982,-42.168 539.967,-43.5775 537.011,-45.1404"/>
<polygon fill="blue" stroke="blue" points="535.23,-42.127 528.371,-50.2021 538.769,-48.1667 535.23,-42.127"/>
<text text-anchor="middle" x="572" y="-52.6" font-family="Helvetica,sans-Serif" font-size="8.00">state:0</text>
<text text-anchor="middle" x="572" y="-43.6" font-family="Helvetica,sans-Serif" font-size="8.00">type:relatedTo</text>
</g>
<!-- n83 -->
<g id="node3" class="node"><title>n83</title>
<polygon fill="#cae1ff" stroke="black" points="1223.5,-63 892.5,-63 892.5,-27 1223.5,-27 1223.5,-63"/>
<text text-anchor="middle" x="1058" y="-47.6" font-family="Helvetica,sans-Serif" font-size="8.00">node_id:81</text>
<text text-anchor="middle" x="1058" y="-38.6" font-family="Helvetica,sans-Serif" font-size="8.00">name:[&#39;/home/vagrant/ProvMark/stage/test.txt&#39;, &#39;/home/vagrant/ProvMark/stage/linkat&#45;test.txt&#39;]</text>
<text text-anchor="middle" x="1058" y="-29.6" font-family="Helvetica,sans-Serif" font-size="8.00">type:2</text>
</g>
<!-- n83&#45;&gt;n82 -->
<g id="edge8" class="edge"><title>n83&#45;&gt;n82</title>
<path fill="none" stroke="blue" d="M892.408,-30.4544C886.194,-29.9545 880.041,-29.4679 874,-29 854.526,-27.4917 833.734,-25.9989 813.742,-24.6224"/>
<polygon fill="blue" stroke="blue" points="813.904,-21.1254 803.688,-23.9352 813.426,-28.1091 813.904,-21.1254"/>
<text text-anchor="middle" x="848" y="-40.6" font-family="Helvetica,sans-Serif" font-size="8.00">state:0</text>
<text text-anchor="middle" x="848" y="-31.6" font-family="Helvetica,sans-Serif" font-size="8.00">type:relatedTo</text>
</g>
<!-- n81 -->
<g id="node6" class="node"><title>n81</title>
<polygon fill="#cae1ff" stroke="black" points="793,-90 627,-90 627,-54 793,-54 793,-90"/>
<text text-anchor="middle" x="710" y="-74.6" font-family="Helvetica,sans-Serif" font-size="8.00">node_id:79</text>
<text text-anchor="middle" x="710" y="-65.6" font-family="Helvetica,sans-Serif" font-size="8.00">name:[&#39;/home/vagrant/ProvMark/stage/test.txt&#39;]</text>
<text text-anchor="middle" x="710" y="-56.6" font-family="Helvetica,sans-Serif" font-size="8.00">type:2</text>
</g>
<!-- n83&#45;&gt;n81 -->
<g id="edge3" class="edge"><title>n83&#45;&gt;n81</title>
<path fill="none" stroke="blue" d="M892.36,-57.8476C861.639,-60.2449 830.566,-62.6697 803.028,-64.8186"/>
<polygon fill="blue" stroke="blue" points="802.747,-61.3298 793.049,-65.5973 803.291,-68.3086 802.747,-61.3298"/>
<text text-anchor="middle" x="848" y="-75.6" font-family="Helvetica,sans-Serif" font-size="8.00">state:0</text>
<text text-anchor="middle" x="848" y="-66.6" font-family="Helvetica,sans-Serif" font-size="8.00">type:relatedTo</text>
</g>
<!-- n84 -->
<g id="node5" class="node"><title>n84</title>
<polygon fill="#cae1ff" stroke="black" points="737,-169.5 683,-169.5 683,-124.5 737,-124.5 737,-169.5"/>
<text text-anchor="middle" x="710" y="-154.1" font-family="Helvetica,sans-Serif" font-size="8.00">ref_count:0</text>
<text text-anchor="middle" x="710" y="-145.1" font-family="Helvetica,sans-Serif" font-size="8.00">name:omega</text>
<text text-anchor="middle" x="710" y="-136.1" font-family="Helvetica,sans-Serif" font-size="8.00">node_id:82</text>
<text text-anchor="middle" x="710" y="-127.1" font-family="Helvetica,sans-Serif" font-size="8.00">type:4</text>
</g>
<!-- n84&#45;&gt;n80 -->
<g id="edge5" class="edge"><title>n84&#45;&gt;n80</title>
<path fill="none" stroke="blue" d="M682.789,-141.668C649.895,-134.445 592.194,-119.993 546,-99 543.032,-97.6514 540.029,-96.1283 537.06,-94.5066"/>
<polygon fill="blue" stroke="blue" points="538.722,-91.4245 528.318,-89.4211 535.202,-97.4751 538.722,-91.4245"/>
<text text-anchor="middle" x="572" y="-129.6" font-family="Helvetica,sans-Serif" font-size="8.00">state:0</text>
<text text-anchor="middle" x="572" y="-120.6" font-family="Helvetica,sans-Serif" font-size="8.00">type:relatedTo</text>
</g>
<!-- n84&#45;&gt;n3 -->
<g id="edge6" class="edge"><title>n84&#45;&gt;n3</title>
<path fill="none" stroke="blue" d="M682.985,-147.565C660.491,-148.03 627.102,-148.666 598,-149 462.578,-150.555 301.607,-150.902 230.669,-150.979"/>
<polygon fill="blue" stroke="blue" points="230.468,-147.479 220.471,-150.989 230.475,-154.479 230.468,-147.479"/>
<text text-anchor="middle" x="501" y="-162.6" font-family="Helvetica,sans-Serif" font-size="8.00">state:5</text>
<text text-anchor="middle" x="501" y="-153.6" font-family="Helvetica,sans-Serif" font-size="8.00">type:relatedTo</text>
</g>
<!-- n81&#45;&gt;n80 -->
<g id="edge4" class="edge"><title>n81&#45;&gt;n80</title>
<path fill="none" stroke="blue" d="M626.891,-71.6033C596.213,-71.4551 562.913,-71.2943 538.419,-71.1759"/>
<polygon fill="blue" stroke="blue" points="538.178,-67.6748 528.161,-71.1264 538.144,-74.6747 538.178,-67.6748"/>
<text text-anchor="middle" x="572" y="-83.6" font-family="Helvetica,sans-Serif" font-size="8.00">state:0</text>
<text text-anchor="middle" x="572" y="-74.6" font-family="Helvetica,sans-Serif" font-size="8.00">type:relatedTo</text>
</g>
</g>
</svg>
