<?xml version="1.0" encoding="UTF-8" standalone="no"?>
<!DOCTYPE svg PUBLIC "-//W3C//DTD SVG 1.1//EN"
 "http://www.w3.org/Graphics/SVG/1.1/DTD/svg11.dtd">
<!-- Generated by graphviz version 2.36.0 (20140111.2315)
 -->
<!-- Title: clingo2dot Pages: 1 -->
<svg width="920pt" height="143pt"
 viewBox="0.00 0.00 920.00 143.00" xmlns="http://www.w3.org/2000/svg" xmlns:xlink="http://www.w3.org/1999/xlink">
<g id="graph0" class="graph" transform="scale(1 1) rotate(0) translate(4 139)">
<title>clingo2dot</title>
<polygon fill="white" stroke="none" points="-4,4 -4,-139 916,-139 916,4 -4,4"/>
<!-- n80 -->
<g id="node1" class="node"><title>n80</title>
<polygon fill="#cae1ff" stroke="black" points="578,-128.5 524,-128.5 524,-83.5 578,-83.5 578,-128.5"/>
<text text-anchor="middle" x="551" y="-113.1" font-family="Helvetica,sans-Serif" font-size="8.00">ref_count:0</text>
<text text-anchor="middle" x="551" y="-104.1" font-family="Helvetica,sans-Serif" font-size="8.00">name:omega</text>
<text text-anchor="middle" x="551" y="-95.1" font-family="Helvetica,sans-Serif" font-size="8.00">node_id:78</text>
<text text-anchor="middle" x="551" y="-86.1" font-family="Helvetica,sans-Serif" font-size="8.00">type:4</text>
</g>
<!-- n3 -->
<g id="node3" class="node"><title>n3</title>
<ellipse fill="green" stroke="black" cx="115" cy="-111" rx="27" ry="18"/>
<text text-anchor="middle" x="115" y="-109.1" font-family="Helvetica,sans-Serif" font-size="8.00">Dummy Node</text>
</g>
<!-- n80&#45;&gt;n3 -->
<g id="edge4" class="edge"><title>n80&#45;&gt;n3</title>
<path fill="none" stroke="blue" d="M523.829,-106.302C449.663,-107.156 237.948,-109.595 152.461,-110.58"/>
<polygon fill="blue" stroke="blue" points="152.164,-107.083 142.205,-110.698 152.245,-114.083 152.164,-107.083"/>
<text text-anchor="middle" x="345" y="-119.6" font-family="Helvetica,sans-Serif" font-size="8.00">state:5</text>
<text text-anchor="middle" x="345" y="-110.6" font-family="Helvetica,sans-Serif" font-size="8.00">type:relatedTo</text>
</g>
<!-- n77 -->
<g id="node5" class="node"><title>n77</title>
<polygon fill="#cae1ff" stroke="black" points="372,-69.5 318,-69.5 318,-24.5 372,-24.5 372,-69.5"/>
<text text-anchor="middle" x="345" y="-54.1" font-family="Helvetica,sans-Serif" font-size="8.00">ref_count:1</text>
<text text-anchor="middle" x="345" y="-45.1" font-family="Helvetica,sans-Serif" font-size="8.00">name:omega</text>
<text text-anchor="middle" x="345" y="-36.1" font-family="Helvetica,sans-Serif" font-size="8.00">node_id:75</text>
<text text-anchor="middle" x="345" y="-27.1" font-family="Helvetica,sans-Serif" font-size="8.00">type:4</text>
</g>
<!-- n80&#45;&gt;n77 -->
<g id="edge3" class="edge"><title>n80&#45;&gt;n77</title>
<path fill="none" stroke="blue" d="M523.748,-98.4076C487.638,-87.9639 422.51,-69.1279 381.912,-57.3862"/>
<polygon fill="blue" stroke="blue" points="382.73,-53.9794 372.151,-54.5633 380.785,-60.7039 382.73,-53.9794"/>
<text text-anchor="middle" x="416" y="-86.6" font-family="Helvetica,sans-Serif" font-size="8.00">state:0</text>
<text text-anchor="middle" x="416" y="-77.6" font-family="Helvetica,sans-Serif" font-size="8.00">type:relatedTo</text>
</g>
<!-- n79 -->
<g id="node2" class="node"><title>n79</title>
<polygon fill="#cae1ff" stroke="black" points="911.5,-49 730.5,-49 730.5,-13 911.5,-13 911.5,-49"/>
<text text-anchor="middle" x="821" y="-33.6" font-family="Helvetica,sans-Serif" font-size="8.00">name:[&#39;/home/vagrant/ProvMark/stage/newtest.txt&#39;]</text>
<text text-anchor="middle" x="821" y="-24.6" font-family="Helvetica,sans-Serif" font-size="8.00">node_id:77</text>
<text text-anchor="middle" x="821" y="-15.6" font-family="Helvetica,sans-Serif" font-size="8.00">type:2</text>
</g>
<!-- n78 -->
<g id="node4" class="node"><title>n78</title>
<polygon fill="#cae1ff" stroke="black" points="641.5,-49 460.5,-49 460.5,-13 641.5,-13 641.5,-49"/>
<text text-anchor="middle" x="551" y="-33.6" font-family="Helvetica,sans-Serif" font-size="8.00">name:[&#39;/home/vagrant/ProvMark/stage/newtest.txt&#39;]</text>
<text text-anchor="middle" x="551" y="-24.6" font-family="Helvetica,sans-Serif" font-size="8.00">node_id:76</text>
<text text-anchor="middle" x="551" y="-15.6" font-family="Helvetica,sans-Serif" font-size="8.00">type:2</text>
</g>
<!-- n79&#45;&gt;n78 -->
<g id="edge2" class="edge"><title>n79&#45;&gt;n78</title>
<path fill="none" stroke="blue" d="M730.387,-31C705.132,-31 677.506,-31 651.699,-31"/>
<polygon fill="blue" stroke="blue" points="651.528,-27.5001 641.528,-31 651.528,-34.5001 651.528,-27.5001"/>
<text text-anchor="middle" x="686" y="-42.6" font-family="Helvetica,sans-Serif" font-size="8.00">state:0</text>
<text text-anchor="middle" x="686" y="-33.6" font-family="Helvetica,sans-Serif" font-size="8.00">type:relatedTo</text>
</g>
<!-- n78&#45;&gt;n77 -->
<g id="edge1" class="edge"><title>n78&#45;&gt;n77</title>
<path fill="none" stroke="blue" d="M460.278,-26.4936C437.246,-26.7203 412.597,-28.1815 390,-32 387.332,-32.4509 384.607,-33.041 381.888,-33.7262"/>
<polygon fill="blue" stroke="blue" points="380.797,-30.3983 372.167,-36.5443 382.746,-37.1214 380.797,-30.3983"/>
<text text-anchor="middle" x="416" y="-43.6" font-family="Helvetica,sans-Serif" font-size="8.00">state:0</text>
<text text-anchor="middle" x="416" y="-34.6" font-family="Helvetica,sans-Serif" font-size="8.00">type:relatedTo</text>
</g>
<!-- n77&#45;&gt;n3 -->
<g id="edge5" class="edge"><title>n77&#45;&gt;n3</title>
<path fill="none" stroke="blue" d="M317.846,-54.3416C276.414,-65.9716 195.703,-88.6273 149.89,-101.487"/>
<polygon fill="blue" stroke="blue" points="148.809,-98.1551 140.127,-104.228 150.701,-104.895 148.809,-98.1551"/>
<text text-anchor="middle" x="274" y="-85.6" font-family="Helvetica,sans-Serif" font-size="8.00">state:10</text>
<text text-anchor="middle" x="274" y="-76.6" font-family="Helvetica,sans-Serif" font-size="8.00">type:relatedTo</text>
</g>
<!-- n81 -->
<g id="node6" class="node"><title>n81</title>
<polygon fill="#cae1ff" stroke="black" points="230,-62.5 1.42109e-14,-62.5 1.42109e-14,0.5 230,0.5 230,-62.5"/>
<text text-anchor="middle" x="115" y="-47.1" font-family="Helvetica,sans-Serif" font-size="8.00">ret:0</text>
<text text-anchor="middle" x="115" y="-38.1" font-family="Helvetica,sans-Serif" font-size="8.00">fn:__xmknod</text>
<text text-anchor="middle" x="115" y="-29.1" font-family="Helvetica,sans-Serif" font-size="8.00">arg_keys:[&#39;pathname&#39;, &#39;mode&#39;]</text>
<text text-anchor="middle" x="115" y="-20.1" font-family="Helvetica,sans-Serif" font-size="8.00">node_id:79</text>
<text text-anchor="middle" x="115" y="-11.1" font-family="Helvetica,sans-Serif" font-size="8.00">arg_values:[&#39;/home/vagrant/ProvMark/stage/newtest.txt&#39;, &#39;33252&#39;]</text>
<text text-anchor="middle" x="115" y="-2.1" font-family="Helvetica,sans-Serif" font-size="8.00">type:5</text>
</g>
<!-- n77&#45;&gt;n81 -->
<g id="edge6" class="edge"><title>n77&#45;&gt;n81</title>
<path fill="none" stroke="blue" d="M317.834,-36.5407C312.05,-34.6648 305.889,-32.9927 300,-32 280.867,-28.7749 260.455,-27.0239 240.449,-26.229"/>
<polygon fill="blue" stroke="blue" points="240.458,-22.7276 230.351,-25.9055 240.234,-29.724 240.458,-22.7276"/>
<text text-anchor="middle" x="274" y="-43.6" font-family="Helvetica,sans-Serif" font-size="8.00">state:0</text>
<text text-anchor="middle" x="274" y="-34.6" font-family="Helvetica,sans-Serif" font-size="8.00">type:relatedTo</text>
</g>
</g>
</svg>
