<?xml version="1.0" encoding="UTF-8" standalone="no"?>
<!DOCTYPE svg PUBLIC "-//W3C//DTD SVG 1.1//EN"
 "http://www.w3.org/Graphics/SVG/1.1/DTD/svg11.dtd">
<!-- Generated by graphviz version 2.36.0 (20140111.2315)
 -->
<!-- Title: clingo2dot Pages: 1 -->
<svg width="910pt" height="143pt"
 viewBox="0.00 0.00 910.00 143.00" xmlns="http://www.w3.org/2000/svg" xmlns:xlink="http://www.w3.org/1999/xlink">
<g id="graph0" class="graph" transform="scale(1 1) rotate(0) translate(4 139)">
<title>clingo2dot</title>
<polygon fill="white" stroke="none" points="-4,4 -4,-139 906,-139 906,4 -4,4"/>
<!-- n82 -->
<g id="node1" class="node"><title>n82</title>
<polygon fill="#cae1ff" stroke="black" points="252,-62.5 0,-62.5 0,0.5 252,0.5 252,-62.5"/>
<text text-anchor="middle" x="126" y="-47.1" font-family="Helvetica,sans-Serif" font-size="8.00">arg_keys:[&#39;dirfd&#39;, &#39;pathname&#39;, &#39;flags&#39;, &#39;mode&#39;, &#39;file_path&#39;]</text>
<text text-anchor="middle" x="126" y="-38.1" font-family="Helvetica,sans-Serif" font-size="8.00">arg_values:[&#39;3&#39;, &#39;test.txt&#39;, &#39;2&#39;, &#39;0&#39;, &#39;/home/vagrant/ProvMark/stage/test.txt&#39;]</text>
<text text-anchor="middle" x="126" y="-29.1" font-family="Helvetica,sans-Serif" font-size="8.00">ret:4</text>
<text text-anchor="middle" x="126" y="-20.1" font-family="Helvetica,sans-Serif" font-size="8.00">node_id:80</text>
<text text-anchor="middle" x="126" y="-11.1" font-family="Helvetica,sans-Serif" font-size="8.00">fn:openat</text>
<text text-anchor="middle" x="126" y="-2.1" font-family="Helvetica,sans-Serif" font-size="8.00">type:5</text>
</g>
<!-- n86 -->
<g id="node2" class="node"><title>n86</title>
<polygon fill="#cae1ff" stroke="black" points="902,-49 736,-49 736,-13 902,-13 902,-49"/>
<text text-anchor="middle" x="819" y="-33.6" font-family="Helvetica,sans-Serif" font-size="8.00">node_id:84</text>
<text text-anchor="middle" x="819" y="-24.6" font-family="Helvetica,sans-Serif" font-size="8.00">name:[&#39;/home/vagrant/ProvMark/stage/test.txt&#39;]</text>
<text text-anchor="middle" x="819" y="-15.6" font-family="Helvetica,sans-Serif" font-size="8.00">type:2</text>
</g>
<!-- n81 -->
<g id="node5" class="node"><title>n81</title>
<polygon fill="#cae1ff" stroke="black" points="648,-49 482,-49 482,-13 648,-13 648,-49"/>
<text text-anchor="middle" x="565" y="-33.6" font-family="Helvetica,sans-Serif" font-size="8.00">node_id:79</text>
<text text-anchor="middle" x="565" y="-24.6" font-family="Helvetica,sans-Serif" font-size="8.00">name:[&#39;/home/vagrant/ProvMark/stage/test.txt&#39;]</text>
<text text-anchor="middle" x="565" y="-15.6" font-family="Helvetica,sans-Serif" font-size="8.00">type:2</text>
</g>
<!-- n86&#45;&gt;n81 -->
<g id="edge6" class="edge"><title>n86&#45;&gt;n81</title>
<path fill="none" stroke="blue" d="M735.834,-31C710.982,-31 683.53,-31 658.075,-31"/>
<polygon fill="blue" stroke="blue" points="658.054,-27.5001 648.054,-31 658.054,-34.5001 658.054,-27.5001"/>
<text text-anchor="middle" x="692" y="-42.6" font-family="Helvetica,sans-Serif" font-size="8.00">state:0</text>
<text text-anchor="middle" x="692" y="-33.6" font-family="Helvetica,sans-Serif" font-size="8.00">type:relatedTo</text>
</g>
<!-- n3 -->
<g id="node3" class="node"><title>n3</title>
<ellipse fill="green" stroke="black" cx="126" cy="-111" rx="27" ry="18"/>
<text text-anchor="middle" x="126" y="-109.1" font-family="Helvetica,sans-Serif" font-size="8.00">Dummy Node</text>
</g>
<!-- n80 -->
<g id="node4" class="node"><title>n80</title>
<polygon fill="#cae1ff" stroke="black" points="394,-69.5 340,-69.5 340,-24.5 394,-24.5 394,-69.5"/>
<text text-anchor="middle" x="367" y="-54.1" font-family="Helvetica,sans-Serif" font-size="8.00">ref_count:1</text>
<text text-anchor="middle" x="367" y="-45.1" font-family="Helvetica,sans-Serif" font-size="8.00">node_id:78</text>
<text text-anchor="middle" x="367" y="-36.1" font-family="Helvetica,sans-Serif" font-size="8.00">name:4</text>
<text text-anchor="middle" x="367" y="-27.1" font-family="Helvetica,sans-Serif" font-size="8.00">type:4</text>
</g>
<!-- n80&#45;&gt;n82 -->
<g id="edge3" class="edge"><title>n80&#45;&gt;n82</title>
<path fill="none" stroke="blue" d="M339.834,-36.5393C334.05,-34.6636 327.889,-32.9918 322,-32 302.794,-28.7656 282.372,-26.9343 262.251,-26.039"/>
<polygon fill="blue" stroke="blue" points="262.208,-22.5352 252.085,-25.6631 261.949,-29.5304 262.208,-22.5352"/>
<text text-anchor="middle" x="296" y="-43.6" font-family="Helvetica,sans-Serif" font-size="8.00">state:0</text>
<text text-anchor="middle" x="296" y="-34.6" font-family="Helvetica,sans-Serif" font-size="8.00">type:relatedTo</text>
</g>
<!-- n80&#45;&gt;n3 -->
<g id="edge4" class="edge"><title>n80&#45;&gt;n3</title>
<path fill="none" stroke="blue" d="M339.948,-54.1311C334.048,-55.7389 327.81,-57.4331 322,-59 265.638,-74.2006 200.043,-91.6411 161.106,-101.967"/>
<polygon fill="blue" stroke="blue" points="160.101,-98.6129 151.332,-104.559 161.895,-105.379 160.101,-98.6129"/>
<text text-anchor="middle" x="296" y="-83.6" font-family="Helvetica,sans-Serif" font-size="8.00">state:10</text>
<text text-anchor="middle" x="296" y="-74.6" font-family="Helvetica,sans-Serif" font-size="8.00">type:relatedTo</text>
</g>
<!-- n81&#45;&gt;n80 -->
<g id="edge1" class="edge"><title>n81&#45;&gt;n80</title>
<path fill="none" stroke="blue" d="M481.935,-26.7276C459.158,-26.8444 434.507,-28.1929 412,-32 409.332,-32.4513 406.608,-33.0418 403.888,-33.7272"/>
<polygon fill="blue" stroke="blue" points="402.797,-30.3993 394.167,-36.5458 404.746,-37.1224 402.797,-30.3993"/>
<text text-anchor="middle" x="438" y="-43.6" font-family="Helvetica,sans-Serif" font-size="8.00">state:4</text>
<text text-anchor="middle" x="438" y="-34.6" font-family="Helvetica,sans-Serif" font-size="8.00">type:relatedTo</text>
</g>
<!-- n87 -->
<g id="node6" class="node"><title>n87</title>
<polygon fill="#cae1ff" stroke="black" points="592,-128.5 538,-128.5 538,-83.5 592,-83.5 592,-128.5"/>
<text text-anchor="middle" x="565" y="-113.1" font-family="Helvetica,sans-Serif" font-size="8.00">ref_count:0</text>
<text text-anchor="middle" x="565" y="-104.1" font-family="Helvetica,sans-Serif" font-size="8.00">node_id:85</text>
<text text-anchor="middle" x="565" y="-95.1" font-family="Helvetica,sans-Serif" font-size="8.00">name:4</text>
<text text-anchor="middle" x="565" y="-86.1" font-family="Helvetica,sans-Serif" font-size="8.00">type:4</text>
</g>
<!-- n87&#45;&gt;n3 -->
<g id="edge5" class="edge"><title>n87&#45;&gt;n3</title>
<path fill="none" stroke="blue" d="M537.972,-106.298C463.448,-107.15 249.104,-109.603 163.223,-110.586"/>
<polygon fill="blue" stroke="blue" points="163.126,-107.086 153.167,-110.701 163.206,-114.086 163.126,-107.086"/>
<text text-anchor="middle" x="367" y="-119.6" font-family="Helvetica,sans-Serif" font-size="8.00">state:5</text>
<text text-anchor="middle" x="367" y="-110.6" font-family="Helvetica,sans-Serif" font-size="8.00">type:relatedTo</text>
</g>
<!-- n87&#45;&gt;n80 -->
<g id="edge2" class="edge"><title>n87&#45;&gt;n80</title>
<path fill="none" stroke="blue" d="M537.973,-98.1653C503.56,-87.8064 442.76,-69.5042 403.972,-57.8282"/>
<polygon fill="blue" stroke="blue" points="404.719,-54.3982 394.135,-54.8671 402.702,-61.1011 404.719,-54.3982"/>
<text text-anchor="middle" x="438" y="-86.6" font-family="Helvetica,sans-Serif" font-size="8.00">state:0</text>
<text text-anchor="middle" x="438" y="-77.6" font-family="Helvetica,sans-Serif" font-size="8.00">type:relatedTo</text>
</g>
</g>
</svg>
