<?xml version="1.0" encoding="UTF-8" standalone="no"?>
<!DOCTYPE svg PUBLIC "-//W3C//DTD SVG 1.1//EN"
 "http://www.w3.org/Graphics/SVG/1.1/DTD/svg11.dtd">
<!-- Generated by graphviz version 2.36.0 (20140111.2315)
 -->
<!-- Title: clingo2dot Pages: 1 -->
<svg width="940pt" height="144pt"
 viewBox="0.00 0.00 940.00 144.00" xmlns="http://www.w3.org/2000/svg" xmlns:xlink="http://www.w3.org/1999/xlink">
<g id="graph0" class="graph" transform="scale(1 1) rotate(0) translate(4 140)">
<title>clingo2dot</title>
<polygon fill="white" stroke="none" points="-4,4 -4,-140 936,-140 936,4 -4,4"/>
<!-- n81 -->
<g id="node1" class="node"><title>n81</title>
<polygon fill="#cae1ff" stroke="black" points="568,-130.5 514,-130.5 514,-85.5 568,-85.5 568,-130.5"/>
<text text-anchor="middle" x="541" y="-115.1" font-family="Helvetica,sans-Serif" font-size="8.00">node_id:79</text>
<text text-anchor="middle" x="541" y="-106.1" font-family="Helvetica,sans-Serif" font-size="8.00">name:3</text>
<text text-anchor="middle" x="541" y="-97.1" font-family="Helvetica,sans-Serif" font-size="8.00">ref_count:0</text>
<text text-anchor="middle" x="541" y="-88.1" font-family="Helvetica,sans-Serif" font-size="8.00">type:4</text>
</g>
<!-- n3 -->
<g id="node4" class="node"><title>n3</title>
<ellipse fill="green" stroke="black" cx="105" cy="-111" rx="27" ry="18"/>
<text text-anchor="middle" x="105" y="-109.1" font-family="Helvetica,sans-Serif" font-size="8.00">Dummy Node</text>
</g>
<!-- n81&#45;&gt;n3 -->
<g id="edge6" class="edge"><title>n81&#45;&gt;n3</title>
<path fill="none" stroke="blue" d="M513.829,-108.181C439.663,-108.694 227.948,-110.157 142.461,-110.748"/>
<polygon fill="blue" stroke="blue" points="142.181,-107.25 132.205,-110.819 142.229,-114.25 142.181,-107.25"/>
<text text-anchor="middle" x="325" y="-120.6" font-family="Helvetica,sans-Serif" font-size="8.00">state:5</text>
<text text-anchor="middle" x="325" y="-111.6" font-family="Helvetica,sans-Serif" font-size="8.00">type:relatedTo</text>
</g>
<!-- n77 -->
<g id="node5" class="node"><title>n77</title>
<polygon fill="#cae1ff" stroke="black" points="352,-69.5 298,-69.5 298,-24.5 352,-24.5 352,-69.5"/>
<text text-anchor="middle" x="325" y="-54.1" font-family="Helvetica,sans-Serif" font-size="8.00">node_id:75</text>
<text text-anchor="middle" x="325" y="-45.1" font-family="Helvetica,sans-Serif" font-size="8.00">name:3</text>
<text text-anchor="middle" x="325" y="-36.1" font-family="Helvetica,sans-Serif" font-size="8.00">ref_count:1</text>
<text text-anchor="middle" x="325" y="-27.1" font-family="Helvetica,sans-Serif" font-size="8.00">type:4</text>
</g>
<!-- n81&#45;&gt;n77 -->
<g id="edge1" class="edge"><title>n81&#45;&gt;n77</title>
<path fill="none" stroke="blue" d="M513.759,-100.52C475.632,-89.6521 404.797,-69.4609 361.874,-57.2258"/>
<polygon fill="blue" stroke="blue" points="362.697,-53.8209 352.12,-54.4455 360.778,-60.5527 362.697,-53.8209"/>
<text text-anchor="middle" x="396" y="-85.6" font-family="Helvetica,sans-Serif" font-size="8.00">state:0</text>
<text text-anchor="middle" x="396" y="-76.6" font-family="Helvetica,sans-Serif" font-size="8.00">type:relatedTo</text>
</g>
<!-- n79 -->
<g id="node2" class="node"><title>n79</title>
<polygon fill="#cae1ff" stroke="black" points="209.5,-62.5 0.5,-62.5 0.5,0.5 209.5,0.5 209.5,-62.5"/>
<text text-anchor="middle" x="105" y="-47.1" font-family="Helvetica,sans-Serif" font-size="8.00">node_id:77</text>
<text text-anchor="middle" x="105" y="-38.1" font-family="Helvetica,sans-Serif" font-size="8.00">arg_keys:[&#39;pathname&#39;, &#39;flags&#39;, &#39;mode&#39;]</text>
<text text-anchor="middle" x="105" y="-29.1" font-family="Helvetica,sans-Serif" font-size="8.00">ret:3</text>
<text text-anchor="middle" x="105" y="-20.1" font-family="Helvetica,sans-Serif" font-size="8.00">fn:open</text>
<text text-anchor="middle" x="105" y="-11.1" font-family="Helvetica,sans-Serif" font-size="8.00">arg_values:[&#39;/home/vagrant/ProvMark/stage/test.txt&#39;, &#39;2&#39;, &#39;0&#39;]</text>
<text text-anchor="middle" x="105" y="-2.1" font-family="Helvetica,sans-Serif" font-size="8.00">type:5</text>
</g>
<!-- n80 -->
<g id="node3" class="node"><title>n80</title>
<polygon fill="#cae1ff" stroke="black" points="931.5,-53.5 730.5,-53.5 730.5,-8.5 931.5,-8.5 931.5,-53.5"/>
<text text-anchor="middle" x="831" y="-38.1" font-family="Helvetica,sans-Serif" font-size="8.00">node_id:78</text>
<text text-anchor="middle" x="831" y="-29.1" font-family="Helvetica,sans-Serif" font-size="8.00">name:[&#39;/home/vagrant/ProvMark/stage/test.txt&#39;]</text>
<text text-anchor="middle" x="831" y="-20.1" font-family="Helvetica,sans-Serif" font-size="8.00">githash:2a02d41ce21323b1cdc228c78cec2f81c054bd34</text>
<text text-anchor="middle" x="831" y="-11.1" font-family="Helvetica,sans-Serif" font-size="8.00">type:2</text>
</g>
<!-- n78 -->
<g id="node6" class="node"><title>n78</title>
<polygon fill="#cae1ff" stroke="black" points="641.5,-53.5 440.5,-53.5 440.5,-8.5 641.5,-8.5 641.5,-53.5"/>
<text text-anchor="middle" x="541" y="-38.1" font-family="Helvetica,sans-Serif" font-size="8.00">node_id:76</text>
<text text-anchor="middle" x="541" y="-29.1" font-family="Helvetica,sans-Serif" font-size="8.00">name:[&#39;/home/vagrant/ProvMark/stage/test.txt&#39;]</text>
<text text-anchor="middle" x="541" y="-20.1" font-family="Helvetica,sans-Serif" font-size="8.00">githash:2a02d41ce21323b1cdc228c78cec2f81c054bd34</text>
<text text-anchor="middle" x="541" y="-11.1" font-family="Helvetica,sans-Serif" font-size="8.00">type:2</text>
</g>
<!-- n80&#45;&gt;n78 -->
<g id="edge5" class="edge"><title>n80&#45;&gt;n78</title>
<path fill="none" stroke="blue" d="M730.483,-31C705.078,-31 677.624,-31 651.738,-31"/>
<polygon fill="blue" stroke="blue" points="651.521,-27.5001 641.52,-31 651.52,-34.5001 651.521,-27.5001"/>
<text text-anchor="middle" x="686" y="-42.6" font-family="Helvetica,sans-Serif" font-size="8.00">state:0</text>
<text text-anchor="middle" x="686" y="-33.6" font-family="Helvetica,sans-Serif" font-size="8.00">type:relatedTo</text>
</g>
<!-- n77&#45;&gt;n79 -->
<g id="edge3" class="edge"><title>n77&#45;&gt;n79</title>
<path fill="none" stroke="blue" d="M297.834,-36.5421C292.05,-34.6662 285.889,-32.9936 280,-32 260.633,-28.7324 239.881,-27.06 219.695,-26.3833"/>
<polygon fill="blue" stroke="blue" points="219.609,-22.88 209.522,-26.1227 219.429,-29.8777 219.609,-22.88"/>
<text text-anchor="middle" x="254" y="-43.6" font-family="Helvetica,sans-Serif" font-size="8.00">state:0</text>
<text text-anchor="middle" x="254" y="-34.6" font-family="Helvetica,sans-Serif" font-size="8.00">type:relatedTo</text>
</g>
<!-- n77&#45;&gt;n3 -->
<g id="edge2" class="edge"><title>n77&#45;&gt;n3</title>
<path fill="none" stroke="blue" d="M297.704,-54.7199C258.179,-66.3235 183.459,-88.2598 139.893,-101.05"/>
<polygon fill="blue" stroke="blue" points="138.66,-97.764 130.051,-103.939 140.632,-104.481 138.66,-97.764"/>
<text text-anchor="middle" x="254" y="-87.6" font-family="Helvetica,sans-Serif" font-size="8.00">state:10</text>
<text text-anchor="middle" x="254" y="-78.6" font-family="Helvetica,sans-Serif" font-size="8.00">type:relatedTo</text>
</g>
<!-- n78&#45;&gt;n77 -->
<g id="edge4" class="edge"><title>n78&#45;&gt;n77</title>
<path fill="none" stroke="blue" d="M440.204,-26.2278C417.033,-26.5993 392.555,-28.1929 370,-32 367.332,-32.4504 364.607,-33.0402 361.888,-33.7251"/>
<polygon fill="blue" stroke="blue" points="360.797,-30.3971 352.167,-36.5427 362.746,-37.1204 360.797,-30.3971"/>
<text text-anchor="middle" x="396" y="-43.6" font-family="Helvetica,sans-Serif" font-size="8.00">state:4</text>
<text text-anchor="middle" x="396" y="-34.6" font-family="Helvetica,sans-Serif" font-size="8.00">type:relatedTo</text>
</g>
</g>
</svg>
