<?xml version="1.0" encoding="UTF-8" standalone="no"?>
<!DOCTYPE svg PUBLIC "-//W3C//DTD SVG 1.1//EN"
 "http://www.w3.org/Graphics/SVG/1.1/DTD/svg11.dtd">
<!-- Generated by graphviz version 2.36.0 (20140111.2315)
 -->
<!-- Title: clingo2dot Pages: 1 -->
<svg width="706pt" height="370pt"
 viewBox="0.00 0.00 706.00 370.00" xmlns="http://www.w3.org/2000/svg" xmlns:xlink="http://www.w3.org/1999/xlink">
<g id="graph0" class="graph" transform="scale(1 1) rotate(0) translate(4 366)">
<title>clingo2dot</title>
<polygon fill="white" stroke="none" points="-4,4 -4,-366 702,-366 702,4 -4,4"/>
<!-- n86 -->
<g id="node1" class="node"><title>n86</title>
<polygon fill="#cae1ff" stroke="black" points="556,-344.5 502,-344.5 502,-299.5 556,-299.5 556,-344.5"/>
<text text-anchor="middle" x="529" y="-329.1" font-family="Helvetica,sans-Serif" font-size="8.00">name:3</text>
<text text-anchor="middle" x="529" y="-320.1" font-family="Helvetica,sans-Serif" font-size="8.00">ref_count:0</text>
<text text-anchor="middle" x="529" y="-311.1" font-family="Helvetica,sans-Serif" font-size="8.00">node_id:84</text>
<text text-anchor="middle" x="529" y="-302.1" font-family="Helvetica,sans-Serif" font-size="8.00">type:4</text>
</g>
<!-- n84 -->
<g id="node2" class="node"><title>n84</title>
<polygon fill="#cae1ff" stroke="black" points="414,-314.5 360,-314.5 360,-269.5 414,-269.5 414,-314.5"/>
<text text-anchor="middle" x="387" y="-299.1" font-family="Helvetica,sans-Serif" font-size="8.00">name:3</text>
<text text-anchor="middle" x="387" y="-290.1" font-family="Helvetica,sans-Serif" font-size="8.00">ref_count:0</text>
<text text-anchor="middle" x="387" y="-281.1" font-family="Helvetica,sans-Serif" font-size="8.00">node_id:82</text>
<text text-anchor="middle" x="387" y="-272.1" font-family="Helvetica,sans-Serif" font-size="8.00">type:4</text>
</g>
<!-- n86&#45;&gt;n84 -->
<g id="edge7" class="edge"><title>n86&#45;&gt;n84</title>
<path fill="none" stroke="blue" d="M501.959,-316C496.058,-314.663 489.817,-313.267 484,-312 464.162,-307.68 441.973,-303.044 423.93,-299.325"/>
<polygon fill="blue" stroke="blue" points="424.604,-295.89 414.104,-297.306 423.195,-302.747 424.604,-295.89"/>
<text text-anchor="middle" x="458" y="-323.6" font-family="Helvetica,sans-Serif" font-size="8.00">state:0</text>
<text text-anchor="middle" x="458" y="-314.6" font-family="Helvetica,sans-Serif" font-size="8.00">type:relatedTo</text>
</g>
<!-- n3 -->
<g id="node8" class="node"><title>n3</title>
<ellipse fill="green" stroke="black" cx="65" cy="-223" rx="27" ry="18"/>
<text text-anchor="middle" x="65" y="-221.1" font-family="Helvetica,sans-Serif" font-size="8.00">Dummy Node</text>
</g>
<!-- n86&#45;&gt;n3 -->
<g id="edge11" class="edge"><title>n86&#45;&gt;n3</title>
<path fill="none" stroke="blue" d="M501.937,-333.875C496.147,-336 489.957,-337.889 484,-339 461.28,-343.236 455.066,-340.449 432,-339 336.324,-332.988 308.767,-342.847 218,-312 170.245,-295.77 120.93,-263.509 91.8882,-242.612"/>
<polygon fill="blue" stroke="blue" points="93.69,-239.593 83.5503,-236.521 89.561,-245.246 93.69,-239.593"/>
<text text-anchor="middle" x="316" y="-346.6" font-family="Helvetica,sans-Serif" font-size="8.00">state:5</text>
<text text-anchor="middle" x="316" y="-337.6" font-family="Helvetica,sans-Serif" font-size="8.00">type:relatedTo</text>
</g>
<!-- n77 -->
<g id="node4" class="node"><title>n77</title>
<polygon fill="#cae1ff" stroke="black" points="272,-176.5 218,-176.5 218,-131.5 272,-131.5 272,-176.5"/>
<text text-anchor="middle" x="245" y="-161.1" font-family="Helvetica,sans-Serif" font-size="8.00">name:3</text>
<text text-anchor="middle" x="245" y="-152.1" font-family="Helvetica,sans-Serif" font-size="8.00">ref_count:0</text>
<text text-anchor="middle" x="245" y="-143.1" font-family="Helvetica,sans-Serif" font-size="8.00">node_id:75</text>
<text text-anchor="middle" x="245" y="-134.1" font-family="Helvetica,sans-Serif" font-size="8.00">type:4</text>
</g>
<!-- n84&#45;&gt;n77 -->
<g id="edge12" class="edge"><title>n84&#45;&gt;n77</title>
<path fill="none" stroke="blue" d="M359.6,-270.818C333.329,-249.653 296.069,-219.366 290,-213 281.764,-204.361 273.681,-194.172 266.735,-184.714"/>
<polygon fill="blue" stroke="blue" points="269.374,-182.388 260.704,-176.298 263.685,-186.465 269.374,-182.388"/>
<text text-anchor="middle" x="316" y="-268.6" font-family="Helvetica,sans-Serif" font-size="8.00">state:0</text>
<text text-anchor="middle" x="316" y="-259.6" font-family="Helvetica,sans-Serif" font-size="8.00">type:relatedTo</text>
</g>
<!-- n84&#45;&gt;n3 -->
<g id="edge13" class="edge"><title>n84&#45;&gt;n3</title>
<path fill="none" stroke="blue" d="M359.757,-291.107C340.367,-290.134 313.388,-288.123 290,-284 221.099,-271.853 142.648,-248.133 99.2769,-234.119"/>
<polygon fill="blue" stroke="blue" points="100.138,-230.718 89.5452,-230.947 97.9681,-237.374 100.138,-230.718"/>
<text text-anchor="middle" x="245" y="-292.6" font-family="Helvetica,sans-Serif" font-size="8.00">state:10</text>
<text text-anchor="middle" x="245" y="-283.6" font-family="Helvetica,sans-Serif" font-size="8.00">type:relatedTo</text>
</g>
<!-- n82 -->
<g id="node3" class="node"><title>n82</title>
<polygon fill="#cae1ff" stroke="black" points="556,-244 502,-244 502,-208 556,-208 556,-244"/>
<text text-anchor="middle" x="529" y="-224.1" font-family="Helvetica,sans-Serif" font-size="8.00">node_id:80</text>
<text text-anchor="middle" x="529" y="-215.1" font-family="Helvetica,sans-Serif" font-size="8.00">type:2</text>
</g>
<!-- n82&#45;&gt;n84 -->
<g id="edge6" class="edge"><title>n82&#45;&gt;n84</title>
<path fill="none" stroke="blue" d="M501.9,-238.175C482.581,-247.201 455.628,-259.824 432,-271 429.183,-272.332 426.267,-273.716 423.338,-275.108"/>
<polygon fill="blue" stroke="blue" points="421.568,-272.074 414.044,-279.533 424.577,-278.394 421.568,-272.074"/>
<text text-anchor="middle" x="458" y="-282.6" font-family="Helvetica,sans-Serif" font-size="8.00">state:2</text>
<text text-anchor="middle" x="458" y="-273.6" font-family="Helvetica,sans-Serif" font-size="8.00">type:relatedTo</text>
</g>
<!-- n79 -->
<g id="node7" class="node"><title>n79</title>
<polygon fill="#cae1ff" stroke="black" points="414,-149 360,-149 360,-113 414,-113 414,-149"/>
<text text-anchor="middle" x="387" y="-129.1" font-family="Helvetica,sans-Serif" font-size="8.00">node_id:77</text>
<text text-anchor="middle" x="387" y="-120.1" font-family="Helvetica,sans-Serif" font-size="8.00">type:2</text>
</g>
<!-- n82&#45;&gt;n79 -->
<g id="edge14" class="edge"><title>n82&#45;&gt;n79</title>
<path fill="none" stroke="blue" d="M501.995,-208.354C479.643,-193.186 447.225,-171.188 422.669,-154.525"/>
<polygon fill="blue" stroke="blue" points="424.581,-151.593 414.341,-148.874 420.65,-157.385 424.581,-151.593"/>
<text text-anchor="middle" x="458" y="-207.6" font-family="Helvetica,sans-Serif" font-size="8.00">state:0</text>
<text text-anchor="middle" x="458" y="-198.6" font-family="Helvetica,sans-Serif" font-size="8.00">type:relatedTo</text>
</g>
<!-- n80 -->
<g id="node5" class="node"><title>n80</title>
<polygon fill="#cae1ff" stroke="black" points="130,-162.5 0,-162.5 0,-99.5 130,-99.5 130,-162.5"/>
<text text-anchor="middle" x="65" y="-147.1" font-family="Helvetica,sans-Serif" font-size="8.00">arg_values:[&#39;3&#39;, &#39;4&#39;, &#39;524288&#39;]</text>
<text text-anchor="middle" x="65" y="-138.1" font-family="Helvetica,sans-Serif" font-size="8.00">node_id:78</text>
<text text-anchor="middle" x="65" y="-129.1" font-family="Helvetica,sans-Serif" font-size="8.00">ret:0</text>
<text text-anchor="middle" x="65" y="-120.1" font-family="Helvetica,sans-Serif" font-size="8.00">fn:pipe2</text>
<text text-anchor="middle" x="65" y="-111.1" font-family="Helvetica,sans-Serif" font-size="8.00">arg_keys:[&#39;read_fd&#39;, &#39;write_fd&#39;, &#39;flags&#39;]</text>
<text text-anchor="middle" x="65" y="-102.1" font-family="Helvetica,sans-Serif" font-size="8.00">type:5</text>
</g>
<!-- n77&#45;&gt;n80 -->
<g id="edge2" class="edge"><title>n77&#45;&gt;n80</title>
<path fill="none" stroke="blue" d="M217.751,-138.466C212.076,-135.803 205.979,-133.435 200,-132 180.929,-127.423 159.886,-125.752 140.239,-125.569"/>
<polygon fill="blue" stroke="blue" points="140.098,-122.069 130.11,-125.602 140.121,-129.069 140.098,-122.069"/>
<text text-anchor="middle" x="174" y="-143.6" font-family="Helvetica,sans-Serif" font-size="8.00">state:0</text>
<text text-anchor="middle" x="174" y="-134.6" font-family="Helvetica,sans-Serif" font-size="8.00">type:relatedTo</text>
</g>
<!-- n77&#45;&gt;n3 -->
<g id="edge5" class="edge"><title>n77&#45;&gt;n3</title>
<path fill="none" stroke="blue" d="M217.909,-160.252C198.359,-165.262 171.113,-172.936 148,-182 129.962,-189.074 110.536,-198.691 95.1223,-206.833"/>
<polygon fill="blue" stroke="blue" points="93.25,-203.866 86.0915,-211.677 96.5583,-210.035 93.25,-203.866"/>
<text text-anchor="middle" x="174" y="-193.6" font-family="Helvetica,sans-Serif" font-size="8.00">state:10</text>
<text text-anchor="middle" x="174" y="-184.6" font-family="Helvetica,sans-Serif" font-size="8.00">type:relatedTo</text>
</g>
<!-- n78 -->
<g id="node6" class="node"><title>n78</title>
<polygon fill="#cae1ff" stroke="black" points="272,-103.5 218,-103.5 218,-58.5 272,-58.5 272,-103.5"/>
<text text-anchor="middle" x="245" y="-88.1" font-family="Helvetica,sans-Serif" font-size="8.00">name:4</text>
<text text-anchor="middle" x="245" y="-79.1" font-family="Helvetica,sans-Serif" font-size="8.00">ref_count:0</text>
<text text-anchor="middle" x="245" y="-70.1" font-family="Helvetica,sans-Serif" font-size="8.00">node_id:76</text>
<text text-anchor="middle" x="245" y="-61.1" font-family="Helvetica,sans-Serif" font-size="8.00">type:4</text>
</g>
<!-- n78&#45;&gt;n3 -->
<g id="edge8" class="edge"><title>n78&#45;&gt;n3</title>
<path fill="none" stroke="blue" d="M217.836,-77.4364C196.388,-76.0624 166.631,-77.936 148,-95 122.402,-118.445 148.454,-141.599 130,-171 121.157,-185.088 107.158,-197.1 94.5043,-206.018"/>
<polygon fill="blue" stroke="blue" points="92.4018,-203.213 86.0391,-211.685 96.296,-209.03 92.4018,-203.213"/>
<text text-anchor="middle" x="174" y="-106.6" font-family="Helvetica,sans-Serif" font-size="8.00">state:10</text>
<text text-anchor="middle" x="174" y="-97.6" font-family="Helvetica,sans-Serif" font-size="8.00">type:relatedTo</text>
</g>
<!-- n81 -->
<g id="node11" class="node"><title>n81</title>
<polygon fill="#cae1ff" stroke="black" points="130,-62.5 0,-62.5 0,0.5 130,0.5 130,-62.5"/>
<text text-anchor="middle" x="65" y="-47.1" font-family="Helvetica,sans-Serif" font-size="8.00">arg_values:[&#39;3&#39;, &#39;4&#39;, &#39;524288&#39;]</text>
<text text-anchor="middle" x="65" y="-38.1" font-family="Helvetica,sans-Serif" font-size="8.00">node_id:79</text>
<text text-anchor="middle" x="65" y="-29.1" font-family="Helvetica,sans-Serif" font-size="8.00">ret:0</text>
<text text-anchor="middle" x="65" y="-20.1" font-family="Helvetica,sans-Serif" font-size="8.00">fn:pipe2</text>
<text text-anchor="middle" x="65" y="-11.1" font-family="Helvetica,sans-Serif" font-size="8.00">arg_keys:[&#39;read_fd&#39;, &#39;write_fd&#39;, &#39;flags&#39;]</text>
<text text-anchor="middle" x="65" y="-2.1" font-family="Helvetica,sans-Serif" font-size="8.00">type:5</text>
</g>
<!-- n78&#45;&gt;n81 -->
<g id="edge1" class="edge"><title>n78&#45;&gt;n81</title>
<path fill="none" stroke="blue" d="M230.341,-58.7219C222.785,-48.5695 212.405,-37.5886 200,-32 181.673,-23.7433 160.453,-20.9461 140.38,-20.8637"/>
<polygon fill="blue" stroke="blue" points="140.26,-17.3652 130.324,-21.0412 140.384,-24.3641 140.26,-17.3652"/>
<text text-anchor="middle" x="174" y="-43.6" font-family="Helvetica,sans-Serif" font-size="8.00">state:0</text>
<text text-anchor="middle" x="174" y="-34.6" font-family="Helvetica,sans-Serif" font-size="8.00">type:relatedTo</text>
</g>
<!-- n79&#45;&gt;n77 -->
<g id="edge15" class="edge"><title>n79&#45;&gt;n77</title>
<path fill="none" stroke="blue" d="M359.941,-128.141C340.408,-126.747 313.168,-126.403 290,-132 287.198,-132.677 284.37,-133.558 281.572,-134.577"/>
<polygon fill="blue" stroke="blue" points="280.125,-131.388 272.253,-138.48 282.829,-137.845 280.125,-131.388"/>
<text text-anchor="middle" x="316" y="-143.6" font-family="Helvetica,sans-Serif" font-size="8.00">state:2</text>
<text text-anchor="middle" x="316" y="-134.6" font-family="Helvetica,sans-Serif" font-size="8.00">type:relatedTo</text>
</g>
<!-- n79&#45;&gt;n78 -->
<g id="edge10" class="edge"><title>n79&#45;&gt;n78</title>
<path fill="none" stroke="blue" d="M366.753,-112.813C359.497,-106.894 350.848,-100.862 342,-97 323.272,-88.8263 300.814,-84.8045 282.33,-82.836"/>
<polygon fill="blue" stroke="blue" points="282.518,-79.3387 272.242,-81.9193 281.884,-86.31 282.518,-79.3387"/>
<text text-anchor="middle" x="316" y="-108.6" font-family="Helvetica,sans-Serif" font-size="8.00">state:3</text>
<text text-anchor="middle" x="316" y="-99.6" font-family="Helvetica,sans-Serif" font-size="8.00">type:relatedTo</text>
</g>
<!-- n83 -->
<g id="node9" class="node"><title>n83</title>
<polygon fill="#cae1ff" stroke="black" points="414,-229.5 360,-229.5 360,-184.5 414,-184.5 414,-229.5"/>
<text text-anchor="middle" x="387" y="-214.1" font-family="Helvetica,sans-Serif" font-size="8.00">name:4</text>
<text text-anchor="middle" x="387" y="-205.1" font-family="Helvetica,sans-Serif" font-size="8.00">ref_count:0</text>
<text text-anchor="middle" x="387" y="-196.1" font-family="Helvetica,sans-Serif" font-size="8.00">node_id:81</text>
<text text-anchor="middle" x="387" y="-187.1" font-family="Helvetica,sans-Serif" font-size="8.00">type:4</text>
</g>
<!-- n83&#45;&gt;n78 -->
<g id="edge4" class="edge"><title>n83&#45;&gt;n78</title>
<path fill="none" stroke="blue" d="M359.709,-191.494C353.933,-188.247 347.807,-184.925 342,-182 319.43,-170.633 308.191,-176.542 290,-159 276.836,-146.306 280.911,-137.969 272,-122 270.167,-118.715 268.183,-115.33 266.157,-111.979"/>
<polygon fill="blue" stroke="blue" points="269.01,-109.938 260.767,-103.281 263.059,-113.625 269.01,-109.938"/>
<text text-anchor="middle" x="316" y="-193.6" font-family="Helvetica,sans-Serif" font-size="8.00">state:0</text>
<text text-anchor="middle" x="316" y="-184.6" font-family="Helvetica,sans-Serif" font-size="8.00">type:relatedTo</text>
</g>
<!-- n83&#45;&gt;n3 -->
<g id="edge3" class="edge"><title>n83&#45;&gt;n3</title>
<path fill="none" stroke="blue" d="M359.813,-208.309C302.83,-211.158 167.483,-217.926 102.307,-221.185"/>
<polygon fill="blue" stroke="blue" points="101.913,-217.7 92.1,-221.695 102.262,-224.691 101.913,-217.7"/>
<text text-anchor="middle" x="245" y="-227.6" font-family="Helvetica,sans-Serif" font-size="8.00">state:5</text>
<text text-anchor="middle" x="245" y="-218.6" font-family="Helvetica,sans-Serif" font-size="8.00">type:relatedTo</text>
</g>
<!-- n85 -->
<g id="node10" class="node"><title>n85</title>
<polygon fill="#cae1ff" stroke="black" points="698,-244 644,-244 644,-208 698,-208 698,-244"/>
<text text-anchor="middle" x="671" y="-224.1" font-family="Helvetica,sans-Serif" font-size="8.00">node_id:83</text>
<text text-anchor="middle" x="671" y="-215.1" font-family="Helvetica,sans-Serif" font-size="8.00">type:2</text>
</g>
<!-- n85&#45;&gt;n82 -->
<g id="edge9" class="edge"><title>n85&#45;&gt;n82</title>
<path fill="none" stroke="blue" d="M643.995,-226C622.228,-226 590.917,-226 566.615,-226"/>
<polygon fill="blue" stroke="blue" points="566.341,-222.5 556.341,-226 566.341,-229.5 566.341,-222.5"/>
<text text-anchor="middle" x="600" y="-237.6" font-family="Helvetica,sans-Serif" font-size="8.00">state:0</text>
<text text-anchor="middle" x="600" y="-228.6" font-family="Helvetica,sans-Serif" font-size="8.00">type:relatedTo</text>
</g>
</g>
</svg>
