<?xml version="1.0" encoding="UTF-8" standalone="no"?>
<!DOCTYPE svg PUBLIC "-//W3C//DTD SVG 1.1//EN"
 "http://www.w3.org/Graphics/SVG/1.1/DTD/svg11.dtd">
<!-- Generated by graphviz version 2.36.0 (20140111.2315)
 -->
<!-- Title: clingo2dot Pages: 1 -->
<svg width="682pt" height="363pt"
 viewBox="0.00 0.00 682.00 363.00" xmlns="http://www.w3.org/2000/svg" xmlns:xlink="http://www.w3.org/1999/xlink">
<g id="graph0" class="graph" transform="scale(1 1) rotate(0) translate(4 359)">
<title>clingo2dot</title>
<polygon fill="white" stroke="none" points="-4,4 -4,-359 678,-359 678,4 -4,4"/>
<!-- n82 -->
<g id="node1" class="node"><title>n82</title>
<polygon fill="#cae1ff" stroke="black" points="532,-183 478,-183 478,-147 532,-147 532,-183"/>
<text text-anchor="middle" x="505" y="-163.1" font-family="Helvetica,sans-Serif" font-size="8.00">node_id:80</text>
<text text-anchor="middle" x="505" y="-154.1" font-family="Helvetica,sans-Serif" font-size="8.00">type:2</text>
</g>
<!-- n79 -->
<g id="node5" class="node"><title>n79</title>
<polygon fill="#cae1ff" stroke="black" points="390,-157 336,-157 336,-121 390,-121 390,-157"/>
<text text-anchor="middle" x="363" y="-137.1" font-family="Helvetica,sans-Serif" font-size="8.00">node_id:77</text>
<text text-anchor="middle" x="363" y="-128.1" font-family="Helvetica,sans-Serif" font-size="8.00">type:2</text>
</g>
<!-- n82&#45;&gt;n79 -->
<g id="edge5" class="edge"><title>n82&#45;&gt;n79</title>
<path fill="none" stroke="blue" d="M477.568,-151.123C471.907,-148.685 465.862,-146.463 460,-145 440.632,-140.167 418.419,-138.54 400.242,-138.178"/>
<polygon fill="blue" stroke="blue" points="400.086,-134.676 390.058,-138.096 400.03,-141.676 400.086,-134.676"/>
<text text-anchor="middle" x="434" y="-156.6" font-family="Helvetica,sans-Serif" font-size="8.00">state:0</text>
<text text-anchor="middle" x="434" y="-147.6" font-family="Helvetica,sans-Serif" font-size="8.00">type:relatedTo</text>
</g>
<!-- n84 -->
<g id="node9" class="node"><title>n84</title>
<polygon fill="#cae1ff" stroke="black" points="390,-242.5 336,-242.5 336,-197.5 390,-197.5 390,-242.5"/>
<text text-anchor="middle" x="363" y="-227.1" font-family="Helvetica,sans-Serif" font-size="8.00">name:3</text>
<text text-anchor="middle" x="363" y="-218.1" font-family="Helvetica,sans-Serif" font-size="8.00">ref_count:0</text>
<text text-anchor="middle" x="363" y="-209.1" font-family="Helvetica,sans-Serif" font-size="8.00">node_id:82</text>
<text text-anchor="middle" x="363" y="-200.1" font-family="Helvetica,sans-Serif" font-size="8.00">type:4</text>
</g>
<!-- n82&#45;&gt;n84 -->
<g id="edge7" class="edge"><title>n82&#45;&gt;n84</title>
<path fill="none" stroke="blue" d="M477.995,-175.216C456.033,-183.844 424.354,-196.289 399.963,-205.872"/>
<polygon fill="blue" stroke="blue" points="398.368,-202.738 390.341,-209.652 400.928,-209.253 398.368,-202.738"/>
<text text-anchor="middle" x="434" y="-214.6" font-family="Helvetica,sans-Serif" font-size="8.00">state:2</text>
<text text-anchor="middle" x="434" y="-205.6" font-family="Helvetica,sans-Serif" font-size="8.00">type:relatedTo</text>
</g>
<!-- n86 -->
<g id="node2" class="node"><title>n86</title>
<polygon fill="#cae1ff" stroke="black" points="532,-297.5 478,-297.5 478,-252.5 532,-252.5 532,-297.5"/>
<text text-anchor="middle" x="505" y="-282.1" font-family="Helvetica,sans-Serif" font-size="8.00">name:3</text>
<text text-anchor="middle" x="505" y="-273.1" font-family="Helvetica,sans-Serif" font-size="8.00">ref_count:0</text>
<text text-anchor="middle" x="505" y="-264.1" font-family="Helvetica,sans-Serif" font-size="8.00">node_id:84</text>
<text text-anchor="middle" x="505" y="-255.1" font-family="Helvetica,sans-Serif" font-size="8.00">type:4</text>
</g>
<!-- n3 -->
<g id="node4" class="node"><title>n3</title>
<ellipse fill="green" stroke="black" cx="53" cy="-176" rx="27" ry="18"/>
<text text-anchor="middle" x="53" y="-174.1" font-family="Helvetica,sans-Serif" font-size="8.00">Dummy Node</text>
</g>
<!-- n86&#45;&gt;n3 -->
<g id="edge4" class="edge"><title>n86&#45;&gt;n3</title>
<path fill="none" stroke="blue" d="M477.513,-285.774C410.337,-311.172 231.074,-366.681 124,-284 99.935,-265.417 122.632,-243.452 106,-218 99.8423,-208.577 90.8853,-200.265 82.1345,-193.575"/>
<polygon fill="blue" stroke="blue" points="84.072,-190.657 73.9058,-187.674 79.9928,-196.346 84.072,-190.657"/>
<text text-anchor="middle" x="292" y="-339.6" font-family="Helvetica,sans-Serif" font-size="8.00">state:5</text>
<text text-anchor="middle" x="292" y="-330.6" font-family="Helvetica,sans-Serif" font-size="8.00">type:relatedTo</text>
</g>
<!-- n86&#45;&gt;n84 -->
<g id="edge1" class="edge"><title>n86&#45;&gt;n84</title>
<path fill="none" stroke="blue" d="M477.995,-264.784C456.033,-256.156 424.354,-243.711 399.963,-234.128"/>
<polygon fill="blue" stroke="blue" points="400.928,-230.747 390.341,-230.348 398.368,-237.262 400.928,-230.747"/>
<text text-anchor="middle" x="434" y="-269.6" font-family="Helvetica,sans-Serif" font-size="8.00">state:0</text>
<text text-anchor="middle" x="434" y="-260.6" font-family="Helvetica,sans-Serif" font-size="8.00">type:relatedTo</text>
</g>
<!-- n85 -->
<g id="node3" class="node"><title>n85</title>
<polygon fill="#cae1ff" stroke="black" points="674,-183 620,-183 620,-147 674,-147 674,-183"/>
<text text-anchor="middle" x="647" y="-163.1" font-family="Helvetica,sans-Serif" font-size="8.00">node_id:83</text>
<text text-anchor="middle" x="647" y="-154.1" font-family="Helvetica,sans-Serif" font-size="8.00">type:2</text>
</g>
<!-- n85&#45;&gt;n82 -->
<g id="edge6" class="edge"><title>n85&#45;&gt;n82</title>
<path fill="none" stroke="blue" d="M619.995,-165C598.228,-165 566.917,-165 542.615,-165"/>
<polygon fill="blue" stroke="blue" points="542.341,-161.5 532.341,-165 542.341,-168.5 542.341,-161.5"/>
<text text-anchor="middle" x="576" y="-176.6" font-family="Helvetica,sans-Serif" font-size="8.00">state:0</text>
<text text-anchor="middle" x="576" y="-167.6" font-family="Helvetica,sans-Serif" font-size="8.00">type:relatedTo</text>
</g>
<!-- n77 -->
<g id="node7" class="node"><title>n77</title>
<polygon fill="#cae1ff" stroke="black" points="248,-266.5 194,-266.5 194,-221.5 248,-221.5 248,-266.5"/>
<text text-anchor="middle" x="221" y="-251.1" font-family="Helvetica,sans-Serif" font-size="8.00">name:3</text>
<text text-anchor="middle" x="221" y="-242.1" font-family="Helvetica,sans-Serif" font-size="8.00">ref_count:0</text>
<text text-anchor="middle" x="221" y="-233.1" font-family="Helvetica,sans-Serif" font-size="8.00">node_id:75</text>
<text text-anchor="middle" x="221" y="-224.1" font-family="Helvetica,sans-Serif" font-size="8.00">type:4</text>
</g>
<!-- n79&#45;&gt;n77 -->
<g id="edge12" class="edge"><title>n79&#45;&gt;n77</title>
<path fill="none" stroke="blue" d="M335.88,-152.232C315.823,-162.979 287.938,-179.226 266,-197 259.649,-202.145 253.337,-208.186 247.558,-214.191"/>
<polygon fill="blue" stroke="blue" points="244.813,-212.003 240.562,-221.707 249.937,-216.772 244.813,-212.003"/>
<text text-anchor="middle" x="292" y="-208.6" font-family="Helvetica,sans-Serif" font-size="8.00">state:2</text>
<text text-anchor="middle" x="292" y="-199.6" font-family="Helvetica,sans-Serif" font-size="8.00">type:relatedTo</text>
</g>
<!-- n78 -->
<g id="node8" class="node"><title>n78</title>
<polygon fill="#cae1ff" stroke="black" points="248,-108.5 194,-108.5 194,-63.5 248,-63.5 248,-108.5"/>
<text text-anchor="middle" x="221" y="-93.1" font-family="Helvetica,sans-Serif" font-size="8.00">name:4</text>
<text text-anchor="middle" x="221" y="-84.1" font-family="Helvetica,sans-Serif" font-size="8.00">ref_count:0</text>
<text text-anchor="middle" x="221" y="-75.1" font-family="Helvetica,sans-Serif" font-size="8.00">node_id:76</text>
<text text-anchor="middle" x="221" y="-66.1" font-family="Helvetica,sans-Serif" font-size="8.00">type:4</text>
</g>
<!-- n79&#45;&gt;n78 -->
<g id="edge14" class="edge"><title>n79&#45;&gt;n78</title>
<path fill="none" stroke="blue" d="M350.988,-120.671C343.265,-109.65 331.859,-96.5309 318,-90 299.624,-81.3406 277.008,-80.0145 258.343,-81.0044"/>
<polygon fill="blue" stroke="blue" points="257.855,-77.5315 248.153,-81.7886 258.392,-84.5109 257.855,-77.5315"/>
<text text-anchor="middle" x="292" y="-101.6" font-family="Helvetica,sans-Serif" font-size="8.00">state:3</text>
<text text-anchor="middle" x="292" y="-92.6" font-family="Helvetica,sans-Serif" font-size="8.00">type:relatedTo</text>
</g>
<!-- n83 -->
<g id="node6" class="node"><title>n83</title>
<polygon fill="#cae1ff" stroke="black" points="390,-44.5 336,-44.5 336,0.5 390,0.5 390,-44.5"/>
<text text-anchor="middle" x="363" y="-29.1" font-family="Helvetica,sans-Serif" font-size="8.00">name:4</text>
<text text-anchor="middle" x="363" y="-20.1" font-family="Helvetica,sans-Serif" font-size="8.00">ref_count:0</text>
<text text-anchor="middle" x="363" y="-11.1" font-family="Helvetica,sans-Serif" font-size="8.00">node_id:81</text>
<text text-anchor="middle" x="363" y="-2.1" font-family="Helvetica,sans-Serif" font-size="8.00">type:4</text>
</g>
<!-- n83&#45;&gt;n3 -->
<g id="edge13" class="edge"><title>n83&#45;&gt;n3</title>
<path fill="none" stroke="blue" d="M335.755,-17.9121C301.892,-13.7166 241.671,-9.95384 194,-27 157.002,-40.2299 147.938,-49.8411 124,-81 111.378,-97.4293 117.543,-106.795 106,-124 98.3314,-135.431 87.8991,-146.456 78.3912,-155.39"/>
<polygon fill="blue" stroke="blue" points="75.7568,-153.055 70.7028,-162.366 80.4606,-158.239 75.7568,-153.055"/>
<text text-anchor="middle" x="221" y="-38.6" font-family="Helvetica,sans-Serif" font-size="8.00">state:5</text>
<text text-anchor="middle" x="221" y="-29.6" font-family="Helvetica,sans-Serif" font-size="8.00">type:relatedTo</text>
</g>
<!-- n83&#45;&gt;n78 -->
<g id="edge8" class="edge"><title>n83&#45;&gt;n78</title>
<path fill="none" stroke="blue" d="M335.655,-26.6991C315.73,-30.9469 288.12,-38.3501 266,-50 261.961,-52.1272 257.945,-54.6608 254.076,-57.3845"/>
<polygon fill="blue" stroke="blue" points="251.76,-54.7478 245.889,-63.567 255.978,-60.3342 251.76,-54.7478"/>
<text text-anchor="middle" x="292" y="-61.6" font-family="Helvetica,sans-Serif" font-size="8.00">state:0</text>
<text text-anchor="middle" x="292" y="-52.6" font-family="Helvetica,sans-Serif" font-size="8.00">type:relatedTo</text>
</g>
<!-- n77&#45;&gt;n3 -->
<g id="edge9" class="edge"><title>n77&#45;&gt;n3</title>
<path fill="none" stroke="blue" d="M193.943,-227.436C188.152,-224.087 181.961,-220.753 176,-218 147.223,-204.71 112.984,-193.28 88.1135,-185.714"/>
<polygon fill="blue" stroke="blue" points="88.9896,-182.323 78.406,-182.812 86.9846,-189.03 88.9896,-182.323"/>
<text text-anchor="middle" x="150" y="-229.6" font-family="Helvetica,sans-Serif" font-size="8.00">state:10</text>
<text text-anchor="middle" x="150" y="-220.6" font-family="Helvetica,sans-Serif" font-size="8.00">type:relatedTo</text>
</g>
<!-- n80 -->
<g id="node11" class="node"><title>n80</title>
<polygon fill="#cae1ff" stroke="black" points="106,-290.5 7.10543e-15,-290.5 7.10543e-15,-227.5 106,-227.5 106,-290.5"/>
<text text-anchor="middle" x="53" y="-275.1" font-family="Helvetica,sans-Serif" font-size="8.00">arg_keys:[&#39;read_fd&#39;, &#39;write_fd&#39;]</text>
<text text-anchor="middle" x="53" y="-266.1" font-family="Helvetica,sans-Serif" font-size="8.00">arg_values:[&#39;3&#39;, &#39;4&#39;]</text>
<text text-anchor="middle" x="53" y="-257.1" font-family="Helvetica,sans-Serif" font-size="8.00">fn:pipe</text>
<text text-anchor="middle" x="53" y="-248.1" font-family="Helvetica,sans-Serif" font-size="8.00">node_id:78</text>
<text text-anchor="middle" x="53" y="-239.1" font-family="Helvetica,sans-Serif" font-size="8.00">ret:0</text>
<text text-anchor="middle" x="53" y="-230.1" font-family="Helvetica,sans-Serif" font-size="8.00">type:5</text>
</g>
<!-- n77&#45;&gt;n80 -->
<g id="edge10" class="edge"><title>n77&#45;&gt;n80</title>
<path fill="none" stroke="blue" d="M193.697,-246.377C172.944,-248.252 143.134,-250.946 116.376,-253.364"/>
<polygon fill="blue" stroke="blue" points="115.94,-249.889 106.296,-254.274 116.57,-256.86 115.94,-249.889"/>
<text text-anchor="middle" x="150" y="-264.6" font-family="Helvetica,sans-Serif" font-size="8.00">state:0</text>
<text text-anchor="middle" x="150" y="-255.6" font-family="Helvetica,sans-Serif" font-size="8.00">type:relatedTo</text>
</g>
<!-- n78&#45;&gt;n3 -->
<g id="edge11" class="edge"><title>n78&#45;&gt;n3</title>
<path fill="none" stroke="blue" d="M193.757,-102.185C187.979,-105.557 181.839,-108.997 176,-112 153.528,-123.559 146.495,-123.484 124,-135 109.877,-142.23 94.6278,-151.037 81.979,-158.632"/>
<polygon fill="blue" stroke="blue" points="80.0156,-155.729 73.2815,-163.909 83.6466,-161.714 80.0156,-155.729"/>
<text text-anchor="middle" x="150" y="-146.6" font-family="Helvetica,sans-Serif" font-size="8.00">state:10</text>
<text text-anchor="middle" x="150" y="-137.6" font-family="Helvetica,sans-Serif" font-size="8.00">type:relatedTo</text>
</g>
<!-- n81 -->
<g id="node10" class="node"><title>n81</title>
<polygon fill="#cae1ff" stroke="black" points="106,-115.5 7.10543e-15,-115.5 7.10543e-15,-52.5 106,-52.5 106,-115.5"/>
<text text-anchor="middle" x="53" y="-100.1" font-family="Helvetica,sans-Serif" font-size="8.00">arg_keys:[&#39;read_fd&#39;, &#39;write_fd&#39;]</text>
<text text-anchor="middle" x="53" y="-91.1" font-family="Helvetica,sans-Serif" font-size="8.00">arg_values:[&#39;3&#39;, &#39;4&#39;]</text>
<text text-anchor="middle" x="53" y="-82.1" font-family="Helvetica,sans-Serif" font-size="8.00">fn:pipe</text>
<text text-anchor="middle" x="53" y="-73.1" font-family="Helvetica,sans-Serif" font-size="8.00">node_id:79</text>
<text text-anchor="middle" x="53" y="-64.1" font-family="Helvetica,sans-Serif" font-size="8.00">ret:0</text>
<text text-anchor="middle" x="53" y="-55.1" font-family="Helvetica,sans-Serif" font-size="8.00">type:5</text>
</g>
<!-- n78&#45;&gt;n81 -->
<g id="edge3" class="edge"><title>n78&#45;&gt;n81</title>
<path fill="none" stroke="blue" d="M193.943,-85.3452C188.043,-85.2144 181.806,-85.0898 176,-85 156.612,-84.7002 135.488,-84.487 116.351,-84.3367"/>
<polygon fill="blue" stroke="blue" points="116.272,-80.8361 106.246,-84.2616 116.22,-87.8359 116.272,-80.8361"/>
<text text-anchor="middle" x="150" y="-96.6" font-family="Helvetica,sans-Serif" font-size="8.00">state:0</text>
<text text-anchor="middle" x="150" y="-87.6" font-family="Helvetica,sans-Serif" font-size="8.00">type:relatedTo</text>
</g>
<!-- n84&#45;&gt;n3 -->
<g id="edge15" class="edge"><title>n84&#45;&gt;n3</title>
<path fill="none" stroke="blue" d="M335.742,-209.868C312.928,-201.569 278.8,-190.354 248,-185 193.685,-175.558 129.611,-174.506 90.4021,-174.978"/>
<polygon fill="blue" stroke="blue" points="90.2136,-171.48 80.2713,-175.141 90.3263,-178.48 90.2136,-171.48"/>
<text text-anchor="middle" x="221" y="-196.6" font-family="Helvetica,sans-Serif" font-size="8.00">state:10</text>
<text text-anchor="middle" x="221" y="-187.6" font-family="Helvetica,sans-Serif" font-size="8.00">type:relatedTo</text>
</g>
<!-- n84&#45;&gt;n77 -->
<g id="edge2" class="edge"><title>n84&#45;&gt;n77</title>
<path fill="none" stroke="blue" d="M335.995,-224.458C314.131,-228.206 282.636,-233.605 258.289,-237.779"/>
<polygon fill="blue" stroke="blue" points="257.605,-234.345 248.341,-239.484 258.788,-241.244 257.605,-234.345"/>
<text text-anchor="middle" x="292" y="-248.6" font-family="Helvetica,sans-Serif" font-size="8.00">state:0</text>
<text text-anchor="middle" x="292" y="-239.6" font-family="Helvetica,sans-Serif" font-size="8.00">type:relatedTo</text>
</g>
</g>
</svg>
