<?xml version="1.0" encoding="UTF-8" standalone="no"?>
<!DOCTYPE svg PUBLIC "-//W3C//DTD SVG 1.1//EN"
 "http://www.w3.org/Graphics/SVG/1.1/DTD/svg11.dtd">
<!-- Generated by graphviz version 2.36.0 (20140111.2315)
 -->
<!-- Title: clingo2dot Pages: 1 -->
<svg width="1938pt" height="334pt"
 viewBox="0.00 0.00 1938.00 334.00" xmlns="http://www.w3.org/2000/svg" xmlns:xlink="http://www.w3.org/1999/xlink">
<g id="graph0" class="graph" transform="scale(1 1) rotate(0) translate(4 330)">
<title>clingo2dot</title>
<polygon fill="white" stroke="none" points="-4,4 -4,-330 1934,-330 1934,4 -4,4"/>
<!-- n87 -->
<g id="node1" class="node"><title>n87</title>
<polygon fill="#cae1ff" stroke="black" points="359.5,-326.5 0.5,-326.5 0.5,-263.5 359.5,-263.5 359.5,-326.5"/>
<text text-anchor="middle" x="180" y="-311.1" font-family="Helvetica,sans-Serif" font-size="8.00">node_id:85</text>
<text text-anchor="middle" x="180" y="-302.1" font-family="Helvetica,sans-Serif" font-size="8.00">arg_values:[&#39;/home/vagrant/ProvMark/stage/test.txt&#39;, &#39;/home/vagrant/ProvMark/stage/rename&#45;test.txt&#39;]</text>
<text text-anchor="middle" x="180" y="-293.1" font-family="Helvetica,sans-Serif" font-size="8.00">arg_keys:[&#39;oldpath&#39;, &#39;newpath&#39;]</text>
<text text-anchor="middle" x="180" y="-284.1" font-family="Helvetica,sans-Serif" font-size="8.00">ret:0</text>
<text text-anchor="middle" x="180" y="-275.1" font-family="Helvetica,sans-Serif" font-size="8.00">fn:rename</text>
<text text-anchor="middle" x="180" y="-266.1" font-family="Helvetica,sans-Serif" font-size="8.00">type:5</text>
</g>
<!-- n83 -->
<g id="node2" class="node"><title>n83</title>
<polygon fill="#cae1ff" stroke="black" points="1644,-63 1304,-63 1304,-27 1644,-27 1644,-63"/>
<text text-anchor="middle" x="1474" y="-47.6" font-family="Helvetica,sans-Serif" font-size="8.00">node_id:81</text>
<text text-anchor="middle" x="1474" y="-38.6" font-family="Helvetica,sans-Serif" font-size="8.00">name:[&#39;/home/vagrant/ProvMark/stage/test.txt&#39;, &#39;/home/vagrant/ProvMark/stage/rename&#45;test.txt&#39;]</text>
<text text-anchor="middle" x="1474" y="-29.6" font-family="Helvetica,sans-Serif" font-size="8.00">type:2</text>
</g>
<!-- n82 -->
<g id="node5" class="node"><title>n82</title>
<polygon fill="#cae1ff" stroke="black" points="502,-50.5 448,-50.5 448,-5.5 502,-5.5 502,-50.5"/>
<text text-anchor="middle" x="475" y="-35.1" font-family="Helvetica,sans-Serif" font-size="8.00">node_id:80</text>
<text text-anchor="middle" x="475" y="-26.1" font-family="Helvetica,sans-Serif" font-size="8.00">name:omega</text>
<text text-anchor="middle" x="475" y="-17.1" font-family="Helvetica,sans-Serif" font-size="8.00">ref_count:2</text>
<text text-anchor="middle" x="475" y="-8.1" font-family="Helvetica,sans-Serif" font-size="8.00">type:4</text>
</g>
<!-- n83&#45;&gt;n82 -->
<g id="edge4" class="edge"><title>n83&#45;&gt;n82</title>
<path fill="none" stroke="blue" d="M1303.76,-40.0984C1165.14,-36.3118 963.891,-31.3358 788,-29 688.317,-27.6762 570.705,-27.739 512.465,-27.8788"/>
<polygon fill="blue" stroke="blue" points="512.289,-24.3792 502.299,-27.9055 512.308,-31.3792 512.289,-24.3792"/>
<text text-anchor="middle" x="832" y="-41.6" font-family="Helvetica,sans-Serif" font-size="8.00">state:3</text>
<text text-anchor="middle" x="832" y="-32.6" font-family="Helvetica,sans-Serif" font-size="8.00">type:relatedTo</text>
</g>
<!-- n80 -->
<g id="node12" class="node"><title>n80</title>
<polygon fill="#cae1ff" stroke="black" points="1216,-138 876,-138 876,-102 1216,-102 1216,-138"/>
<text text-anchor="middle" x="1046" y="-122.6" font-family="Helvetica,sans-Serif" font-size="8.00">node_id:78</text>
<text text-anchor="middle" x="1046" y="-113.6" font-family="Helvetica,sans-Serif" font-size="8.00">name:[&#39;/home/vagrant/ProvMark/stage/test.txt&#39;, &#39;/home/vagrant/ProvMark/stage/rename&#45;test.txt&#39;]</text>
<text text-anchor="middle" x="1046" y="-104.6" font-family="Helvetica,sans-Serif" font-size="8.00">type:2</text>
</g>
<!-- n83&#45;&gt;n80 -->
<g id="edge3" class="edge"><title>n83&#45;&gt;n80</title>
<path fill="none" stroke="blue" d="M1370.69,-63.0121C1307,-74.225 1225.03,-88.6572 1159.51,-100.192"/>
<polygon fill="blue" stroke="blue" points="1158.8,-96.7637 1149.55,-101.945 1160.01,-103.658 1158.8,-96.7637"/>
<text text-anchor="middle" x="1260" y="-98.6" font-family="Helvetica,sans-Serif" font-size="8.00">state:0</text>
<text text-anchor="middle" x="1260" y="-89.6" font-family="Helvetica,sans-Serif" font-size="8.00">type:relatedTo</text>
</g>
<!-- n3 -->
<g id="node3" class="node"><title>n3</title>
<ellipse fill="green" stroke="black" cx="180" cy="-108" rx="27" ry="18"/>
<text text-anchor="middle" x="180" y="-106.1" font-family="Helvetica,sans-Serif" font-size="8.00">Dummy Node</text>
</g>
<!-- n81 -->
<g id="node4" class="node"><title>n81</title>
<polygon fill="#cae1ff" stroke="black" points="716,-269.5 662,-269.5 662,-224.5 716,-224.5 716,-269.5"/>
<text text-anchor="middle" x="689" y="-254.1" font-family="Helvetica,sans-Serif" font-size="8.00">node_id:79</text>
<text text-anchor="middle" x="689" y="-245.1" font-family="Helvetica,sans-Serif" font-size="8.00">name:omega</text>
<text text-anchor="middle" x="689" y="-236.1" font-family="Helvetica,sans-Serif" font-size="8.00">ref_count:0</text>
<text text-anchor="middle" x="689" y="-227.1" font-family="Helvetica,sans-Serif" font-size="8.00">type:4</text>
</g>
<!-- n81&#45;&gt;n3 -->
<g id="edge8" class="edge"><title>n81&#45;&gt;n3</title>
<path fill="none" stroke="blue" d="M661.807,-250.296C628.505,-253.772 569.4,-257.545 520,-248 398.89,-224.6 266.958,-156.45 209.929,-124.674"/>
<polygon fill="blue" stroke="blue" points="211.548,-121.569 201.116,-119.719 208.117,-127.67 211.548,-121.569"/>
<text text-anchor="middle" x="475" y="-255.6" font-family="Helvetica,sans-Serif" font-size="8.00">state:5</text>
<text text-anchor="middle" x="475" y="-246.6" font-family="Helvetica,sans-Serif" font-size="8.00">type:relatedTo</text>
</g>
<!-- n77 -->
<g id="node11" class="node"><title>n77</title>
<polygon fill="#cae1ff" stroke="black" points="502,-192.5 448,-192.5 448,-147.5 502,-147.5 502,-192.5"/>
<text text-anchor="middle" x="475" y="-177.1" font-family="Helvetica,sans-Serif" font-size="8.00">node_id:75</text>
<text text-anchor="middle" x="475" y="-168.1" font-family="Helvetica,sans-Serif" font-size="8.00">name:omega</text>
<text text-anchor="middle" x="475" y="-159.1" font-family="Helvetica,sans-Serif" font-size="8.00">ref_count:1</text>
<text text-anchor="middle" x="475" y="-150.1" font-family="Helvetica,sans-Serif" font-size="8.00">type:4</text>
</g>
<!-- n81&#45;&gt;n77 -->
<g id="edge13" class="edge"><title>n81&#45;&gt;n77</title>
<path fill="none" stroke="blue" d="M661.863,-241.789C628.115,-234.524 568.018,-219.747 520,-198 517.031,-196.655 514.026,-195.135 511.056,-193.515"/>
<polygon fill="blue" stroke="blue" points="512.717,-190.433 502.313,-188.433 509.199,-196.484 512.717,-190.433"/>
<text text-anchor="middle" x="546" y="-228.6" font-family="Helvetica,sans-Serif" font-size="8.00">state:0</text>
<text text-anchor="middle" x="546" y="-219.6" font-family="Helvetica,sans-Serif" font-size="8.00">type:relatedTo</text>
</g>
<!-- n82&#45;&gt;n3 -->
<g id="edge10" class="edge"><title>n82&#45;&gt;n3</title>
<path fill="none" stroke="blue" d="M447.74,-32.053C428.341,-35.2574 401.359,-40.1565 378,-46 319.408,-60.6572 252.63,-82.8691 213.806,-96.3478"/>
<polygon fill="blue" stroke="blue" points="212.38,-93.1385 204.094,-99.7404 214.688,-99.747 212.38,-93.1385"/>
<text text-anchor="middle" x="404" y="-57.6" font-family="Helvetica,sans-Serif" font-size="8.00">state:10</text>
<text text-anchor="middle" x="404" y="-48.6" font-family="Helvetica,sans-Serif" font-size="8.00">type:relatedTo</text>
</g>
<!-- n78 -->
<g id="node6" class="node"><title>n78</title>
<polygon fill="#cae1ff" stroke="black" points="772,-192 606,-192 606,-156 772,-156 772,-192"/>
<text text-anchor="middle" x="689" y="-176.6" font-family="Helvetica,sans-Serif" font-size="8.00">node_id:76</text>
<text text-anchor="middle" x="689" y="-167.6" font-family="Helvetica,sans-Serif" font-size="8.00">name:[&#39;/home/vagrant/ProvMark/stage/test.txt&#39;]</text>
<text text-anchor="middle" x="689" y="-158.6" font-family="Helvetica,sans-Serif" font-size="8.00">type:2</text>
</g>
<!-- n78&#45;&gt;n77 -->
<g id="edge1" class="edge"><title>n78&#45;&gt;n77</title>
<path fill="none" stroke="blue" d="M605.937,-171.72C594.538,-171.449 582.978,-171.199 572,-171 552.218,-170.641 530.141,-170.4 512.151,-170.245"/>
<polygon fill="blue" stroke="blue" points="512.107,-166.744 502.078,-170.163 512.05,-173.744 512.107,-166.744"/>
<text text-anchor="middle" x="546" y="-182.6" font-family="Helvetica,sans-Serif" font-size="8.00">state:0</text>
<text text-anchor="middle" x="546" y="-173.6" font-family="Helvetica,sans-Serif" font-size="8.00">type:relatedTo</text>
</g>
<!-- n85 -->
<g id="node7" class="node"><title>n85</title>
<polygon fill="#cae1ff" stroke="black" points="716,-83.5 662,-83.5 662,-38.5 716,-38.5 716,-83.5"/>
<text text-anchor="middle" x="689" y="-68.1" font-family="Helvetica,sans-Serif" font-size="8.00">node_id:83</text>
<text text-anchor="middle" x="689" y="-59.1" font-family="Helvetica,sans-Serif" font-size="8.00">name:omega</text>
<text text-anchor="middle" x="689" y="-50.1" font-family="Helvetica,sans-Serif" font-size="8.00">ref_count:0</text>
<text text-anchor="middle" x="689" y="-41.1" font-family="Helvetica,sans-Serif" font-size="8.00">type:4</text>
</g>
<!-- n85&#45;&gt;n3 -->
<g id="edge15" class="edge"><title>n85&#45;&gt;n3</title>
<path fill="none" stroke="blue" d="M661.75,-63.8199C638.246,-66.32 602.834,-70.0253 572,-73 441.603,-85.5802 286.588,-99.0008 217.438,-104.907"/>
<polygon fill="blue" stroke="blue" points="216.76,-101.452 207.094,-105.79 217.355,-108.427 216.76,-101.452"/>
<text text-anchor="middle" x="475" y="-96.6" font-family="Helvetica,sans-Serif" font-size="8.00">state:5</text>
<text text-anchor="middle" x="475" y="-87.6" font-family="Helvetica,sans-Serif" font-size="8.00">type:relatedTo</text>
</g>
<!-- n85&#45;&gt;n82 -->
<g id="edge14" class="edge"><title>n85&#45;&gt;n82</title>
<path fill="none" stroke="blue" d="M661.579,-56.8873C623.843,-51.0133 554.399,-40.2037 511.993,-33.6027"/>
<polygon fill="blue" stroke="blue" points="512.508,-30.1407 502.088,-32.0609 511.431,-37.0574 512.508,-30.1407"/>
<text text-anchor="middle" x="546" y="-54.6" font-family="Helvetica,sans-Serif" font-size="8.00">state:0</text>
<text text-anchor="middle" x="546" y="-45.6" font-family="Helvetica,sans-Serif" font-size="8.00">type:relatedTo</text>
</g>
<!-- n79 -->
<g id="node8" class="node"><title>n79</title>
<polygon fill="#cae1ff" stroke="black" points="787.5,-138 590.5,-138 590.5,-102 787.5,-102 787.5,-138"/>
<text text-anchor="middle" x="689" y="-122.6" font-family="Helvetica,sans-Serif" font-size="8.00">node_id:77</text>
<text text-anchor="middle" x="689" y="-113.6" font-family="Helvetica,sans-Serif" font-size="8.00">name:[&#39;/home/vagrant/ProvMark/stage/rename&#45;test.txt&#39;]</text>
<text text-anchor="middle" x="689" y="-104.6" font-family="Helvetica,sans-Serif" font-size="8.00">type:2</text>
</g>
<!-- n79&#45;&gt;n77 -->
<g id="edge6" class="edge"><title>n79&#45;&gt;n77</title>
<path fill="none" stroke="blue" d="M590.167,-123.672C566.663,-126.712 542.005,-131.756 520,-140 516.97,-141.135 513.946,-142.521 510.983,-144.067"/>
<polygon fill="blue" stroke="blue" points="509.217,-141.045 502.332,-149.098 512.736,-147.096 509.217,-141.045"/>
<text text-anchor="middle" x="546" y="-151.6" font-family="Helvetica,sans-Serif" font-size="8.00">state:0</text>
<text text-anchor="middle" x="546" y="-142.6" font-family="Helvetica,sans-Serif" font-size="8.00">type:relatedTo</text>
</g>
<!-- n86 -->
<g id="node9" class="node"><title>n86</title>
<polygon fill="#cae1ff" stroke="black" points="1914,-90 1748,-90 1748,-54 1914,-54 1914,-90"/>
<text text-anchor="middle" x="1831" y="-74.6" font-family="Helvetica,sans-Serif" font-size="8.00">node_id:84</text>
<text text-anchor="middle" x="1831" y="-65.6" font-family="Helvetica,sans-Serif" font-size="8.00">name:[&#39;/home/vagrant/ProvMark/stage/test.txt&#39;]</text>
<text text-anchor="middle" x="1831" y="-56.6" font-family="Helvetica,sans-Serif" font-size="8.00">type:2</text>
</g>
<!-- n86&#45;&gt;n83 -->
<g id="edge9" class="edge"><title>n86&#45;&gt;n83</title>
<path fill="none" stroke="blue" d="M1747.66,-65.7378C1719.54,-63.5989 1686.9,-61.116 1654.17,-58.6272"/>
<polygon fill="blue" stroke="blue" points="1654.26,-55.1236 1644.02,-57.855 1653.73,-62.1034 1654.26,-55.1236"/>
<text text-anchor="middle" x="1688" y="-74.6" font-family="Helvetica,sans-Serif" font-size="8.00">state:6</text>
<text text-anchor="middle" x="1688" y="-65.6" font-family="Helvetica,sans-Serif" font-size="8.00">type:relatedTo</text>
</g>
<!-- n84 -->
<g id="node10" class="node"><title>n84</title>
<polygon fill="#cae1ff" stroke="black" points="1929.5,-36 1732.5,-36 1732.5,-0 1929.5,-0 1929.5,-36"/>
<text text-anchor="middle" x="1831" y="-20.6" font-family="Helvetica,sans-Serif" font-size="8.00">node_id:82</text>
<text text-anchor="middle" x="1831" y="-11.6" font-family="Helvetica,sans-Serif" font-size="8.00">name:[&#39;/home/vagrant/ProvMark/stage/rename&#45;test.txt&#39;]</text>
<text text-anchor="middle" x="1831" y="-2.6" font-family="Helvetica,sans-Serif" font-size="8.00">type:2</text>
</g>
<!-- n84&#45;&gt;n83 -->
<g id="edge11" class="edge"><title>n84&#45;&gt;n83</title>
<path fill="none" stroke="blue" d="M1732.26,-24.0689C1709.21,-25.5916 1684.73,-27.2833 1662,-29 1659.44,-29.1932 1656.86,-29.3897 1654.27,-29.589"/>
<polygon fill="blue" stroke="blue" points="1653.89,-26.1077 1644.19,-30.3713 1654.43,-33.0867 1653.89,-26.1077"/>
<text text-anchor="middle" x="1688" y="-40.6" font-family="Helvetica,sans-Serif" font-size="8.00">state:0</text>
<text text-anchor="middle" x="1688" y="-31.6" font-family="Helvetica,sans-Serif" font-size="8.00">type:relatedTo</text>
</g>
<!-- n77&#45;&gt;n87 -->
<g id="edge12" class="edge"><title>n77&#45;&gt;n87</title>
<path fill="none" stroke="blue" d="M447.574,-182.874C441.807,-185.61 435.718,-188.443 430,-191 376.674,-214.844 316.224,-240.133 268.241,-259.803"/>
<polygon fill="blue" stroke="blue" points="266.745,-256.633 258.816,-263.66 269.397,-263.111 266.745,-256.633"/>
<text text-anchor="middle" x="404" y="-223.6" font-family="Helvetica,sans-Serif" font-size="8.00">state:0</text>
<text text-anchor="middle" x="404" y="-214.6" font-family="Helvetica,sans-Serif" font-size="8.00">type:relatedTo</text>
</g>
<!-- n77&#45;&gt;n3 -->
<g id="edge2" class="edge"><title>n77&#45;&gt;n3</title>
<path fill="none" stroke="blue" d="M447.998,-164.498C395.281,-153.343 275.774,-128.055 216.17,-115.442"/>
<polygon fill="blue" stroke="blue" points="216.618,-111.959 206.11,-113.313 215.168,-118.808 216.618,-111.959"/>
<text text-anchor="middle" x="404" y="-171.6" font-family="Helvetica,sans-Serif" font-size="8.00">state:10</text>
<text text-anchor="middle" x="404" y="-162.6" font-family="Helvetica,sans-Serif" font-size="8.00">type:relatedTo</text>
</g>
<!-- n80&#45;&gt;n78 -->
<g id="edge7" class="edge"><title>n80&#45;&gt;n78</title>
<path fill="none" stroke="blue" d="M934.796,-138.002C909.574,-142.033 882.869,-146.229 858,-150 833.422,-153.727 806.795,-157.604 782.141,-161.128"/>
<polygon fill="blue" stroke="blue" points="781.479,-157.687 772.073,-162.563 782.467,-164.617 781.479,-157.687"/>
<text text-anchor="middle" x="832" y="-169.6" font-family="Helvetica,sans-Serif" font-size="8.00">state:0</text>
<text text-anchor="middle" x="832" y="-160.6" font-family="Helvetica,sans-Serif" font-size="8.00">type:relatedTo</text>
</g>
<!-- n80&#45;&gt;n79 -->
<g id="edge5" class="edge"><title>n80&#45;&gt;n79</title>
<path fill="none" stroke="blue" d="M875.818,-120C849.292,-120 822.518,-120 797.872,-120"/>
<polygon fill="blue" stroke="blue" points="797.813,-116.5 787.813,-120 797.813,-123.5 797.813,-116.5"/>
<text text-anchor="middle" x="832" y="-131.6" font-family="Helvetica,sans-Serif" font-size="8.00">state:0</text>
<text text-anchor="middle" x="832" y="-122.6" font-family="Helvetica,sans-Serif" font-size="8.00">type:relatedTo</text>
</g>
</g>
</svg>
