<?xml version="1.0" encoding="UTF-8" standalone="no"?>
<!DOCTYPE svg PUBLIC "-//W3C//DTD SVG 1.1//EN"
 "http://www.w3.org/Graphics/SVG/1.1/DTD/svg11.dtd">
<!-- Generated by graphviz version 2.36.0 (20140111.2315)
 -->
<!-- Title: clingo2dot Pages: 1 -->
<svg width="1972pt" height="335pt"
 viewBox="0.00 0.00 1972.00 335.00" xmlns="http://www.w3.org/2000/svg" xmlns:xlink="http://www.w3.org/1999/xlink">
<g id="graph0" class="graph" transform="scale(1 1) rotate(0) translate(4 331)">
<title>clingo2dot</title>
<polygon fill="white" stroke="none" points="-4,4 -4,-331 1968,-331 1968,4 -4,4"/>
<!-- n84 -->
<g id="node1" class="node"><title>n84</title>
<polygon fill="#cae1ff" stroke="black" points="725,-269.5 671,-269.5 671,-224.5 725,-224.5 725,-269.5"/>
<text text-anchor="middle" x="698" y="-254.1" font-family="Helvetica,sans-Serif" font-size="8.00">ref_count:0</text>
<text text-anchor="middle" x="698" y="-245.1" font-family="Helvetica,sans-Serif" font-size="8.00">name:omega</text>
<text text-anchor="middle" x="698" y="-236.1" font-family="Helvetica,sans-Serif" font-size="8.00">node_id:82</text>
<text text-anchor="middle" x="698" y="-227.1" font-family="Helvetica,sans-Serif" font-size="8.00">type:4</text>
</g>
<!-- n80 -->
<g id="node2" class="node"><title>n80</title>
<polygon fill="#cae1ff" stroke="black" points="508,-192.5 454,-192.5 454,-147.5 508,-147.5 508,-192.5"/>
<text text-anchor="middle" x="481" y="-177.1" font-family="Helvetica,sans-Serif" font-size="8.00">ref_count:1</text>
<text text-anchor="middle" x="481" y="-168.1" font-family="Helvetica,sans-Serif" font-size="8.00">name:omega</text>
<text text-anchor="middle" x="481" y="-159.1" font-family="Helvetica,sans-Serif" font-size="8.00">node_id:78</text>
<text text-anchor="middle" x="481" y="-150.1" font-family="Helvetica,sans-Serif" font-size="8.00">type:4</text>
</g>
<!-- n84&#45;&gt;n80 -->
<g id="edge4" class="edge"><title>n84&#45;&gt;n80</title>
<path fill="none" stroke="blue" d="M670.983,-241.988C636.742,-234.849 575.142,-220.117 526,-198 523.028,-196.662 520.021,-195.147 517.049,-193.531"/>
<polygon fill="blue" stroke="blue" points="518.709,-190.447 508.303,-188.455 515.195,-196.502 518.709,-190.447"/>
<text text-anchor="middle" x="552" y="-229.6" font-family="Helvetica,sans-Serif" font-size="8.00">state:0</text>
<text text-anchor="middle" x="552" y="-220.6" font-family="Helvetica,sans-Serif" font-size="8.00">type:relatedTo</text>
</g>
<!-- n3 -->
<g id="node6" class="node"><title>n3</title>
<ellipse fill="green" stroke="black" cx="183" cy="-116" rx="27" ry="18"/>
<text text-anchor="middle" x="183" y="-114.1" font-family="Helvetica,sans-Serif" font-size="8.00">Dummy Node</text>
</g>
<!-- n84&#45;&gt;n3 -->
<g id="edge12" class="edge"><title>n84&#45;&gt;n3</title>
<path fill="none" stroke="blue" d="M670.946,-250.184C637.182,-253.621 576.638,-257.433 526,-248 404.797,-225.422 271.194,-161.43 213.359,-131.629"/>
<polygon fill="blue" stroke="blue" points="214.906,-128.489 204.419,-126.983 211.678,-134.7 214.906,-128.489"/>
<text text-anchor="middle" x="481" y="-255.6" font-family="Helvetica,sans-Serif" font-size="8.00">state:5</text>
<text text-anchor="middle" x="481" y="-246.6" font-family="Helvetica,sans-Serif" font-size="8.00">type:relatedTo</text>
</g>
<!-- n80&#45;&gt;n3 -->
<g id="edge5" class="edge"><title>n80&#45;&gt;n3</title>
<path fill="none" stroke="blue" d="M453.991,-165.255C400.891,-155.568 279.947,-133.504 219.608,-122.496"/>
<polygon fill="blue" stroke="blue" points="219.889,-118.99 209.423,-120.638 218.633,-125.876 219.889,-118.99"/>
<text text-anchor="middle" x="410" y="-172.6" font-family="Helvetica,sans-Serif" font-size="8.00">state:10</text>
<text text-anchor="middle" x="410" y="-163.6" font-family="Helvetica,sans-Serif" font-size="8.00">type:relatedTo</text>
</g>
<!-- n90 -->
<g id="node9" class="node"><title>n90</title>
<polygon fill="#cae1ff" stroke="black" points="366,-326.5 0,-326.5 0,-263.5 366,-263.5 366,-326.5"/>
<text text-anchor="middle" x="183" y="-311.1" font-family="Helvetica,sans-Serif" font-size="8.00">fn:renameat</text>
<text text-anchor="middle" x="183" y="-302.1" font-family="Helvetica,sans-Serif" font-size="8.00">arg_values:[&#39;/home/vagrant/ProvMark/stage/test.txt&#39;, &#39;/home/vagrant/ProvMark/stage/renameat&#45;test.txt&#39;]</text>
<text text-anchor="middle" x="183" y="-293.1" font-family="Helvetica,sans-Serif" font-size="8.00">ret:0</text>
<text text-anchor="middle" x="183" y="-284.1" font-family="Helvetica,sans-Serif" font-size="8.00">arg_keys:[&#39;oldpath&#39;, &#39;newpath&#39;]</text>
<text text-anchor="middle" x="183" y="-275.1" font-family="Helvetica,sans-Serif" font-size="8.00">node_id:88</text>
<text text-anchor="middle" x="183" y="-266.1" font-family="Helvetica,sans-Serif" font-size="8.00">type:5</text>
</g>
<!-- n80&#45;&gt;n90 -->
<g id="edge7" class="edge"><title>n80&#45;&gt;n90</title>
<path fill="none" stroke="blue" d="M453.631,-183.589C447.86,-186.45 441.756,-189.389 436,-192 383.037,-216.023 322.769,-240.748 274.454,-259.951"/>
<polygon fill="blue" stroke="blue" points="272.963,-256.777 264.956,-263.716 275.542,-263.284 272.963,-256.777"/>
<text text-anchor="middle" x="410" y="-225.6" font-family="Helvetica,sans-Serif" font-size="8.00">state:0</text>
<text text-anchor="middle" x="410" y="-216.6" font-family="Helvetica,sans-Serif" font-size="8.00">type:relatedTo</text>
</g>
<!-- n85 -->
<g id="node3" class="node"><title>n85</title>
<polygon fill="#cae1ff" stroke="black" points="508,-50.5 454,-50.5 454,-5.5 508,-5.5 508,-50.5"/>
<text text-anchor="middle" x="481" y="-35.1" font-family="Helvetica,sans-Serif" font-size="8.00">ref_count:2</text>
<text text-anchor="middle" x="481" y="-26.1" font-family="Helvetica,sans-Serif" font-size="8.00">name:omega</text>
<text text-anchor="middle" x="481" y="-17.1" font-family="Helvetica,sans-Serif" font-size="8.00">node_id:83</text>
<text text-anchor="middle" x="481" y="-8.1" font-family="Helvetica,sans-Serif" font-size="8.00">type:4</text>
</g>
<!-- n85&#45;&gt;n3 -->
<g id="edge8" class="edge"><title>n85&#45;&gt;n3</title>
<path fill="none" stroke="blue" d="M453.683,-31.8327C434.256,-34.9276 407.264,-39.7862 384,-46 323.513,-62.1562 255.06,-87.7675 215.964,-103.123"/>
<polygon fill="blue" stroke="blue" points="214.458,-99.9541 206.446,-106.886 217.032,-106.464 214.458,-99.9541"/>
<text text-anchor="middle" x="410" y="-57.6" font-family="Helvetica,sans-Serif" font-size="8.00">state:10</text>
<text text-anchor="middle" x="410" y="-48.6" font-family="Helvetica,sans-Serif" font-size="8.00">type:relatedTo</text>
</g>
<!-- n81 -->
<g id="node4" class="node"><title>n81</title>
<polygon fill="#cae1ff" stroke="black" points="781,-192 615,-192 615,-156 781,-156 781,-192"/>
<text text-anchor="middle" x="698" y="-176.6" font-family="Helvetica,sans-Serif" font-size="8.00">name:[&#39;/home/vagrant/ProvMark/stage/test.txt&#39;]</text>
<text text-anchor="middle" x="698" y="-167.6" font-family="Helvetica,sans-Serif" font-size="8.00">node_id:79</text>
<text text-anchor="middle" x="698" y="-158.6" font-family="Helvetica,sans-Serif" font-size="8.00">type:2</text>
</g>
<!-- n81&#45;&gt;n80 -->
<g id="edge2" class="edge"><title>n81&#45;&gt;n80</title>
<path fill="none" stroke="blue" d="M614.744,-171.768C602.429,-171.48 589.881,-171.212 578,-171 558.218,-170.648 536.141,-170.407 518.151,-170.25"/>
<polygon fill="blue" stroke="blue" points="518.107,-166.75 508.078,-170.168 518.049,-173.75 518.107,-166.75"/>
<text text-anchor="middle" x="552" y="-182.6" font-family="Helvetica,sans-Serif" font-size="8.00">state:0</text>
<text text-anchor="middle" x="552" y="-173.6" font-family="Helvetica,sans-Serif" font-size="8.00">type:relatedTo</text>
</g>
<!-- n89 -->
<g id="node5" class="node"><title>n89</title>
<polygon fill="#cae1ff" stroke="black" points="1945,-90 1779,-90 1779,-54 1945,-54 1945,-90"/>
<text text-anchor="middle" x="1862" y="-74.6" font-family="Helvetica,sans-Serif" font-size="8.00">name:[&#39;/home/vagrant/ProvMark/stage/test.txt&#39;]</text>
<text text-anchor="middle" x="1862" y="-65.6" font-family="Helvetica,sans-Serif" font-size="8.00">node_id:87</text>
<text text-anchor="middle" x="1862" y="-56.6" font-family="Helvetica,sans-Serif" font-size="8.00">type:2</text>
</g>
<!-- n86 -->
<g id="node8" class="node"><title>n86</title>
<polygon fill="#cae1ff" stroke="black" points="1671.5,-63 1324.5,-63 1324.5,-27 1671.5,-27 1671.5,-63"/>
<text text-anchor="middle" x="1498" y="-47.6" font-family="Helvetica,sans-Serif" font-size="8.00">name:[&#39;/home/vagrant/ProvMark/stage/test.txt&#39;, &#39;/home/vagrant/ProvMark/stage/renameat&#45;test.txt&#39;]</text>
<text text-anchor="middle" x="1498" y="-38.6" font-family="Helvetica,sans-Serif" font-size="8.00">node_id:84</text>
<text text-anchor="middle" x="1498" y="-29.6" font-family="Helvetica,sans-Serif" font-size="8.00">type:2</text>
</g>
<!-- n89&#45;&gt;n86 -->
<g id="edge1" class="edge"><title>n89&#45;&gt;n86</title>
<path fill="none" stroke="blue" d="M1778.86,-65.8733C1749.81,-63.7067 1715.86,-61.1745 1681.82,-58.636"/>
<polygon fill="blue" stroke="blue" points="1681.98,-55.1379 1671.75,-57.8844 1681.46,-62.1186 1681.98,-55.1379"/>
<text text-anchor="middle" x="1716" y="-74.6" font-family="Helvetica,sans-Serif" font-size="8.00">state:6</text>
<text text-anchor="middle" x="1716" y="-65.6" font-family="Helvetica,sans-Serif" font-size="8.00">type:relatedTo</text>
</g>
<!-- n87 -->
<g id="node7" class="node"><title>n87</title>
<polygon fill="#cae1ff" stroke="black" points="1964,-36 1760,-36 1760,-0 1964,-0 1964,-36"/>
<text text-anchor="middle" x="1862" y="-20.6" font-family="Helvetica,sans-Serif" font-size="8.00">name:[&#39;/home/vagrant/ProvMark/stage/renameat&#45;test.txt&#39;]</text>
<text text-anchor="middle" x="1862" y="-11.6" font-family="Helvetica,sans-Serif" font-size="8.00">node_id:85</text>
<text text-anchor="middle" x="1862" y="-2.6" font-family="Helvetica,sans-Serif" font-size="8.00">type:2</text>
</g>
<!-- n87&#45;&gt;n86 -->
<g id="edge14" class="edge"><title>n87&#45;&gt;n86</title>
<path fill="none" stroke="blue" d="M1759.71,-24.1911C1736.78,-25.6829 1712.55,-27.3306 1690,-29 1687.26,-29.2032 1684.49,-29.4099 1681.71,-29.6198"/>
<polygon fill="blue" stroke="blue" points="1681.26,-26.1434 1671.56,-30.3926 1681.79,-33.1232 1681.26,-26.1434"/>
<text text-anchor="middle" x="1716" y="-40.6" font-family="Helvetica,sans-Serif" font-size="8.00">state:0</text>
<text text-anchor="middle" x="1716" y="-31.6" font-family="Helvetica,sans-Serif" font-size="8.00">type:relatedTo</text>
</g>
<!-- n86&#45;&gt;n85 -->
<g id="edge6" class="edge"><title>n86&#45;&gt;n85</title>
<path fill="none" stroke="blue" d="M1324.44,-40.0885C1183.4,-36.303 978.82,-31.3334 800,-29 698.14,-27.6709 577.913,-27.7382 518.712,-27.8795"/>
<polygon fill="blue" stroke="blue" points="518.377,-24.3802 508.386,-27.9064 518.395,-31.3802 518.377,-24.3802"/>
<text text-anchor="middle" x="844" y="-41.6" font-family="Helvetica,sans-Serif" font-size="8.00">state:3</text>
<text text-anchor="middle" x="844" y="-32.6" font-family="Helvetica,sans-Serif" font-size="8.00">type:relatedTo</text>
</g>
<!-- n83 -->
<g id="node11" class="node"><title>n83</title>
<polygon fill="#cae1ff" stroke="black" points="1235.5,-138 888.5,-138 888.5,-102 1235.5,-102 1235.5,-138"/>
<text text-anchor="middle" x="1062" y="-122.6" font-family="Helvetica,sans-Serif" font-size="8.00">name:[&#39;/home/vagrant/ProvMark/stage/test.txt&#39;, &#39;/home/vagrant/ProvMark/stage/renameat&#45;test.txt&#39;]</text>
<text text-anchor="middle" x="1062" y="-113.6" font-family="Helvetica,sans-Serif" font-size="8.00">node_id:81</text>
<text text-anchor="middle" x="1062" y="-104.6" font-family="Helvetica,sans-Serif" font-size="8.00">type:2</text>
</g>
<!-- n86&#45;&gt;n83 -->
<g id="edge10" class="edge"><title>n86&#45;&gt;n83</title>
<path fill="none" stroke="blue" d="M1392.77,-63.0121C1327.88,-74.225 1244.37,-88.6572 1177.62,-100.192"/>
<polygon fill="blue" stroke="blue" points="1176.74,-96.7928 1167.48,-101.945 1177.93,-103.691 1176.74,-96.7928"/>
<text text-anchor="middle" x="1280" y="-98.6" font-family="Helvetica,sans-Serif" font-size="8.00">state:0</text>
<text text-anchor="middle" x="1280" y="-89.6" font-family="Helvetica,sans-Serif" font-size="8.00">type:relatedTo</text>
</g>
<!-- n82 -->
<g id="node10" class="node"><title>n82</title>
<polygon fill="#cae1ff" stroke="black" points="800,-138 596,-138 596,-102 800,-102 800,-138"/>
<text text-anchor="middle" x="698" y="-122.6" font-family="Helvetica,sans-Serif" font-size="8.00">name:[&#39;/home/vagrant/ProvMark/stage/renameat&#45;test.txt&#39;]</text>
<text text-anchor="middle" x="698" y="-113.6" font-family="Helvetica,sans-Serif" font-size="8.00">node_id:80</text>
<text text-anchor="middle" x="698" y="-104.6" font-family="Helvetica,sans-Serif" font-size="8.00">type:2</text>
</g>
<!-- n82&#45;&gt;n80 -->
<g id="edge3" class="edge"><title>n82&#45;&gt;n80</title>
<path fill="none" stroke="blue" d="M595.628,-123.731C572.247,-126.8 547.841,-131.843 526,-140 522.969,-141.132 519.944,-142.515 516.98,-144.06"/>
<polygon fill="blue" stroke="blue" points="515.215,-141.037 508.328,-149.088 518.733,-147.09 515.215,-141.037"/>
<text text-anchor="middle" x="552" y="-151.6" font-family="Helvetica,sans-Serif" font-size="8.00">state:0</text>
<text text-anchor="middle" x="552" y="-142.6" font-family="Helvetica,sans-Serif" font-size="8.00">type:relatedTo</text>
</g>
<!-- n83&#45;&gt;n81 -->
<g id="edge13" class="edge"><title>n83&#45;&gt;n81</title>
<path fill="none" stroke="blue" d="M948.183,-138.033C922.496,-142.052 895.316,-146.236 870,-150 844.477,-153.795 816.786,-157.752 791.269,-161.332"/>
<polygon fill="blue" stroke="blue" points="790.652,-157.884 781.233,-162.736 791.622,-164.816 790.652,-157.884"/>
<text text-anchor="middle" x="844" y="-169.6" font-family="Helvetica,sans-Serif" font-size="8.00">state:0</text>
<text text-anchor="middle" x="844" y="-160.6" font-family="Helvetica,sans-Serif" font-size="8.00">type:relatedTo</text>
</g>
<!-- n83&#45;&gt;n82 -->
<g id="edge9" class="edge"><title>n83&#45;&gt;n82</title>
<path fill="none" stroke="blue" d="M888.482,-120C861.913,-120 835.1,-120 810.34,-120"/>
<polygon fill="blue" stroke="blue" points="810.228,-116.5 800.228,-120 810.228,-123.5 810.228,-116.5"/>
<text text-anchor="middle" x="844" y="-131.6" font-family="Helvetica,sans-Serif" font-size="8.00">state:0</text>
<text text-anchor="middle" x="844" y="-122.6" font-family="Helvetica,sans-Serif" font-size="8.00">type:relatedTo</text>
</g>
<!-- n88 -->
<g id="node12" class="node"><title>n88</title>
<polygon fill="#cae1ff" stroke="black" points="725,-83.5 671,-83.5 671,-38.5 725,-38.5 725,-83.5"/>
<text text-anchor="middle" x="698" y="-68.1" font-family="Helvetica,sans-Serif" font-size="8.00">ref_count:0</text>
<text text-anchor="middle" x="698" y="-59.1" font-family="Helvetica,sans-Serif" font-size="8.00">name:omega</text>
<text text-anchor="middle" x="698" y="-50.1" font-family="Helvetica,sans-Serif" font-size="8.00">node_id:86</text>
<text text-anchor="middle" x="698" y="-41.1" font-family="Helvetica,sans-Serif" font-size="8.00">type:4</text>
</g>
<!-- n88&#45;&gt;n85 -->
<g id="edge11" class="edge"><title>n88&#45;&gt;n85</title>
<path fill="none" stroke="blue" d="M670.637,-56.9536C632.412,-51.0865 561.466,-40.1971 518.315,-33.5739"/>
<polygon fill="blue" stroke="blue" points="518.657,-30.0856 508.242,-32.0279 517.595,-37.0046 518.657,-30.0856"/>
<text text-anchor="middle" x="552" y="-54.6" font-family="Helvetica,sans-Serif" font-size="8.00">state:0</text>
<text text-anchor="middle" x="552" y="-45.6" font-family="Helvetica,sans-Serif" font-size="8.00">type:relatedTo</text>
</g>
<!-- n88&#45;&gt;n3 -->
<g id="edge15" class="edge"><title>n88&#45;&gt;n3</title>
<path fill="none" stroke="blue" d="M670.855,-63.8031C585.849,-72.9167 317.177,-101.722 219.739,-112.168"/>
<polygon fill="blue" stroke="blue" points="219.357,-108.689 209.787,-113.235 220.103,-115.649 219.357,-108.689"/>
<text text-anchor="middle" x="481" y="-98.6" font-family="Helvetica,sans-Serif" font-size="8.00">state:5</text>
<text text-anchor="middle" x="481" y="-89.6" font-family="Helvetica,sans-Serif" font-size="8.00">type:relatedTo</text>
</g>
</g>
</svg>
