<?xml version="1.0" encoding="UTF-8" standalone="no"?>
<!DOCTYPE svg PUBLIC "-//W3C//DTD SVG 1.1//EN"
 "http://www.w3.org/Graphics/SVG/1.1/DTD/svg11.dtd">
<!-- Generated by graphviz version 2.36.0 (20140111.2315)
 -->
<!-- Title: clingo2dot Pages: 1 -->
<svg width="214pt" height="138pt"
 viewBox="0.00 0.00 214.00 138.00" xmlns="http://www.w3.org/2000/svg" xmlns:xlink="http://www.w3.org/1999/xlink">
<g id="graph0" class="graph" transform="scale(1 1) rotate(0) translate(4 134)">
<title>clingo2dot</title>
<polygon fill="white" stroke="none" points="-4,4 -4,-134 210,-134 210,4 -4,4"/>
<!-- n78 -->
<g id="node1" class="node"><title>n78</title>
<polygon fill="#cae1ff" stroke="black" points="64,-62.5 0,-62.5 0,0.5 64,0.5 64,-62.5"/>
<text text-anchor="middle" x="32" y="-47.1" font-family="Helvetica,sans-Serif" font-size="8.00">fn:setgid</text>
<text text-anchor="middle" x="32" y="-38.1" font-family="Helvetica,sans-Serif" font-size="8.00">node_id:76</text>
<text text-anchor="middle" x="32" y="-29.1" font-family="Helvetica,sans-Serif" font-size="8.00">ret:0</text>
<text text-anchor="middle" x="32" y="-20.1" font-family="Helvetica,sans-Serif" font-size="8.00">arg_values:[&#39;root&#39;]</text>
<text text-anchor="middle" x="32" y="-11.1" font-family="Helvetica,sans-Serif" font-size="8.00">arg_keys:[&#39;gid&#39;]</text>
<text text-anchor="middle" x="32" y="-2.1" font-family="Helvetica,sans-Serif" font-size="8.00">type:5</text>
</g>
<!-- n11 -->
<g id="node2" class="node"><title>n11</title>
<polygon fill="#cae1ff" stroke="black" points="59,-125.5 5,-125.5 5,-80.5 59,-80.5 59,-125.5"/>
<text text-anchor="middle" x="32" y="-110.1" font-family="Helvetica,sans-Serif" font-size="8.00">node_id:9</text>
<text text-anchor="middle" x="32" y="-101.1" font-family="Helvetica,sans-Serif" font-size="8.00">value:root</text>
<text text-anchor="middle" x="32" y="-92.1" font-family="Helvetica,sans-Serif" font-size="8.00">name:gid</text>
<text text-anchor="middle" x="32" y="-83.1" font-family="Helvetica,sans-Serif" font-size="8.00">type:1</text>
</g>
<!-- n77 -->
<g id="node3" class="node"><title>n77</title>
<polygon fill="#cae1ff" stroke="black" points="206,-121 152,-121 152,-85 206,-85 206,-121"/>
<text text-anchor="middle" x="179" y="-101.1" font-family="Helvetica,sans-Serif" font-size="8.00">node_id:75</text>
<text text-anchor="middle" x="179" y="-92.1" font-family="Helvetica,sans-Serif" font-size="8.00">type:1</text>
</g>
<!-- n77&#45;&gt;n11 -->
<g id="edge2" class="edge"><title>n77&#45;&gt;n11</title>
<path fill="none" stroke="blue" d="M151.742,-103C128.645,-103 94.8022,-103 69.15,-103"/>
<polygon fill="blue" stroke="blue" points="69.0631,-99.5001 59.0631,-103 69.063,-106.5 69.0631,-99.5001"/>
<text text-anchor="middle" x="108" y="-114.6" font-family="Helvetica,sans-Serif" font-size="8.00">state:0</text>
<text text-anchor="middle" x="108" y="-105.6" font-family="Helvetica,sans-Serif" font-size="8.00">type:relatedTo</text>
</g>
<!-- n3 -->
<g id="node4" class="node"><title>n3</title>
<ellipse fill="green" stroke="black" cx="179" cy="-31" rx="27" ry="18"/>
<text text-anchor="middle" x="179" y="-29.1" font-family="Helvetica,sans-Serif" font-size="8.00">Dummy Node</text>
</g>
<!-- n3&#45;&gt;n78 -->
<g id="edge1" class="edge"><title>n3&#45;&gt;n78</title>
<path fill="none" stroke="blue" d="M151.742,-31C130.176,-31 99.2412,-31 74.3532,-31"/>
<polygon fill="blue" stroke="blue" points="74.102,-27.5001 64.102,-31 74.1019,-34.5001 74.102,-27.5001"/>
<text text-anchor="middle" x="108" y="-42.6" font-family="Helvetica,sans-Serif" font-size="8.00">state:0</text>
<text text-anchor="middle" x="108" y="-33.6" font-family="Helvetica,sans-Serif" font-size="8.00">type:relatedTo</text>
</g>
</g>
</svg>
