<?xml version="1.0" encoding="UTF-8" standalone="no"?>
<!DOCTYPE svg PUBLIC "-//W3C//DTD SVG 1.1//EN"
 "http://www.w3.org/Graphics/SVG/1.1/DTD/svg11.dtd">
<!-- Generated by graphviz version 2.36.0 (20140111.2315)
 -->
<!-- Title: clingo2dot Pages: 1 -->
<svg width="262pt" height="196pt"
 viewBox="0.00 0.00 262.00 196.00" xmlns="http://www.w3.org/2000/svg" xmlns:xlink="http://www.w3.org/1999/xlink">
<g id="graph0" class="graph" transform="scale(1 1) rotate(0) translate(4 192)">
<title>clingo2dot</title>
<polygon fill="white" stroke="none" points="-4,4 -4,-192 258,-192 258,4 -4,4"/>
<!-- n77 -->
<g id="node1" class="node"><title>n77</title>
<polygon fill="#cae1ff" stroke="black" points="83,-188.5 29,-188.5 29,-143.5 83,-143.5 83,-188.5"/>
<text text-anchor="middle" x="56" y="-173.1" font-family="Helvetica,sans-Serif" font-size="8.00">node_id:75</text>
<text text-anchor="middle" x="56" y="-164.1" font-family="Helvetica,sans-Serif" font-size="8.00">name:ruid</text>
<text text-anchor="middle" x="56" y="-155.1" font-family="Helvetica,sans-Serif" font-size="8.00">value:vagrant</text>
<text text-anchor="middle" x="56" y="-146.1" font-family="Helvetica,sans-Serif" font-size="8.00">type:1</text>
</g>
<!-- n78 -->
<g id="node2" class="node"><title>n78</title>
<polygon fill="#cae1ff" stroke="black" points="83,-125.5 29,-125.5 29,-80.5 83,-80.5 83,-125.5"/>
<text text-anchor="middle" x="56" y="-110.1" font-family="Helvetica,sans-Serif" font-size="8.00">node_id:76</text>
<text text-anchor="middle" x="56" y="-101.1" font-family="Helvetica,sans-Serif" font-size="8.00">name:euid</text>
<text text-anchor="middle" x="56" y="-92.1" font-family="Helvetica,sans-Serif" font-size="8.00">value:vagrant</text>
<text text-anchor="middle" x="56" y="-83.1" font-family="Helvetica,sans-Serif" font-size="8.00">type:1</text>
</g>
<!-- n79 -->
<g id="node3" class="node"><title>n79</title>
<polygon fill="#cae1ff" stroke="black" points="111.5,-62.5 0.5,-62.5 0.5,0.5 111.5,0.5 111.5,-62.5"/>
<text text-anchor="middle" x="56" y="-47.1" font-family="Helvetica,sans-Serif" font-size="8.00">node_id:77</text>
<text text-anchor="middle" x="56" y="-38.1" font-family="Helvetica,sans-Serif" font-size="8.00">arg_keys:[&#39;ruid&#39;, &#39;euid&#39;]</text>
<text text-anchor="middle" x="56" y="-29.1" font-family="Helvetica,sans-Serif" font-size="8.00">fn:setreuid</text>
<text text-anchor="middle" x="56" y="-20.1" font-family="Helvetica,sans-Serif" font-size="8.00">arg_values:[&#39;vagrant&#39;, &#39;vagrant&#39;]</text>
<text text-anchor="middle" x="56" y="-11.1" font-family="Helvetica,sans-Serif" font-size="8.00">ret:0</text>
<text text-anchor="middle" x="56" y="-2.1" font-family="Helvetica,sans-Serif" font-size="8.00">type:5</text>
</g>
<!-- n3 -->
<g id="node4" class="node"><title>n3</title>
<ellipse fill="green" stroke="black" cx="227" cy="-103" rx="27" ry="18"/>
<text text-anchor="middle" x="227" y="-101.1" font-family="Helvetica,sans-Serif" font-size="8.00">Dummy Node</text>
</g>
<!-- n3&#45;&gt;n77 -->
<g id="edge1" class="edge"><title>n3&#45;&gt;n77</title>
<path fill="none" stroke="blue" d="M209.334,-116.914C201.456,-122.903 191.673,-129.538 182,-134 153.574,-147.112 118.934,-155.445 93.3347,-160.308"/>
<polygon fill="blue" stroke="blue" points="92.5244,-156.898 83.3085,-162.125 93.7722,-163.786 92.5244,-156.898"/>
<text text-anchor="middle" x="156" y="-162.6" font-family="Helvetica,sans-Serif" font-size="8.00">state:0</text>
<text text-anchor="middle" x="156" y="-153.6" font-family="Helvetica,sans-Serif" font-size="8.00">type:relatedTo</text>
</g>
<!-- n3&#45;&gt;n78 -->
<g id="edge3" class="edge"><title>n3&#45;&gt;n78</title>
<path fill="none" stroke="blue" d="M199.964,-103C171.431,-103 125.455,-103 93.3689,-103"/>
<polygon fill="blue" stroke="blue" points="93.0655,-99.5001 83.0655,-103 93.0654,-106.5 93.0655,-99.5001"/>
<text text-anchor="middle" x="156" y="-114.6" font-family="Helvetica,sans-Serif" font-size="8.00">state:0</text>
<text text-anchor="middle" x="156" y="-105.6" font-family="Helvetica,sans-Serif" font-size="8.00">type:relatedTo</text>
</g>
<!-- n3&#45;&gt;n79 -->
<g id="edge2" class="edge"><title>n3&#45;&gt;n79</title>
<path fill="none" stroke="blue" d="M209.192,-89.3795C201.286,-83.4505 191.52,-76.7803 182,-72 162.969,-62.4438 141.219,-54.4098 121.254,-48.0568"/>
<polygon fill="blue" stroke="blue" points="122.205,-44.6872 111.617,-45.0738 120.135,-51.3742 122.205,-44.6872"/>
<text text-anchor="middle" x="156" y="-83.6" font-family="Helvetica,sans-Serif" font-size="8.00">state:0</text>
<text text-anchor="middle" x="156" y="-74.6" font-family="Helvetica,sans-Serif" font-size="8.00">type:relatedTo</text>
</g>
</g>
</svg>
