<?xml version="1.0" encoding="UTF-8" standalone="no"?>
<!DOCTYPE svg PUBLIC "-//W3C//DTD SVG 1.1//EN"
 "http://www.w3.org/Graphics/SVG/1.1/DTD/svg11.dtd">
<!-- Generated by graphviz version 2.36.0 (20140111.2315)
 -->
<!-- Title: clingo2dot Pages: 1 -->
<svg width="236pt" height="196pt"
 viewBox="0.00 0.00 236.00 196.00" xmlns="http://www.w3.org/2000/svg" xmlns:xlink="http://www.w3.org/1999/xlink">
<g id="graph0" class="graph" transform="scale(1 1) rotate(0) translate(4 192)">
<title>clingo2dot</title>
<polygon fill="white" stroke="none" points="-4,4 -4,-192 232,-192 232,4 -4,4"/>
<!-- n77 -->
<g id="node1" class="node"><title>n77</title>
<polygon fill="#cae1ff" stroke="black" points="70,-188.5 16,-188.5 16,-143.5 70,-143.5 70,-188.5"/>
<text text-anchor="middle" x="43" y="-173.1" font-family="Helvetica,sans-Serif" font-size="8.00">node_id:75</text>
<text text-anchor="middle" x="43" y="-164.1" font-family="Helvetica,sans-Serif" font-size="8.00">name:rgid</text>
<text text-anchor="middle" x="43" y="-155.1" font-family="Helvetica,sans-Serif" font-size="8.00">value:root</text>
<text text-anchor="middle" x="43" y="-146.1" font-family="Helvetica,sans-Serif" font-size="8.00">type:1</text>
</g>
<!-- n79 -->
<g id="node2" class="node"><title>n79</title>
<polygon fill="#cae1ff" stroke="black" points="85.5,-125.5 0.5,-125.5 0.5,-62.5 85.5,-62.5 85.5,-125.5"/>
<text text-anchor="middle" x="43" y="-110.1" font-family="Helvetica,sans-Serif" font-size="8.00">node_id:77</text>
<text text-anchor="middle" x="43" y="-101.1" font-family="Helvetica,sans-Serif" font-size="8.00">ret:0</text>
<text text-anchor="middle" x="43" y="-92.1" font-family="Helvetica,sans-Serif" font-size="8.00">arg_values:[&#39;root&#39;, &#39;root&#39;]</text>
<text text-anchor="middle" x="43" y="-83.1" font-family="Helvetica,sans-Serif" font-size="8.00">fn:setregid</text>
<text text-anchor="middle" x="43" y="-74.1" font-family="Helvetica,sans-Serif" font-size="8.00">arg_keys:[&#39;rgid&#39;, &#39;egid&#39;]</text>
<text text-anchor="middle" x="43" y="-65.1" font-family="Helvetica,sans-Serif" font-size="8.00">type:5</text>
</g>
<!-- n78 -->
<g id="node3" class="node"><title>n78</title>
<polygon fill="#cae1ff" stroke="black" points="70,-44.5 16,-44.5 16,0.5 70,0.5 70,-44.5"/>
<text text-anchor="middle" x="43" y="-29.1" font-family="Helvetica,sans-Serif" font-size="8.00">node_id:76</text>
<text text-anchor="middle" x="43" y="-20.1" font-family="Helvetica,sans-Serif" font-size="8.00">name:egid</text>
<text text-anchor="middle" x="43" y="-11.1" font-family="Helvetica,sans-Serif" font-size="8.00">value:root</text>
<text text-anchor="middle" x="43" y="-2.1" font-family="Helvetica,sans-Serif" font-size="8.00">type:1</text>
</g>
<!-- n3 -->
<g id="node4" class="node"><title>n3</title>
<ellipse fill="green" stroke="black" cx="201" cy="-94" rx="27" ry="18"/>
<text text-anchor="middle" x="201" y="-92.1" font-family="Helvetica,sans-Serif" font-size="8.00">Dummy Node</text>
</g>
<!-- n3&#45;&gt;n77 -->
<g id="edge2" class="edge"><title>n3&#45;&gt;n77</title>
<path fill="none" stroke="blue" d="M182.697,-107.783C174.853,-113.605 165.272,-120.145 156,-125 131.661,-137.744 102.466,-148.291 79.9866,-155.495"/>
<polygon fill="blue" stroke="blue" points="78.6708,-152.24 70.1722,-158.566 80.7611,-158.92 78.6708,-152.24"/>
<text text-anchor="middle" x="130" y="-157.6" font-family="Helvetica,sans-Serif" font-size="8.00">state:0</text>
<text text-anchor="middle" x="130" y="-148.6" font-family="Helvetica,sans-Serif" font-size="8.00">type:relatedTo</text>
</g>
<!-- n3&#45;&gt;n79 -->
<g id="edge1" class="edge"><title>n3&#45;&gt;n79</title>
<path fill="none" stroke="blue" d="M173.889,-94C152.679,-94 122.099,-94 95.9387,-94"/>
<polygon fill="blue" stroke="blue" points="95.7867,-90.5001 85.7867,-94 95.7867,-97.5001 95.7867,-90.5001"/>
<text text-anchor="middle" x="130" y="-105.6" font-family="Helvetica,sans-Serif" font-size="8.00">state:0</text>
<text text-anchor="middle" x="130" y="-96.6" font-family="Helvetica,sans-Serif" font-size="8.00">type:relatedTo</text>
</g>
<!-- n3&#45;&gt;n78 -->
<g id="edge3" class="edge"><title>n3&#45;&gt;n78</title>
<path fill="none" stroke="blue" d="M182.697,-80.217C174.853,-74.395 165.272,-67.8546 156,-63 131.661,-50.2564 102.466,-39.7091 79.9866,-32.5046"/>
<polygon fill="blue" stroke="blue" points="80.7611,-29.0797 70.1722,-29.4338 78.6708,-35.7603 80.7611,-29.0797"/>
<text text-anchor="middle" x="130" y="-74.6" font-family="Helvetica,sans-Serif" font-size="8.00">state:0</text>
<text text-anchor="middle" x="130" y="-65.6" font-family="Helvetica,sans-Serif" font-size="8.00">type:relatedTo</text>
</g>
</g>
</svg>
