<?xml version="1.0" encoding="UTF-8" standalone="no"?>
<!DOCTYPE svg PUBLIC "-//W3C//DTD SVG 1.1//EN"
 "http://www.w3.org/Graphics/SVG/1.1/DTD/svg11.dtd">
<!-- Generated by graphviz version 2.36.0 (20140111.2315)
 -->
<!-- Title: clingo2dot Pages: 1 -->
<svg width="226pt" height="138pt"
 viewBox="0.00 0.00 226.00 138.00" xmlns="http://www.w3.org/2000/svg" xmlns:xlink="http://www.w3.org/1999/xlink">
<g id="graph0" class="graph" transform="scale(1 1) rotate(0) translate(4 134)">
<title>clingo2dot</title>
<polygon fill="white" stroke="none" points="-4,4 -4,-134 222,-134 222,4 -4,4"/>
<!-- n3 -->
<g id="node1" class="node"><title>n3</title>
<ellipse fill="green" stroke="black" cx="191" cy="-31" rx="27" ry="18"/>
<text text-anchor="middle" x="191" y="-29.1" font-family="Helvetica,sans-Serif" font-size="8.00">Dummy Node</text>
</g>
<!-- n78 -->
<g id="node3" class="node"><title>n78</title>
<polygon fill="#cae1ff" stroke="black" points="76,-62.5 0,-62.5 0,0.5 76,0.5 76,-62.5"/>
<text text-anchor="middle" x="38" y="-47.1" font-family="Helvetica,sans-Serif" font-size="8.00">arg_values:[&#39;vagrant&#39;]</text>
<text text-anchor="middle" x="38" y="-38.1" font-family="Helvetica,sans-Serif" font-size="8.00">ret:0</text>
<text text-anchor="middle" x="38" y="-29.1" font-family="Helvetica,sans-Serif" font-size="8.00">fn:setuid</text>
<text text-anchor="middle" x="38" y="-20.1" font-family="Helvetica,sans-Serif" font-size="8.00">node_id:76</text>
<text text-anchor="middle" x="38" y="-11.1" font-family="Helvetica,sans-Serif" font-size="8.00">arg_keys:[&#39;uid&#39;]</text>
<text text-anchor="middle" x="38" y="-2.1" font-family="Helvetica,sans-Serif" font-size="8.00">type:5</text>
</g>
<!-- n3&#45;&gt;n78 -->
<g id="edge2" class="edge"><title>n3&#45;&gt;n78</title>
<path fill="none" stroke="blue" d="M163.698,-31C142.384,-31 111.804,-31 86.2624,-31"/>
<polygon fill="blue" stroke="blue" points="86.0294,-27.5001 76.0294,-31 86.0293,-34.5001 86.0294,-27.5001"/>
<text text-anchor="middle" x="120" y="-42.6" font-family="Helvetica,sans-Serif" font-size="8.00">state:0</text>
<text text-anchor="middle" x="120" y="-33.6" font-family="Helvetica,sans-Serif" font-size="8.00">type:relatedTo</text>
</g>
<!-- n10 -->
<g id="node2" class="node"><title>n10</title>
<polygon fill="#cae1ff" stroke="black" points="65,-125.5 11,-125.5 11,-80.5 65,-80.5 65,-125.5"/>
<text text-anchor="middle" x="38" y="-110.1" font-family="Helvetica,sans-Serif" font-size="8.00">name:uid</text>
<text text-anchor="middle" x="38" y="-101.1" font-family="Helvetica,sans-Serif" font-size="8.00">value:root</text>
<text text-anchor="middle" x="38" y="-92.1" font-family="Helvetica,sans-Serif" font-size="8.00">node_id:8</text>
<text text-anchor="middle" x="38" y="-83.1" font-family="Helvetica,sans-Serif" font-size="8.00">type:1</text>
</g>
<!-- n77 -->
<g id="node4" class="node"><title>n77</title>
<polygon fill="#cae1ff" stroke="black" points="218,-121 164,-121 164,-85 218,-85 218,-121"/>
<text text-anchor="middle" x="191" y="-105.6" font-family="Helvetica,sans-Serif" font-size="8.00">value:vagrant</text>
<text text-anchor="middle" x="191" y="-96.6" font-family="Helvetica,sans-Serif" font-size="8.00">node_id:75</text>
<text text-anchor="middle" x="191" y="-87.6" font-family="Helvetica,sans-Serif" font-size="8.00">type:1</text>
</g>
<!-- n77&#45;&gt;n10 -->
<g id="edge1" class="edge"><title>n77&#45;&gt;n10</title>
<path fill="none" stroke="blue" d="M163.698,-103C139.231,-103 102.554,-103 75.3037,-103"/>
<polygon fill="blue" stroke="blue" points="75.0008,-99.5001 65.0008,-103 75.0007,-106.5 75.0008,-99.5001"/>
<text text-anchor="middle" x="120" y="-114.6" font-family="Helvetica,sans-Serif" font-size="8.00">state:0</text>
<text text-anchor="middle" x="120" y="-105.6" font-family="Helvetica,sans-Serif" font-size="8.00">type:relatedTo</text>
</g>
</g>
</svg>
