<?xml version="1.0" encoding="UTF-8" standalone="no"?>
<!DOCTYPE svg PUBLIC "-//W3C//DTD SVG 1.1//EN"
 "http://www.w3.org/Graphics/SVG/1.1/DTD/svg11.dtd">
<!-- Generated by graphviz version 2.36.0 (20140111.2315)
 -->
<!-- Title: clingo2dot Pages: 1 -->
<svg width="886pt" height="143pt"
 viewBox="0.00 0.00 886.00 143.00" xmlns="http://www.w3.org/2000/svg" xmlns:xlink="http://www.w3.org/1999/xlink">
<g id="graph0" class="graph" transform="scale(1 1) rotate(0) translate(4 139)">
<title>clingo2dot</title>
<polygon fill="white" stroke="none" points="-4,4 -4,-139 882,-139 882,4 -4,4"/>
<!-- n3 -->
<g id="node1" class="node"><title>n3</title>
<ellipse fill="green" stroke="black" cx="114" cy="-111" rx="27" ry="18"/>
<text text-anchor="middle" x="114" y="-109.1" font-family="Helvetica,sans-Serif" font-size="8.00">Dummy Node</text>
</g>
<!-- n80 -->
<g id="node2" class="node"><title>n80</title>
<polygon fill="#cae1ff" stroke="black" points="370,-69.5 316,-69.5 316,-24.5 370,-24.5 370,-69.5"/>
<text text-anchor="middle" x="343" y="-54.1" font-family="Helvetica,sans-Serif" font-size="8.00">node_id:78</text>
<text text-anchor="middle" x="343" y="-45.1" font-family="Helvetica,sans-Serif" font-size="8.00">name:omega</text>
<text text-anchor="middle" x="343" y="-36.1" font-family="Helvetica,sans-Serif" font-size="8.00">ref_count:1</text>
<text text-anchor="middle" x="343" y="-27.1" font-family="Helvetica,sans-Serif" font-size="8.00">type:4</text>
</g>
<!-- n80&#45;&gt;n3 -->
<g id="edge2" class="edge"><title>n80&#45;&gt;n3</title>
<path fill="none" stroke="blue" d="M315.96,-54.3416C274.71,-65.9716 194.353,-88.6273 148.742,-101.487"/>
<polygon fill="blue" stroke="blue" points="147.696,-98.1452 139.021,-104.228 149.596,-104.883 147.696,-98.1452"/>
<text text-anchor="middle" x="272" y="-85.6" font-family="Helvetica,sans-Serif" font-size="8.00">state:10</text>
<text text-anchor="middle" x="272" y="-76.6" font-family="Helvetica,sans-Serif" font-size="8.00">type:relatedTo</text>
</g>
<!-- n84 -->
<g id="node5" class="node"><title>n84</title>
<polygon fill="#cae1ff" stroke="black" points="228,-62.5 0,-62.5 0,0.5 228,0.5 228,-62.5"/>
<text text-anchor="middle" x="114" y="-47.1" font-family="Helvetica,sans-Serif" font-size="8.00">arg_keys:[&#39;oldpath&#39;, &#39;newdirfd&#39;, &#39;newpath&#39;]</text>
<text text-anchor="middle" x="114" y="-38.1" font-family="Helvetica,sans-Serif" font-size="8.00">arg_values:[&#39;test.txt&#39;, &#39;3&#39;, &#39;/home/vagrant/ProvMark/stage/test.txt&#39;]</text>
<text text-anchor="middle" x="114" y="-29.1" font-family="Helvetica,sans-Serif" font-size="8.00">fn:symlinkat</text>
<text text-anchor="middle" x="114" y="-20.1" font-family="Helvetica,sans-Serif" font-size="8.00">ret:0</text>
<text text-anchor="middle" x="114" y="-11.1" font-family="Helvetica,sans-Serif" font-size="8.00">node_id:82</text>
<text text-anchor="middle" x="114" y="-2.1" font-family="Helvetica,sans-Serif" font-size="8.00">type:5</text>
</g>
<!-- n80&#45;&gt;n84 -->
<g id="edge1" class="edge"><title>n80&#45;&gt;n84</title>
<path fill="none" stroke="blue" d="M315.834,-36.5408C310.05,-34.665 303.889,-32.9928 298,-32 278.837,-28.7695 258.384,-27.0257 238.352,-26.2425"/>
<polygon fill="blue" stroke="blue" points="238.348,-22.7407 228.243,-25.9253 238.128,-29.7373 238.348,-22.7407"/>
<text text-anchor="middle" x="272" y="-43.6" font-family="Helvetica,sans-Serif" font-size="8.00">state:0</text>
<text text-anchor="middle" x="272" y="-34.6" font-family="Helvetica,sans-Serif" font-size="8.00">type:relatedTo</text>
</g>
<!-- n83 -->
<g id="node3" class="node"><title>n83</title>
<polygon fill="#cae1ff" stroke="black" points="568,-128.5 514,-128.5 514,-83.5 568,-83.5 568,-128.5"/>
<text text-anchor="middle" x="541" y="-113.1" font-family="Helvetica,sans-Serif" font-size="8.00">node_id:81</text>
<text text-anchor="middle" x="541" y="-104.1" font-family="Helvetica,sans-Serif" font-size="8.00">name:omega</text>
<text text-anchor="middle" x="541" y="-95.1" font-family="Helvetica,sans-Serif" font-size="8.00">ref_count:0</text>
<text text-anchor="middle" x="541" y="-86.1" font-family="Helvetica,sans-Serif" font-size="8.00">type:4</text>
</g>
<!-- n83&#45;&gt;n3 -->
<g id="edge3" class="edge"><title>n83&#45;&gt;n3</title>
<path fill="none" stroke="blue" d="M513.735,-106.309C440.669,-107.169 234.903,-109.589 151.147,-110.575"/>
<polygon fill="blue" stroke="blue" points="151.048,-107.076 141.09,-110.693 151.13,-114.075 151.048,-107.076"/>
<text text-anchor="middle" x="343" y="-119.6" font-family="Helvetica,sans-Serif" font-size="8.00">state:5</text>
<text text-anchor="middle" x="343" y="-110.6" font-family="Helvetica,sans-Serif" font-size="8.00">type:relatedTo</text>
</g>
<!-- n83&#45;&gt;n80 -->
<g id="edge5" class="edge"><title>n83&#45;&gt;n80</title>
<path fill="none" stroke="blue" d="M513.973,-98.1653C479.56,-87.8064 418.76,-69.5042 379.972,-57.8282"/>
<polygon fill="blue" stroke="blue" points="380.719,-54.3982 370.135,-54.8671 378.702,-61.1011 380.719,-54.3982"/>
<text text-anchor="middle" x="414" y="-86.6" font-family="Helvetica,sans-Serif" font-size="8.00">state:0</text>
<text text-anchor="middle" x="414" y="-77.6" font-family="Helvetica,sans-Serif" font-size="8.00">type:relatedTo</text>
</g>
<!-- n82 -->
<g id="node4" class="node"><title>n82</title>
<polygon fill="#cae1ff" stroke="black" points="878,-49 712,-49 712,-13 878,-13 878,-49"/>
<text text-anchor="middle" x="795" y="-33.6" font-family="Helvetica,sans-Serif" font-size="8.00">node_id:80</text>
<text text-anchor="middle" x="795" y="-24.6" font-family="Helvetica,sans-Serif" font-size="8.00">name:[&#39;/home/vagrant/ProvMark/stage/test.txt&#39;]</text>
<text text-anchor="middle" x="795" y="-15.6" font-family="Helvetica,sans-Serif" font-size="8.00">type:2</text>
</g>
<!-- n81 -->
<g id="node6" class="node"><title>n81</title>
<polygon fill="#cae1ff" stroke="black" points="624,-49 458,-49 458,-13 624,-13 624,-49"/>
<text text-anchor="middle" x="541" y="-33.6" font-family="Helvetica,sans-Serif" font-size="8.00">node_id:79</text>
<text text-anchor="middle" x="541" y="-24.6" font-family="Helvetica,sans-Serif" font-size="8.00">name:[&#39;/home/vagrant/ProvMark/stage/test.txt&#39;]</text>
<text text-anchor="middle" x="541" y="-15.6" font-family="Helvetica,sans-Serif" font-size="8.00">type:2</text>
</g>
<!-- n82&#45;&gt;n81 -->
<g id="edge4" class="edge"><title>n82&#45;&gt;n81</title>
<path fill="none" stroke="blue" d="M711.834,-31C686.982,-31 659.53,-31 634.075,-31"/>
<polygon fill="blue" stroke="blue" points="634.054,-27.5001 624.054,-31 634.054,-34.5001 634.054,-27.5001"/>
<text text-anchor="middle" x="668" y="-42.6" font-family="Helvetica,sans-Serif" font-size="8.00">state:0</text>
<text text-anchor="middle" x="668" y="-33.6" font-family="Helvetica,sans-Serif" font-size="8.00">type:relatedTo</text>
</g>
<!-- n81&#45;&gt;n80 -->
<g id="edge6" class="edge"><title>n81&#45;&gt;n80</title>
<path fill="none" stroke="blue" d="M457.935,-26.7276C435.158,-26.8444 410.507,-28.1929 388,-32 385.332,-32.4513 382.608,-33.0418 379.888,-33.7272"/>
<polygon fill="blue" stroke="blue" points="378.797,-30.3993 370.167,-36.5458 380.746,-37.1224 378.797,-30.3993"/>
<text text-anchor="middle" x="414" y="-43.6" font-family="Helvetica,sans-Serif" font-size="8.00">state:0</text>
<text text-anchor="middle" x="414" y="-34.6" font-family="Helvetica,sans-Serif" font-size="8.00">type:relatedTo</text>
</g>
</g>
</svg>
