<?xml version="1.0" encoding="UTF-8" standalone="no"?>
<!DOCTYPE svg PUBLIC "-//W3C//DTD SVG 1.1//EN"
 "http://www.w3.org/Graphics/SVG/1.1/DTD/svg11.dtd">
<!-- Generated by graphviz version 2.36.0 (20140111.2315)
 -->
<!-- Title: clingo2dot Pages: 1 -->
<svg width="1076pt" height="143pt"
 viewBox="0.00 0.00 1076.00 143.00" xmlns="http://www.w3.org/2000/svg" xmlns:xlink="http://www.w3.org/1999/xlink">
<g id="graph0" class="graph" transform="scale(1 1) rotate(0) translate(4 139)">
<title>clingo2dot</title>
<polygon fill="white" stroke="none" points="-4,4 -4,-139 1072,-139 1072,4 -4,4"/>
<!-- n78 -->
<g id="node1" class="node"><title>n78</title>
<polygon fill="#cae1ff" stroke="black" points="783.5,-49 588.5,-49 588.5,-13 783.5,-13 783.5,-49"/>
<text text-anchor="middle" x="686" y="-33.6" font-family="Helvetica,sans-Serif" font-size="8.00">name:[&#39;/home/vagrant/ProvMark/stage/symlink&#45;test.txt&#39;]</text>
<text text-anchor="middle" x="686" y="-24.6" font-family="Helvetica,sans-Serif" font-size="8.00">node_id:76</text>
<text text-anchor="middle" x="686" y="-15.6" font-family="Helvetica,sans-Serif" font-size="8.00">type:2</text>
</g>
<!-- n77 -->
<g id="node2" class="node"><title>n77</title>
<polygon fill="#cae1ff" stroke="black" points="500,-69.5 446,-69.5 446,-24.5 500,-24.5 500,-69.5"/>
<text text-anchor="middle" x="473" y="-54.1" font-family="Helvetica,sans-Serif" font-size="8.00">ref_count:1</text>
<text text-anchor="middle" x="473" y="-45.1" font-family="Helvetica,sans-Serif" font-size="8.00">name:omega</text>
<text text-anchor="middle" x="473" y="-36.1" font-family="Helvetica,sans-Serif" font-size="8.00">node_id:75</text>
<text text-anchor="middle" x="473" y="-27.1" font-family="Helvetica,sans-Serif" font-size="8.00">type:4</text>
</g>
<!-- n78&#45;&gt;n77 -->
<g id="edge3" class="edge"><title>n78&#45;&gt;n77</title>
<path fill="none" stroke="blue" d="M588.285,-26.3041C565.135,-26.6314 540.585,-28.1865 518,-32 515.332,-32.4506 512.607,-33.0404 509.888,-33.7254"/>
<polygon fill="blue" stroke="blue" points="508.797,-30.3974 500.167,-36.5432 510.746,-37.1207 508.797,-30.3974"/>
<text text-anchor="middle" x="544" y="-43.6" font-family="Helvetica,sans-Serif" font-size="8.00">state:0</text>
<text text-anchor="middle" x="544" y="-34.6" font-family="Helvetica,sans-Serif" font-size="8.00">type:relatedTo</text>
</g>
<!-- n3 -->
<g id="node5" class="node"><title>n3</title>
<ellipse fill="green" stroke="black" cx="179" cy="-111" rx="27" ry="18"/>
<text text-anchor="middle" x="179" y="-109.1" font-family="Helvetica,sans-Serif" font-size="8.00">Dummy Node</text>
</g>
<!-- n77&#45;&gt;n3 -->
<g id="edge2" class="edge"><title>n77&#45;&gt;n3</title>
<path fill="none" stroke="blue" d="M445.541,-54.4903C439.776,-56.0456 433.696,-57.6274 428,-59 352.496,-77.1948 263.185,-95.025 215.02,-104.34"/>
<polygon fill="blue" stroke="blue" points="214.261,-100.922 205.103,-106.25 215.585,-107.795 214.261,-100.922"/>
<text text-anchor="middle" x="402" y="-81.6" font-family="Helvetica,sans-Serif" font-size="8.00">state:10</text>
<text text-anchor="middle" x="402" y="-72.6" font-family="Helvetica,sans-Serif" font-size="8.00">type:relatedTo</text>
</g>
<!-- n81 -->
<g id="node6" class="node"><title>n81</title>
<polygon fill="#cae1ff" stroke="black" points="357.5,-62.5 0.5,-62.5 0.5,0.5 357.5,0.5 357.5,-62.5"/>
<text text-anchor="middle" x="179" y="-47.1" font-family="Helvetica,sans-Serif" font-size="8.00">arg_values:[&#39;/home/vagrant/ProvMark/stage/test.txt&#39;, &#39;/home/vagrant/ProvMark/stage/symlink&#45;test.txt&#39;]</text>
<text text-anchor="middle" x="179" y="-38.1" font-family="Helvetica,sans-Serif" font-size="8.00">arg_keys:[&#39;oldpath&#39;, &#39;newpath&#39;]</text>
<text text-anchor="middle" x="179" y="-29.1" font-family="Helvetica,sans-Serif" font-size="8.00">fn:symlink</text>
<text text-anchor="middle" x="179" y="-20.1" font-family="Helvetica,sans-Serif" font-size="8.00">ret:0</text>
<text text-anchor="middle" x="179" y="-11.1" font-family="Helvetica,sans-Serif" font-size="8.00">node_id:79</text>
<text text-anchor="middle" x="179" y="-2.1" font-family="Helvetica,sans-Serif" font-size="8.00">type:5</text>
</g>
<!-- n77&#45;&gt;n81 -->
<g id="edge5" class="edge"><title>n77&#45;&gt;n81</title>
<path fill="none" stroke="blue" d="M445.835,-36.5344C440.051,-34.659 433.89,-32.9886 428,-32 408.569,-28.7386 388.16,-26.6112 367.744,-25.3167"/>
<polygon fill="blue" stroke="blue" points="367.907,-21.8204 357.725,-24.7468 367.51,-28.8091 367.907,-21.8204"/>
<text text-anchor="middle" x="402" y="-43.6" font-family="Helvetica,sans-Serif" font-size="8.00">state:0</text>
<text text-anchor="middle" x="402" y="-34.6" font-family="Helvetica,sans-Serif" font-size="8.00">type:relatedTo</text>
</g>
<!-- n80 -->
<g id="node3" class="node"><title>n80</title>
<polygon fill="#cae1ff" stroke="black" points="713,-128.5 659,-128.5 659,-83.5 713,-83.5 713,-128.5"/>
<text text-anchor="middle" x="686" y="-113.1" font-family="Helvetica,sans-Serif" font-size="8.00">ref_count:0</text>
<text text-anchor="middle" x="686" y="-104.1" font-family="Helvetica,sans-Serif" font-size="8.00">name:omega</text>
<text text-anchor="middle" x="686" y="-95.1" font-family="Helvetica,sans-Serif" font-size="8.00">node_id:78</text>
<text text-anchor="middle" x="686" y="-86.1" font-family="Helvetica,sans-Serif" font-size="8.00">type:4</text>
</g>
<!-- n80&#45;&gt;n77 -->
<g id="edge1" class="edge"><title>n80&#45;&gt;n77</title>
<path fill="none" stroke="blue" d="M658.703,-98.6469C621.248,-88.1736 552.405,-68.9237 510.168,-57.1134"/>
<polygon fill="blue" stroke="blue" points="510.869,-53.6751 500.296,-54.3529 508.984,-60.4166 510.869,-53.6751"/>
<text text-anchor="middle" x="544" y="-84.6" font-family="Helvetica,sans-Serif" font-size="8.00">state:0</text>
<text text-anchor="middle" x="544" y="-75.6" font-family="Helvetica,sans-Serif" font-size="8.00">type:relatedTo</text>
</g>
<!-- n80&#45;&gt;n3 -->
<g id="edge6" class="edge"><title>n80&#45;&gt;n3</title>
<path fill="none" stroke="blue" d="M658.912,-106.258C575.202,-107.087 313.194,-109.681 216.405,-110.64"/>
<polygon fill="blue" stroke="blue" points="216.199,-107.141 206.235,-110.74 216.269,-114.141 216.199,-107.141"/>
<text text-anchor="middle" x="473" y="-119.6" font-family="Helvetica,sans-Serif" font-size="8.00">state:5</text>
<text text-anchor="middle" x="473" y="-110.6" font-family="Helvetica,sans-Serif" font-size="8.00">type:relatedTo</text>
</g>
<!-- n79 -->
<g id="node4" class="node"><title>n79</title>
<polygon fill="#cae1ff" stroke="black" points="1067.5,-49 872.5,-49 872.5,-13 1067.5,-13 1067.5,-49"/>
<text text-anchor="middle" x="970" y="-33.6" font-family="Helvetica,sans-Serif" font-size="8.00">name:[&#39;/home/vagrant/ProvMark/stage/symlink&#45;test.txt&#39;]</text>
<text text-anchor="middle" x="970" y="-24.6" font-family="Helvetica,sans-Serif" font-size="8.00">node_id:77</text>
<text text-anchor="middle" x="970" y="-15.6" font-family="Helvetica,sans-Serif" font-size="8.00">type:2</text>
</g>
<!-- n79&#45;&gt;n78 -->
<g id="edge4" class="edge"><title>n79&#45;&gt;n78</title>
<path fill="none" stroke="blue" d="M872.346,-31C847.01,-31 819.547,-31 793.718,-31"/>
<polygon fill="blue" stroke="blue" points="793.528,-27.5001 783.528,-31 793.528,-34.5001 793.528,-27.5001"/>
<text text-anchor="middle" x="828" y="-42.6" font-family="Helvetica,sans-Serif" font-size="8.00">state:0</text>
<text text-anchor="middle" x="828" y="-33.6" font-family="Helvetica,sans-Serif" font-size="8.00">type:relatedTo</text>
</g>
</g>
</svg>
