<?xml version="1.0" encoding="UTF-8" standalone="no"?>
<!DOCTYPE svg PUBLIC "-//W3C//DTD SVG 1.1//EN"
 "http://www.w3.org/Graphics/SVG/1.1/DTD/svg11.dtd">
<!-- Generated by graphviz version 2.36.0 (20140111.2315)
 -->
<!-- Title: clingo2dot Pages: 1 -->
<svg width="856pt" height="132pt"
 viewBox="0.00 0.00 856.00 132.00" xmlns="http://www.w3.org/2000/svg" xmlns:xlink="http://www.w3.org/1999/xlink">
<g id="graph0" class="graph" transform="scale(1 1) rotate(0) translate(4 128)">
<title>clingo2dot</title>
<polygon fill="white" stroke="none" points="-4,4 -4,-128 852,-128 852,4 -4,4"/>
<!-- n77 -->
<g id="node1" class="node"><title>n77</title>
<polygon fill="#cae1ff" stroke="black" points="340,-107.5 286,-107.5 286,-62.5 340,-62.5 340,-107.5"/>
<text text-anchor="middle" x="313" y="-92.1" font-family="Helvetica,sans-Serif" font-size="8.00">node_id:75</text>
<text text-anchor="middle" x="313" y="-83.1" font-family="Helvetica,sans-Serif" font-size="8.00">ref_count:1</text>
<text text-anchor="middle" x="313" y="-74.1" font-family="Helvetica,sans-Serif" font-size="8.00">name:omega</text>
<text text-anchor="middle" x="313" y="-65.1" font-family="Helvetica,sans-Serif" font-size="8.00">type:4</text>
</g>
<!-- n81 -->
<g id="node4" class="node"><title>n81</title>
<polygon fill="#cae1ff" stroke="black" points="197.5,-124.5 0.5,-124.5 0.5,-61.5 197.5,-61.5 197.5,-124.5"/>
<text text-anchor="middle" x="99" y="-109.1" font-family="Helvetica,sans-Serif" font-size="8.00">arg_keys:[&#39;path&#39;, &#39;length&#39;]</text>
<text text-anchor="middle" x="99" y="-100.1" font-family="Helvetica,sans-Serif" font-size="8.00">node_id:79</text>
<text text-anchor="middle" x="99" y="-91.1" font-family="Helvetica,sans-Serif" font-size="8.00">arg_values:[&#39;/home/vagrant/ProvMark/stage/test.txt&#39;, &#39;0&#39;]</text>
<text text-anchor="middle" x="99" y="-82.1" font-family="Helvetica,sans-Serif" font-size="8.00">fn:truncate</text>
<text text-anchor="middle" x="99" y="-73.1" font-family="Helvetica,sans-Serif" font-size="8.00">ret:0</text>
<text text-anchor="middle" x="99" y="-64.1" font-family="Helvetica,sans-Serif" font-size="8.00">type:5</text>
</g>
<!-- n77&#45;&gt;n81 -->
<g id="edge1" class="edge"><title>n77&#45;&gt;n81</title>
<path fill="none" stroke="blue" d="M285.579,-85.997C265.621,-86.7501 236.795,-87.8379 207.79,-88.9325"/>
<polygon fill="blue" stroke="blue" points="207.398,-85.4447 197.537,-89.3194 207.662,-92.4397 207.398,-85.4447"/>
<text text-anchor="middle" x="242" y="-100.6" font-family="Helvetica,sans-Serif" font-size="8.00">state:0</text>
<text text-anchor="middle" x="242" y="-91.6" font-family="Helvetica,sans-Serif" font-size="8.00">type:relatedTo</text>
</g>
<!-- n3 -->
<g id="node5" class="node"><title>n3</title>
<ellipse fill="green" stroke="black" cx="99" cy="-18" rx="27" ry="18"/>
<text text-anchor="middle" x="99" y="-16.1" font-family="Helvetica,sans-Serif" font-size="8.00">Dummy Node</text>
</g>
<!-- n77&#45;&gt;n3 -->
<g id="edge5" class="edge"><title>n77&#45;&gt;n3</title>
<path fill="none" stroke="blue" d="M285.876,-65.5914C280.192,-62.004 274.06,-58.5809 268,-56 224.616,-37.5248 170.936,-27.392 136.105,-22.3342"/>
<polygon fill="blue" stroke="blue" points="136.319,-18.8304 125.933,-20.9238 135.358,-25.7641 136.319,-18.8304"/>
<text text-anchor="middle" x="242" y="-67.6" font-family="Helvetica,sans-Serif" font-size="8.00">state:10</text>
<text text-anchor="middle" x="242" y="-58.6" font-family="Helvetica,sans-Serif" font-size="8.00">type:relatedTo</text>
</g>
<!-- n79 -->
<g id="node2" class="node"><title>n79</title>
<polygon fill="#cae1ff" stroke="black" points="848,-111 682,-111 682,-75 848,-75 848,-111"/>
<text text-anchor="middle" x="765" y="-95.6" font-family="Helvetica,sans-Serif" font-size="8.00">node_id:77</text>
<text text-anchor="middle" x="765" y="-86.6" font-family="Helvetica,sans-Serif" font-size="8.00">name:[&#39;/home/vagrant/ProvMark/stage/test.txt&#39;]</text>
<text text-anchor="middle" x="765" y="-77.6" font-family="Helvetica,sans-Serif" font-size="8.00">type:2</text>
</g>
<!-- n78 -->
<g id="node3" class="node"><title>n78</title>
<polygon fill="#cae1ff" stroke="black" points="594,-111 428,-111 428,-75 594,-75 594,-111"/>
<text text-anchor="middle" x="511" y="-95.6" font-family="Helvetica,sans-Serif" font-size="8.00">node_id:76</text>
<text text-anchor="middle" x="511" y="-86.6" font-family="Helvetica,sans-Serif" font-size="8.00">name:[&#39;/home/vagrant/ProvMark/stage/test.txt&#39;]</text>
<text text-anchor="middle" x="511" y="-77.6" font-family="Helvetica,sans-Serif" font-size="8.00">type:2</text>
</g>
<!-- n79&#45;&gt;n78 -->
<g id="edge6" class="edge"><title>n79&#45;&gt;n78</title>
<path fill="none" stroke="blue" d="M681.834,-93C656.982,-93 629.53,-93 604.075,-93"/>
<polygon fill="blue" stroke="blue" points="604.054,-89.5001 594.054,-93 604.054,-96.5001 604.054,-89.5001"/>
<text text-anchor="middle" x="638" y="-104.6" font-family="Helvetica,sans-Serif" font-size="8.00">state:0</text>
<text text-anchor="middle" x="638" y="-95.6" font-family="Helvetica,sans-Serif" font-size="8.00">type:relatedTo</text>
</g>
<!-- n78&#45;&gt;n77 -->
<g id="edge2" class="edge"><title>n78&#45;&gt;n77</title>
<path fill="none" stroke="blue" d="M427.73,-89.6421C400.722,-88.5397 372.076,-87.3705 350.291,-86.4812"/>
<polygon fill="blue" stroke="blue" points="350.319,-82.9796 340.184,-86.0687 350.033,-89.9737 350.319,-82.9796"/>
<text text-anchor="middle" x="384" y="-100.6" font-family="Helvetica,sans-Serif" font-size="8.00">state:0</text>
<text text-anchor="middle" x="384" y="-91.6" font-family="Helvetica,sans-Serif" font-size="8.00">type:relatedTo</text>
</g>
<!-- n80 -->
<g id="node6" class="node"><title>n80</title>
<polygon fill="#cae1ff" stroke="black" points="538,-44.5 484,-44.5 484,0.5 538,0.5 538,-44.5"/>
<text text-anchor="middle" x="511" y="-29.1" font-family="Helvetica,sans-Serif" font-size="8.00">node_id:78</text>
<text text-anchor="middle" x="511" y="-20.1" font-family="Helvetica,sans-Serif" font-size="8.00">ref_count:0</text>
<text text-anchor="middle" x="511" y="-11.1" font-family="Helvetica,sans-Serif" font-size="8.00">name:omega</text>
<text text-anchor="middle" x="511" y="-2.1" font-family="Helvetica,sans-Serif" font-size="8.00">type:4</text>
</g>
<!-- n80&#45;&gt;n77 -->
<g id="edge3" class="edge"><title>n80&#45;&gt;n77</title>
<path fill="none" stroke="blue" d="M483.842,-24.9249C452.835,-29.0467 400.067,-38.1449 358,-56 354.968,-57.2868 351.919,-58.7852 348.917,-60.4102"/>
<polygon fill="blue" stroke="blue" points="346.968,-57.4963 340.119,-65.5802 350.514,-63.5315 346.968,-57.4963"/>
<text text-anchor="middle" x="384" y="-67.6" font-family="Helvetica,sans-Serif" font-size="8.00">state:0</text>
<text text-anchor="middle" x="384" y="-58.6" font-family="Helvetica,sans-Serif" font-size="8.00">type:relatedTo</text>
</g>
<!-- n80&#45;&gt;n3 -->
<g id="edge4" class="edge"><title>n80&#45;&gt;n3</title>
<path fill="none" stroke="blue" d="M483.729,-21.7437C412.857,-21.0523 217.621,-19.1475 136.296,-18.3541"/>
<polygon fill="blue" stroke="blue" points="136.086,-14.852 126.052,-18.2542 136.018,-21.8517 136.086,-14.852"/>
<text text-anchor="middle" x="313" y="-32.6" font-family="Helvetica,sans-Serif" font-size="8.00">state:5</text>
<text text-anchor="middle" x="313" y="-23.6" font-family="Helvetica,sans-Serif" font-size="8.00">type:relatedTo</text>
</g>
</g>
</svg>
