<?xml version="1.0" encoding="UTF-8" standalone="no"?>
<!DOCTYPE svg PUBLIC "-//W3C//DTD SVG 1.1//EN"
 "http://www.w3.org/Graphics/SVG/1.1/DTD/svg11.dtd">
<!-- Generated by graphviz version 2.36.0 (20140111.2315)
 -->
<!-- Title: clingo2dot Pages: 1 -->
<svg width="890pt" height="143pt"
 viewBox="0.00 0.00 890.00 143.00" xmlns="http://www.w3.org/2000/svg" xmlns:xlink="http://www.w3.org/1999/xlink">
<g id="graph0" class="graph" transform="scale(1 1) rotate(0) translate(4 139)">
<title>clingo2dot</title>
<polygon fill="white" stroke="none" points="-4,4 -4,-139 886,-139 886,4 -4,4"/>
<!-- n81 -->
<g id="node1" class="node"><title>n81</title>
<polygon fill="#cae1ff" stroke="black" points="199.5,-62.5 0.5,-62.5 0.5,0.5 199.5,0.5 199.5,-62.5"/>
<text text-anchor="middle" x="100" y="-47.1" font-family="Helvetica,sans-Serif" font-size="8.00">ret:0</text>
<text text-anchor="middle" x="100" y="-38.1" font-family="Helvetica,sans-Serif" font-size="8.00">arg_values:[&#39;/home/vagrant/ProvMark/stage/link&#45;test.txt&#39;]</text>
<text text-anchor="middle" x="100" y="-29.1" font-family="Helvetica,sans-Serif" font-size="8.00">node_id:79</text>
<text text-anchor="middle" x="100" y="-20.1" font-family="Helvetica,sans-Serif" font-size="8.00">fn:unlink</text>
<text text-anchor="middle" x="100" y="-11.1" font-family="Helvetica,sans-Serif" font-size="8.00">arg_keys:[&#39;pathname&#39;]</text>
<text text-anchor="middle" x="100" y="-2.1" font-family="Helvetica,sans-Serif" font-size="8.00">type:5</text>
</g>
<!-- n80 -->
<g id="node2" class="node"><title>n80</title>
<polygon fill="#cae1ff" stroke="black" points="548,-128.5 494,-128.5 494,-83.5 548,-83.5 548,-128.5"/>
<text text-anchor="middle" x="521" y="-113.1" font-family="Helvetica,sans-Serif" font-size="8.00">ref_count:0</text>
<text text-anchor="middle" x="521" y="-104.1" font-family="Helvetica,sans-Serif" font-size="8.00">node_id:78</text>
<text text-anchor="middle" x="521" y="-95.1" font-family="Helvetica,sans-Serif" font-size="8.00">name:omega</text>
<text text-anchor="middle" x="521" y="-86.1" font-family="Helvetica,sans-Serif" font-size="8.00">type:4</text>
</g>
<!-- n77 -->
<g id="node3" class="node"><title>n77</title>
<polygon fill="#cae1ff" stroke="black" points="342,-69.5 288,-69.5 288,-24.5 342,-24.5 342,-69.5"/>
<text text-anchor="middle" x="315" y="-54.1" font-family="Helvetica,sans-Serif" font-size="8.00">ref_count:1</text>
<text text-anchor="middle" x="315" y="-45.1" font-family="Helvetica,sans-Serif" font-size="8.00">node_id:75</text>
<text text-anchor="middle" x="315" y="-36.1" font-family="Helvetica,sans-Serif" font-size="8.00">name:omega</text>
<text text-anchor="middle" x="315" y="-27.1" font-family="Helvetica,sans-Serif" font-size="8.00">type:4</text>
</g>
<!-- n80&#45;&gt;n77 -->
<g id="edge1" class="edge"><title>n80&#45;&gt;n77</title>
<path fill="none" stroke="blue" d="M493.748,-98.4076C457.638,-87.9639 392.51,-69.1279 351.912,-57.3862"/>
<polygon fill="blue" stroke="blue" points="352.73,-53.9794 342.151,-54.5633 350.785,-60.7039 352.73,-53.9794"/>
<text text-anchor="middle" x="386" y="-86.6" font-family="Helvetica,sans-Serif" font-size="8.00">state:0</text>
<text text-anchor="middle" x="386" y="-77.6" font-family="Helvetica,sans-Serif" font-size="8.00">type:relatedTo</text>
</g>
<!-- n3 -->
<g id="node4" class="node"><title>n3</title>
<ellipse fill="green" stroke="black" cx="100" cy="-111" rx="27" ry="18"/>
<text text-anchor="middle" x="100" y="-109.1" font-family="Helvetica,sans-Serif" font-size="8.00">Dummy Node</text>
</g>
<!-- n80&#45;&gt;n3 -->
<g id="edge3" class="edge"><title>n80&#45;&gt;n3</title>
<path fill="none" stroke="blue" d="M493.79,-106.313C421.703,-107.173 220.336,-109.576 137.403,-110.566"/>
<polygon fill="blue" stroke="blue" points="137.158,-107.068 127.2,-110.687 137.242,-114.068 137.158,-107.068"/>
<text text-anchor="middle" x="315" y="-119.6" font-family="Helvetica,sans-Serif" font-size="8.00">state:5</text>
<text text-anchor="middle" x="315" y="-110.6" font-family="Helvetica,sans-Serif" font-size="8.00">type:relatedTo</text>
</g>
<!-- n77&#45;&gt;n81 -->
<g id="edge5" class="edge"><title>n77&#45;&gt;n81</title>
<path fill="none" stroke="blue" d="M287.833,-36.5429C282.05,-34.6669 275.889,-32.9941 270,-32 250.695,-28.7411 229.972,-27.1131 209.882,-26.4873"/>
<polygon fill="blue" stroke="blue" points="209.842,-22.9855 199.763,-26.2529 209.68,-29.9836 209.842,-22.9855"/>
<text text-anchor="middle" x="244" y="-43.6" font-family="Helvetica,sans-Serif" font-size="8.00">state:0</text>
<text text-anchor="middle" x="244" y="-34.6" font-family="Helvetica,sans-Serif" font-size="8.00">type:relatedTo</text>
</g>
<!-- n77&#45;&gt;n3 -->
<g id="edge2" class="edge"><title>n77&#45;&gt;n3</title>
<path fill="none" stroke="blue" d="M287.882,-54.8477C249.316,-66.4356 177.128,-88.126 134.645,-100.891"/>
<polygon fill="blue" stroke="blue" points="133.603,-97.5493 125.033,-103.779 135.617,-104.253 133.603,-97.5493"/>
<text text-anchor="middle" x="244" y="-87.6" font-family="Helvetica,sans-Serif" font-size="8.00">state:10</text>
<text text-anchor="middle" x="244" y="-78.6" font-family="Helvetica,sans-Serif" font-size="8.00">type:relatedTo</text>
</g>
<!-- n78 -->
<g id="node5" class="node"><title>n78</title>
<polygon fill="#cae1ff" stroke="black" points="611.5,-49 430.5,-49 430.5,-13 611.5,-13 611.5,-49"/>
<text text-anchor="middle" x="521" y="-33.6" font-family="Helvetica,sans-Serif" font-size="8.00">node_id:76</text>
<text text-anchor="middle" x="521" y="-24.6" font-family="Helvetica,sans-Serif" font-size="8.00">name:[&#39;/home/vagrant/ProvMark/stage/link&#45;test.txt&#39;]</text>
<text text-anchor="middle" x="521" y="-15.6" font-family="Helvetica,sans-Serif" font-size="8.00">type:2</text>
</g>
<!-- n78&#45;&gt;n77 -->
<g id="edge4" class="edge"><title>n78&#45;&gt;n77</title>
<path fill="none" stroke="blue" d="M430.278,-26.4936C407.246,-26.7203 382.597,-28.1815 360,-32 357.332,-32.4509 354.607,-33.041 351.888,-33.7262"/>
<polygon fill="blue" stroke="blue" points="350.797,-30.3983 342.167,-36.5443 352.746,-37.1214 350.797,-30.3983"/>
<text text-anchor="middle" x="386" y="-43.6" font-family="Helvetica,sans-Serif" font-size="8.00">state:3</text>
<text text-anchor="middle" x="386" y="-34.6" font-family="Helvetica,sans-Serif" font-size="8.00">type:relatedTo</text>
</g>
<!-- n79 -->
<g id="node6" class="node"><title>n79</title>
<polygon fill="#cae1ff" stroke="black" points="881.5,-49 700.5,-49 700.5,-13 881.5,-13 881.5,-49"/>
<text text-anchor="middle" x="791" y="-33.6" font-family="Helvetica,sans-Serif" font-size="8.00">node_id:77</text>
<text text-anchor="middle" x="791" y="-24.6" font-family="Helvetica,sans-Serif" font-size="8.00">name:[&#39;/home/vagrant/ProvMark/stage/link&#45;test.txt&#39;]</text>
<text text-anchor="middle" x="791" y="-15.6" font-family="Helvetica,sans-Serif" font-size="8.00">type:2</text>
</g>
<!-- n79&#45;&gt;n78 -->
<g id="edge6" class="edge"><title>n79&#45;&gt;n78</title>
<path fill="none" stroke="blue" d="M700.387,-31C675.132,-31 647.506,-31 621.699,-31"/>
<polygon fill="blue" stroke="blue" points="621.528,-27.5001 611.528,-31 621.528,-34.5001 621.528,-27.5001"/>
<text text-anchor="middle" x="656" y="-42.6" font-family="Helvetica,sans-Serif" font-size="8.00">state:6</text>
<text text-anchor="middle" x="656" y="-33.6" font-family="Helvetica,sans-Serif" font-size="8.00">type:relatedTo</text>
</g>
</g>
</svg>
