<?xml version="1.0" encoding="UTF-8" standalone="no"?>
<!DOCTYPE svg PUBLIC "-//W3C//DTD SVG 1.1//EN"
 "http://www.w3.org/Graphics/SVG/1.1/DTD/svg11.dtd">
<!-- Generated by graphviz version 2.36.0 (20140111.2315)
 -->
<!-- Title: clingo2dot Pages: 1 -->
<svg width="932pt" height="132pt"
 viewBox="0.00 0.00 932.00 132.00" xmlns="http://www.w3.org/2000/svg" xmlns:xlink="http://www.w3.org/1999/xlink">
<g id="graph0" class="graph" transform="scale(1 1) rotate(0) translate(4 128)">
<title>clingo2dot</title>
<polygon fill="white" stroke="none" points="-4,4 -4,-128 928,-128 928,4 -4,4"/>
<!-- n82 -->
<g id="node1" class="node"><title>n82</title>
<polygon fill="#cae1ff" stroke="black" points="923.5,-111 736.5,-111 736.5,-75 923.5,-75 923.5,-111"/>
<text text-anchor="middle" x="830" y="-95.6" font-family="Helvetica,sans-Serif" font-size="8.00">name:[&#39;/home/vagrant/ProvMark/stage/linkat&#45;test.txt&#39;]</text>
<text text-anchor="middle" x="830" y="-86.6" font-family="Helvetica,sans-Serif" font-size="8.00">node_id:80</text>
<text text-anchor="middle" x="830" y="-77.6" font-family="Helvetica,sans-Serif" font-size="8.00">type:2</text>
</g>
<!-- n81 -->
<g id="node4" class="node"><title>n81</title>
<polygon fill="#cae1ff" stroke="black" points="647.5,-111 460.5,-111 460.5,-75 647.5,-75 647.5,-111"/>
<text text-anchor="middle" x="554" y="-95.6" font-family="Helvetica,sans-Serif" font-size="8.00">name:[&#39;/home/vagrant/ProvMark/stage/linkat&#45;test.txt&#39;]</text>
<text text-anchor="middle" x="554" y="-86.6" font-family="Helvetica,sans-Serif" font-size="8.00">node_id:79</text>
<text text-anchor="middle" x="554" y="-77.6" font-family="Helvetica,sans-Serif" font-size="8.00">type:2</text>
</g>
<!-- n82&#45;&gt;n81 -->
<g id="edge5" class="edge"><title>n82&#45;&gt;n81</title>
<path fill="none" stroke="blue" d="M736.236,-93C711.017,-93 683.558,-93 657.818,-93"/>
<polygon fill="blue" stroke="blue" points="657.668,-89.5001 647.668,-93 657.668,-96.5001 657.668,-89.5001"/>
<text text-anchor="middle" x="692" y="-104.6" font-family="Helvetica,sans-Serif" font-size="8.00">state:6</text>
<text text-anchor="middle" x="692" y="-95.6" font-family="Helvetica,sans-Serif" font-size="8.00">type:relatedTo</text>
</g>
<!-- n84 -->
<g id="node2" class="node"><title>n84</title>
<polygon fill="#cae1ff" stroke="black" points="230,-124.5 1.42109e-14,-124.5 1.42109e-14,-61.5 230,-61.5 230,-124.5"/>
<text text-anchor="middle" x="115" y="-109.1" font-family="Helvetica,sans-Serif" font-size="8.00">fn:unlinkat</text>
<text text-anchor="middle" x="115" y="-100.1" font-family="Helvetica,sans-Serif" font-size="8.00">arg_keys:[&#39;dirfd&#39;, &#39;pathname&#39;, &#39;flags&#39;]</text>
<text text-anchor="middle" x="115" y="-91.1" font-family="Helvetica,sans-Serif" font-size="8.00">node_id:82</text>
<text text-anchor="middle" x="115" y="-82.1" font-family="Helvetica,sans-Serif" font-size="8.00">arg_values:[&#39;3&#39;, &#39;/home/vagrant/ProvMark/stage/linkat&#45;test.txt&#39;, &#39;0&#39;]</text>
<text text-anchor="middle" x="115" y="-73.1" font-family="Helvetica,sans-Serif" font-size="8.00">ret:0</text>
<text text-anchor="middle" x="115" y="-64.1" font-family="Helvetica,sans-Serif" font-size="8.00">type:5</text>
</g>
<!-- n3 -->
<g id="node3" class="node"><title>n3</title>
<ellipse fill="green" stroke="black" cx="115" cy="-18" rx="27" ry="18"/>
<text text-anchor="middle" x="115" y="-16.1" font-family="Helvetica,sans-Serif" font-size="8.00">Dummy Node</text>
</g>
<!-- n80 -->
<g id="node5" class="node"><title>n80</title>
<polygon fill="#cae1ff" stroke="black" points="372,-107.5 318,-107.5 318,-62.5 372,-62.5 372,-107.5"/>
<text text-anchor="middle" x="345" y="-92.1" font-family="Helvetica,sans-Serif" font-size="8.00">name:omega</text>
<text text-anchor="middle" x="345" y="-83.1" font-family="Helvetica,sans-Serif" font-size="8.00">node_id:78</text>
<text text-anchor="middle" x="345" y="-74.1" font-family="Helvetica,sans-Serif" font-size="8.00">ref_count:1</text>
<text text-anchor="middle" x="345" y="-65.1" font-family="Helvetica,sans-Serif" font-size="8.00">type:4</text>
</g>
<!-- n81&#45;&gt;n80 -->
<g id="edge2" class="edge"><title>n81&#45;&gt;n80</title>
<path fill="none" stroke="blue" d="M460.398,-89.4212C432.831,-88.3558 404.22,-87.2501 382.507,-86.4109"/>
<polygon fill="blue" stroke="blue" points="382.565,-82.9106 372.437,-86.0217 382.294,-89.9054 382.565,-82.9106"/>
<text text-anchor="middle" x="416" y="-99.6" font-family="Helvetica,sans-Serif" font-size="8.00">state:3</text>
<text text-anchor="middle" x="416" y="-90.6" font-family="Helvetica,sans-Serif" font-size="8.00">type:relatedTo</text>
</g>
<!-- n80&#45;&gt;n84 -->
<g id="edge1" class="edge"><title>n80&#45;&gt;n84</title>
<path fill="none" stroke="blue" d="M317.846,-85.9177C298.141,-86.6091 269.553,-87.6122 240.059,-88.647"/>
<polygon fill="blue" stroke="blue" points="239.905,-85.1502 230.034,-88.9988 240.151,-92.1459 239.905,-85.1502"/>
<text text-anchor="middle" x="274" y="-99.6" font-family="Helvetica,sans-Serif" font-size="8.00">state:0</text>
<text text-anchor="middle" x="274" y="-90.6" font-family="Helvetica,sans-Serif" font-size="8.00">type:relatedTo</text>
</g>
<!-- n80&#45;&gt;n3 -->
<g id="edge3" class="edge"><title>n80&#45;&gt;n3</title>
<path fill="none" stroke="blue" d="M317.992,-64.7869C312.3,-61.0856 306.135,-57.5826 300,-55 251.138,-34.4317 190.061,-25.0625 152.033,-20.9653"/>
<polygon fill="blue" stroke="blue" points="152.249,-17.4694 141.948,-19.9446 151.544,-24.4339 152.249,-17.4694"/>
<text text-anchor="middle" x="274" y="-66.6" font-family="Helvetica,sans-Serif" font-size="8.00">state:10</text>
<text text-anchor="middle" x="274" y="-57.6" font-family="Helvetica,sans-Serif" font-size="8.00">type:relatedTo</text>
</g>
<!-- n83 -->
<g id="node6" class="node"><title>n83</title>
<polygon fill="#cae1ff" stroke="black" points="581,-44.5 527,-44.5 527,0.5 581,0.5 581,-44.5"/>
<text text-anchor="middle" x="554" y="-29.1" font-family="Helvetica,sans-Serif" font-size="8.00">name:omega</text>
<text text-anchor="middle" x="554" y="-20.1" font-family="Helvetica,sans-Serif" font-size="8.00">node_id:81</text>
<text text-anchor="middle" x="554" y="-11.1" font-family="Helvetica,sans-Serif" font-size="8.00">ref_count:0</text>
<text text-anchor="middle" x="554" y="-2.1" font-family="Helvetica,sans-Serif" font-size="8.00">type:4</text>
</g>
<!-- n83&#45;&gt;n3 -->
<g id="edge6" class="edge"><title>n83&#45;&gt;n3</title>
<path fill="none" stroke="blue" d="M526.972,-21.7618C452.448,-21.0796 238.104,-19.1177 152.223,-18.3316"/>
<polygon fill="blue" stroke="blue" points="152.199,-14.8313 142.167,-18.2395 152.134,-21.831 152.199,-14.8313"/>
<text text-anchor="middle" x="345" y="-32.6" font-family="Helvetica,sans-Serif" font-size="8.00">state:5</text>
<text text-anchor="middle" x="345" y="-23.6" font-family="Helvetica,sans-Serif" font-size="8.00">type:relatedTo</text>
</g>
<!-- n83&#45;&gt;n80 -->
<g id="edge4" class="edge"><title>n83&#45;&gt;n80</title>
<path fill="none" stroke="blue" d="M526.936,-24.0653C493.946,-27.3916 435.892,-35.6468 390,-55 386.933,-56.2933 383.859,-57.8162 380.84,-59.4784"/>
<polygon fill="blue" stroke="blue" points="378.773,-56.6372 372.01,-64.7931 382.383,-62.6345 378.773,-56.6372"/>
<text text-anchor="middle" x="416" y="-66.6" font-family="Helvetica,sans-Serif" font-size="8.00">state:0</text>
<text text-anchor="middle" x="416" y="-57.6" font-family="Helvetica,sans-Serif" font-size="8.00">type:relatedTo</text>
</g>
</g>
</svg>
