<?xml version="1.0" encoding="UTF-8" standalone="no"?>
<!DOCTYPE svg PUBLIC "-//W3C//DTD SVG 1.1//EN"
 "http://www.w3.org/Graphics/SVG/1.1/DTD/svg11.dtd">
<!-- Generated by graphviz version 2.36.0 (20140111.2315)
 -->
<!-- Title: clingo2dot Pages: 1 -->
<svg width="986pt" height="1746pt"
 viewBox="0.00 0.00 986.00 1746.00" xmlns="http://www.w3.org/2000/svg" xmlns:xlink="http://www.w3.org/1999/xlink">
<g id="graph0" class="graph" transform="scale(1 1) rotate(0) translate(4 1742)">
<title>clingo2dot</title>
<polygon fill="white" stroke="none" points="-4,4 -4,-1742 982,-1742 982,4 -4,4"/>
<!-- n85 -->
<g id="node1" class="node"><title>n85</title>
<polygon fill="#cae1ff" stroke="black" points="130,-1737.5 76,-1737.5 76,-1692.5 130,-1692.5 130,-1737.5"/>
<text text-anchor="middle" x="103" y="-1722.1" font-family="Helvetica,sans-Serif" font-size="8.00">value:root</text>
<text text-anchor="middle" x="103" y="-1713.1" font-family="Helvetica,sans-Serif" font-size="8.00">name:gid</text>
<text text-anchor="middle" x="103" y="-1704.1" font-family="Helvetica,sans-Serif" font-size="8.00">node_id:83</text>
<text text-anchor="middle" x="103" y="-1695.1" font-family="Helvetica,sans-Serif" font-size="8.00">type:1</text>
</g>
<!-- n105 -->
<g id="node2" class="node"><title>n105</title>
<polygon fill="#cae1ff" stroke="black" points="145.5,-1674.5 60.5,-1674.5 60.5,-1629.5 145.5,-1629.5 145.5,-1674.5"/>
<text text-anchor="middle" x="103" y="-1659.1" font-family="Helvetica,sans-Serif" font-size="8.00">value:0</text>
<text text-anchor="middle" x="103" y="-1650.1" font-family="Helvetica,sans-Serif" font-size="8.00">name:RLIMIT_RTPRIO</text>
<text text-anchor="middle" x="103" y="-1641.1" font-family="Helvetica,sans-Serif" font-size="8.00">node_id:103</text>
<text text-anchor="middle" x="103" y="-1632.1" font-family="Helvetica,sans-Serif" font-size="8.00">type:1</text>
</g>
<!-- n110 -->
<g id="node3" class="node"><title>n110</title>
<polygon fill="#cae1ff" stroke="black" points="490,-1005 436,-1005 436,-969 490,-969 490,-1005"/>
<text text-anchor="middle" x="463" y="-989.6" font-family="Helvetica,sans-Serif" font-size="8.00">name:1</text>
<text text-anchor="middle" x="463" y="-980.6" font-family="Helvetica,sans-Serif" font-size="8.00">node_id:108</text>
<text text-anchor="middle" x="463" y="-971.6" font-family="Helvetica,sans-Serif" font-size="8.00">type:4</text>
</g>
<!-- n77 -->
<g id="node19" class="node"><title>n77</title>
<polygon fill="#cae1ff" stroke="black" points="348,-892.5 294,-892.5 294,-847.5 348,-847.5 348,-892.5"/>
<text text-anchor="middle" x="321" y="-877.1" font-family="Helvetica,sans-Serif" font-size="8.00">status:0</text>
<text text-anchor="middle" x="321" y="-868.1" font-family="Helvetica,sans-Serif" font-size="8.00">node_id:75</text>
<text text-anchor="middle" x="321" y="-859.1" font-family="Helvetica,sans-Serif" font-size="8.00">opus_lite:1</text>
<text text-anchor="middle" x="321" y="-850.1" font-family="Helvetica,sans-Serif" font-size="8.00">type:3</text>
</g>
<!-- n110&#45;&gt;n77 -->
<g id="edge29" class="edge"><title>n110&#45;&gt;n77</title>
<path fill="none" stroke="blue" d="M435.934,-980.097C415.114,-973.541 386.181,-961.979 366,-944 353,-932.419 342.721,-916.056 335.378,-901.661"/>
<polygon fill="blue" stroke="blue" points="338.48,-900.036 330.977,-892.555 332.177,-903.082 338.48,-900.036"/>
<text text-anchor="middle" x="392" y="-985.6" font-family="Helvetica,sans-Serif" font-size="8.00">state:0</text>
<text text-anchor="middle" x="392" y="-976.6" font-family="Helvetica,sans-Serif" font-size="8.00">type:relatedTo</text>
</g>
<!-- n103 -->
<g id="node4" class="node"><title>n103</title>
<polygon fill="#cae1ff" stroke="black" points="145,-1611.5 61,-1611.5 61,-1566.5 145,-1566.5 145,-1611.5"/>
<text text-anchor="middle" x="103" y="-1596.1" font-family="Helvetica,sans-Serif" font-size="8.00">value:3840</text>
<text text-anchor="middle" x="103" y="-1587.1" font-family="Helvetica,sans-Serif" font-size="8.00">name:RLIMIT_NPROC</text>
<text text-anchor="middle" x="103" y="-1578.1" font-family="Helvetica,sans-Serif" font-size="8.00">node_id:101</text>
<text text-anchor="middle" x="103" y="-1569.1" font-family="Helvetica,sans-Serif" font-size="8.00">type:1</text>
</g>
<!-- n87 -->
<g id="node5" class="node"><title>n87</title>
<polygon fill="#cae1ff" stroke="black" points="133.5,-1548.5 72.5,-1548.5 72.5,-1503.5 133.5,-1503.5 133.5,-1548.5"/>
<text text-anchor="middle" x="103" y="-1533.1" font-family="Helvetica,sans-Serif" font-size="8.00">value:opus</text>
<text text-anchor="middle" x="103" y="-1524.1" font-family="Helvetica,sans-Serif" font-size="8.00">name:nodename</text>
<text text-anchor="middle" x="103" y="-1515.1" font-family="Helvetica,sans-Serif" font-size="8.00">node_id:85</text>
<text text-anchor="middle" x="103" y="-1506.1" font-family="Helvetica,sans-Serif" font-size="8.00">type:1</text>
</g>
<!-- n82 -->
<g id="node6" class="node"><title>n82</title>
<polygon fill="#cae1ff" stroke="black" points="173,-1485.5 33,-1485.5 33,-1440.5 173,-1440.5 173,-1485.5"/>
<text text-anchor="middle" x="103" y="-1470.1" font-family="Helvetica,sans-Serif" font-size="8.00">value:/home/vagrant/ProvMark/working</text>
<text text-anchor="middle" x="103" y="-1461.1" font-family="Helvetica,sans-Serif" font-size="8.00">name:cwd</text>
<text text-anchor="middle" x="103" y="-1452.1" font-family="Helvetica,sans-Serif" font-size="8.00">node_id:80</text>
<text text-anchor="middle" x="103" y="-1443.1" font-family="Helvetica,sans-Serif" font-size="8.00">type:1</text>
</g>
<!-- n97 -->
<g id="node7" class="node"><title>n97</title>
<polygon fill="#cae1ff" stroke="black" points="159,-1422.5 47,-1422.5 47,-1377.5 159,-1377.5 159,-1422.5"/>
<text text-anchor="middle" x="103" y="-1407.1" font-family="Helvetica,sans-Serif" font-size="8.00">value:18446744073709551615</text>
<text text-anchor="middle" x="103" y="-1398.1" font-family="Helvetica,sans-Serif" font-size="8.00">name:RLIMIT_FSIZE</text>
<text text-anchor="middle" x="103" y="-1389.1" font-family="Helvetica,sans-Serif" font-size="8.00">node_id:95</text>
<text text-anchor="middle" x="103" y="-1380.1" font-family="Helvetica,sans-Serif" font-size="8.00">type:1</text>
</g>
<!-- n92 -->
<g id="node8" class="node"><title>n92</title>
<polygon fill="#cae1ff" stroke="black" points="142,-1359.5 64,-1359.5 64,-1314.5 142,-1314.5 142,-1359.5"/>
<text text-anchor="middle" x="103" y="-1344.1" font-family="Helvetica,sans-Serif" font-size="8.00">value:0</text>
<text text-anchor="middle" x="103" y="-1335.1" font-family="Helvetica,sans-Serif" font-size="8.00">name:RLIMIT_CORE</text>
<text text-anchor="middle" x="103" y="-1326.1" font-family="Helvetica,sans-Serif" font-size="8.00">node_id:90</text>
<text text-anchor="middle" x="103" y="-1317.1" font-family="Helvetica,sans-Serif" font-size="8.00">type:1</text>
</g>
<!-- n96 -->
<g id="node9" class="node"><title>n96</title>
<polygon fill="#cae1ff" stroke="black" points="159,-1296.5 47,-1296.5 47,-1251.5 159,-1251.5 159,-1296.5"/>
<text text-anchor="middle" x="103" y="-1281.1" font-family="Helvetica,sans-Serif" font-size="8.00">value:18446744073709551615</text>
<text text-anchor="middle" x="103" y="-1272.1" font-family="Helvetica,sans-Serif" font-size="8.00">name:RLIMIT_LOCKS</text>
<text text-anchor="middle" x="103" y="-1263.1" font-family="Helvetica,sans-Serif" font-size="8.00">node_id:94</text>
<text text-anchor="middle" x="103" y="-1254.1" font-family="Helvetica,sans-Serif" font-size="8.00">type:1</text>
</g>
<!-- n101 -->
<g id="node10" class="node"><title>n101</title>
<polygon fill="#cae1ff" stroke="black" points="140,-1233.5 66,-1233.5 66,-1188.5 140,-1188.5 140,-1233.5"/>
<text text-anchor="middle" x="103" y="-1218.1" font-family="Helvetica,sans-Serif" font-size="8.00">value:0</text>
<text text-anchor="middle" x="103" y="-1209.1" font-family="Helvetica,sans-Serif" font-size="8.00">name:RLIMIT_NICE</text>
<text text-anchor="middle" x="103" y="-1200.1" font-family="Helvetica,sans-Serif" font-size="8.00">node_id:99</text>
<text text-anchor="middle" x="103" y="-1191.1" font-family="Helvetica,sans-Serif" font-size="8.00">type:1</text>
</g>
<!-- n90 -->
<g id="node11" class="node"><title>n90</title>
<polygon fill="#cae1ff" stroke="black" points="130,-1170.5 76,-1170.5 76,-1125.5 130,-1125.5 130,-1170.5"/>
<text text-anchor="middle" x="103" y="-1155.1" font-family="Helvetica,sans-Serif" font-size="8.00">value:x86_64</text>
<text text-anchor="middle" x="103" y="-1146.1" font-family="Helvetica,sans-Serif" font-size="8.00">name:machine</text>
<text text-anchor="middle" x="103" y="-1137.1" font-family="Helvetica,sans-Serif" font-size="8.00">node_id:88</text>
<text text-anchor="middle" x="103" y="-1128.1" font-family="Helvetica,sans-Serif" font-size="8.00">type:1</text>
</g>
<!-- n98 -->
<g id="node12" class="node"><title>n98</title>
<polygon fill="#cae1ff" stroke="black" points="159,-1107.5 47,-1107.5 47,-1062.5 159,-1062.5 159,-1107.5"/>
<text text-anchor="middle" x="103" y="-1092.1" font-family="Helvetica,sans-Serif" font-size="8.00">value:18446744073709551615</text>
<text text-anchor="middle" x="103" y="-1083.1" font-family="Helvetica,sans-Serif" font-size="8.00">name:RLIMIT_LOCKS</text>
<text text-anchor="middle" x="103" y="-1074.1" font-family="Helvetica,sans-Serif" font-size="8.00">node_id:96</text>
<text text-anchor="middle" x="103" y="-1065.1" font-family="Helvetica,sans-Serif" font-size="8.00">type:1</text>
</g>
<!-- n106 -->
<g id="node13" class="node"><title>n106</title>
<polygon fill="#cae1ff" stroke="black" points="159,-1044.5 47,-1044.5 47,-999.5 159,-999.5 159,-1044.5"/>
<text text-anchor="middle" x="103" y="-1029.1" font-family="Helvetica,sans-Serif" font-size="8.00">value:18446744073709551615</text>
<text text-anchor="middle" x="103" y="-1020.1" font-family="Helvetica,sans-Serif" font-size="8.00">name:RLIMIT_RTTIME</text>
<text text-anchor="middle" x="103" y="-1011.1" font-family="Helvetica,sans-Serif" font-size="8.00">node_id:104</text>
<text text-anchor="middle" x="103" y="-1002.1" font-family="Helvetica,sans-Serif" font-size="8.00">type:1</text>
</g>
<!-- n91 -->
<g id="node14" class="node"><title>n91</title>
<polygon fill="#cae1ff" stroke="black" points="159,-981.5 47,-981.5 47,-936.5 159,-936.5 159,-981.5"/>
<text text-anchor="middle" x="103" y="-966.1" font-family="Helvetica,sans-Serif" font-size="8.00">value:18446744073709551615</text>
<text text-anchor="middle" x="103" y="-957.1" font-family="Helvetica,sans-Serif" font-size="8.00">name:RLIMIT_AS</text>
<text text-anchor="middle" x="103" y="-948.1" font-family="Helvetica,sans-Serif" font-size="8.00">node_id:89</text>
<text text-anchor="middle" x="103" y="-939.1" font-family="Helvetica,sans-Serif" font-size="8.00">type:1</text>
</g>
<!-- n79 -->
<g id="node15" class="node"><title>n79</title>
<polygon fill="#cae1ff" stroke="black" points="734,-781 578,-781 578,-745 734,-745 734,-781"/>
<text text-anchor="middle" x="656" y="-765.6" font-family="Helvetica,sans-Serif" font-size="8.00">name:[&#39;/home/vagrant/ProvMark/stage/test&#39;]</text>
<text text-anchor="middle" x="656" y="-756.6" font-family="Helvetica,sans-Serif" font-size="8.00">node_id:77</text>
<text text-anchor="middle" x="656" y="-747.6" font-family="Helvetica,sans-Serif" font-size="8.00">type:2</text>
</g>
<!-- n78 -->
<g id="node30" class="node"><title>n78</title>
<polygon fill="#cae1ff" stroke="black" points="490,-833.5 436,-833.5 436,-788.5 490,-788.5 490,-833.5"/>
<text text-anchor="middle" x="463" y="-818.1" font-family="Helvetica,sans-Serif" font-size="8.00">name:omega</text>
<text text-anchor="middle" x="463" y="-809.1" font-family="Helvetica,sans-Serif" font-size="8.00">ref_count:1</text>
<text text-anchor="middle" x="463" y="-800.1" font-family="Helvetica,sans-Serif" font-size="8.00">node_id:76</text>
<text text-anchor="middle" x="463" y="-791.1" font-family="Helvetica,sans-Serif" font-size="8.00">type:4</text>
</g>
<!-- n79&#45;&gt;n78 -->
<g id="edge34" class="edge"><title>n79&#45;&gt;n78</title>
<path fill="none" stroke="blue" d="M577.961,-771.455C555.076,-775.202 530.201,-780.518 508,-788 505.243,-788.929 502.449,-790.013 499.674,-791.195"/>
<polygon fill="blue" stroke="blue" points="497.994,-788.116 490.402,-795.506 500.945,-794.463 497.994,-788.116"/>
<text text-anchor="middle" x="534" y="-799.6" font-family="Helvetica,sans-Serif" font-size="8.00">state:7</text>
<text text-anchor="middle" x="534" y="-790.6" font-family="Helvetica,sans-Serif" font-size="8.00">type:relatedTo</text>
</g>
<!-- n6 -->
<g id="node35" class="node"><title>n6</title>
<ellipse fill="green" stroke="black" cx="463" cy="-728" rx="27" ry="18"/>
<text text-anchor="middle" x="463" y="-726.1" font-family="Helvetica,sans-Serif" font-size="8.00">Dummy Node</text>
</g>
<!-- n79&#45;&gt;n6 -->
<g id="edge6" class="edge"><title>n79&#45;&gt;n6</title>
<path fill="none" stroke="blue" d="M613.733,-744.849C597.341,-738.542 578.106,-732.24 560,-729 540.387,-725.491 518.159,-725.041 500.034,-725.558"/>
<polygon fill="blue" stroke="blue" points="499.741,-722.067 489.887,-725.959 500.017,-729.061 499.741,-722.067"/>
<text text-anchor="middle" x="534" y="-740.6" font-family="Helvetica,sans-Serif" font-size="8.00">state:0</text>
<text text-anchor="middle" x="534" y="-731.6" font-family="Helvetica,sans-Serif" font-size="8.00">type:relatedTo</text>
</g>
<!-- n3 -->
<g id="node16" class="node"><title>n3</title>
<ellipse fill="green" stroke="black" cx="103" cy="-900" rx="27" ry="18"/>
<text text-anchor="middle" x="103" y="-898.1" font-family="Helvetica,sans-Serif" font-size="8.00">Dummy Node</text>
</g>
<!-- n99 -->
<g id="node17" class="node"><title>n99</title>
<polygon fill="#cae1ff" stroke="black" points="150.5,-863.5 55.5,-863.5 55.5,-818.5 150.5,-818.5 150.5,-863.5"/>
<text text-anchor="middle" x="103" y="-848.1" font-family="Helvetica,sans-Serif" font-size="8.00">value:65536</text>
<text text-anchor="middle" x="103" y="-839.1" font-family="Helvetica,sans-Serif" font-size="8.00">name:RLIMIT_MEMLOCK</text>
<text text-anchor="middle" x="103" y="-830.1" font-family="Helvetica,sans-Serif" font-size="8.00">node_id:97</text>
<text text-anchor="middle" x="103" y="-821.1" font-family="Helvetica,sans-Serif" font-size="8.00">type:1</text>
</g>
<!-- n86 -->
<g id="node18" class="node"><title>n86</title>
<polygon fill="#cae1ff" stroke="black" points="130.5,-800.5 75.5,-800.5 75.5,-755.5 130.5,-755.5 130.5,-800.5"/>
<text text-anchor="middle" x="103" y="-785.1" font-family="Helvetica,sans-Serif" font-size="8.00">value:Linux</text>
<text text-anchor="middle" x="103" y="-776.1" font-family="Helvetica,sans-Serif" font-size="8.00">name:sysname</text>
<text text-anchor="middle" x="103" y="-767.1" font-family="Helvetica,sans-Serif" font-size="8.00">node_id:84</text>
<text text-anchor="middle" x="103" y="-758.1" font-family="Helvetica,sans-Serif" font-size="8.00">type:1</text>
</g>
<!-- n77&#45;&gt;n85 -->
<g id="edge23" class="edge"><title>n77&#45;&gt;n85</title>
<path fill="none" stroke="blue" d="M319.539,-892.33C316.82,-1019.35 302.108,-1646.25 276,-1677 243.024,-1715.84 180.116,-1720.22 140.206,-1718.54"/>
<polygon fill="blue" stroke="blue" points="140.277,-1715.04 130.095,-1717.97 139.88,-1722.03 140.277,-1715.04"/>
<text text-anchor="middle" x="250" y="-1720.6" font-family="Helvetica,sans-Serif" font-size="8.00">state:0</text>
<text text-anchor="middle" x="250" y="-1711.6" font-family="Helvetica,sans-Serif" font-size="8.00">type:relatedTo</text>
</g>
<!-- n77&#45;&gt;n105 -->
<g id="edge37" class="edge"><title>n77&#45;&gt;n105</title>
<path fill="none" stroke="blue" d="M320.242,-892.316C321.319,-1010.16 323.698,-1556.77 276,-1613 247.09,-1647.08 195.235,-1654.98 155.996,-1655.47"/>
<polygon fill="blue" stroke="blue" points="155.815,-1651.97 145.804,-1655.44 155.793,-1658.97 155.815,-1651.97"/>
<text text-anchor="middle" x="250" y="-1657.6" font-family="Helvetica,sans-Serif" font-size="8.00">state:0</text>
<text text-anchor="middle" x="250" y="-1648.6" font-family="Helvetica,sans-Serif" font-size="8.00">type:relatedTo</text>
</g>
<!-- n77&#45;&gt;n103 -->
<g id="edge31" class="edge"><title>n77&#45;&gt;n103</title>
<path fill="none" stroke="blue" d="M320.105,-892.567C320.419,-1004.63 319.319,-1497.93 276,-1549 246.871,-1583.34 194.55,-1591.44 155.237,-1592.11"/>
<polygon fill="blue" stroke="blue" points="155.03,-1588.61 145.035,-1592.12 155.04,-1595.61 155.03,-1588.61"/>
<text text-anchor="middle" x="250" y="-1593.6" font-family="Helvetica,sans-Serif" font-size="8.00">state:0</text>
<text text-anchor="middle" x="250" y="-1584.6" font-family="Helvetica,sans-Serif" font-size="8.00">type:relatedTo</text>
</g>
<!-- n77&#45;&gt;n87 -->
<g id="edge4" class="edge"><title>n77&#45;&gt;n87</title>
<path fill="none" stroke="blue" d="M319.937,-892.5C319.439,-997.833 315.022,-1439.06 276,-1485 243.894,-1522.8 183.806,-1529.22 143.843,-1528.81"/>
<polygon fill="blue" stroke="blue" points="143.731,-1525.31 133.646,-1528.56 143.555,-1532.3 143.731,-1525.31"/>
<text text-anchor="middle" x="250" y="-1529.6" font-family="Helvetica,sans-Serif" font-size="8.00">state:0</text>
<text text-anchor="middle" x="250" y="-1520.6" font-family="Helvetica,sans-Serif" font-size="8.00">type:relatedTo</text>
</g>
<!-- n77&#45;&gt;n82 -->
<g id="edge30" class="edge"><title>n77&#45;&gt;n82</title>
<path fill="none" stroke="blue" d="M319.734,-892.413C318.365,-990.657 310.768,-1380.18 276,-1421 253.332,-1447.61 216.856,-1458.87 183.315,-1463.16"/>
<polygon fill="blue" stroke="blue" points="182.583,-1459.72 173.019,-1464.28 183.338,-1466.68 182.583,-1459.72"/>
<text text-anchor="middle" x="250" y="-1465.6" font-family="Helvetica,sans-Serif" font-size="8.00">state:0</text>
<text text-anchor="middle" x="250" y="-1456.6" font-family="Helvetica,sans-Serif" font-size="8.00">type:relatedTo</text>
</g>
<!-- n77&#45;&gt;n97 -->
<g id="edge28" class="edge"><title>n77&#45;&gt;n97</title>
<path fill="none" stroke="blue" d="M319.467,-892.462C317.113,-983.3 306.379,-1320.32 276,-1356 250.064,-1386.46 206.213,-1397.34 169.28,-1400.67"/>
<polygon fill="blue" stroke="blue" points="168.784,-1397.2 159.067,-1401.42 169.296,-1404.18 168.784,-1397.2"/>
<text text-anchor="middle" x="250" y="-1401.6" font-family="Helvetica,sans-Serif" font-size="8.00">state:0</text>
<text text-anchor="middle" x="250" y="-1392.6" font-family="Helvetica,sans-Serif" font-size="8.00">type:relatedTo</text>
</g>
<!-- n77&#45;&gt;n92 -->
<g id="edge18" class="edge"><title>n77&#45;&gt;n92</title>
<path fill="none" stroke="blue" d="M319.122,-892.489C315.691,-975.363 302.069,-1260.47 276,-1291 245.872,-1326.28 191.95,-1336 152.49,-1338.01"/>
<polygon fill="blue" stroke="blue" points="152.153,-1334.52 142.285,-1338.38 152.404,-1341.52 152.153,-1334.52"/>
<text text-anchor="middle" x="250" y="-1336.6" font-family="Helvetica,sans-Serif" font-size="8.00">state:0</text>
<text text-anchor="middle" x="250" y="-1327.6" font-family="Helvetica,sans-Serif" font-size="8.00">type:relatedTo</text>
</g>
<!-- n77&#45;&gt;n96 -->
<g id="edge10" class="edge"><title>n77&#45;&gt;n96</title>
<path fill="none" stroke="blue" d="M320.355,-892.504C320.997,-962.665 319.273,-1175.74 276,-1226 249.838,-1256.39 206.207,-1268.32 169.437,-1272.69"/>
<polygon fill="blue" stroke="blue" points="168.859,-1269.23 159.268,-1273.73 169.573,-1276.2 168.859,-1269.23"/>
<text text-anchor="middle" x="250" y="-1271.6" font-family="Helvetica,sans-Serif" font-size="8.00">state:0</text>
<text text-anchor="middle" x="250" y="-1262.6" font-family="Helvetica,sans-Serif" font-size="8.00">type:relatedTo</text>
</g>
<!-- n77&#45;&gt;n101 -->
<g id="edge20" class="edge"><title>n77&#45;&gt;n101</title>
<path fill="none" stroke="blue" d="M319.608,-892.551C318.091,-953.579 310.784,-1120.06 276,-1160 244.828,-1195.79 189.823,-1207.04 150.403,-1210.29"/>
<polygon fill="blue" stroke="blue" points="149.977,-1206.81 140.237,-1210.98 150.451,-1213.79 149.977,-1206.81"/>
<text text-anchor="middle" x="250" y="-1206.6" font-family="Helvetica,sans-Serif" font-size="8.00">state:0</text>
<text text-anchor="middle" x="250" y="-1197.6" font-family="Helvetica,sans-Serif" font-size="8.00">type:relatedTo</text>
</g>
<!-- n77&#45;&gt;n90 -->
<g id="edge12" class="edge"><title>n77&#45;&gt;n90</title>
<path fill="none" stroke="blue" d="M318.458,-892.466C314.539,-943.159 302.565,-1064.32 276,-1094 241.486,-1132.56 179.807,-1143.83 140.449,-1146.99"/>
<polygon fill="blue" stroke="blue" points="139.972,-1143.51 130.225,-1147.66 140.434,-1150.5 139.972,-1143.51"/>
<text text-anchor="middle" x="250" y="-1140.6" font-family="Helvetica,sans-Serif" font-size="8.00">state:0</text>
<text text-anchor="middle" x="250" y="-1131.6" font-family="Helvetica,sans-Serif" font-size="8.00">type:relatedTo</text>
</g>
<!-- n77&#45;&gt;n98 -->
<g id="edge7" class="edge"><title>n77&#45;&gt;n98</title>
<path fill="none" stroke="blue" d="M320.28,-892.491C319.461,-926.945 312.782,-992.804 276,-1031 248.218,-1059.85 205.233,-1073.35 169.185,-1079.64"/>
<polygon fill="blue" stroke="blue" points="168.544,-1076.2 159.22,-1081.23 169.647,-1083.11 168.544,-1076.2"/>
<text text-anchor="middle" x="250" y="-1074.6" font-family="Helvetica,sans-Serif" font-size="8.00">state:0</text>
<text text-anchor="middle" x="250" y="-1065.6" font-family="Helvetica,sans-Serif" font-size="8.00">type:relatedTo</text>
</g>
<!-- n77&#45;&gt;n106 -->
<g id="edge2" class="edge"><title>n77&#45;&gt;n106</title>
<path fill="none" stroke="blue" d="M315.863,-892.305C310.511,-914.992 299,-949.625 276,-970 246.564,-996.076 204.413,-1009.08 169.206,-1015.56"/>
<polygon fill="blue" stroke="blue" points="168.273,-1012.17 159.002,-1017.3 169.447,-1019.07 168.273,-1012.17"/>
<text text-anchor="middle" x="250" y="-1011.6" font-family="Helvetica,sans-Serif" font-size="8.00">state:0</text>
<text text-anchor="middle" x="250" y="-1002.6" font-family="Helvetica,sans-Serif" font-size="8.00">type:relatedTo</text>
</g>
<!-- n77&#45;&gt;n91 -->
<g id="edge1" class="edge"><title>n77&#45;&gt;n91</title>
<path fill="none" stroke="blue" d="M303.748,-892.37C296.231,-901.246 286.615,-910.796 276,-917 243.653,-935.906 203.115,-946.33 169.521,-952.063"/>
<polygon fill="blue" stroke="blue" points="168.654,-948.657 159.334,-953.696 169.762,-955.569 168.654,-948.657"/>
<text text-anchor="middle" x="250" y="-950.6" font-family="Helvetica,sans-Serif" font-size="8.00">state:0</text>
<text text-anchor="middle" x="250" y="-941.6" font-family="Helvetica,sans-Serif" font-size="8.00">type:relatedTo</text>
</g>
<!-- n77&#45;&gt;n3 -->
<g id="edge25" class="edge"><title>n77&#45;&gt;n3</title>
<path fill="none" stroke="blue" d="M293.98,-874.965C288.078,-876.026 281.831,-877.098 276,-878 229.088,-885.26 174.709,-891.923 139.861,-895.97"/>
<polygon fill="blue" stroke="blue" points="139.237,-892.519 129.703,-897.14 140.038,-899.473 139.237,-892.519"/>
<text text-anchor="middle" x="250" y="-897.6" font-family="Helvetica,sans-Serif" font-size="8.00">state:0</text>
<text text-anchor="middle" x="250" y="-888.6" font-family="Helvetica,sans-Serif" font-size="8.00">type:relatedTo</text>
</g>
<!-- n77&#45;&gt;n99 -->
<g id="edge8" class="edge"><title>n77&#45;&gt;n99</title>
<path fill="none" stroke="blue" d="M293.988,-856.999C288.195,-854.608 281.991,-852.421 276,-851 238.283,-842.055 194.675,-839.604 160.806,-839.364"/>
<polygon fill="blue" stroke="blue" points="160.628,-835.864 150.625,-839.356 160.622,-842.864 160.628,-835.864"/>
<text text-anchor="middle" x="250" y="-862.6" font-family="Helvetica,sans-Serif" font-size="8.00">state:0</text>
<text text-anchor="middle" x="250" y="-853.6" font-family="Helvetica,sans-Serif" font-size="8.00">type:relatedTo</text>
</g>
<!-- n77&#45;&gt;n86 -->
<g id="edge22" class="edge"><title>n77&#45;&gt;n86</title>
<path fill="none" stroke="blue" d="M308.467,-847.719C300.892,-835.3 289.827,-820.64 276,-812 234.649,-786.163 177.702,-779.347 140.868,-777.865"/>
<polygon fill="blue" stroke="blue" points="140.679,-774.358 130.582,-777.569 140.477,-781.355 140.679,-774.358"/>
<text text-anchor="middle" x="250" y="-823.6" font-family="Helvetica,sans-Serif" font-size="8.00">state:0</text>
<text text-anchor="middle" x="250" y="-814.6" font-family="Helvetica,sans-Serif" font-size="8.00">type:relatedTo</text>
</g>
<!-- n107 -->
<g id="node20" class="node"><title>n107</title>
<polygon fill="#cae1ff" stroke="black" points="155.5,-737.5 50.5,-737.5 50.5,-692.5 155.5,-692.5 155.5,-737.5"/>
<text text-anchor="middle" x="103" y="-722.1" font-family="Helvetica,sans-Serif" font-size="8.00">value:3840</text>
<text text-anchor="middle" x="103" y="-713.1" font-family="Helvetica,sans-Serif" font-size="8.00">name:RLIMIT_SIGPENDING</text>
<text text-anchor="middle" x="103" y="-704.1" font-family="Helvetica,sans-Serif" font-size="8.00">node_id:105</text>
<text text-anchor="middle" x="103" y="-695.1" font-family="Helvetica,sans-Serif" font-size="8.00">type:1</text>
</g>
<!-- n77&#45;&gt;n107 -->
<g id="edge17" class="edge"><title>n77&#45;&gt;n107</title>
<path fill="none" stroke="blue" d="M316.917,-847.379C312.341,-822.613 301.374,-783.445 276,-761 245.867,-734.345 201.915,-722.903 165.985,-718.095"/>
<polygon fill="blue" stroke="blue" points="165.944,-714.566 155.6,-716.857 165.115,-721.516 165.944,-714.566"/>
<text text-anchor="middle" x="250" y="-772.6" font-family="Helvetica,sans-Serif" font-size="8.00">state:0</text>
<text text-anchor="middle" x="250" y="-763.6" font-family="Helvetica,sans-Serif" font-size="8.00">type:relatedTo</text>
</g>
<!-- n94 -->
<g id="node21" class="node"><title>n94</title>
<polygon fill="#cae1ff" stroke="black" points="159,-674.5 47,-674.5 47,-629.5 159,-629.5 159,-674.5"/>
<text text-anchor="middle" x="103" y="-659.1" font-family="Helvetica,sans-Serif" font-size="8.00">value:18446744073709551615</text>
<text text-anchor="middle" x="103" y="-650.1" font-family="Helvetica,sans-Serif" font-size="8.00">name:RLIMIT_DATA</text>
<text text-anchor="middle" x="103" y="-641.1" font-family="Helvetica,sans-Serif" font-size="8.00">node_id:92</text>
<text text-anchor="middle" x="103" y="-632.1" font-family="Helvetica,sans-Serif" font-size="8.00">type:1</text>
</g>
<!-- n77&#45;&gt;n94 -->
<g id="edge26" class="edge"><title>n77&#45;&gt;n94</title>
<path fill="none" stroke="blue" d="M320.703,-847.623C320.561,-811.903 314.91,-741.965 276,-702 248.24,-673.487 205.254,-660.986 169.201,-655.614"/>
<polygon fill="blue" stroke="blue" points="169.611,-652.138 159.235,-654.28 168.682,-659.076 169.611,-652.138"/>
<text text-anchor="middle" x="250" y="-713.6" font-family="Helvetica,sans-Serif" font-size="8.00">state:0</text>
<text text-anchor="middle" x="250" y="-704.6" font-family="Helvetica,sans-Serif" font-size="8.00">type:relatedTo</text>
</g>
<!-- n102 -->
<g id="node22" class="node"><title>n102</title>
<polygon fill="#cae1ff" stroke="black" points="145,-611.5 61,-611.5 61,-566.5 145,-566.5 145,-611.5"/>
<text text-anchor="middle" x="103" y="-596.1" font-family="Helvetica,sans-Serif" font-size="8.00">value:1024</text>
<text text-anchor="middle" x="103" y="-587.1" font-family="Helvetica,sans-Serif" font-size="8.00">name:RLIMIT_NOFILE</text>
<text text-anchor="middle" x="103" y="-578.1" font-family="Helvetica,sans-Serif" font-size="8.00">node_id:100</text>
<text text-anchor="middle" x="103" y="-569.1" font-family="Helvetica,sans-Serif" font-size="8.00">type:1</text>
</g>
<!-- n77&#45;&gt;n102 -->
<g id="edge16" class="edge"><title>n77&#45;&gt;n102</title>
<path fill="none" stroke="blue" d="M318.579,-847.402C314.887,-795.775 303.307,-671.298 276,-641 245.517,-607.177 193.882,-595.019 155.124,-590.816"/>
<polygon fill="blue" stroke="blue" points="155.35,-587.322 145.066,-589.87 154.694,-594.291 155.35,-587.322"/>
<text text-anchor="middle" x="250" y="-652.6" font-family="Helvetica,sans-Serif" font-size="8.00">state:0</text>
<text text-anchor="middle" x="250" y="-643.6" font-family="Helvetica,sans-Serif" font-size="8.00">type:relatedTo</text>
</g>
<!-- n104 -->
<g id="node23" class="node"><title>n104</title>
<polygon fill="#cae1ff" stroke="black" points="159,-548.5 47,-548.5 47,-503.5 159,-503.5 159,-548.5"/>
<text text-anchor="middle" x="103" y="-533.1" font-family="Helvetica,sans-Serif" font-size="8.00">value:18446744073709551615</text>
<text text-anchor="middle" x="103" y="-524.1" font-family="Helvetica,sans-Serif" font-size="8.00">name:RLIMIT_RSS</text>
<text text-anchor="middle" x="103" y="-515.1" font-family="Helvetica,sans-Serif" font-size="8.00">node_id:102</text>
<text text-anchor="middle" x="103" y="-506.1" font-family="Helvetica,sans-Serif" font-size="8.00">type:1</text>
</g>
<!-- n77&#45;&gt;n104 -->
<g id="edge33" class="edge"><title>n77&#45;&gt;n104</title>
<path fill="none" stroke="blue" d="M319.674,-847.575C318.325,-786.054 311.405,-616.513 276,-576 249.532,-545.715 205.905,-533.269 169.213,-528.366"/>
<polygon fill="blue" stroke="blue" points="169.407,-524.865 159.067,-527.175 168.591,-531.818 169.407,-524.865"/>
<text text-anchor="middle" x="250" y="-587.6" font-family="Helvetica,sans-Serif" font-size="8.00">state:0</text>
<text text-anchor="middle" x="250" y="-578.6" font-family="Helvetica,sans-Serif" font-size="8.00">type:relatedTo</text>
</g>
<!-- n83 -->
<g id="node26" class="node"><title>n83</title>
<polygon fill="#cae1ff" stroke="black" points="132,-485.5 74,-485.5 74,-440.5 132,-440.5 132,-485.5"/>
<text text-anchor="middle" x="103" y="-470.1" font-family="Helvetica,sans-Serif" font-size="8.00">value:</text>
<text text-anchor="middle" x="103" y="-461.1" font-family="Helvetica,sans-Serif" font-size="8.00">name:cmd_args</text>
<text text-anchor="middle" x="103" y="-452.1" font-family="Helvetica,sans-Serif" font-size="8.00">node_id:81</text>
<text text-anchor="middle" x="103" y="-443.1" font-family="Helvetica,sans-Serif" font-size="8.00">type:1</text>
</g>
<!-- n77&#45;&gt;n83 -->
<g id="edge15" class="edge"><title>n77&#45;&gt;n83</title>
<path fill="none" stroke="blue" d="M320.363,-847.381C321.026,-776.858 319.359,-562.672 276,-512 243.015,-473.452 182.065,-464.15 142.287,-462.464"/>
<polygon fill="blue" stroke="blue" points="142.26,-458.962 132.165,-462.18 142.063,-465.96 142.26,-458.962"/>
<text text-anchor="middle" x="250" y="-523.6" font-family="Helvetica,sans-Serif" font-size="8.00">state:0</text>
<text text-anchor="middle" x="250" y="-514.6" font-family="Helvetica,sans-Serif" font-size="8.00">type:relatedTo</text>
</g>
<!-- n100 -->
<g id="node27" class="node"><title>n100</title>
<polygon fill="#cae1ff" stroke="black" points="153.5,-422.5 52.5,-422.5 52.5,-377.5 153.5,-377.5 153.5,-422.5"/>
<text text-anchor="middle" x="103" y="-407.1" font-family="Helvetica,sans-Serif" font-size="8.00">value:819200</text>
<text text-anchor="middle" x="103" y="-398.1" font-family="Helvetica,sans-Serif" font-size="8.00">name:RLIMIT_MSGQUEUE</text>
<text text-anchor="middle" x="103" y="-389.1" font-family="Helvetica,sans-Serif" font-size="8.00">node_id:98</text>
<text text-anchor="middle" x="103" y="-380.1" font-family="Helvetica,sans-Serif" font-size="8.00">type:1</text>
</g>
<!-- n77&#45;&gt;n100 -->
<g id="edge9" class="edge"><title>n77&#45;&gt;n100</title>
<path fill="none" stroke="blue" d="M319.136,-847.694C315.731,-764.814 302.131,-477.782 276,-447 248.807,-414.967 202.095,-403.689 164.207,-400.164"/>
<polygon fill="blue" stroke="blue" points="164.017,-396.639 153.779,-399.364 163.482,-403.618 164.017,-396.639"/>
<text text-anchor="middle" x="250" y="-458.6" font-family="Helvetica,sans-Serif" font-size="8.00">state:0</text>
<text text-anchor="middle" x="250" y="-449.6" font-family="Helvetica,sans-Serif" font-size="8.00">type:relatedTo</text>
</g>
<!-- n95 -->
<g id="node28" class="node"><title>n95</title>
<polygon fill="#cae1ff" stroke="black" points="159,-359.5 47,-359.5 47,-314.5 159,-314.5 159,-359.5"/>
<text text-anchor="middle" x="103" y="-344.1" font-family="Helvetica,sans-Serif" font-size="8.00">value:18446744073709551615</text>
<text text-anchor="middle" x="103" y="-335.1" font-family="Helvetica,sans-Serif" font-size="8.00">name:RLIMIT_FSIZE</text>
<text text-anchor="middle" x="103" y="-326.1" font-family="Helvetica,sans-Serif" font-size="8.00">node_id:93</text>
<text text-anchor="middle" x="103" y="-317.1" font-family="Helvetica,sans-Serif" font-size="8.00">type:1</text>
</g>
<!-- n77&#45;&gt;n95 -->
<g id="edge5" class="edge"><title>n77&#45;&gt;n95</title>
<path fill="none" stroke="blue" d="M319.46,-847.501C317.076,-756.512 306.243,-418.921 276,-383 250.16,-352.308 206.307,-340.914 169.349,-337.139"/>
<polygon fill="blue" stroke="blue" points="169.391,-333.63 159.129,-336.266 168.795,-340.604 169.391,-333.63"/>
<text text-anchor="middle" x="250" y="-394.6" font-family="Helvetica,sans-Serif" font-size="8.00">state:0</text>
<text text-anchor="middle" x="250" y="-385.6" font-family="Helvetica,sans-Serif" font-size="8.00">type:relatedTo</text>
</g>
<!-- n93 -->
<g id="node31" class="node"><title>n93</title>
<polygon fill="#cae1ff" stroke="black" points="159,-296.5 47,-296.5 47,-251.5 159,-251.5 159,-296.5"/>
<text text-anchor="middle" x="103" y="-281.1" font-family="Helvetica,sans-Serif" font-size="8.00">value:18446744073709551615</text>
<text text-anchor="middle" x="103" y="-272.1" font-family="Helvetica,sans-Serif" font-size="8.00">name:RLIMIT_CPU</text>
<text text-anchor="middle" x="103" y="-263.1" font-family="Helvetica,sans-Serif" font-size="8.00">node_id:91</text>
<text text-anchor="middle" x="103" y="-254.1" font-family="Helvetica,sans-Serif" font-size="8.00">type:1</text>
</g>
<!-- n77&#45;&gt;n93 -->
<g id="edge24" class="edge"><title>n77&#45;&gt;n93</title>
<path fill="none" stroke="blue" d="M319.717,-847.601C318.28,-749.415 310.432,-360.104 276,-319 250.273,-288.288 206.419,-277.151 169.432,-273.635"/>
<polygon fill="blue" stroke="blue" points="169.445,-270.125 159.203,-272.835 168.9,-277.104 169.445,-270.125"/>
<text text-anchor="middle" x="250" y="-330.6" font-family="Helvetica,sans-Serif" font-size="8.00">state:0</text>
<text text-anchor="middle" x="250" y="-321.6" font-family="Helvetica,sans-Serif" font-size="8.00">type:relatedTo</text>
</g>
<!-- n84 -->
<g id="node33" class="node"><title>n84</title>
<polygon fill="#cae1ff" stroke="black" points="130,-233.5 76,-233.5 76,-188.5 130,-188.5 130,-233.5"/>
<text text-anchor="middle" x="103" y="-218.1" font-family="Helvetica,sans-Serif" font-size="8.00">value:root</text>
<text text-anchor="middle" x="103" y="-209.1" font-family="Helvetica,sans-Serif" font-size="8.00">name:uid</text>
<text text-anchor="middle" x="103" y="-200.1" font-family="Helvetica,sans-Serif" font-size="8.00">node_id:82</text>
<text text-anchor="middle" x="103" y="-191.1" font-family="Helvetica,sans-Serif" font-size="8.00">type:1</text>
</g>
<!-- n77&#45;&gt;n84 -->
<g id="edge21" class="edge"><title>n77&#45;&gt;n84</title>
<path fill="none" stroke="blue" d="M319.921,-847.514C319.348,-742.243 314.643,-301.263 276,-255 243.079,-215.587 180.155,-208.838 140.226,-208.931"/>
<polygon fill="blue" stroke="blue" points="140.05,-205.434 130.11,-209.102 140.168,-212.433 140.05,-205.434"/>
<text text-anchor="middle" x="250" y="-266.6" font-family="Helvetica,sans-Serif" font-size="8.00">state:0</text>
<text text-anchor="middle" x="250" y="-257.6" font-family="Helvetica,sans-Serif" font-size="8.00">type:relatedTo</text>
</g>
<!-- n108 -->
<g id="node34" class="node"><title>n108</title>
<polygon fill="#cae1ff" stroke="black" points="144,-170.5 62,-170.5 62,-125.5 144,-125.5 144,-170.5"/>
<text text-anchor="middle" x="103" y="-155.1" font-family="Helvetica,sans-Serif" font-size="8.00">value:8388608</text>
<text text-anchor="middle" x="103" y="-146.1" font-family="Helvetica,sans-Serif" font-size="8.00">name:RLIMIT_STACK</text>
<text text-anchor="middle" x="103" y="-137.1" font-family="Helvetica,sans-Serif" font-size="8.00">node_id:106</text>
<text text-anchor="middle" x="103" y="-128.1" font-family="Helvetica,sans-Serif" font-size="8.00">type:1</text>
</g>
<!-- n77&#45;&gt;n108 -->
<g id="edge36" class="edge"><title>n77&#45;&gt;n108</title>
<path fill="none" stroke="blue" d="M320.088,-847.447C320.322,-735.453 318.897,-242.421 276,-191 246.859,-156.068 194.039,-147.138 154.592,-145.83"/>
<polygon fill="blue" stroke="blue" points="154.425,-142.327 144.364,-145.649 154.301,-149.325 154.425,-142.327"/>
<text text-anchor="middle" x="250" y="-202.6" font-family="Helvetica,sans-Serif" font-size="8.00">state:0</text>
<text text-anchor="middle" x="250" y="-193.6" font-family="Helvetica,sans-Serif" font-size="8.00">type:relatedTo</text>
</g>
<!-- n88 -->
<g id="node36" class="node"><title>n88</title>
<polygon fill="#cae1ff" stroke="black" points="148,-107.5 58,-107.5 58,-62.5 148,-62.5 148,-107.5"/>
<text text-anchor="middle" x="103" y="-92.1" font-family="Helvetica,sans-Serif" font-size="8.00">value:3.13.0&#45;163&#45;generic</text>
<text text-anchor="middle" x="103" y="-83.1" font-family="Helvetica,sans-Serif" font-size="8.00">name:release</text>
<text text-anchor="middle" x="103" y="-74.1" font-family="Helvetica,sans-Serif" font-size="8.00">node_id:86</text>
<text text-anchor="middle" x="103" y="-65.1" font-family="Helvetica,sans-Serif" font-size="8.00">type:1</text>
</g>
<!-- n77&#45;&gt;n88 -->
<g id="edge19" class="edge"><title>n77&#45;&gt;n88</title>
<path fill="none" stroke="blue" d="M320.226,-847.697C321.218,-729.926 323.232,-183.622 276,-127 247.804,-93.1978 197.331,-84.0702 158.328,-82.5891"/>
<polygon fill="blue" stroke="blue" points="158.246,-79.0865 148.171,-82.3631 158.09,-86.0848 158.246,-79.0865"/>
<text text-anchor="middle" x="250" y="-138.6" font-family="Helvetica,sans-Serif" font-size="8.00">state:0</text>
<text text-anchor="middle" x="250" y="-129.6" font-family="Helvetica,sans-Serif" font-size="8.00">type:relatedTo</text>
</g>
<!-- n89 -->
<g id="node37" class="node"><title>n89</title>
<polygon fill="#cae1ff" stroke="black" points="206,-44.5 0,-44.5 0,0.5 206,0.5 206,-44.5"/>
<text text-anchor="middle" x="103" y="-29.1" font-family="Helvetica,sans-Serif" font-size="8.00">value:#213&#45;Ubuntu SMP Thu Nov 15 02:19:07 UTC 2018</text>
<text text-anchor="middle" x="103" y="-20.1" font-family="Helvetica,sans-Serif" font-size="8.00">name:version</text>
<text text-anchor="middle" x="103" y="-11.1" font-family="Helvetica,sans-Serif" font-size="8.00">node_id:87</text>
<text text-anchor="middle" x="103" y="-2.1" font-family="Helvetica,sans-Serif" font-size="8.00">type:1</text>
</g>
<!-- n77&#45;&gt;n89 -->
<g id="edge27" class="edge"><title>n77&#45;&gt;n89</title>
<path fill="none" stroke="blue" d="M319.527,-847.706C316.744,-720.892 301.737,-94.9985 276,-64 260.795,-45.6862 239.051,-34.6089 216.114,-28.0658"/>
<polygon fill="blue" stroke="blue" points="216.783,-24.6242 206.227,-25.5314 215.045,-31.4049 216.783,-24.6242"/>
<text text-anchor="middle" x="250" y="-75.6" font-family="Helvetica,sans-Serif" font-size="8.00">state:0</text>
<text text-anchor="middle" x="250" y="-66.6" font-family="Helvetica,sans-Serif" font-size="8.00">type:relatedTo</text>
</g>
<!-- n109 -->
<g id="node24" class="node"><title>n109</title>
<polygon fill="#cae1ff" stroke="black" points="490,-951 436,-951 436,-915 490,-915 490,-951"/>
<text text-anchor="middle" x="463" y="-935.6" font-family="Helvetica,sans-Serif" font-size="8.00">name:2</text>
<text text-anchor="middle" x="463" y="-926.6" font-family="Helvetica,sans-Serif" font-size="8.00">node_id:107</text>
<text text-anchor="middle" x="463" y="-917.6" font-family="Helvetica,sans-Serif" font-size="8.00">type:4</text>
</g>
<!-- n109&#45;&gt;n77 -->
<g id="edge32" class="edge"><title>n109&#45;&gt;n77</title>
<path fill="none" stroke="blue" d="M435.995,-921.298C413.935,-911.371 382.073,-897.033 357.638,-886.037"/>
<polygon fill="blue" stroke="blue" points="358.896,-882.765 348.341,-881.853 356.024,-889.149 358.896,-882.765"/>
<text text-anchor="middle" x="392" y="-924.6" font-family="Helvetica,sans-Serif" font-size="8.00">state:0</text>
<text text-anchor="middle" x="392" y="-915.6" font-family="Helvetica,sans-Serif" font-size="8.00">type:relatedTo</text>
</g>
<!-- n81 -->
<g id="node25" class="node"><title>n81</title>
<polygon fill="#cae1ff" stroke="black" points="683,-864.5 629,-864.5 629,-819.5 683,-819.5 683,-864.5"/>
<text text-anchor="middle" x="656" y="-849.1" font-family="Helvetica,sans-Serif" font-size="8.00">name:omega</text>
<text text-anchor="middle" x="656" y="-840.1" font-family="Helvetica,sans-Serif" font-size="8.00">ref_count:0</text>
<text text-anchor="middle" x="656" y="-831.1" font-family="Helvetica,sans-Serif" font-size="8.00">node_id:79</text>
<text text-anchor="middle" x="656" y="-822.1" font-family="Helvetica,sans-Serif" font-size="8.00">type:4</text>
</g>
<!-- n81&#45;&gt;n77 -->
<g id="edge14" class="edge"><title>n81&#45;&gt;n77</title>
<path fill="none" stroke="blue" d="M628.867,-846.481C609.827,-849.591 583.383,-853.594 560,-856 488.761,-863.33 405.1,-867.147 358.351,-868.851"/>
<polygon fill="blue" stroke="blue" points="357.992,-865.362 348.121,-869.212 358.238,-872.357 357.992,-865.362"/>
<text text-anchor="middle" x="463" y="-877.6" font-family="Helvetica,sans-Serif" font-size="8.00">state:5</text>
<text text-anchor="middle" x="463" y="-868.6" font-family="Helvetica,sans-Serif" font-size="8.00">type:relatedTo</text>
</g>
<!-- n81&#45;&gt;n78 -->
<g id="edge11" class="edge"><title>n81&#45;&gt;n78</title>
<path fill="none" stroke="blue" d="M628.843,-837.755C595.503,-832.343 537.701,-822.962 500.161,-816.869"/>
<polygon fill="blue" stroke="blue" points="500.579,-813.391 490.147,-815.244 499.457,-820.301 500.579,-813.391"/>
<text text-anchor="middle" x="534" y="-838.6" font-family="Helvetica,sans-Serif" font-size="8.00">state:0</text>
<text text-anchor="middle" x="534" y="-829.6" font-family="Helvetica,sans-Serif" font-size="8.00">type:relatedTo</text>
</g>
<!-- n111 -->
<g id="node29" class="node"><title>n111</title>
<polygon fill="#cae1ff" stroke="black" points="490,-692 436,-692 436,-656 490,-656 490,-692"/>
<text text-anchor="middle" x="463" y="-676.6" font-family="Helvetica,sans-Serif" font-size="8.00">name:0</text>
<text text-anchor="middle" x="463" y="-667.6" font-family="Helvetica,sans-Serif" font-size="8.00">node_id:109</text>
<text text-anchor="middle" x="463" y="-658.6" font-family="Helvetica,sans-Serif" font-size="8.00">type:4</text>
</g>
<!-- n111&#45;&gt;n77 -->
<g id="edge3" class="edge"><title>n111&#45;&gt;n77</title>
<path fill="none" stroke="blue" d="M444.212,-692.146C441.431,-695.076 438.614,-698.1 436,-701 403.691,-736.844 392.718,-743.815 366,-784 354.589,-801.162 343.995,-821.663 336.063,-838.344"/>
<polygon fill="blue" stroke="blue" points="332.768,-837.127 331.714,-847.67 339.112,-840.086 332.768,-837.127"/>
<text text-anchor="middle" x="392" y="-795.6" font-family="Helvetica,sans-Serif" font-size="8.00">state:0</text>
<text text-anchor="middle" x="392" y="-786.6" font-family="Helvetica,sans-Serif" font-size="8.00">type:relatedTo</text>
</g>
<!-- n78&#45;&gt;n77 -->
<g id="edge13" class="edge"><title>n78&#45;&gt;n77</title>
<path fill="none" stroke="blue" d="M435.885,-811.965C415.83,-813.612 387.947,-817.914 366,-829 359.864,-832.1 353.973,-836.317 348.608,-840.872"/>
<polygon fill="blue" stroke="blue" points="346.166,-838.362 341.155,-847.697 350.894,-843.524 346.166,-838.362"/>
<text text-anchor="middle" x="392" y="-840.6" font-family="Helvetica,sans-Serif" font-size="8.00">state:10</text>
<text text-anchor="middle" x="392" y="-831.6" font-family="Helvetica,sans-Serif" font-size="8.00">type:relatedTo</text>
</g>
<!-- n80 -->
<g id="node32" class="node"><title>n80</title>
<polygon fill="#cae1ff" stroke="black" points="978,-781 822,-781 822,-745 978,-745 978,-781"/>
<text text-anchor="middle" x="900" y="-765.6" font-family="Helvetica,sans-Serif" font-size="8.00">name:[&#39;/home/vagrant/ProvMark/stage/test&#39;]</text>
<text text-anchor="middle" x="900" y="-756.6" font-family="Helvetica,sans-Serif" font-size="8.00">node_id:78</text>
<text text-anchor="middle" x="900" y="-747.6" font-family="Helvetica,sans-Serif" font-size="8.00">type:2</text>
</g>
<!-- n80&#45;&gt;n79 -->
<g id="edge35" class="edge"><title>n80&#45;&gt;n79</title>
<path fill="none" stroke="blue" d="M821.764,-763C797.206,-763 769.868,-763 744.631,-763"/>
<polygon fill="blue" stroke="blue" points="744.332,-759.5 734.332,-763 744.332,-766.5 744.332,-759.5"/>
<text text-anchor="middle" x="778" y="-774.6" font-family="Helvetica,sans-Serif" font-size="8.00">state:0</text>
<text text-anchor="middle" x="778" y="-765.6" font-family="Helvetica,sans-Serif" font-size="8.00">type:relatedTo</text>
</g>
</g>
</svg>
