<?xml version="1.0" encoding="UTF-8" standalone="no"?>
<!DOCTYPE svg PUBLIC "-//W3C//DTD SVG 1.1//EN"
 "http://www.w3.org/Graphics/SVG/1.1/DTD/svg11.dtd">
<!-- Generated by graphviz version 2.30.1 (20180413.0232)
 -->
<!-- Title: clingo2dot Pages: 1 -->
<svg width="354pt" height="152pt"
 viewBox="0.00 0.00 354.00 152.00" xmlns="http://www.w3.org/2000/svg" xmlns:xlink="http://www.w3.org/1999/xlink">
<g id="graph0" class="graph" transform="scale(1 1) rotate(0) translate(4 148)">
<title>clingo2dot</title>
<polygon fill="white" stroke="white" points="-4,5 -4,-148 351,-148 351,5 -4,5"/>
<!-- n8 -->
<g id="node1" class="node"><title>n8</title>
<polygon fill="#cae1ff" stroke="black" points="346,-90 168,-90 168,-0 346,-0 346,-90"/>
<text text-anchor="middle" x="257" y="-74.6" font-family="Helvetica,sans-Serif" font-size="8.00">egid:0</text>
<text text-anchor="middle" x="257" y="-65.6" font-family="Helvetica,sans-Serif" font-size="8.00">command line:/home/vagrant/ProvMark/stage/test</text>
<text text-anchor="middle" x="257" y="-56.6" font-family="Helvetica,sans-Serif" font-size="8.00">uid:0</text>
<text text-anchor="middle" x="257" y="-47.6" font-family="Helvetica,sans-Serif" font-size="8.00">gid:0</text>
<text text-anchor="middle" x="257" y="-38.6" font-family="Helvetica,sans-Serif" font-size="8.00">cwd:/home/vagrant/ProvMark/stage</text>
<text text-anchor="middle" x="257" y="-29.6" font-family="Helvetica,sans-Serif" font-size="8.00">euid:1000</text>
<text text-anchor="middle" x="257" y="-20.6" font-family="Helvetica,sans-Serif" font-size="8.00">name:test</text>
<text text-anchor="middle" x="257" y="-11.6" font-family="Helvetica,sans-Serif" font-size="8.00">source:syscall</text>
<text text-anchor="middle" x="257" y="-2.6" font-family="Helvetica,sans-Serif" font-size="8.00">type:Process</text>
</g>
<!-- n8&#45;&gt;n8 -->
<g id="edge1" class="edge"><title>n8&#45;&gt;n8</title>
<path fill="none" stroke="blue" d="M283.772,-90.0205C281.465,-100.386 272.541,-108 257,-108 246.558,-108 239.104,-104.563 234.636,-99.1634"/>
<polygon fill="blue" stroke="blue" points="237.724,-97.5082 230.228,-90.0205 231.418,-100.548 237.724,-97.5082"/>
<text text-anchor="middle" x="257" y="-128.6" font-family="Helvetica,sans-Serif" font-size="8.00">operation:exit</text>
<text text-anchor="middle" x="257" y="-119.6" font-family="Helvetica,sans-Serif" font-size="8.00">source:syscall</text>
<text text-anchor="middle" x="257" y="-110.6" font-family="Helvetica,sans-Serif" font-size="8.00">type:WasTriggeredBy</text>
</g>
<!-- n5 -->
<g id="node2" class="node"><title>n5</title>
<polygon fill="#cae1ff" stroke="black" points="54,-63 0,-63 0,-27 54,-27 54,-63"/>
<text text-anchor="middle" x="27" y="-43.1" font-family="Helvetica,sans-Serif" font-size="8.00">ppid:30307</text>
<text text-anchor="middle" x="27" y="-34.1" font-family="Helvetica,sans-Serif" font-size="8.00">type:Process</text>
</g>
<!-- n8&#45;&gt;n5 -->
<g id="edge2" class="edge"><title>n8&#45;&gt;n5</title>
<path fill="none" stroke="blue" d="M167.849,-45C131.737,-45 91.9711,-45 64.1055,-45"/>
<polygon fill="blue" stroke="blue" points="64.0408,-41.5001 54.0408,-45 64.0408,-48.5001 64.0408,-41.5001"/>
<text text-anchor="middle" x="111" y="-65.6" font-family="Helvetica,sans-Serif" font-size="8.00">operation:clone</text>
<text text-anchor="middle" x="111" y="-56.6" font-family="Helvetica,sans-Serif" font-size="8.00">source:syscall</text>
<text text-anchor="middle" x="111" y="-47.6" font-family="Helvetica,sans-Serif" font-size="8.00">type:WasTriggeredBy</text>
</g>
</g>
</svg>
