<?xml version="1.0" encoding="UTF-8" standalone="no"?>
<!DOCTYPE svg PUBLIC "-//W3C//DTD SVG 1.1//EN"
 "http://www.w3.org/Graphics/SVG/1.1/DTD/svg11.dtd">
<!-- Generated by graphviz version 2.30.1 (20180413.0232)
 -->
<!-- Title: clingo2dot Pages: 1 -->
<svg width="606pt" height="195pt"
 viewBox="0.00 0.00 606.00 195.00" xmlns="http://www.w3.org/2000/svg" xmlns:xlink="http://www.w3.org/1999/xlink">
<g id="graph0" class="graph" transform="scale(1 1) rotate(0) translate(4 191)">
<title>clingo2dot</title>
<polygon fill="white" stroke="white" points="-4,5 -4,-191 603,-191 603,5 -4,5"/>
<!-- n7 -->
<g id="node1" class="node"><title>n7</title>
<ellipse fill="#fff68f" stroke="black" cx="281" cy="-50" rx="108.789" ry="50.8235"/>
<text text-anchor="middle" x="281" y="-70.6" font-family="Helvetica,sans-Serif" font-size="8.00">permissions:0600</text>
<text text-anchor="middle" x="281" y="-61.6" font-family="Helvetica,sans-Serif" font-size="8.00">source:syscall</text>
<text text-anchor="middle" x="281" y="-52.6" font-family="Helvetica,sans-Serif" font-size="8.00">epoch:0</text>
<text text-anchor="middle" x="281" y="-43.6" font-family="Helvetica,sans-Serif" font-size="8.00">version:0</text>
<text text-anchor="middle" x="281" y="-34.6" font-family="Helvetica,sans-Serif" font-size="8.00">path:/home/vagrant/ProvMark/stage/test.txt</text>
<text text-anchor="middle" x="281" y="-25.6" font-family="Helvetica,sans-Serif" font-size="8.00">subtype:file</text>
<text text-anchor="middle" x="281" y="-16.6" font-family="Helvetica,sans-Serif" font-size="8.00">type:Artifact</text>
</g>
<!-- n5 -->
<g id="node3" class="node"><title>n5</title>
<polygon fill="#cae1ff" stroke="black" points="54,-118 0,-118 0,-82 54,-82 54,-118"/>
<text text-anchor="middle" x="27" y="-98.1" font-family="Helvetica,sans-Serif" font-size="8.00">ppid:10889</text>
<text text-anchor="middle" x="27" y="-89.1" font-family="Helvetica,sans-Serif" font-size="8.00">type:Process</text>
</g>
<!-- n7&#45;&gt;n5 -->
<g id="edge2" class="edge"><title>n7&#45;&gt;n5</title>
<path fill="none" stroke="blue" d="M173.261,-57.5366C140.301,-61.674 104.211,-68.0807 72,-78 69.2452,-78.8483 66.4521,-79.8553 63.6785,-80.9645"/>
<polygon fill="blue" stroke="blue" points="62.1498,-77.8132 54.4084,-85.0466 64.9709,-84.2196 62.1498,-77.8132"/>
<text text-anchor="middle" x="113" y="-107.6" font-family="Helvetica,sans-Serif" font-size="8.00">flags:O_RDWR</text>
<text text-anchor="middle" x="113" y="-98.6" font-family="Helvetica,sans-Serif" font-size="8.00">operation:open</text>
<text text-anchor="middle" x="113" y="-89.6" font-family="Helvetica,sans-Serif" font-size="8.00">source:syscall</text>
<text text-anchor="middle" x="113" y="-80.6" font-family="Helvetica,sans-Serif" font-size="8.00">type:WasGeneratedBy</text>
</g>
<!-- n8 -->
<g id="node2" class="node"><title>n8</title>
<ellipse fill="#fff68f" stroke="black" cx="553" cy="-102" rx="44.5955" ry="25.4118"/>
<text text-anchor="middle" x="553" y="-104.6" font-family="Helvetica,sans-Serif" font-size="8.00">version:1</text>
<text text-anchor="middle" x="553" y="-95.6" font-family="Helvetica,sans-Serif" font-size="8.00">permissions:0644</text>
<text text-anchor="middle" x="553" y="-86.6" font-family="Helvetica,sans-Serif" font-size="8.00">type:Artifact</text>
</g>
<!-- n8&#45;&gt;n5 -->
<g id="edge1" class="edge"><title>n8&#45;&gt;n5</title>
<path fill="none" stroke="blue" d="M516.117,-116.357C507.684,-119.111 498.634,-121.577 490,-123 306.693,-153.201 252.416,-167.31 72,-123 69.1748,-122.306 66.3299,-121.395 63.5194,-120.337"/>
<polygon fill="blue" stroke="blue" points="64.7417,-117.052 54.1757,-116.271 61.9486,-123.471 64.7417,-117.052"/>
<text text-anchor="middle" x="281" y="-171.6" font-family="Helvetica,sans-Serif" font-size="8.00">operation:chmod</text>
<text text-anchor="middle" x="281" y="-162.6" font-family="Helvetica,sans-Serif" font-size="8.00">mode:0644</text>
<text text-anchor="middle" x="281" y="-153.6" font-family="Helvetica,sans-Serif" font-size="8.00">type:WasGeneratedBy</text>
</g>
<!-- n8&#45;&gt;n7 -->
<g id="edge3" class="edge"><title>n8&#45;&gt;n7</title>
<path fill="none" stroke="blue" d="M512.059,-91.9559C504.739,-90.2238 497.154,-88.5001 490,-87 458.904,-80.4791 425.036,-74.1347 393.833,-68.5941"/>
<polygon fill="blue" stroke="blue" points="394.259,-65.1152 383.803,-66.8242 393.043,-72.0087 394.259,-65.1152"/>
<text text-anchor="middle" x="449" y="-107.6" font-family="Helvetica,sans-Serif" font-size="8.00">operation:update</text>
<text text-anchor="middle" x="449" y="-98.6" font-family="Helvetica,sans-Serif" font-size="8.00">source:syscall</text>
<text text-anchor="middle" x="449" y="-89.6" font-family="Helvetica,sans-Serif" font-size="8.00">type:WasDerivedFrom</text>
</g>
</g>
</svg>
