<?xml version="1.0" encoding="UTF-8" standalone="no"?>
<!DOCTYPE svg PUBLIC "-//W3C//DTD SVG 1.1//EN"
 "http://www.w3.org/Graphics/SVG/1.1/DTD/svg11.dtd">
<!-- Generated by graphviz version 2.30.1 (20180413.0232)
 -->
<!-- Title: clingo2dot Pages: 1 -->
<svg width="398pt" height="108pt"
 viewBox="0.00 0.00 398.00 108.00" xmlns="http://www.w3.org/2000/svg" xmlns:xlink="http://www.w3.org/1999/xlink">
<g id="graph0" class="graph" transform="scale(1 1) rotate(0) translate(4 104)">
<title>clingo2dot</title>
<polygon fill="white" stroke="white" points="-4,5 -4,-104 395,-104 395,5 -4,5"/>
<!-- n5 -->
<g id="node1" class="node"><title>n5</title>
<polygon fill="#cae1ff" stroke="black" points="54,-68 0,-68 0,-32 54,-32 54,-68"/>
<text text-anchor="middle" x="27" y="-48.1" font-family="Helvetica,sans-Serif" font-size="8.00">ppid:16780</text>
<text text-anchor="middle" x="27" y="-39.1" font-family="Helvetica,sans-Serif" font-size="8.00">type:Process</text>
</g>
<!-- n7 -->
<g id="node2" class="node"><title>n7</title>
<ellipse fill="#fff68f" stroke="black" cx="281" cy="-50" rx="108.789" ry="50.8235"/>
<text text-anchor="middle" x="281" y="-70.6" font-family="Helvetica,sans-Serif" font-size="8.00">epoch:0</text>
<text text-anchor="middle" x="281" y="-61.6" font-family="Helvetica,sans-Serif" font-size="8.00">permissions:0644</text>
<text text-anchor="middle" x="281" y="-52.6" font-family="Helvetica,sans-Serif" font-size="8.00">source:syscall</text>
<text text-anchor="middle" x="281" y="-43.6" font-family="Helvetica,sans-Serif" font-size="8.00">subtype:file</text>
<text text-anchor="middle" x="281" y="-34.6" font-family="Helvetica,sans-Serif" font-size="8.00">version:0</text>
<text text-anchor="middle" x="281" y="-25.6" font-family="Helvetica,sans-Serif" font-size="8.00">path:/home/vagrant/ProvMark/stage/test.txt</text>
<text text-anchor="middle" x="281" y="-16.6" font-family="Helvetica,sans-Serif" font-size="8.00">type:Artifact</text>
</g>
<!-- n7&#45;&gt;n5 -->
<g id="edge1" class="edge"><title>n7&#45;&gt;n5</title>
<path fill="none" stroke="blue" d="M172.033,-50C133.535,-50 92.7437,-50 64.4374,-50"/>
<polygon fill="blue" stroke="blue" points="64.2308,-46.5001 54.2308,-50 64.2308,-53.5001 64.2308,-46.5001"/>
<text text-anchor="middle" x="113" y="-79.6" font-family="Helvetica,sans-Serif" font-size="8.00">flags:O_RDWR</text>
<text text-anchor="middle" x="113" y="-70.6" font-family="Helvetica,sans-Serif" font-size="8.00">operation:open</text>
<text text-anchor="middle" x="113" y="-61.6" font-family="Helvetica,sans-Serif" font-size="8.00">source:syscall</text>
<text text-anchor="middle" x="113" y="-52.6" font-family="Helvetica,sans-Serif" font-size="8.00">type:WasGeneratedBy</text>
</g>
</g>
</svg>
