<?xml version="1.0" encoding="UTF-8" standalone="no"?>
<!DOCTYPE svg PUBLIC "-//W3C//DTD SVG 1.1//EN"
 "http://www.w3.org/Graphics/SVG/1.1/DTD/svg11.dtd">
<!-- Generated by graphviz version 2.30.1 (20180413.0232)
 -->
<!-- Title: clingo2dot Pages: 1 -->
<svg width="206pt" height="80pt"
 viewBox="0.00 0.00 206.00 80.00" xmlns="http://www.w3.org/2000/svg" xmlns:xlink="http://www.w3.org/1999/xlink">
<g id="graph0" class="graph" transform="scale(1 1) rotate(0) translate(4 76)">
<title>clingo2dot</title>
<polygon fill="white" stroke="white" points="-4,5 -4,-76 203,-76 203,5 -4,5"/>
<!-- n7 -->
<g id="node1" class="node"><title>n7</title>
<ellipse fill="green" stroke="black" cx="27" cy="-18" rx="27" ry="18"/>
<text text-anchor="middle" x="27" y="-16.1" font-family="Helvetica,sans-Serif" font-size="8.00">Dummy Node</text>
</g>
<!-- n5 -->
<g id="node2" class="node"><title>n5</title>
<polygon fill="#cae1ff" stroke="black" points="198,-36 144,-36 144,-0 198,-0 198,-36"/>
<text text-anchor="middle" x="171" y="-16.1" font-family="Helvetica,sans-Serif" font-size="8.00">ppid:24913</text>
<text text-anchor="middle" x="171" y="-7.1" font-family="Helvetica,sans-Serif" font-size="8.00">type:Process</text>
</g>
<!-- n5&#45;&gt;n7 -->
<g id="edge1" class="edge"><title>n5&#45;&gt;n7</title>
<path fill="none" stroke="blue" d="M143.955,-18C121.676,-18 89.366,-18 64.5073,-18"/>
<polygon fill="blue" stroke="blue" points="64.3608,-14.5001 54.3608,-18 64.3607,-21.5001 64.3608,-14.5001"/>
<text text-anchor="middle" x="99" y="-56.6" font-family="Helvetica,sans-Serif" font-size="8.00">source:syscall</text>
<text text-anchor="middle" x="99" y="-47.6" font-family="Helvetica,sans-Serif" font-size="8.00">size:1</text>
<text text-anchor="middle" x="99" y="-38.6" font-family="Helvetica,sans-Serif" font-size="8.00">offset:1</text>
<text text-anchor="middle" x="99" y="-29.6" font-family="Helvetica,sans-Serif" font-size="8.00">operation:read</text>
<text text-anchor="middle" x="99" y="-20.6" font-family="Helvetica,sans-Serif" font-size="8.00">type:Used</text>
</g>
</g>
</svg>
