<?xml version="1.0" encoding="UTF-8" standalone="no"?>
<!DOCTYPE svg PUBLIC "-//W3C//DTD SVG 1.1//EN"
 "http://www.w3.org/Graphics/SVG/1.1/DTD/svg11.dtd">
<!-- Generated by graphviz version 2.36.0 (20140111.2315)
 -->
<!-- Title: clingo2dot Pages: 1 -->
<svg width="578pt" height="204pt"
 viewBox="0.00 0.00 578.00 204.00" xmlns="http://www.w3.org/2000/svg" xmlns:xlink="http://www.w3.org/1999/xlink">
<g id="graph0" class="graph" transform="scale(1 1) rotate(0) translate(4 200)">
<title>clingo2dot</title>
<polygon fill="white" stroke="none" points="-4,4 -4,-200 574,-200 574,4 -4,4"/>
<!-- n18 -->
<g id="node1" class="node"><title>n18</title>
<ellipse fill="green" stroke="black" cx="27" cy="-106" rx="27" ry="18"/>
<text text-anchor="middle" x="27" y="-104.1" font-family="Helvetica,sans-Serif" font-size="8.00">Dummy Node</text>
</g>
<!-- n20 -->
<g id="node2" class="node"><title>n20</title>
<ellipse fill="#fff68f" stroke="black" cx="281" cy="-50" rx="108.789" ry="50.8235"/>
<text text-anchor="middle" x="281" y="-70.6" font-family="Helvetica,sans-Serif" font-size="8.00">epoch:0</text>
<text text-anchor="middle" x="281" y="-61.6" font-family="Helvetica,sans-Serif" font-size="8.00">permissions:0644</text>
<text text-anchor="middle" x="281" y="-52.6" font-family="Helvetica,sans-Serif" font-size="8.00">source:syscall</text>
<text text-anchor="middle" x="281" y="-43.6" font-family="Helvetica,sans-Serif" font-size="8.00">subtype:file</text>
<text text-anchor="middle" x="281" y="-34.6" font-family="Helvetica,sans-Serif" font-size="8.00">path:/home/vagrant/ProvMark/stage/test.txt</text>
<text text-anchor="middle" x="281" y="-25.6" font-family="Helvetica,sans-Serif" font-size="8.00">version:0</text>
<text text-anchor="middle" x="281" y="-16.6" font-family="Helvetica,sans-Serif" font-size="8.00">type:Artifact</text>
</g>
<!-- n20&#45;&gt;n18 -->
<g id="edge1" class="edge"><title>n20&#45;&gt;n18</title>
<path fill="none" stroke="blue" d="M172.583,-55.522C139.594,-59.5711 103.658,-66.4344 72,-78 65.8607,-80.2429 59.6851,-83.4473 53.9819,-86.8926"/>
<polygon fill="blue" stroke="blue" points="51.97,-84.0256 45.4816,-92.4013 55.7769,-89.8999 51.97,-84.0256"/>
<text text-anchor="middle" x="113" y="-107.6" font-family="Helvetica,sans-Serif" font-size="8.00">flags:O_RDWR</text>
<text text-anchor="middle" x="113" y="-98.6" font-family="Helvetica,sans-Serif" font-size="8.00">source:syscall</text>
<text text-anchor="middle" x="113" y="-89.6" font-family="Helvetica,sans-Serif" font-size="8.00">operation:open</text>
<text text-anchor="middle" x="113" y="-80.6" font-family="Helvetica,sans-Serif" font-size="8.00">type:WasGeneratedBy</text>
</g>
<!-- n21 -->
<g id="node3" class="node"><title>n21</title>
<ellipse fill="#fff68f" stroke="black" cx="539" cy="-102" rx="30.3115" ry="19.1842"/>
<text text-anchor="middle" x="539" y="-100.1" font-family="Helvetica,sans-Serif" font-size="8.00">version:1</text>
<text text-anchor="middle" x="539" y="-91.1" font-family="Helvetica,sans-Serif" font-size="8.00">type:Artifact</text>
</g>
<!-- n21&#45;&gt;n18 -->
<g id="edge3" class="edge"><title>n21&#45;&gt;n18</title>
<path fill="none" stroke="blue" d="M515.204,-114.26C507.434,-117.812 498.547,-121.212 490,-123 308.158,-161.037 254.63,-157.054 72,-123 67.7433,-122.206 63.368,-121.015 59.1046,-119.625"/>
<polygon fill="blue" stroke="blue" points="60.0622,-116.249 49.4683,-116.112 57.6647,-122.825 60.0622,-116.249"/>
<text text-anchor="middle" x="281" y="-180.6" font-family="Helvetica,sans-Serif" font-size="8.00">size:1</text>
<text text-anchor="middle" x="281" y="-171.6" font-family="Helvetica,sans-Serif" font-size="8.00">operation:write</text>
<text text-anchor="middle" x="281" y="-162.6" font-family="Helvetica,sans-Serif" font-size="8.00">offset:2</text>
<text text-anchor="middle" x="281" y="-153.6" font-family="Helvetica,sans-Serif" font-size="8.00">type:WasGeneratedBy</text>
</g>
<!-- n21&#45;&gt;n20 -->
<g id="edge2" class="edge"><title>n21&#45;&gt;n20</title>
<path fill="none" stroke="blue" d="M512.011,-93.2189C504.923,-91.0051 497.209,-88.7602 490,-87 459.295,-79.5034 425.693,-72.8613 394.624,-67.3478"/>
<polygon fill="blue" stroke="blue" points="395.086,-63.8756 384.632,-65.5977 393.878,-70.7706 395.086,-63.8756"/>
<text text-anchor="middle" x="449" y="-107.6" font-family="Helvetica,sans-Serif" font-size="8.00">source:syscall</text>
<text text-anchor="middle" x="449" y="-98.6" font-family="Helvetica,sans-Serif" font-size="8.00">operation:update</text>
<text text-anchor="middle" x="449" y="-89.6" font-family="Helvetica,sans-Serif" font-size="8.00">type:WasDerivedFrom</text>
</g>
</g>
</svg>
