<?xml version="1.0" encoding="UTF-8" standalone="no"?>
<!DOCTYPE svg PUBLIC "-//W3C//DTD SVG 1.1//EN"
 "http://www.w3.org/Graphics/SVG/1.1/DTD/svg11.dtd">
<!-- Generated by graphviz version 2.30.1 (20180413.0232)
 -->
<!-- Title: clingo2dot Pages: 1 -->
<svg width="832pt" height="130pt"
 viewBox="0.00 0.00 832.00 130.00" xmlns="http://www.w3.org/2000/svg" xmlns:xlink="http://www.w3.org/1999/xlink">
<g id="graph0" class="graph" transform="scale(1 1) rotate(0) translate(4 126)">
<title>clingo2dot</title>
<polygon fill="white" stroke="white" points="-4,5 -4,-126 829,-126 829,5 -4,5"/>
<!-- n9 -->
<g id="node1" class="node"><title>n9</title>
<ellipse fill="#fff68f" stroke="black" cx="688" cy="-50" rx="135.529" ry="50.8235"/>
<text text-anchor="middle" x="688" y="-70.6" font-family="Helvetica,sans-Serif" font-size="8.00">permissions:0644</text>
<text text-anchor="middle" x="688" y="-61.6" font-family="Helvetica,sans-Serif" font-size="8.00">source:syscall</text>
<text text-anchor="middle" x="688" y="-52.6" font-family="Helvetica,sans-Serif" font-size="8.00">subtype:file</text>
<text text-anchor="middle" x="688" y="-43.6" font-family="Helvetica,sans-Serif" font-size="8.00">version:0</text>
<text text-anchor="middle" x="688" y="-34.6" font-family="Helvetica,sans-Serif" font-size="8.00">epoch:0</text>
<text text-anchor="middle" x="688" y="-25.6" font-family="Helvetica,sans-Serif" font-size="8.00">path:/home/vagrant/ProvMark/stage/renameat&#45;test.txt</text>
<text text-anchor="middle" x="688" y="-16.6" font-family="Helvetica,sans-Serif" font-size="8.00">type:Artifact</text>
</g>
<!-- n5 -->
<g id="node2" class="node"><title>n5</title>
<polygon fill="#cae1ff" stroke="black" points="412,-114 358,-114 358,-78 412,-78 412,-114"/>
<text text-anchor="middle" x="385" y="-94.1" font-family="Helvetica,sans-Serif" font-size="8.00">ppid:29868</text>
<text text-anchor="middle" x="385" y="-85.1" font-family="Helvetica,sans-Serif" font-size="8.00">type:Process</text>
</g>
<!-- n9&#45;&gt;n5 -->
<g id="edge1" class="edge"><title>n9&#45;&gt;n5</title>
<path fill="none" stroke="blue" d="M561.964,-69.1085C511.463,-76.8263 457.022,-85.1461 422.285,-90.4547"/>
<polygon fill="blue" stroke="blue" points="421.52,-87.0309 412.164,-92.0016 422.578,-93.9506 421.52,-87.0309"/>
<text text-anchor="middle" x="489" y="-106.6" font-family="Helvetica,sans-Serif" font-size="8.00">source:syscall</text>
<text text-anchor="middle" x="489" y="-97.6" font-family="Helvetica,sans-Serif" font-size="8.00">operation:rename (write)</text>
<text text-anchor="middle" x="489" y="-88.6" font-family="Helvetica,sans-Serif" font-size="8.00">type:WasGeneratedBy</text>
</g>
<!-- n8 -->
<g id="node3" class="node"><title>n8</title>
<ellipse fill="#fff68f" stroke="black" cx="109" cy="-50" rx="108.789" ry="50.8235"/>
<text text-anchor="middle" x="109" y="-70.6" font-family="Helvetica,sans-Serif" font-size="8.00">permissions:0644</text>
<text text-anchor="middle" x="109" y="-61.6" font-family="Helvetica,sans-Serif" font-size="8.00">source:syscall</text>
<text text-anchor="middle" x="109" y="-52.6" font-family="Helvetica,sans-Serif" font-size="8.00">subtype:file</text>
<text text-anchor="middle" x="109" y="-43.6" font-family="Helvetica,sans-Serif" font-size="8.00">version:0</text>
<text text-anchor="middle" x="109" y="-34.6" font-family="Helvetica,sans-Serif" font-size="8.00">epoch:0</text>
<text text-anchor="middle" x="109" y="-25.6" font-family="Helvetica,sans-Serif" font-size="8.00">path:/home/vagrant/ProvMark/stage/test.txt</text>
<text text-anchor="middle" x="109" y="-16.6" font-family="Helvetica,sans-Serif" font-size="8.00">type:Artifact</text>
</g>
<!-- n9&#45;&gt;n8 -->
<g id="edge3" class="edge"><title>n9&#45;&gt;n8</title>
<path fill="none" stroke="blue" d="M555.92,-38.2263C492.011,-33.8333 414.009,-30.4603 344,-33 305.77,-34.3869 264.095,-37.0443 226.649,-39.8533"/>
<polygon fill="blue" stroke="blue" points="225.911,-36.3993 216.206,-40.6487 226.443,-43.3791 225.911,-36.3993"/>
<text text-anchor="middle" x="385" y="-53.6" font-family="Helvetica,sans-Serif" font-size="8.00">source:syscall</text>
<text text-anchor="middle" x="385" y="-44.6" font-family="Helvetica,sans-Serif" font-size="8.00">operation:rename</text>
<text text-anchor="middle" x="385" y="-35.6" font-family="Helvetica,sans-Serif" font-size="8.00">type:WasDerivedFrom</text>
</g>
<!-- n5&#45;&gt;n8 -->
<g id="edge2" class="edge"><title>n5&#45;&gt;n8</title>
<path fill="none" stroke="blue" d="M357.728,-91.5893C326.272,-86.3084 271.553,-77.1221 221.531,-68.7241"/>
<polygon fill="blue" stroke="blue" points="222.039,-65.2605 211.597,-67.0564 220.88,-72.1639 222.039,-65.2605"/>
<text text-anchor="middle" x="281" y="-106.6" font-family="Helvetica,sans-Serif" font-size="8.00">source:syscall</text>
<text text-anchor="middle" x="281" y="-97.6" font-family="Helvetica,sans-Serif" font-size="8.00">operation:rename (read)</text>
<text text-anchor="middle" x="281" y="-88.6" font-family="Helvetica,sans-Serif" font-size="8.00">type:Used</text>
</g>
</g>
</svg>
