<?xml version="1.0" encoding="UTF-8" standalone="no"?>
<!DOCTYPE svg PUBLIC "-//W3C//DTD SVG 1.1//EN"
 "http://www.w3.org/Graphics/SVG/1.1/DTD/svg11.dtd">
<!-- Generated by graphviz version 2.30.1 (20180413.0232)
 -->
<!-- Title: clingo2dot Pages: 1 -->
<svg width="822pt" height="110pt"
 viewBox="0.00 0.00 822.00 110.00" xmlns="http://www.w3.org/2000/svg" xmlns:xlink="http://www.w3.org/1999/xlink">
<g id="graph0" class="graph" transform="scale(1 1) rotate(0) translate(4 106)">
<title>clingo2dot</title>
<polygon fill="white" stroke="white" points="-4,5 -4,-106 819,-106 819,5 -4,5"/>
<!-- n5 -->
<g id="node1" class="node"><title>n5</title>
<polygon fill="#cae1ff" stroke="black" points="412,-40 358,-40 358,-4 412,-4 412,-40"/>
<text text-anchor="middle" x="385" y="-20.1" font-family="Helvetica,sans-Serif" font-size="8.00">ppid:28171</text>
<text text-anchor="middle" x="385" y="-11.1" font-family="Helvetica,sans-Serif" font-size="8.00">type:Process</text>
</g>
<!-- n7 -->
<g id="node3" class="node"><title>n7</title>
<ellipse fill="#fff68f" stroke="black" cx="109" cy="-50" rx="108.789" ry="50.8235"/>
<text text-anchor="middle" x="109" y="-70.6" font-family="Helvetica,sans-Serif" font-size="8.00">permissions:0644</text>
<text text-anchor="middle" x="109" y="-61.6" font-family="Helvetica,sans-Serif" font-size="8.00">subtype:file</text>
<text text-anchor="middle" x="109" y="-52.6" font-family="Helvetica,sans-Serif" font-size="8.00">version:0</text>
<text text-anchor="middle" x="109" y="-43.6" font-family="Helvetica,sans-Serif" font-size="8.00">epoch:0</text>
<text text-anchor="middle" x="109" y="-34.6" font-family="Helvetica,sans-Serif" font-size="8.00">source:syscall</text>
<text text-anchor="middle" x="109" y="-25.6" font-family="Helvetica,sans-Serif" font-size="8.00">path:/home/vagrant/ProvMark/stage/test.txt</text>
<text text-anchor="middle" x="109" y="-16.6" font-family="Helvetica,sans-Serif" font-size="8.00">type:Artifact</text>
</g>
<!-- n5&#45;&gt;n7 -->
<g id="edge2" class="edge"><title>n5&#45;&gt;n7</title>
<path fill="none" stroke="blue" d="M357.982,-21.4393C328.356,-21.0937 278.549,-21.403 236,-26 230.465,-26.598 224.81,-27.308 219.11,-28.1026"/>
<polygon fill="blue" stroke="blue" points="218.202,-24.6984 208.819,-29.6181 219.222,-31.6237 218.202,-24.6984"/>
<text text-anchor="middle" x="281" y="-46.6" font-family="Helvetica,sans-Serif" font-size="8.00">operation:rename (read)</text>
<text text-anchor="middle" x="281" y="-37.6" font-family="Helvetica,sans-Serif" font-size="8.00">source:syscall</text>
<text text-anchor="middle" x="281" y="-28.6" font-family="Helvetica,sans-Serif" font-size="8.00">type:Used</text>
</g>
<!-- n8 -->
<g id="node2" class="node"><title>n8</title>
<ellipse fill="#fff68f" stroke="black" cx="683" cy="-50" rx="130.63" ry="50.8235"/>
<text text-anchor="middle" x="683" y="-70.6" font-family="Helvetica,sans-Serif" font-size="8.00">permissions:0644</text>
<text text-anchor="middle" x="683" y="-61.6" font-family="Helvetica,sans-Serif" font-size="8.00">subtype:file</text>
<text text-anchor="middle" x="683" y="-52.6" font-family="Helvetica,sans-Serif" font-size="8.00">version:0</text>
<text text-anchor="middle" x="683" y="-43.6" font-family="Helvetica,sans-Serif" font-size="8.00">epoch:0</text>
<text text-anchor="middle" x="683" y="-34.6" font-family="Helvetica,sans-Serif" font-size="8.00">source:syscall</text>
<text text-anchor="middle" x="683" y="-25.6" font-family="Helvetica,sans-Serif" font-size="8.00">path:/home/vagrant/ProvMark/stage/rename&#45;test.txt</text>
<text text-anchor="middle" x="683" y="-16.6" font-family="Helvetica,sans-Serif" font-size="8.00">type:Artifact</text>
</g>
<!-- n8&#45;&gt;n7 -->
<g id="edge1" class="edge"><title>n8&#45;&gt;n7</title>
<path fill="none" stroke="blue" d="M555.286,-60.952C548.088,-61.3629 540.955,-61.7185 534,-62 401.664,-67.3562 368.295,-68.2856 236,-62 232.548,-61.836 229.045,-61.6469 225.51,-61.4363"/>
<polygon fill="blue" stroke="blue" points="225.682,-57.9402 215.478,-60.7892 225.232,-64.9257 225.682,-57.9402"/>
<text text-anchor="middle" x="385" y="-86.6" font-family="Helvetica,sans-Serif" font-size="8.00">operation:rename</text>
<text text-anchor="middle" x="385" y="-77.6" font-family="Helvetica,sans-Serif" font-size="8.00">source:syscall</text>
<text text-anchor="middle" x="385" y="-68.6" font-family="Helvetica,sans-Serif" font-size="8.00">type:WasDerivedFrom</text>
</g>
<!-- n8&#45;&gt;n5 -->
<g id="edge3" class="edge"><title>n8&#45;&gt;n5</title>
<path fill="none" stroke="blue" d="M563.433,-29.3415C553.497,-28.0462 543.589,-26.903 534,-26 496,-22.4216 452.288,-21.6487 422.276,-21.6306"/>
<polygon fill="blue" stroke="blue" points="422.256,-18.1305 412.264,-21.6523 422.271,-25.1305 422.256,-18.1305"/>
<text text-anchor="middle" x="489" y="-46.6" font-family="Helvetica,sans-Serif" font-size="8.00">operation:rename (write)</text>
<text text-anchor="middle" x="489" y="-37.6" font-family="Helvetica,sans-Serif" font-size="8.00">source:syscall</text>
<text text-anchor="middle" x="489" y="-28.6" font-family="Helvetica,sans-Serif" font-size="8.00">type:WasGeneratedBy</text>
</g>
</g>
</svg>
