<?xml version="1.0" encoding="UTF-8" standalone="no"?>
<!DOCTYPE svg PUBLIC "-//W3C//DTD SVG 1.1//EN"
 "http://www.w3.org/Graphics/SVG/1.1/DTD/svg11.dtd">
<!-- Generated by graphviz version 2.36.0 (20140111.2315)
 -->
<!-- Title: clingo2dot Pages: 1 -->
<svg width="354pt" height="100pt"
 viewBox="0.00 0.00 354.00 100.00" xmlns="http://www.w3.org/2000/svg" xmlns:xlink="http://www.w3.org/1999/xlink">
<g id="graph0" class="graph" transform="scale(1 1) rotate(0) translate(4 202)">
<title>clingo2dot</title>
<polygon fill="white" stroke="none" points="-4,4 -4,-202 350,-202 350,4 -4,4"/>
<!-- n20 -->
<g id="node1" class="node"><title>n20</title>
<polygon fill="#cae1ff" stroke="black" points="346,-195 168,-195 168,-105 346,-105 346,-195"/>
<text text-anchor="middle" x="257" y="-179.6" font-family="Helvetica,sans-Serif" font-size="8.00">euid:1000</text>
<text text-anchor="middle" x="257" y="-170.6" font-family="Helvetica,sans-Serif" font-size="8.00">source:syscall</text>
<text text-anchor="middle" x="257" y="-161.6" font-family="Helvetica,sans-Serif" font-size="8.00">gid:0</text>
<text text-anchor="middle" x="257" y="-152.6" font-family="Helvetica,sans-Serif" font-size="8.00">cwd:/home/vagrant/ProvMark/stage</text>
<text text-anchor="middle" x="250" y="-143.6" font-family="Helvetica,sans-Serif" font-size="8.00">command line:/home/vagrant/ProvMark/stage/test</text>
<text text-anchor="middle" x="257" y="-134.6" font-family="Helvetica,sans-Serif" font-size="8.00">uid:1000</text>
<text text-anchor="middle" x="257" y="-125.6" font-family="Helvetica,sans-Serif" font-size="8.00">egid:0</text>
<text text-anchor="middle" x="257" y="-116.6" font-family="Helvetica,sans-Serif" font-size="8.00">name:test</text>
<text text-anchor="middle" x="257" y="-107.6" font-family="Helvetica,sans-Serif" font-size="8.00">type:Process</text>
</g>
<!-- n18 -->
<g id="node3" class="node"><title>n18</title>
<ellipse fill="green" stroke="black" cx="27" cy="-150" rx="27" ry="18"/>
<text text-anchor="middle" x="27" y="-148.1" font-family="Helvetica,sans-Serif" font-size="8.00">Dummy Node</text>
</g>
<!-- n20&#45;&gt;n18 -->
<g id="edge2" class="edge"><title>n20&#45;&gt;n18</title>
<path fill="none" stroke="blue" d="M167.849,-150C131.737,-150 91.9711,-150 64.1055,-150"/>
<polygon fill="blue" stroke="blue" points="64.0408,-146.5001 54.0408,-150 64.0408,-153.5001 64.0408,-146.5001"/>
<text text-anchor="middle" x="111" y="-161.6" font-family="Helvetica,sans-Serif" font-size="8.00">operation:setuid</text>
<text text-anchor="middle" x="111" y="-153.6" font-family="Helvetica,sans-Serif" font-size="8.00">type:WasTriggeredBy</text>
</g>
</g>
</svg>
