<?xml version="1.0" encoding="UTF-8" standalone="no"?>
<!DOCTYPE svg PUBLIC "-//W3C//DTD SVG 1.1//EN"
 "http://www.w3.org/Graphics/SVG/1.1/DTD/svg11.dtd">
<!-- Generated by graphviz version 2.30.1 (20180413.0232)
 -->
<!-- Title: clingo2dot Pages: 1 -->
<svg width="354pt" height="160pt"
 viewBox="0.00 0.00 354.00 160.00" xmlns="http://www.w3.org/2000/svg" xmlns:xlink="http://www.w3.org/1999/xlink">
<g id="graph0" class="graph" transform="scale(1 1) rotate(0) translate(4 156)">
<title>clingo2dot</title>
<polygon fill="white" stroke="white" points="-4,5 -4,-156 351,-156 351,5 -4,5"/>
<!-- n5 -->
<g id="node1" class="node"><title>n5</title>
<polygon fill="#cae1ff" stroke="black" points="54,-67 0,-67 0,-31 54,-31 54,-67"/>
<text text-anchor="middle" x="27" y="-47.1" font-family="Helvetica,sans-Serif" font-size="8.00">ppid:4318</text>
<text text-anchor="middle" x="27" y="-38.1" font-family="Helvetica,sans-Serif" font-size="8.00">type:Process</text>
</g>
<!-- n7 -->
<g id="node2" class="node"><title>n7</title>
<polygon fill="#cae1ff" stroke="black" points="346,-98.5 168,-98.5 168,0.5 346,0.5 346,-98.5"/>
<text text-anchor="middle" x="257" y="-83.1" font-family="Helvetica,sans-Serif" font-size="8.00">uid:1000</text>
<text text-anchor="middle" x="257" y="-74.1" font-family="Helvetica,sans-Serif" font-size="8.00">egid:0</text>
<text text-anchor="middle" x="257" y="-65.1" font-family="Helvetica,sans-Serif" font-size="8.00">cwd:/home/vagrant/ProvMark/stage</text>
<text text-anchor="middle" x="257" y="-56.1" font-family="Helvetica,sans-Serif" font-size="8.00">command line:/home/vagrant/ProvMark/stage/test</text>
<text text-anchor="middle" x="257" y="-47.1" font-family="Helvetica,sans-Serif" font-size="8.00">euid:1000</text>
<text text-anchor="middle" x="257" y="-38.1" font-family="Helvetica,sans-Serif" font-size="8.00">name:test</text>
<text text-anchor="middle" x="257" y="-29.1" font-family="Helvetica,sans-Serif" font-size="8.00">gid:0</text>
<text text-anchor="middle" x="257" y="-20.1" font-family="Helvetica,sans-Serif" font-size="8.00">source:syscall</text>
<text text-anchor="middle" x="257" y="-11.1" font-family="Helvetica,sans-Serif" font-size="8.00">ppid:4318</text>
<text text-anchor="middle" x="257" y="-2.1" font-family="Helvetica,sans-Serif" font-size="8.00">type:Process</text>
</g>
<!-- n7&#45;&gt;n7 -->
<g id="edge1" class="edge"><title>n7&#45;&gt;n7</title>
<path fill="none" stroke="blue" d="M283.413,-98.3769C280.632,-108.628 271.828,-116 257,-116 247.037,-116 239.794,-112.672 235.27,-107.379"/>
<polygon fill="blue" stroke="blue" points="238.307,-105.633 230.587,-98.3769 232.097,-108.864 238.307,-105.633"/>
<text text-anchor="middle" x="257" y="-136.6" font-family="Helvetica,sans-Serif" font-size="8.00">source:syscall</text>
<text text-anchor="middle" x="257" y="-127.6" font-family="Helvetica,sans-Serif" font-size="8.00">operation:exit</text>
<text text-anchor="middle" x="257" y="-118.6" font-family="Helvetica,sans-Serif" font-size="8.00">type:WasTriggeredBy</text>
</g>
<!-- n7&#45;&gt;n5 -->
<g id="edge2" class="edge"><title>n7&#45;&gt;n5</title>
<path fill="none" stroke="blue" d="M167.849,-49C131.737,-49 91.9711,-49 64.1055,-49"/>
<polygon fill="blue" stroke="blue" points="64.0408,-45.5001 54.0408,-49 64.0408,-52.5001 64.0408,-45.5001"/>
<text text-anchor="middle" x="111" y="-60.6" font-family="Helvetica,sans-Serif" font-size="8.00">operation:update</text>
<text text-anchor="middle" x="111" y="-51.6" font-family="Helvetica,sans-Serif" font-size="8.00">type:WasTriggeredBy</text>
</g>
</g>
</svg>
