<?xml version="1.0" encoding="UTF-8" standalone="no"?>
<!DOCTYPE svg PUBLIC "-//W3C//DTD SVG 1.1//EN"
 "http://www.w3.org/Graphics/SVG/1.1/DTD/svg11.dtd">
<!-- Generated by graphviz version 2.30.1 (20180413.0232)
 -->
<!-- Title: clingo2dot Pages: 1 -->
<svg width="796pt" height="110pt"
 viewBox="0.00 0.00 796.00 110.00" xmlns="http://www.w3.org/2000/svg" xmlns:xlink="http://www.w3.org/1999/xlink">
<g id="graph0" class="graph" transform="scale(1 1) rotate(0) translate(4 106)">
<title>clingo2dot</title>
<polygon fill="white" stroke="white" points="-4,5 -4,-106 793,-106 793,5 -4,5"/>
<!-- n8 -->
<g id="node1" class="node"><title>n8</title>
<ellipse fill="#fff68f" stroke="black" cx="658" cy="-50" rx="129.301" ry="50.8235"/>
<text text-anchor="middle" x="658" y="-70.6" font-family="Helvetica,sans-Serif" font-size="8.00">epoch:0</text>
<text text-anchor="middle" x="658" y="-61.6" font-family="Helvetica,sans-Serif" font-size="8.00">permissions:0777</text>
<text text-anchor="middle" x="658" y="-52.6" font-family="Helvetica,sans-Serif" font-size="8.00">source:syscall</text>
<text text-anchor="middle" x="658" y="-43.6" font-family="Helvetica,sans-Serif" font-size="8.00">version:0</text>
<text text-anchor="middle" x="658" y="-34.6" font-family="Helvetica,sans-Serif" font-size="8.00">path:/home/vagrant/ProvMark/stage/symlink&#45;test.txt</text>
<text text-anchor="middle" x="658" y="-25.6" font-family="Helvetica,sans-Serif" font-size="8.00">subtype:link</text>
<text text-anchor="middle" x="658" y="-16.6" font-family="Helvetica,sans-Serif" font-size="8.00">type:Artifact</text>
</g>
<!-- n7 -->
<g id="node2" class="node"><title>n7</title>
<ellipse fill="#fff68f" stroke="black" cx="109" cy="-50" rx="108.789" ry="50.8235"/>
<text text-anchor="middle" x="109" y="-70.6" font-family="Helvetica,sans-Serif" font-size="8.00">epoch:0</text>
<text text-anchor="middle" x="109" y="-61.6" font-family="Helvetica,sans-Serif" font-size="8.00">permissions:0000</text>
<text text-anchor="middle" x="109" y="-52.6" font-family="Helvetica,sans-Serif" font-size="8.00">source:syscall</text>
<text text-anchor="middle" x="109" y="-43.6" font-family="Helvetica,sans-Serif" font-size="8.00">version:0</text>
<text text-anchor="middle" x="109" y="-34.6" font-family="Helvetica,sans-Serif" font-size="8.00">path:/home/vagrant/ProvMark/stage/test.txt</text>
<text text-anchor="middle" x="109" y="-25.6" font-family="Helvetica,sans-Serif" font-size="8.00">subtype:file</text>
<text text-anchor="middle" x="109" y="-16.6" font-family="Helvetica,sans-Serif" font-size="8.00">type:Artifact</text>
</g>
<!-- n8&#45;&gt;n7 -->
<g id="edge1" class="edge"><title>n8&#45;&gt;n7</title>
<path fill="none" stroke="blue" d="M531.54,-60.9291C524.256,-61.3497 517.036,-61.7133 510,-62 388.323,-66.9582 357.641,-67.7793 236,-62 232.548,-61.836 229.045,-61.6469 225.51,-61.4363"/>
<polygon fill="blue" stroke="blue" points="225.682,-57.9402 215.478,-60.7892 225.232,-64.9257 225.682,-57.9402"/>
<text text-anchor="middle" x="369" y="-86.6" font-family="Helvetica,sans-Serif" font-size="8.00">operation:link</text>
<text text-anchor="middle" x="369" y="-77.6" font-family="Helvetica,sans-Serif" font-size="8.00">source:syscall</text>
<text text-anchor="middle" x="369" y="-68.6" font-family="Helvetica,sans-Serif" font-size="8.00">type:WasDerivedFrom</text>
</g>
<!-- n5 -->
<g id="node3" class="node"><title>n5</title>
<polygon fill="#cae1ff" stroke="black" points="396,-40 342,-40 342,-4 396,-4 396,-40"/>
<text text-anchor="middle" x="369" y="-20.1" font-family="Helvetica,sans-Serif" font-size="8.00">ppid:7727</text>
<text text-anchor="middle" x="369" y="-11.1" font-family="Helvetica,sans-Serif" font-size="8.00">type:Process</text>
</g>
<!-- n8&#45;&gt;n5 -->
<g id="edge3" class="edge"><title>n8&#45;&gt;n5</title>
<path fill="none" stroke="blue" d="M539.635,-29.4086C529.632,-28.0885 519.653,-26.9218 510,-26 474.907,-22.649 434.661,-21.8106 406.354,-21.7137"/>
<polygon fill="blue" stroke="blue" points="406.126,-18.2137 396.125,-21.7091 406.123,-25.2137 406.126,-18.2137"/>
<text text-anchor="middle" x="469" y="-46.6" font-family="Helvetica,sans-Serif" font-size="8.00">operation:link (write)</text>
<text text-anchor="middle" x="469" y="-37.6" font-family="Helvetica,sans-Serif" font-size="8.00">source:syscall</text>
<text text-anchor="middle" x="469" y="-28.6" font-family="Helvetica,sans-Serif" font-size="8.00">type:WasGeneratedBy</text>
</g>
<!-- n5&#45;&gt;n7 -->
<g id="edge2" class="edge"><title>n5&#45;&gt;n7</title>
<path fill="none" stroke="blue" d="M341.618,-21.5781C314.911,-21.4375 272.465,-22 236,-26 230.466,-26.607 224.811,-27.3244 219.112,-28.1247"/>
<polygon fill="blue" stroke="blue" points="218.202,-24.7214 208.822,-29.6491 219.227,-31.6458 218.202,-24.7214"/>
<text text-anchor="middle" x="273" y="-46.6" font-family="Helvetica,sans-Serif" font-size="8.00">operation:link (read)</text>
<text text-anchor="middle" x="273" y="-37.6" font-family="Helvetica,sans-Serif" font-size="8.00">source:syscall</text>
<text text-anchor="middle" x="273" y="-28.6" font-family="Helvetica,sans-Serif" font-size="8.00">type:Used</text>
</g>
</g>
</svg>
