<?xml version="1.0" encoding="UTF-8" standalone="no"?>
<!DOCTYPE svg PUBLIC "-//W3C//DTD SVG 1.1//EN"
 "http://www.w3.org/Graphics/SVG/1.1/DTD/svg11.dtd">
<!-- Generated by graphviz version 2.30.1 (20180413.0232)
 -->
<!-- Title: clingo2dot Pages: 1 -->
<svg width="578pt" height="160pt"
 viewBox="0.00 0.00 578.00 160.18" xmlns="http://www.w3.org/2000/svg" xmlns:xlink="http://www.w3.org/1999/xlink">
<g id="graph0" class="graph" transform="scale(1 1) rotate(0) translate(4 156.183)">
<title>clingo2dot</title>
<polygon fill="white" stroke="white" points="-4,5 -4,-156.183 575,-156.183 575,5 -4,5"/>
<!-- n7 -->
<g id="node1" class="node"><title>n7</title>
<ellipse fill="#fff68f" stroke="black" cx="281" cy="-102.183" rx="108.789" ry="50.8235"/>
<text text-anchor="middle" x="281" y="-122.783" font-family="Helvetica,sans-Serif" font-size="8.00">permissions:0644</text>
<text text-anchor="middle" x="281" y="-113.783" font-family="Helvetica,sans-Serif" font-size="8.00">epoch:0</text>
<text text-anchor="middle" x="281" y="-104.783" font-family="Helvetica,sans-Serif" font-size="8.00">source:syscall</text>
<text text-anchor="middle" x="281" y="-95.7829" font-family="Helvetica,sans-Serif" font-size="8.00">path:/home/vagrant/ProvMark/stage/test.txt</text>
<text text-anchor="middle" x="281" y="-86.7829" font-family="Helvetica,sans-Serif" font-size="8.00">subtype:file</text>
<text text-anchor="middle" x="281" y="-77.7829" font-family="Helvetica,sans-Serif" font-size="8.00">version:0</text>
<text text-anchor="middle" x="281" y="-68.7829" font-family="Helvetica,sans-Serif" font-size="8.00">type:Artifact</text>
</g>
<!-- n5 -->
<g id="node3" class="node"><title>n5</title>
<polygon fill="#cae1ff" stroke="black" points="54,-49.1829 0,-49.1829 0,-13.1829 54,-13.1829 54,-49.1829"/>
<text text-anchor="middle" x="27" y="-29.2829" font-family="Helvetica,sans-Serif" font-size="8.00">ppid:17569</text>
<text text-anchor="middle" x="27" y="-20.2829" font-family="Helvetica,sans-Serif" font-size="8.00">type:Process</text>
</g>
<!-- n7&#45;&gt;n5 -->
<g id="edge1" class="edge"><title>n7&#45;&gt;n5</title>
<path fill="none" stroke="blue" d="M187.595,-76.1483C144.626,-64.0419 96.034,-50.3512 63.8753,-41.2906"/>
<polygon fill="blue" stroke="blue" points="64.614,-37.8626 54.0395,-38.5195 62.7156,-44.6002 64.614,-37.8626"/>
<text text-anchor="middle" x="113" y="-95.7829" font-family="Helvetica,sans-Serif" font-size="8.00">source:syscall</text>
<text text-anchor="middle" x="113" y="-86.7829" font-family="Helvetica,sans-Serif" font-size="8.00">operation:open</text>
<text text-anchor="middle" x="113" y="-77.7829" font-family="Helvetica,sans-Serif" font-size="8.00">flags:O_RDWR</text>
<text text-anchor="middle" x="113" y="-68.7829" font-family="Helvetica,sans-Serif" font-size="8.00">type:WasGeneratedBy</text>
</g>
<!-- n8 -->
<g id="node2" class="node"><title>n8</title>
<ellipse fill="#fff68f" stroke="black" cx="539" cy="-31.1829" rx="30.3115" ry="19.1842"/>
<text text-anchor="middle" x="539" y="-29.2829" font-family="Helvetica,sans-Serif" font-size="8.00">version:1</text>
<text text-anchor="middle" x="539" y="-20.2829" font-family="Helvetica,sans-Serif" font-size="8.00">type:Artifact</text>
</g>
<!-- n8&#45;&gt;n7 -->
<g id="edge2" class="edge"><title>n8&#45;&gt;n7</title>
<path fill="none" stroke="blue" d="M510.604,-38.7812C480.438,-47.1474 430.135,-61.0987 384.384,-73.7874"/>
<polygon fill="blue" stroke="blue" points="383.4,-70.4281 374.699,-76.4734 385.271,-77.1735 383.4,-70.4281"/>
<text text-anchor="middle" x="449" y="-86.7829" font-family="Helvetica,sans-Serif" font-size="8.00">source:syscall</text>
<text text-anchor="middle" x="449" y="-77.7829" font-family="Helvetica,sans-Serif" font-size="8.00">operation:update</text>
<text text-anchor="middle" x="449" y="-68.7829" font-family="Helvetica,sans-Serif" font-size="8.00">type:WasDerivedFrom</text>
</g>
<!-- n8&#45;&gt;n5 -->
<g id="edge3" class="edge"><title>n8&#45;&gt;n5</title>
<path fill="none" stroke="blue" d="M510.08,-25.0305C480.457,-18.8411 432.197,-9.72178 390,-6.18292 293.45,1.91428 268.531,2.13432 172,-6.18292 134.962,-9.37412 93.1544,-17.1008 64.1669,-23.1264"/>
<polygon fill="blue" stroke="blue" points="63.1581,-19.7624 54.0999,-25.2579 64.6081,-26.6106 63.1581,-19.7624"/>
<text text-anchor="middle" x="281" y="-26.7829" font-family="Helvetica,sans-Serif" font-size="8.00">size:1</text>
<text text-anchor="middle" x="281" y="-17.7829" font-family="Helvetica,sans-Serif" font-size="8.00">operation:write</text>
<text text-anchor="middle" x="281" y="-8.78292" font-family="Helvetica,sans-Serif" font-size="8.00">type:WasGeneratedBy</text>
</g>
</g>
</svg>
