<?xml version="1.0" encoding="UTF-8" standalone="no"?>
<!DOCTYPE svg PUBLIC "-//W3C//DTD SVG 1.1//EN"
 "http://www.w3.org/Graphics/SVG/1.1/DTD/svg11.dtd">
<!-- Generated by graphviz version 2.36.0 (20140111.2315)
 -->
<!-- Title: clingo2dot Pages: 1 -->
<svg width="578pt" height="197pt"
 viewBox="0.00 0.00 578.00 197.00" xmlns="http://www.w3.org/2000/svg" xmlns:xlink="http://www.w3.org/1999/xlink">
<g id="graph0" class="graph" transform="scale(1 1) rotate(0) translate(4 193)">
<title>clingo2dot</title>
<polygon fill="white" stroke="none" points="-4,4 -4,-193 574,-193 574,4 -4,4"/>
<!-- n21 -->
<g id="node1" class="node"><title>n21</title>
<ellipse fill="#fff68f" stroke="black" cx="539" cy="-102" rx="30.3115" ry="19.1842"/>
<text text-anchor="middle" x="539" y="-100.1" font-family="Helvetica,sans-Serif" font-size="8.00">version:1</text>
<text text-anchor="middle" x="539" y="-91.1" font-family="Helvetica,sans-Serif" font-size="8.00">type:Artifact</text>
</g>
<!-- n18 -->
<g id="node2" class="node"><title>n18</title>
<ellipse fill="green" stroke="black" cx="27" cy="-100" rx="27" ry="18"/>
<text text-anchor="middle" x="27" y="-98.1" font-family="Helvetica,sans-Serif" font-size="8.00">Dummy Node</text>
</g>
<!-- n21&#45;&gt;n18 -->
<g id="edge1" class="edge"><title>n21&#45;&gt;n18</title>
<path fill="none" stroke="blue" d="M515.204,-114.26C507.434,-117.812 498.547,-121.212 490,-123 308.158,-161.037 252.416,-167.31 72,-123 66.559,-121.664 61.0444,-119.523 55.8443,-117.073"/>
<polygon fill="blue" stroke="blue" points="57.3959,-113.935 46.9077,-112.435 54.1714,-120.148 57.3959,-113.935"/>
<text text-anchor="middle" x="281" y="-173.6" font-family="Helvetica,sans-Serif" font-size="8.00">size:1</text>
<text text-anchor="middle" x="281" y="-164.6" font-family="Helvetica,sans-Serif" font-size="8.00">operation:write</text>
<text text-anchor="middle" x="281" y="-155.6" font-family="Helvetica,sans-Serif" font-size="8.00">type:WasGeneratedBy</text>
</g>
<!-- n20 -->
<g id="node3" class="node"><title>n20</title>
<ellipse fill="#fff68f" stroke="black" cx="281" cy="-50" rx="108.789" ry="50.8235"/>
<text text-anchor="middle" x="281" y="-70.6" font-family="Helvetica,sans-Serif" font-size="8.00">version:0</text>
<text text-anchor="middle" x="281" y="-61.6" font-family="Helvetica,sans-Serif" font-size="8.00">source:syscall</text>
<text text-anchor="middle" x="281" y="-52.6" font-family="Helvetica,sans-Serif" font-size="8.00">path:/home/vagrant/ProvMark/stage/test.txt</text>
<text text-anchor="middle" x="281" y="-43.6" font-family="Helvetica,sans-Serif" font-size="8.00">subtype:file</text>
<text text-anchor="middle" x="281" y="-34.6" font-family="Helvetica,sans-Serif" font-size="8.00">permissions:0644</text>
<text text-anchor="middle" x="281" y="-25.6" font-family="Helvetica,sans-Serif" font-size="8.00">epoch:0</text>
<text text-anchor="middle" x="281" y="-16.6" font-family="Helvetica,sans-Serif" font-size="8.00">type:Artifact</text>
</g>
<!-- n21&#45;&gt;n20 -->
<g id="edge2" class="edge"><title>n21&#45;&gt;n20</title>
<path fill="none" stroke="blue" d="M512.011,-93.2189C504.923,-91.0051 497.209,-88.7602 490,-87 459.295,-79.5034 425.693,-72.8613 394.624,-67.3478"/>
<polygon fill="blue" stroke="blue" points="395.086,-63.8756 384.632,-65.5977 393.878,-70.7706 395.086,-63.8756"/>
<text text-anchor="middle" x="449" y="-107.6" font-family="Helvetica,sans-Serif" font-size="8.00">source:syscall</text>
<text text-anchor="middle" x="449" y="-98.6" font-family="Helvetica,sans-Serif" font-size="8.00">operation:update</text>
<text text-anchor="middle" x="449" y="-89.6" font-family="Helvetica,sans-Serif" font-size="8.00">type:WasDerivedFrom</text>
</g>
<!-- n20&#45;&gt;n18 -->
<g id="edge3" class="edge"><title>n20&#45;&gt;n18</title>
<path fill="none" stroke="blue" d="M173.261,-57.5366C140.301,-61.674 104.211,-68.0807 72,-78 67.0261,-79.5317 61.927,-81.5807 57.0442,-83.814"/>
<polygon fill="blue" stroke="blue" points="55.4453,-80.6999 48.0107,-88.2483 58.5298,-86.9837 55.4453,-80.6999"/>
<text text-anchor="middle" x="113" y="-107.6" font-family="Helvetica,sans-Serif" font-size="8.00">source:syscall</text>
<text text-anchor="middle" x="113" y="-98.6" font-family="Helvetica,sans-Serif" font-size="8.00">flags:O_RDWR</text>
<text text-anchor="middle" x="113" y="-89.6" font-family="Helvetica,sans-Serif" font-size="8.00">operation:open</text>
<text text-anchor="middle" x="113" y="-80.6" font-family="Helvetica,sans-Serif" font-size="8.00">type:WasGeneratedBy</text>
</g>
</g>
</svg>
